<?xml version="1.0" encoding="UTF-8"?>
<svg id="Layer_2" data-name="Layer 2" xmlns="http://www.w3.org/2000/svg" viewBox="0 0 758.29 836.25">
  <defs>
    <style>
      .cls-1 {
        fill: #e89176;
      }

      .cls-2 {
        fill: #f7991c;
      }

      .cls-3 {
        fill: #fdc6a2;
      }

      .cls-4 {
        fill: #ef941d;
      }

      .cls-5 {
        fill: #fff;
      }

      .cls-6 {
        fill: #ffdaa9;
      }

      .cls-7 {
        fill: #ef4625;
      }

      .cls-8 {
        fill: #ffbb59;
      }

      .cls-9 {
        fill: #9c8da0;
      }

      .cls-10, .cls-11 {
        fill: #8f90fd;
      }

      .cls-12 {
        fill: #b9cbde;
      }

      .cls-13 {
        fill: #a4a4f6;
      }

      .cls-14 {
        fill: #cc1a02;
      }

      .cls-15 {
        fill: #dbcdd3;
      }

      .cls-16 {
        fill: #d3d6fe;
      }

      .cls-17 {
        fill: #dd8007;
      }

      .cls-18 {
        fill: #453f47;
      }

      .cls-19 {
        fill: #191818;
      }

      .cls-20 {
        fill: #6f6372;
      }

      .cls-21 {
        fill: #63456b;
      }

      .cls-22 {
        fill: #4c55fc;
      }

      .cls-23 {
        fill: #7488a3;
      }

      .cls-24 {
        fill: #7171d8;
      }

      .cls-11 {
        isolation: isolate;
        opacity: .22;
      }

      .cls-25 {
        opacity: .31;
      }
    </style>
  </defs>
  <g id="Layer_2-2" data-name="Layer 2">
    <g id="Layer_1-2" data-name="Layer 1-2">
      <g>
        <polygon class="cls-7" points="743.42 665.49 716.77 640.22 689.95 665.49 689.95 556.87 743.42 556.87 743.42 665.49"/>
        <path class="cls-14" d="M691.04,611.24c15.47,9.81,35.48,9.83,50.81-.3,4.33-2.87,.27-9.91-4.09-7.02-13.03,8.64-29.44,8.64-42.61,.3-4.44-2.82-8.51,4.23-4.09,7.02h-.03Z"/>
        <path class="cls-19" d="M690.9,624.7v-67.82l-.98,.98h53.47l-.98-.98v108.59l1.65-.68c-8.88-8.42-17.74-16.85-26.63-25.27-.38-.38-.98-.38-1.38,0-8.94,8.42-17.9,16.85-26.84,25.27l1.65,.68v-33.02c0-1.25-1.95-1.25-1.95,0v33.02c0,.87,1.06,1.25,1.65,.68,8.94-8.42,17.9-16.85,26.84-25.27h-1.38c8.88,8.42,17.74,16.85,26.63,25.27,.6,.57,1.65,.16,1.65-.68v-108.59c0-.51-.43-.98-.98-.98h-53.47c-.51,0-.98,.43-.98,.98v67.82c0,1.25,1.95,1.25,1.95,0h.05Z"/>
        <path class="cls-15" d="M377.03,295.39c-8.8,3.95-7.56,16.82-5.12,24.3,3.58,10.92,7.99,22.02,2.71,33.15-2.03,4.28-4.28,8.4-4.66,13.19s1.49,9.26,4.36,13c6.93,8.99,17.39,11.32,28.25,10.83,5.2-.24,5.23-8.37,0-8.13-8.75,.41-17.69-.92-22.75-8.88-4.74-7.48,1.95-14.6,4.17-21.75,2.79-8.97,.68-18.39-2.11-27.06-1.35-4.23-3.39-8.51-3.52-13-.11-3.09-.57-7.18,2.74-8.67,4.77-2.14,.62-9.16-4.09-7.02h0l.03,.03Z"/>
        <path class="cls-20" d="M348.8,361.23c1.57,9.64,5.66,20.72,12.24,28.17s15.03,12.76,23.46,17.58c-5.39-18.34-16.96-33.45-32.37-45.37-.49-.38-2.57-1.38-2.55-.76"/>
        <path class="cls-18" d="M346.31,365.1c1.35,9.16,6.53,17.09,12.11,24.24s12.76,13.27,20.1,18.72c1.76,1.3,4.52,.3,5.55-1.46,1.22-2.06,.3-4.25-1.46-5.55-6.58-4.88-12.97-10.46-18.04-16.93s-9.24-13.19-10.43-21.18c-.33-2.17-3.06-3.36-5.01-2.84-2.33,.65-3.17,2.82-2.84,5.01h.03Z"/>
        <path class="cls-13" d="M142.33,137.53c-34.7-3.74-47.64-5.72-82.34-9.43-8.18-.87-17.2-1.54-23.92,3.22-6.91,4.93-9.1,14.08-10.78,22.4-1.08,5.44-2.19,10.86-3.28,16.31-7.48,37.11-12.97,80.72-19.15,117.15-1.19,7.12-2.14,13.71-1.84,20.91s2.3,10.7,7.26,15.93c6.47,6.85,16.41,8.94,25.68,10.56,22.86,4.01,38.11,7.42,64.11,10.89"/>
        <path class="cls-24" d="M29.11,174.18c1.14-6.15,2.52-12.27,4.09-18.31,1.35-5.23,2.28-11.97,5.88-16.22,3.3-3.9,8.78-5.07,13.65-5.09,6.53-.03,13.06,1.35,19.47,2.33,2.17,.33,4.36-.54,5.01-2.84,.51-1.92-.65-4.66-2.84-5.01-12.95-1.92-29.25-6.28-40.03,3.82-4.96,4.66-6.5,11.65-8.21,17.96-1.9,7.02-3.52,14.06-4.85,21.21-.41,2.17,.6,4.39,2.84,5.01,1.98,.54,4.6-.68,5.01-2.84h-.03Z"/>
        <path class="cls-24" d="M67.79,216c-3.63,21.51-6.85,43.09-9.59,64.76-1.33,10.67-2.55,21.34-3.6,32.04-.87,8.67-1.79,17.47,4.04,24.68,3.28,4.06,8.99-1.71,5.74-5.74-2.36-2.93-2.46-7.02-2.36-10.62,.16-4.47,.73-8.94,1.19-13.41,1.03-9.86,2.17-19.72,3.44-29.55,2.57-20.07,5.58-40.06,8.97-60.02,.87-5.12-6.96-7.31-7.83-2.17h0v.03Z"/>
        <path class="cls-24" d="M9.66,249.64c-2.65,14.11-5.39,28.28-7.37,42.53-1.08,7.94-1.63,16.5,1.11,24.16,3.85,10.7,13.27,14.55,23.62,17.01,14.36,3.41,28.98,5.39,43.47,8.21,5.12,.98,7.29-6.85,2.17-7.83-11.7-2.28-23.54-3.98-35.21-6.39-8.8-1.79-21.67-2.98-25.84-12.3-2.9-6.45-2.33-14.41-1.38-21.26s2.25-14.17,3.49-21.21c1.25-7.04,2.49-13.81,3.79-20.72,.95-5.12-6.88-7.31-7.83-2.17h0l-.03-.03Z"/>
        <path class="cls-12" d="M198.56,144.14c-1.54-14.38-12.89-83.75-15.14-104.52l-.62-5.61c-1.38-12.68-2.68-24.54-3.63-33.45,2.79-.19,5.58,.05,8.29,.76,.7,.19,1.44,.41,1.95,.95,.6,.62,.76,1.54,.92,2.38,3.93,23.54,19.61,118.07,23.54,141.61"/>
        <path class="cls-12" d="M234.42,150.04c10.32-22.51,38.92-79.04,49.22-101.55-2.57-1.06-5.31-1.71-8.1-1.92-.73-.05-1.49-.05-2.14,.27-.76,.41-1.22,1.22-1.63,1.98-11.19,21.1-41.47,77.63-52.66,98.73"/>
        <path class="cls-16" d="M106.71,346.04c-13.57-2.87-33.42-3.36-40.28-12.65-4.58-6.18-3.98-14.63-3.17-22.26,4.06-38.41,10.89-84.7,18.53-125.6l1.14-6.5c3.01-15.9,5.2-33.13,19.72-40.25,8.61-4.23,18.72-3.66,28.28-2.87,63.98,5.2,128.06,18.01,191.44,28.14,6.09,.98,12.46,2.06,17.36,5.8,9.64,7.34,9.94,21.51,8.97,33.59-3.6,44.42-12.57,88.19-21.48,131.85-2.6,12.78-5.99,26.76-16.55,34.37-11.21,8.07-26.54,6.15-40.17,3.87-51.95-8.72-103.9-17.42-155.83-26.14l-7.94-1.33-.03-.03Z"/>
        <path class="cls-20" d="M128.84,174.93c1.71-8.56,2.33-16.85,10.81-18.99,2.71-.68,5.53-.38,8.29-.08,54.42,6.2,110.84,14.03,164.74,23.75,3.71,.68,7.56,1.41,10.56,3.66,6.5,4.9,6.69,14.57,5.53,22.62-5.44,37.13-10.54,62.11-17.23,99l-5.55,26.35c-1.3,4.79-3.28,12.49-8.02,14-1.81,.57-3.79,.35-5.69,.14-55.28-6.47-109.1-14.57-163.84-24.59-7.53-1.38-17.66-3.95-20.77-10.97-1.65-3.71-.62-8.83-.24-12.87,1.16-12.57,1.65-15.82,4.33-29.58l6.74-37.6c1.27-6.26,1.14-6.12,2.03-11.21l8.29-43.64h.03Z"/>
        <path class="cls-3" d="M485.4,388.07c-2.06,48.89-5.53,99.05-7.61,147.94-.27,6.45,.24,13.92,1.95,20.18s6.28,13.6,12.3,15.95,14.55-.57,17.04-6.53c1.95-4.63,1.76-13.27,.7-18.17-6.34-29.5,5.9-58.7,10.35-88.57,3.01-20.26,1.46-41.17-4.44-60.75"/>
        <path class="cls-1" d="M484.51,404.22c6.69,6.23,15.68,11.24,25.03,11.43,2.22,.05,3.36-3.39,1.19-4.39-5.9-2.74-11.65-6.07-18.07-7.56-2.95-.68-4.23,3.87-1.25,4.55,6.04,1.38,11.38,4.5,16.93,7.07l1.19-4.39c-8.07-.16-15.93-4.69-21.7-10.05-2.22-2.06-5.55,1.27-3.33,3.33h0Z"/>
        <path class="cls-10" d="M541.76,313.72c-27.93,10.89-59.91,40.06-66.41,74.41-.43,2.33,2.25,4.6,3.55,6.64,1.03,1.6,2.22,2.65,3.98,3.44,6.8,3.06,11.08,6.2,17.88,9.26,2.71,1.22,5.55,2.46,8.53,2.19,3.98-.35,7.15-3.36,9.45-6.53,4.71-6.47,7.2-14.25,9.07-21.97,2.79-11.54,4.42-23.35,4.79-35.21"/>
        <path class="cls-8" d="M493.06,778.17c-14.98,9.45-26.3,24.54-31.18,41.55-.35,1.19-.65,2.46-.24,3.63,.49,1.38,1.87,2.25,3.2,2.9,6.28,3.11,13.43,4.04,20.45,4.36,23.05,1,46.37-4.44,66.58-15.55,1-.57,2.06-1.19,2.6-2.19,.51-.98,.33-2.11,.38-3.2,.79-14.6-3.39-18.2-12.05-28.79"/>
        <path class="cls-2" d="M491.25,785.99c13.73,12.78,36.08,10.62,51.79,3.09,3.01-1.44,.38-5.88-2.6-4.44-13.52,6.47-33.67,8.8-45.56-2.28-2.44-2.28-6.09,1.38-3.66,3.66h0l.03-.03Z"/>
        <path class="cls-20" d="M522.02,553.35l-7.2,60.24-7.18,145.4s-1.57,5.17-2.03,5.74c-.98,1.19-2.79,1.11-4.31,1.41-4.74,.84-7.77,6.23-6.99,11,.79,4.74,4.6,8.59,9.02,10.48s9.37,2.17,14.17,2.03c6.2-.19,14.08,.84,19.2-2.68,2.25-1.54,5.25-4.66,5.31-7.39,.03-2.14-1.08-5.63-1.92-7.61-.95-2.25-1.54,3.11-2.06,.76-1.06-4.96,15.47-104.42,16.52-109.45,7.77-37.62,9.45-69.23,27.95-104.09-1.81-.08-.98-.89-2.82-.98"/>
        <path class="cls-9" d="M518.53,596.66c-1.11,14.98-2.25,29.98-3.36,44.96l-.49,6.47c-.22,3.03,4.5,3.01,4.71,0l3.36-44.96,.49-6.47c.22-3.03-4.5-3.01-4.71,0h0Z"/>
        <path class="cls-19" d="M492.58,777.33c-10.97,7.04-20.04,16.82-26.11,28.41-1.33,2.55-2.49,5.15-3.52,7.8s-2.63,5.96-2.41,8.88c.41,5.8,10.86,7.48,15.17,8.21,14.27,2.44,29.58,1.03,43.64-2.17,7.26-1.65,14.36-3.95,21.24-6.85,3.3-1.38,6.53-2.93,9.72-4.58,2.25-1.19,4.82-2.22,5.44-4.93,1.19-5.17,1-12.05-.81-17.09-2.17-5.99-6.83-10.64-11.4-14.84-.92-.84-2.28,.51-1.38,1.38,3.85,3.55,7.8,7.37,10.1,12.16,1.92,4.01,2.28,8.34,1.98,12.73-.24,3.44-.54,6.55-3.87,8.37-2.79,1.52-5.66,2.9-8.59,4.2-6.12,2.71-12.43,4.9-18.91,6.61-12.22,3.22-24.95,4.63-37.57,4.06-6.64-.3-13.98-1-19.96-4.23-2.44-1.3-3.09-2.55-2.36-5.96,.24-1.16,.73-2.33,1.11-3.47,1.06-3.03,2.36-5.99,3.82-8.83,5.9-11.48,14.79-21.21,25.65-28.17,1.06-.68,.08-2.36-.98-1.68h0v-.03Z"/>
        <path class="cls-21" d="M556.04,654.55c1.06-9.72,2.63-19.39,4.47-28.98,3.17-16.47,6.91-33.69,14.82-48.62,1.54-2.93-2.9-5.55-4.44-2.6-8.13,15.36-12.08,32.94-15.33,49.87-1.92,10.05-3.58,20.18-4.66,30.36-.35,3.3,4.79,3.28,5.15,0h0v-.03Z"/>
        <path class="cls-19" d="M538.79,774.24c5.42-25.24,8.29-51.03,11.84-76.57,4.04-29.09,8.13-58.32,14.95-86.89,3.09-12.97,6.72-26.03,12.41-38.14,.51-1.11-1.14-2.11-1.68-.98-10.86,23.08-15.44,49.22-19.75,74.13-5.09,29.39-8.69,58.97-12.95,88.46-1.9,13.19-3.87,26.41-6.66,39.46-.27,1.22,1.6,1.73,1.87,.51h-.03Z"/>
        <path class="cls-21" d="M496.18,779.71c3.28,8.04,12.89,9.62,20.64,9.83,4.74,.14,9.53-.41,14.11-1.57,3.98-1,8.4-2.17,10.02-6.34,1.22-3.09-3.76-4.44-4.98-1.38-.43,1.08-2.3,1.52-3.25,1.84-1.63,.54-3.28,.98-4.96,1.33-3.6,.76-7.29,1.06-10.97,.95-4.85-.14-13.46-.65-15.66-6.04-.51-1.3-1.71-2.19-3.17-1.81-1.22,.33-2.33,1.9-1.81,3.17h0l.03,.03Z"/>
        <path class="cls-19" d="M516.98,791.33c4.14,.14,8.29-.19,12.41-.79,3.52-.51,7.15-1.35,10.02-3.58,2.38-1.84,4.2-4.55,4.31-7.64,.14-3.39-1.84-6.31-4.09-8.67-.87-.89-2.25,.46-1.38,1.38,1.98,2.06,3.82,4.66,3.49,7.67-.3,2.84-2.41,5.2-4.79,6.58-2.76,1.6-6.04,2.14-9.18,2.55-3.58,.46-7.18,.68-10.78,.57-1.25-.03-1.25,1.9,0,1.95h0v-.03Z"/>
        <path class="cls-19" d="M505.93,764.76c-6.2,1-13.71,6.74-12.76,13.76,.46,3.47,3.41,5.99,6.15,7.83,3.06,2.06,6.61,3.36,10.21,4.12,1.22,.27,1.73-1.6,.51-1.87-3.01-.65-5.93-1.63-8.59-3.22-2.46-1.46-5.58-3.66-6.28-6.64s1.22-6.12,3.28-8.15c2.19-2.14,4.98-3.49,7.99-3.98,1.22-.19,.7-2.06-.51-1.87h0v.03Z"/>
        <path class="cls-5" d="M474.16,817.36c1.08-2.17,2.28-4.25,3.6-6.23,.65-.98,1.35-1.95,2.09-2.87-.14,.19-.16,.22,0,0,.08-.11,.19-.22,.27-.33,.19-.22,.35-.43,.54-.68,.41-.49,.84-.98,1.27-1.46,.89-1,1.06-2.65,0-3.66-.98-.89-2.68-1.08-3.66,0-3.39,3.82-6.28,8.04-8.56,12.62-.6,1.22-.35,2.84,.92,3.52,1.16,.62,2.9,.35,3.52-.92h0Z"/>
        <path class="cls-5" d="M487.84,798.21c3.33,0,3.33-5.15,0-5.15s-3.33,5.15,0,5.15h0Z"/>
        <path class="cls-19" d="M507.85,769.53c1.73-25.84,2.84-51.71,4.25-77.57,1.71-31.39,3.44-62.81,6.07-94.15,1.08-12.81,2.19-25.68,4.25-38.38,.19-1.22-1.68-1.73-1.87-.51-4.12,25.43-5.44,51.41-7.1,77.06-2.06,31.66-3.66,63.38-5.34,95.07-.68,12.84-1.33,25.68-2.19,38.49-.08,1.25,1.84,1.25,1.95,0h-.03Z"/>
        <path class="cls-8" d="M647.67,782.42c15.95,7.64,28.95,21.32,35.78,37.65,.49,1.14,.92,2.38,.65,3.58-.33,1.44-1.6,2.46-2.84,3.25-5.9,3.82-12.87,5.58-19.8,6.69-22.78,3.68-46.56,.98-67.93-7.72-1.06-.43-2.19-.92-2.84-1.9-.62-.89-.84-2.06-.76-3.14,.84-11.65,2.46-18.01,8.64-30.01"/>
        <path class="cls-2" d="M646.53,786.54c-11.32,13.33-30.8,11.76-45.69,6.58-3.14-1.08-4.5,3.9-1.38,4.98,9.29,3.22,19.1,5.12,28.93,3.47,8.21-1.38,16.33-4.93,21.8-11.4,2.14-2.52-1.49-6.18-3.66-3.66h0v.03Z"/>
        <path class="cls-19" d="M647.18,783.23c9.62,4.71,18.15,11.4,24.89,19.72,3.44,4.25,6.42,8.88,8.8,13.79,.57,1.19,1.38,2.49,1.68,3.79,.68,2.82-.43,4.71-2.79,6.15-2.74,1.68-5.77,2.87-8.86,3.82-11.7,3.55-24.57,4.23-36.7,3.52s-24.38-3.17-35.92-7.34c-1.52-.54-4.31-1.16-5.5-2.19-1.9-1.63-1.92-4.14-1.71-6.45,.27-3.06,.68-6.09,1.35-9.07,1.41-6.2,4.04-12,6.91-17.63,.57-1.11-1.11-2.09-1.68-.98-2.87,5.66-5.53,11.43-6.99,17.63-.62,2.6-1.03,5.25-1.33,7.94s-1.19,6.18,.43,8.56c1.25,1.81,3.74,2.49,5.69,3.22,3.6,1.38,7.23,2.6,10.94,3.63,6.91,1.95,13.98,3.3,21.1,4.09,14.03,1.52,29.09,1.11,42.74-2.71,4.31-1.22,12.35-3.41,14.41-7.96,1.06-2.38-.3-4.9-1.3-7.07-1.3-2.84-2.76-5.61-4.42-8.26-7.45-11.97-18.23-21.67-30.88-27.84-1.11-.54-2.09,1.14-.98,1.68h0l.08-.03Z"/>
        <path class="cls-20" d="M629.74,539.29c5.09,50.54,7.96,184.51,8.61,235.3l.81-7.67c4.82,.57,10.27,2.33,12.05,6.88,1.16,3.01,.3,6.53-1.6,9.16s-4.69,4.44-7.53,5.93c-11.13,5.8-24.57,7.04-36.57,3.39-2.57-.79-5.12-1.79-7.15-3.55s-3.49-4.31-3.39-6.99c.14-2.68,1.81-5.07,3.93-6.69s4.66-2.6,7.15-3.58l-.73,7.85c-3.2-29.85-8.34-98.32-16.25-151.3-3.2-21.51-7.2-59.48-7.2-59.48"/>
        <path class="cls-21" d="M627.41,568.41c2.38,25.05,2.93,50.33,3.6,75.46,.79,30.07,1.19,60.16,1.33,90.25,.05,12.59,.08,25.22-.05,37.81-.03,3.33,5.12,3.33,5.15,0,.27-25.19,.03-50.41-.3-75.6-.38-30.07-.98-60.16-2.25-90.2-.54-12.57-1.14-25.16-2.33-37.7-.33-3.28-5.47-3.3-5.15,0h0v-.03Z"/>
        <path class="cls-19" d="M628.87,540.32c2.9,29.04,3.85,58.32,4.93,87.49,1.27,34.62,2.19,69.23,2.9,103.87,.3,14.65,.57,29.31,.76,43.96,0,1.25,1.95,1.25,1.95,0-.38-29.23-1-58.45-1.79-87.65-.92-34.62-2-69.23-3.79-103.82-.76-14.63-1.57-29.25-3.03-43.83-.14-1.22-2.06-1.25-1.95,0h0l.03-.03Z"/>
        <path class="cls-19" d="M589.19,635.23c1.44,13.95,2.87,27.87,4.31,41.82,2.55,24.81,5.12,49.59,7.69,74.41,.95,9.18,1.9,18.39,2.87,27.57,.14,1.22,2.06,1.25,1.95,0-2.09-19.61-4.09-39.25-6.12-58.86-2.41-23.24-4.79-46.45-7.18-69.69-.51-5.07-1.06-10.16-1.57-15.22-.14-1.22-2.06-1.25-1.95,0h0v-.03Z"/>
        <path class="cls-19" d="M580.52,570.34c2.11,15.49,4.2,30.96,6.31,46.45l.89,6.58c.16,1.22,2.03,.7,1.87-.51-2.11-15.49-4.2-30.96-6.31-46.45l-.89-6.58c-.16-1.22-2.03-.7-1.87,.51h0Z"/>
        <path class="cls-19" d="M601.9,773.21c-5.77,2.84-10.37,8.83-6.12,15.06,3.95,5.8,12.81,7.26,19.26,7.85,8.1,.76,16.36-.51,23.86-3.63,6.04-2.52,13.11-6.55,13.81-13.81,.76-7.77-7.15-10.86-13.49-11.7-1.22-.16-1.22,1.79,0,1.95,3.33,.43,7.1,1.33,9.53,3.82,3.25,3.33,2.22,8.32-.6,11.57-4.71,5.44-13.11,8.07-19.94,9.32-7.39,1.35-15.2,.95-22.4-1.25-3.79-1.16-8.18-3.11-9.51-7.23-1.57-4.88,2.68-8.34,6.55-10.27,1.11-.54,.14-2.22-.98-1.68h0Z"/>
        <path class="cls-20" d="M507.96,501.56c-10.27,23.89-.24,52.57,25.08,68.2,25.33,15.63,64.44,16.25,89.71,.6,5.39-3.33,10.1-7.29,14.33-11.51,11.62-11.59,18.04-24.89,16.36-39.55"/>
        <path class="cls-21" d="M509.53,523.21c17.85,15.82,42.23,15.9,64.49,12.35,12.87-2.03,25.6-5.01,38.57-6.26,5.88-.57,11.84-.81,17.74-.43,3.25,.22,6.47,.62,9.64,1.33,2.44,.54,6.09,1.03,8.21,2.38l-1.19-1.54c-.05-.19-.68,1.38-.79,1.76-.3,1.14-.35,2.38-.65,3.55-.7,2.9-1.81,5.69-3.14,8.34-2.49,4.98-5.77,9.64-10.13,13.16-2.6,2.09,1.08,5.72,3.66,3.66,8.04-6.45,13.08-16.52,15.14-26.46,.35-1.76,1.6-3.55,.89-5.36-.81-2.17-3.22-2.33-5.15-2.93-5.93-1.87-12.03-2.84-18.26-3.11-26.46-1.14-51.79,9.32-78.14,8.86-13.41-.24-27.06-3.87-37.27-12.92-2.46-2.19-6.15,1.44-3.66,3.66h0l.03-.03Z"/>
        <path class="cls-19" d="M627.52,569.87c15.28-12.05,29.66-31.2,26.68-51.73-.19-1.22-2.03-.7-1.87,.51,2.87,19.77-11.57,38.3-26.19,49.87-.98,.76,.41,2.14,1.38,1.38h0v-.03Z"/>
        <path class="cls-19" d="M561.62,581.25c12.81,2.19,25.95,1.98,38.62-.87,1.22-.27,.7-2.14-.51-1.87-12.32,2.76-25.16,3.01-37.6,.87-1.22-.22-1.73,1.65-.51,1.87h0Z"/>
        <path class="cls-19" d="M511.4,520.42c17.47,13.6,41.74,14.25,62.79,10.92,12.92-2.06,25.46-5.85,38.54-6.83s26.84,.03,39.92,2.82c1.22,.27,1.73-1.6,.51-1.87-12.03-2.55-24.38-3.68-36.67-3.11s-23.56,3.33-35.29,5.74c-22.26,4.58-49.54,5.72-68.45-9.02-.98-.76-2.36,.6-1.38,1.38h0l.03-.03Z"/>
        <path class="cls-9" d="M505.77,533.88c3.71,11.27,10.27,21.45,19.07,29.39,2.25,2.03,5.58-1.3,3.33-3.33-8.21-7.39-14.41-16.82-17.85-27.33-.95-2.87-5.5-1.65-4.55,1.25h0v.03Z"/>
        <path class="cls-19" d="M503.49,514.02c-2.82,20.88,7.58,40.74,24.05,53.2,1,.76,1.95-.92,.98-1.68-15.95-12.08-25.79-31.34-23.08-51.52,.16-1.22-1.76-1.22-1.95,0h0Z"/>
        <path class="cls-19" d="M591.93,575.54c12.16-2.22,23.56-7.48,33.21-15.2,.98-.79-.41-2.14-1.38-1.38-9.4,7.5-20.56,12.54-32.37,14.71-1.22,.22-.7,2.09,.51,1.87h.03Z"/>
        <path class="cls-19" d="M625.19,604.73c.57,10.67,1.16,21.34,1.73,32.02,.08,1.54,.16,3.06,.24,4.6,.05,1.25,2,1.25,1.95,0-.57-10.67-1.16-21.34-1.73-32.02-.08-1.54-.16-3.06-.24-4.6-.05-1.25-2-1.25-1.95,0h0Z"/>
        <path class="cls-19" d="M542.28,710.78c1.35-8.59,2.74-17.2,4.09-25.79,.19-1.22,.38-2.44,.57-3.66s-1.68-1.73-1.87-.51c-1.35,8.59-2.74,17.2-4.09,25.79-.19,1.22-.38,2.44-.57,3.66s1.68,1.73,1.87,.51h0Z"/>
        <path class="cls-3" d="M646.37,413.34c20.96,48,36.24,104.66,38.54,111.16,.54,1.57,1.65,1.52,1.63,3.2-.05,1.52-2.06,5.5-2.06,7.02-.08,6.74,5.04,6.2,7.5,7.99,1.54,1.14,.49,4.06,.33,7.2s.51,6.72,.92,8.67c.79,3.82,4.85,8.99,7.45,11.92,2.57,2.93,11.67,2.38,14.41-1.3,2-2.71,5.61-7.45,6.07-10.78,1.35-9.7,2-21.37-3.87-29.23-1.49-1.98-4.31-4.17-6.47-5.85-.76-.6-1.65-.3-2.09-1.03-1.63-2.79-2.19-6.07-2.76-9.24-4.47-24.46-11.16-92.31-21.86-114.76"/>
        <path class="cls-1" d="M695.78,547.94c5.61,.35,11.21-3.98,12.22-9.53,.22-1.22-.33-2.6-1.65-2.9-1.16-.27-2.65,.35-2.9,1.65-.11,.57-.27,1.08-.46,1.63-.14,.41,.24-.49,0-.05-.05,.11-.11,.22-.16,.33-.11,.22-.24,.46-.38,.68-.14,.24-.33,.46-.46,.7,.33-.54,.14-.16,0-.03-.08,.11-.19,.22-.27,.33-.35,.41-.76,.76-1.19,1.11-.22,.19,.43-.3,.08-.08-.11,.08-.22,.16-.35,.24-.24,.16-.49,.3-.73,.43-.22,.11-.57,.22-.76,.38,.14-.11,.49-.19,.11-.05-.14,.05-.27,.11-.41,.14-.51,.16-1.03,.27-1.57,.38,.79-.16-.14,0-.35,0h-.84c-1.25-.08-2.41,1.14-2.36,2.36,.05,1.35,1.03,2.28,2.36,2.36h0l.08-.05Z"/>
        <path class="cls-1" d="M652.74,423.37c12.35,2.44,26.73-1.49,34.21-12.08,1.76-2.49-2.33-4.85-4.06-2.38-6.18,8.75-18.8,11.89-28.9,9.91-2.95-.6-4.23,3.95-1.25,4.55h0Z"/>
        <path class="cls-19" d="M648.59,418.95c6.45,13.06,10.37,27.68,14.84,41.47,5.61,17.31,11,34.7,16.5,52.03,1.6,4.98,3.01,10.13,5.01,14.98,.46,1.14,2.33,.65,1.87-.51-4.79-11.62-7.91-24.16-11.67-36.13-5.66-18.01-11.29-36.05-17.52-53.9-2.22-6.37-4.36-12.87-7.34-18.91-.54-1.11-2.22-.14-1.68,.98h0Z"/>
        <path class="cls-19" d="M685.54,407.98c2.06,4.6,2.87,9.99,3.93,14.9,1.81,8.56,3.41,17.17,4.93,25.79,3.33,18.66,6.34,37.38,9.21,56.12,.89,5.74,1.79,11.48,2.57,17.25,.16,1.22,2.11,1.25,1.95,0-4.36-32.58-9.62-65.28-16.31-97.46-1.19-5.8-2.14-12.11-4.58-17.55-.51-1.14-2.17-.16-1.68,.98h0l-.03-.03Z"/>
        <path class="cls-19" d="M722.46,539.78c-.73-3.9-2.68-7.61-5.09-10.75-2.63-3.44-5.93-6.34-9.97-7.96-1.16-.46-1.65,1.41-.51,1.87,3.68,1.49,6.77,4.33,9.13,7.5,2.17,2.93,3.9,6.28,4.58,9.86,.22,1.22,2.09,.7,1.87-.51h0Z"/>
        <path class="cls-19" d="M692.23,543.25c-2.22,9.43-.68,21.32,7.37,27.68,3.52,2.79,8.04,3.76,12.27,2,4.47-1.9,7.42-5.96,9.02-10.43,2.17-6.09,2.11-12.43,1.73-18.77-.08-1.25-2-1.25-1.95,0,.49,8.72,.7,20.53-7.34,26.19-3.6,2.52-7.94,2.6-11.62,.19s-5.96-6.42-7.23-10.48c-1.63-5.15-1.63-10.62-.38-15.85,.3-1.22-1.57-1.73-1.87-.51h0v-.03Z"/>
        <path class="cls-10" d="M694.26,398.58c-.51,2.41-3.87,7.69-5.85,9.16-10.27,7.64-20.99,11.81-33.75,12.59-1.84,.11-7.31-2.87-8.56-1.57-1.22,1.33-1.19,3.33-1.14,5.12,.6,12.54,4.14,98.38,4.74,110.92-9.83-1.6-20.45-2.74-30.36-2.25-8.37,.41-20.72,1.71-28.9,3.47-15.66,3.39-31.56,5.93-47.51,4.55-15.95-1.38-33.67-9.18-44.34-21.1,11.67-20.23,17.09-116.5,13.27-139.49-.27-1.71,1.9-2.57,.92-3.98-.14-.19-.27-.38-.41-.54,.33-1.44,.57-2.93,.81-4.36,3.14-17.85,5.36-35.08,13.95-51.06,.08-.14,4.66-2.38,4.71-2.55,.98-.73,2.71-1.22,3.82-1.81,2.52-1.3,4.6-1.54,5.5,1.14,1.06-5.66,9.02-12.7,14.79-12.92,5.72-.22,9.78,7.64,15.28,9.21,5.55,1.6,11.65,2.57,16.87,.22,1.79-.81,3.44-2,5.36-2.17,1.63-.14,7.37,2.22,8.91,2.84,37.68,15.44,68.77,38.87,87.98,74.27,1.3,2.41,4.5,7.69,3.85,10.37l.05-.05Z"/>
        <path class="cls-22" d="M600.51,533.39c-8.18,3.14-6.77,2.93-20.23,4.47-8.72,1-7.83-16.41-4.31-24.46-6.28,.43-13.73,1.3-19.18-12.32-6.39-16.06,3.93-64.44,3.03-66.12-1.87-3.41-7.53-.95-10.81-3.03-3.14-2-2.33-6.88-.49-10.13s4.42-6.66,3.63-10.32c-.89-4.01-5.5-6.23-6.69-10.13-2.17-7.07,7.61-12.3,8.83-19.58,.68-4.09-1.52-8.1-3.87-11.51-2.38-3.41-5.09-6.83-5.74-10.94-.62-4.12,1.9-9.05,6.04-9.24-4.23-8.13,1.19-17.58,8.99-20.72-2.93-5.12-3.85-14.33,2.44-17.28,4.5-2.11,17.71-7.94,22.43-7.83,7.15,.14,6.5,2.06,12.57,4.14,2.36,.81,3.9,5.15,6.77,6.55,5.55,2.71,12.76,4.74,16.96,6.93,28.87,15.14,52.06,37.16,69.56,65.6,1.44,2.36,4.5,7.72,3.87,10.4-.54,2.38-3.9,7.67-5.88,9.13-10.24,7.64-19.26,13.14-33.78,12.59-1.81-.05-7.31-2.9-8.53-1.57s-1.22,3.33-1.14,5.12c.33,6.91,3.87,37.08,6.07,64.71,1.76,22.4,2.19,43.12,2.46,48.73-9.81-1.6-23.62-3.66-33.53-3.14-8.34,.43-15.3-.33-23.48,1.44"/>
        <path class="cls-22" d="M502.71,523.83c15.93,13.43,37.24,19.5,57.88,17.28,3.28-.35,3.3-5.5,0-5.15-19.26,2.06-39.33-3.2-54.23-15.76-2.52-2.11-6.2,1.52-3.66,3.66h0v-.03Z"/>
        <path class="cls-22" d="M502.68,517.57c2.57-6.83,3.6-14.38,4.71-21.56,1.71-10.81,3.01-21.67,4.17-32.53,2.06-19.04,3.9-38.19,4.82-57.34,.81-16.66-.16-33.51,5.01-49.59,1.03-3.17-3.95-4.52-4.98-1.38-5.04,15.68-4.55,32.21-5.09,48.46-.24,7.2-.81,14.38-1.38,21.56-1.71,21.94-3.76,43.91-6.96,65.68-1.25,8.4-2.28,17.34-5.28,25.33-1.16,3.11,3.82,4.44,4.98,1.38h0Z"/>
        <path class="cls-19" d="M512.16,417.33c3.28-22.26-1.22-45.5,6.31-67.12,.41-1.19-1.46-1.68-1.87-.51-7.53,21.64-3.03,44.83-6.31,67.12-.19,1.22,1.68,1.73,1.87,.51h0Z"/>
        <path class="cls-19" d="M507.04,526.21c-2.93-2.98-6.42-5.25-9.34-8.23v1.38c2.38-2.71,2.87-7.42,3.52-10.81,1.3-6.83,2.17-13.73,2.98-20.61,1.87-16.09,3.2-32.21,4.74-48.32,.46-4.93,.65-10.08,1.79-14.9,.3-1.22-1.57-1.73-1.87-.51-.89,3.76-1.11,7.77-1.49,11.65-.7,7.07-1.33,14.17-1.98,21.26-1.44,15.71-2.76,31.47-5.34,47.05-.49,2.98-1.03,5.96-1.79,8.91-.41,1.6-.79,3.68-1.92,4.96-.35,.41-.38,.98,0,1.38,2.93,2.98,6.42,5.25,9.34,8.23,.87,.89,2.25-.49,1.38-1.38h0l-.03-.05Z"/>
        <path class="cls-19" d="M654.39,535.69c.68-15.76-1.16-31.85-2.38-47.56-1.57-20.4-3.39-40.79-5.39-61.16-.73-7.29-1.44-14.6-2.33-21.86-.16-1.22-2.09-1.25-1.95,0,4.39,36.02,7.42,72.43,9.48,108.67,.41,7.29,.95,14.63,.62,21.94-.05,1.25,1.9,1.25,1.95,0h0v-.03Z"/>
        <path class="cls-19" d="M654.17,344.76c7.72,7.12,14.92,14.76,21.48,23,3.49,4.42,6.8,8.99,9.83,13.76,1.38,2.19,2.71,4.42,3.98,6.66s3.68,5.72,3.66,8.48c-.05,4.52-5.82,9.81-8.97,12.54-3.47,3.03-7.5,5.47-11.81,7.18-8.29,3.25-17.34,3.6-25.84,.98-1.19-.38-1.71,1.49-.51,1.87,9.13,2.82,18.93,2.33,27.74-1.33,8.1-3.36,17.15-10.1,20.64-18.45,1.87-4.47-1.41-8.99-3.55-12.76-3.17-5.63-6.77-11.02-10.64-16.2-7.34-9.78-15.66-18.8-24.65-27.09-.92-.84-2.28,.51-1.38,1.38h0l.03-.03Z"/>
        <path class="cls-19" d="M602.65,315.84c16.06,5.85,31.91,12.97,45.34,23.7,.98,.76,2.36-.6,1.38-1.38-13.71-10.97-29.79-18.23-46.21-24.21-1.16-.43-1.68,1.44-.51,1.87h0v.03Z"/>
        <circle class="cls-19" cx="651.84" cy="341.57" r="1.63"/>
        <g>
          <path class="cls-5" d="M524.19,401.26c.6-4.69,.84-9.4,.79-14.11,0-1.35-1.16-2.65-2.57-2.57s-2.6,1.14-2.57,2.57c.05,4.71-.22,9.43-.79,14.11-.16,1.35,1.3,2.63,2.57,2.57,1.54-.08,2.41-1.14,2.57-2.57h0Z"/>
          <path class="cls-5" d="M525.51,375.75c3.33,0,3.33-5.15,0-5.15s-3.33,5.15,0,5.15h0Z"/>
        </g>
        <circle class="cls-19" cx="589.41" cy="629.55" r="1.71"/>
        <path class="cls-19" d="M541.14,313.02c-17.66,6.12-32.88,18.26-44.8,32.45-10.62,12.68-19.94,28.03-22.54,44.61-.19,1.22,1.68,1.73,1.87,.51,2.55-16.25,11.62-31.34,22.05-43.77,11.7-13.95,26.6-25.95,43.96-31.96,1.16-.41,.68-2.28-.51-1.87h0l-.03,.03Z"/>
        <path class="cls-19" d="M474.02,391.03c9.29,10.83,22.45,18.04,36.59,20.02,1.22,.16,1.73-1.71,.51-1.87-13.87-1.92-26.63-8.88-35.73-19.53-.81-.95-2.17,.43-1.38,1.38h0Z"/>
        <path class="cls-19" d="M483.88,400.24c-2.14,45.26-4.93,90.52-7.07,135.78-.05,1.25,1.87,1.25,1.95,0,2.14-45.26,4.93-90.52,7.07-135.78,.05-1.25-1.87-1.25-1.95,0h0Z"/>
        <path class="cls-19" d="M477.57,549.97c-.98,7.99,2.17,16.58,9.18,20.94,6.66,4.12,15.66,3.76,21.13-2.11,2.93-3.11,4.55-7.34,4.12-11.62-.14-1.22-2.06-1.25-1.95,0,.43,4.44-1.49,8.69-4.9,11.54s-8.18,3.68-12.51,2.6c-9.53-2.36-14.27-12.08-13.14-21.34,.16-1.25-1.79-1.22-1.95,0h.03Z"/>
        <path class="cls-19" d="M492.74,533.9c3.36,3.47,7.56,7.85,6.42,13.14-.46,2.09-1.76,3.79-3.9,4.31-1.71,.41-3.71-.05-4.63-1.65-.62-1.08-2.3-.11-1.68,.98,1.95,3.39,6.88,3.49,9.67,1.11,3.63-3.09,3.03-8.75,.95-12.51-1.41-2.55-3.47-4.66-5.47-6.72-.87-.89-2.25,.49-1.38,1.38h0l.03-.03Z"/>
        <path class="cls-3" d="M572.1,325.94h0c-8.67,0-15.68-7.02-15.68-15.68v-27.14h31.37v27.14c0,8.67-7.02,15.68-15.68,15.68h0Z"/>
        <path class="cls-10" d="M629.69,212.39c-3.03-10.29-8.32-20.26-16.77-26.95-8.45-6.69-20.37-9.64-30.39-5.63-8.56,3.41-15.82,11.54-24.97,10.64-6.72-.68-22.51,.7-21.86-5.99,1.08-10.81-.24-20.5-4.17-29.14-1.63-3.55-6.07-18.34-6.07-18.34,0,0,16.9-4.36,21.32-6.96,8.23-4.82,18.12-6.26,27.65-5.61,18.96,1.33,37.16,10.86,48.94,25.68,6.15,7.72,10.54,16.68,14.11,25.87,4.01,10.32,7.07,21.26,6.47,32.31"/>
        <path class="cls-3" d="M659.67,229.11c-.27,10.89-8.07,21.21-18.61,24.49-3.74,1.16-7.69,1.41-11.57,.84,0-.05-.05-.14-.08-.19v.16c-.22,.87,1.41,1.08,1.38,1.98,0,.7-1.76,2.11-1.65,2.79-9.7,18.93-27.55,32.56-48.65,35.67h0c-1.44,.22-2.84,.38-4.28,.49-1.63,.14-3.28,.19-4.93,.19-36.3,0-65.74-30.91-65.74-69.04,0-21.64,9.51-40.98,24.38-53.6,5.07-5.28,2.6-3.52,4.93-3.79,1.46,2.55-.84,13.14,.92,15.47,4.04,5.36,15.14,5.15,21.86,5.8,9.18,.89,16.41-7.2,24.97-10.59,1-.41,2-.73,3.06-.98,9.32-2.38,19.72,.6,27.33,6.58,4.28,3.41,7.72,7.61,10.51,12.3,2.95,4.06,5.31,8.56,7.04,13.27-.22,.49-.43,.92-.68,1.38,.33-.19,.65-.35,1-.51,.68-.3,1.35-.57,2-.81,7.2-2.65,16.06-1.87,21.51,3.49,3.82,3.76,5.47,9.29,5.36,14.6l-.08,.03Z"/>
        <path class="cls-19" d="M544.42,242.05c.08,2.03,1.11,3.95,2.84,5.04s4.09,1.19,5.99,.33c.49-.22,.6-.89,.35-1.33-.3-.49-.84-.57-1.33-.35-1.27,.57-2.84,.46-4.04-.33-1.11-.73-1.84-2.09-1.87-3.39,0-.51-.43-.98-.98-.98s-.98,.43-.98,.98h0v.03Z"/>
        <g>
          <g>
            <ellipse class="cls-5" cx="531.93" cy="223.63" rx="11.35" ry="11.32"/>
            <g class="cls-25">
              <path class="cls-9" d="M543.44,224.15c-.27,6.23-5.58,11.08-11.81,10.81s-11.11-5.58-10.83-11.81c.05-.98,.22-1.92,.51-2.82,1,4.93,5.31,8.75,10.56,8.97s9.86-3.17,11.32-7.99c.22,.92,.3,1.87,.27,2.84h-.03Z"/>
            </g>
            <path class="cls-19" d="M543.17,224.18c-.24,4.31-3.14,8.13-7.31,9.4s-8.83-.24-11.4-3.79-2.65-8.26-.27-11.86,6.88-5.34,11.05-4.33c4.85,1.16,8.1,5.63,7.94,10.59-.03,1.25,1.9,1.25,1.95,0,.16-5.09-2.82-9.86-7.53-11.84s-10.48-.76-13.92,3.11-4.12,9.51-1.65,14.06,7.58,7.04,12.62,6.31c5.85-.84,10.16-5.82,10.48-11.65,.08-1.25-1.87-1.25-1.95,0h0Z"/>
            <path class="cls-19" d="M533.58,212.2c1,2.76,1.46,5.72,1.3,8.67,0,.46-.05,.92-.22,1.33-.6,1.68-2.6,2.28-4.36,2.65,1.27,1.54,3.79,1.81,4.71,3.6,.38,.73,.38,1.6,.38,2.44,0,.89,0,1.84-.35,2.68-.7,1.68-2.71,2.55-4.5,2.33s-3.39-1.3-4.66-2.57c-2.98-3.03-4.47-7.5-3.66-11.67s4.01-7.83,8.1-8.97"/>
          </g>
          <path class="cls-5" d="M526.81,219.46c2.49,0,2.49-3.87,0-3.87s-2.49,3.87,0,3.87h0Z"/>
        </g>
        <g>
          <g>
            <circle class="cls-5" cx="563.27" cy="223.66" r="11.35"/>
            <g class="cls-25">
              <path class="cls-9" d="M574.76,224.15c-.27,6.23-5.58,11.08-11.81,10.81-6.26-.27-11.11-5.58-10.83-11.81,.05-.98,.22-1.92,.51-2.82,1,4.93,5.31,8.75,10.56,8.99s9.86-3.17,11.32-8.02c.22,.92,.3,1.87,.27,2.87l-.03-.03Z"/>
            </g>
            <path class="cls-19" d="M574.48,224.18c-.24,4.31-3.14,8.15-7.31,9.4s-8.83-.24-11.4-3.79-2.65-8.29-.27-11.89,6.88-5.34,11.05-4.33c4.85,1.16,8.1,5.66,7.94,10.59-.03,1.25,1.9,1.25,1.95,0,.16-5.09-2.82-9.86-7.53-11.84s-10.48-.76-13.92,3.11-4.12,9.53-1.65,14.06,7.56,7.04,12.62,6.31c5.85-.84,10.16-5.82,10.48-11.67,.08-1.25-1.87-1.25-1.95,0v.05Z"/>
            <path class="cls-19" d="M564.9,212.2c1,2.76,1.46,5.72,1.3,8.67,0,.46-.05,.92-.22,1.33-.6,1.68-2.6,2.3-4.36,2.65,1.27,1.54,3.79,1.81,4.71,3.6,.38,.73,.38,1.6,.38,2.44,0,.89,0,1.84-.35,2.68-.7,1.68-2.71,2.55-4.5,2.33s-3.39-1.3-4.66-2.57c-2.98-3.03-4.47-7.53-3.66-11.67s4.01-7.85,8.1-8.97"/>
          </g>
          <path class="cls-5" d="M558.12,219.46c2.49,0,2.49-3.87,0-3.87s-2.49,3.87,0,3.87h0Z"/>
        </g>
        <path class="cls-19" d="M522.72,181.19c3.36-4.01,7.18-7.67,11.38-10.78,.41-.33,.62-.84,.35-1.33-.24-.41-.89-.65-1.33-.35-4.33,3.22-8.29,6.93-11.76,11.08-.33,.41-.38,.98,0,1.38,.35,.35,1.03,.41,1.38,0h-.03Z"/>
        <path class="cls-5" d="M552.95,252.37c5.9-1.16,10.81-5.09,16.09-7.96s12.05-4.6,17.12-1.41c4.74,3.01,6.26,9.59,4.66,14.98s-5.72,9.67-10.24,13c-6.37,4.71-13.81,8.02-21.59,9.53-5.44,1.06-11.16,1.27-16.44-.33s-10.16-5.17-12.51-10.18-1.81-11.48,2-15.52,10.83-4.79,14.98-1.11"/>
        <path class="cls-19" d="M547.24,130.27c20.86-11.89,48.92-4.17,66.28,10.59,9.13,7.77,15.57,17.82,20.37,28.71,5.36,12.13,9.62,25.27,9.07,38.68-.05,1.25,1.9,1.25,1.95,0,.43-10.92-2.25-21.51-6.07-31.66-3.55-9.43-7.91-18.69-14.06-26.71-11.11-14.49-28.06-24.24-46.15-26.65-11.05-1.46-22.54-.24-32.34,5.34-1.08,.62-.11,2.3,.98,1.68h0l-.03,.03Z"/>
        <path class="cls-5" d="M584.78,194.57c3.03-2.46,7.04-3.47,10.89-3.14,3.22,.27,7.34,1.9,8.53,5.2,.46,1.3,1.76,2.19,3.17,1.81,1.27-.35,2.28-1.84,1.81-3.17-1.95-5.42-7.31-8.23-12.78-8.88s-11,1.11-15.25,4.58c-1.08,.87-.92,2.74,0,3.66,1.08,1.08,2.57,.87,3.66,0h0l-.03-.05Z"/>
        <path class="cls-5" d="M610.73,205.97c3.33,0,3.33-5.15,0-5.15s-3.33,5.15,0,5.15h0Z"/>
        <path class="cls-5" d="M574.62,136.93c3.33,0,3.33-5.15,0-5.15s-3.33,5.15,0,5.15h0Z"/>
        <path class="cls-19" d="M526.22,208.49c.65-.41,1.33-.79,2-1.14,.3-.16,.62-.3,.92-.43,.27-.14,.16-.08-.3,.11,.19-.08,.35-.14,.54-.22,.7-.27,1.46-.51,2.19-.68,.27-.05,.57-.11,.84-.19,.46-.08,.38-.08-.22,0,.19,0,.35-.05,.54-.05,.62-.05,1.22-.05,1.84,0,.16,0,.35,0,.51,.05-.65-.08-.73-.11-.3-.03,.35,.08,.68,.14,1.03,.22,.24,.05,.51,.14,.76,.22,.16,.05,.33,.11,.49,.19-.57-.24-.65-.27-.24-.08,.3,.16,.62,.33,.92,.51,.14,.08,.3,.19,.43,.3-.46-.38-.54-.43-.19-.16,.84,.7,1.73,1.19,2.87,1.19,1,0,2.19-.43,2.87-1.19,1.38-1.49,1.76-4.31,0-5.74-3.01-2.49-6.8-3.82-10.73-3.58s-7.56,1.68-10.89,3.68c-1.81,1.11-2.65,3.68-1.46,5.55s3.63,2.65,5.55,1.46h0Z"/>
        <path class="cls-19" d="M557.83,208.49c.65-.41,1.33-.79,2-1.14,.3-.16,.62-.3,.92-.43,.27-.14,.16-.08-.3,.11,.19-.08,.35-.14,.54-.22,.7-.27,1.46-.51,2.19-.68,.27-.05,.57-.11,.84-.19,.46-.08,.38-.08-.22,0,.19,0,.35-.05,.54-.05,.62-.05,1.22-.05,1.84,0,.16,0,.35,0,.51,.05-.65-.08-.73-.11-.3-.03,.35,.08,.68,.14,1.03,.22,.24,.05,.51,.14,.76,.22,.16,.05,.33,.11,.49,.19-.57-.24-.65-.27-.24-.08,.3,.16,.62,.33,.92,.51,.14,.08,.3,.19,.43,.3-.46-.38-.54-.43-.19-.16,.84,.7,1.73,1.19,2.87,1.19,1,0,2.19-.43,2.87-1.19,1.38-1.49,1.76-4.31,0-5.74-3.01-2.49-6.8-3.82-10.73-3.58s-7.56,1.68-10.89,3.68c-1.81,1.11-2.65,3.68-1.46,5.55s3.63,2.65,5.55,1.46h0Z"/>
        <path class="cls-1" d="M633.59,227.07c.6,.08-.51-.08,.08,0,.14,0,.3,.05,.43,.08,.33,.05,.65,.14,.98,.22,.62,.16,1.25,.33,1.84,.54,.14,.05,.3,.11,.43,.16,.08,.03,.65,.27,.14,.05,.3,.14,.57,.24,.84,.41,.62,.3,1.22,.65,1.79,1.03,.27,.16,.51,.35,.79,.54,.51,.35-.35-.3,.11,.08,.11,.11,.24,.19,.35,.3,.49,.43,.98,.89,1.41,1.38,.14,.14,.24,.3,.38,.43,.3,.35-.11-.19,.03,.05,.19,.3,.41,.57,.6,.87,.16,.27,.33,.54,.49,.84,.08,.16,.16,.35,.27,.51,.22,.46-.14-.35,.08,.16,.46,1.14,1.6,2.06,2.9,1.65,1.11-.35,2.14-1.68,1.65-2.9-2.6-6.47-8.78-10.29-15.55-11.13-1.22-.16-2.41,1.19-2.36,2.36,.05,1.41,1.03,2.19,2.36,2.36h-.03Z"/>
        <path class="cls-19" d="M631.77,223.28c7.31-.43,14.6,4.12,17.28,10.97,.46,1.14,2.33,.65,1.87-.51-2.98-7.64-10.92-12.87-19.15-12.41-1.25,.08-1.25,2,0,1.95h0Z"/>
        <path class="cls-19" d="M641.36,224.5c-4.77,3.2-7.64,8.8-7.42,14.55,.05,1.25,1.98,1.25,1.95,0-.22-5.04,2.25-10.05,6.45-12.87,1.03-.7,.05-2.38-.98-1.68h0Z"/>
        <path class="cls-1" d="M564.82,295.33c12.62,.95,24.32-.6,35.54-6.74,12.7-6.99,23.56-18.07,29.5-31.37,1.22-2.74-2.84-5.15-4.06-2.38-5.61,12.62-15.71,23.02-27.79,29.66-10.46,5.77-21.34,6.99-33.15,6.09-3.03-.22-3.01,4.5,0,4.71h0l-.03,.03Z"/>
        <path class="cls-5" d="M537.73,144.19c5.25,.08,10.54-.79,15.44-2.68,4.33-1.65,8.56-4.63,13.35-4.58,3.33,0,3.33-5.15,0-5.15-5.07-.03-9.29,2.52-13.81,4.42-4.74,2-9.83,2.93-14.95,2.84-3.33-.05-3.33,5.12,0,5.15h-.03Z"/>
        <path class="cls-22" d="M536.86,185.15c6.83,4.31,15.25,5.77,23.19,4.5,9.64-1.57,16.5-9.05,25.73-11.65,20.96-5.88,38.11,13.49,43.5,31.72,.95,3.17,5.9,1.81,4.98-1.38-5.2-17.63-19.69-35.65-39.44-36.57-5.12-.24-10.24,.87-14.92,2.84s-8.99,5.28-13.65,7.64c-8.34,4.23-18.93,3.39-26.79-1.57-2.82-1.76-5.42,2.68-2.6,4.44h0v.03Z"/>
        <path class="cls-19" d="M619.2,190.37c2.11-7.12,8.07-12.81,15.28-14.6,1.22-.3,.7-2.17-.51-1.87-7.85,1.95-14.33,8.21-16.63,15.95-.35,1.19,1.52,1.71,1.87,.51h0Z"/>
        <path class="cls-19" d="M627.63,199.72c2.65-4.14,7.26-6.93,12.16-7.31,1.25-.11,1.25-2.03,0-1.95-5.61,.43-10.81,3.52-13.81,8.26-.68,1.06,1,2.03,1.68,.98h0l-.03,.03Z"/>
        <path class="cls-19" d="M630.61,212.15c-4.5-14.92-13.73-29.52-29.5-34.07-6.93-2-14.36-1.65-20.88,1.49-7.39,3.55-13.92,10.35-22.67,9.78-1.25-.08-1.25,1.84,0,1.95,6.64,.43,12.11-3.14,17.52-6.53,7.04-4.42,14.06-7.07,22.48-5.53,16.71,3.03,26.63,18.28,31.2,33.45,.35,1.19,2.22,.68,1.87-.51h0l-.03-.03Z"/>
        <path class="cls-19" d="M523.45,136.66c6.53,15.11,12.03,31.12,11.27,47.81-.05,1.25,1.87,1.25,1.95,0,.76-17.04-4.88-33.34-11.54-48.78-.49-1.14-2.17-.16-1.68,.98h0Z"/>
        <path class="cls-19" d="M536.29,186.09c4.47,2.63,9.4,4.28,14.55,4.93,.51,.05,.98-.49,.98-.98,0-.57-.46-.89-.98-.98-4.79-.62-9.4-2.22-13.54-4.66-1.08-.62-2.06,1.03-.98,1.68h-.03Z"/>
        <path class="cls-19" d="M615.85,226.18c5.07-6.45,11.38-12.73,19.56-14.84s17.09,.27,21.07,7.94c7.69,14.87-4.88,33.64-20.75,35-8.83,.76-17.85-3.11-23.19-10.18-.73-.98-2.44,0-1.68,.98,5.09,6.72,13,10.83,21.45,11.21s16.82-3.6,22.18-10.35,7.67-15.76,5.15-24.03c-2.52-8.26-10.43-13.52-19.26-13.22-10.92,.35-19.47,7.96-25.89,16.12-.76,.98,.6,2.36,1.38,1.38h-.03Z"/>
        <path class="cls-22" d="M544.61,184.06c10.46,4.09,21.21,.11,29.93-5.93,9.97-6.91,22.24-8.75,32.72-1.92,2.79,1.81,5.36-2.65,2.6-4.44-10.05-6.55-21.64-6.31-32.31-1.38-4.77,2.19-8.56,6.07-13.43,7.99-5.85,2.3-12.19,3.06-18.15,.7-3.09-1.22-4.44,3.76-1.38,4.98h.03Z"/>
        <path class="cls-19" d="M610.24,181.98c0-10.64,6.07-20.8,15.47-25.84,1.11-.6,.14-2.25-.98-1.68-9.97,5.34-16.44,16.2-16.41,27.49,0,1.25,1.95,1.25,1.95,0h0l-.03,.03Z"/>
        <path class="cls-19" d="M586.51,178.18c-10.97-14.9-14.76-35.16-4.5-51.46,.68-1.06-1-2.03-1.68-.98-10.62,16.87-6.88,38,4.5,53.41,.73,1,2.41,.03,1.68-.98h0Z"/>
        <path class="cls-19" d="M598.84,177.24c-2.11-13.41-1.27-29.42,10.51-38.35,.98-.73,0-2.44-.98-1.68-12.57,9.53-13.65,26.14-11.4,40.52,.19,1.22,2.06,.7,1.87-.51h0v.03Z"/>
        <path class="cls-1" d="M558.45,299.69c9.18,2.65,19.47,2.79,28.41-.87,1.16-.49,2-1.57,1.65-2.9-.3-1.11-1.71-2.14-2.9-1.65-8.23,3.39-17.44,3.33-25.89,.87-2.93-.84-4.17,3.71-1.25,4.55h-.03Z"/>
        <path class="cls-19" d="M630.2,255.33c-11.89,27.06-40.25,44.75-69.99,39.27-27.19-4.98-47.7-27.95-52.57-54.71-3.36-18.39,.6-37.54,10.92-53.12,.68-1.03-.98-2-1.68-.98-17.61,26.63-16.14,63.03,4.28,87.7,18.31,22.13,49.4,30.28,75.87,18.55,15.74-6.96,27.98-20.1,34.86-35.75,.49-1.14-1.16-2.11-1.68-.98h0Z"/>
        <path class="cls-19" d="M586.81,294.33v15.9c-.03,3.55-1.27,6.99-3.6,9.67-4.88,5.58-13.41,6.66-19.5,2.41-2.98-2.06-5.09-5.2-5.93-8.72-.43-1.84-.38-3.68-.38-5.55v-13.22c0-1.25-1.95-1.25-1.95,0v12.87c0,1.95-.05,3.87,.33,5.8,.7,3.6,2.68,6.96,5.44,9.34,5.63,4.82,14.11,5.39,20.26,1.14,5.15-3.58,7.26-9.1,7.26-15.17v-14.49c0-1.25-1.95-1.25-1.95,0h0l.03,.03Z"/>
        <path class="cls-19" d="M524.54,137.09c5.72-1.44,12-1.52,16.96-5.09,1-.73,.03-2.41-.98-1.68-4.79,3.47-10.94,3.49-16.5,4.9-1.22,.3-.7,2.17,.51,1.87h0Z"/>
        <path class="cls-19" d="M508.39,530c18.45,14.38,44.53,14.36,66.55,10.24,13.16-2.44,25.92-5.9,39.38-6.28,12.73-.38,25.54,.84,38,3.49,1.22,.27,1.73-1.6,.51-1.87-11.48-2.44-23.24-3.68-34.97-3.63s-23.94,2.3-35.92,4.88c-23.38,5.04-52.11,7.42-72.21-8.21-.98-.76-2.36,.6-1.38,1.38h.03Z"/>
        <path class="cls-5" d="M486.05,444.9c-.27,6.47-.54,12.92-.81,19.39-.05,1.38,1.22,2.57,2.57,2.57,1.44,0,2.52-1.19,2.57-2.57,.27-6.47,.54-12.92,.81-19.39,.05-1.38-1.22-2.57-2.57-2.57-1.44,0-2.52,1.19-2.57,2.57h0Z"/>
        <path class="cls-5" d="M487.29,477.57c3.33,0,3.33-5.15,0-5.15s-3.33,5.15,0,5.15h0Z"/>
        <path class="cls-19" d="M587.92,304.76c7.23,2.55,16.93,8.34,15.01,17.47-1.6,7.53-9.34,12.78-16.06,15.38-8.61,3.36-18.34,3.63-27.14,.81-7.15-2.28-15.28-7.12-17.9-14.6-3.47-9.86,6.45-16.36,14.46-19.01,1.16-.38,.68-2.28-.51-1.87-7.77,2.57-16.82,8.02-16.58,17.36,.22,8.34,7.96,14.71,14.9,17.99,9.89,4.69,21.61,5.31,31.93,1.71,7.72-2.68,16.36-8.21,18.64-16.6,2.84-10.51-7.69-17.5-16.2-20.5-1.16-.41-1.68,1.46-.51,1.87h-.03Z"/>
        <path class="cls-19" d="M548.18,312.04c-2.09,2.79-2.82,6.53-1.87,9.89,.87,3.11,3.11,5.82,6.01,7.23,1.11,.54,2.09-1.11,.98-1.68-2.46-1.22-4.39-3.41-5.12-6.09-.81-2.9-.11-6.01,1.68-8.4,.76-1-.95-1.98-1.68-.98h0v.03Z"/>
        <path class="cls-11" d="M539.06,259.98c.27-.3,1.9-1.41,1.98-1.71-.11,.38-2.03-2-1.25-.54,.33,.6,.89,1.11,1.44,1.49,1.81,1.35,4.36,1.68,6.55,1.73,4.85,.16,9.64-1.65,13.84-3.95,3.87-2.11,7.48-4.77,11.43-6.74,2.71-1.35,7.18-3.01,9.78-.6,3.85,3.55,9.59-2.19,5.74-5.74-8.83-8.15-20.26-.43-28.41,4.55-2.09,1.27-4.25,2.55-6.58,3.36-1.22,.43-2.49,.81-3.76,.98s-2.49-.19-3.76-.19c.35,0,.79,1-.14-.22-.46-.6-.79-.98-1.46-1.41-1.14-.73-2.38-.95-3.74-.87-2.95,.19-5.44,2-7.37,4.12-3.52,3.85,2.19,9.62,5.74,5.74h-.03Z"/>
        <path class="cls-19" d="M553.22,253.32c9.26-2.09,16.17-10.56,25.89-11.02,5.47-.27,9.83,3.03,11.05,8.37,1.08,4.79-.62,9.48-3.55,13.27-5.99,7.77-15.98,12.78-25.33,15.11-9.94,2.46-22.73,2.14-29.12-7.23-2.98-4.39-3.58-10.54-.62-15.09,3.14-4.85,10.21-6.37,14.76-2.63,.95,.79,2.33-.57,1.38-1.38-7.75-6.34-18.58-.54-19.88,8.75-1.6,11.62,9.16,19.56,19.61,20.67,12.54,1.35,26.14-3.98,35.7-11.92,7.37-6.09,13.68-18.09,5.58-26.41-10.73-10.97-25.46,5.25-36,7.61-1.22,.27-.7,2.14,.51,1.87h0v.03Z"/>
        <path class="cls-19" d="M546.18,279.86c-4.36-7.69-4.9-17.09-1.6-25.27,.46-1.16-1.41-1.65-1.87-.51-3.49,8.64-2.79,18.66,1.79,26.76,.62,1.08,2.28,.11,1.68-.98h0Z"/>
        <path class="cls-19" d="M556.31,251.51c3.68,8.91,5.53,18.42,5.39,28.06,0,1.25,1.92,1.25,1.95,0,.11-9.78-1.73-19.5-5.47-28.58-.46-1.14-2.36-.65-1.87,.51h0Z"/>
        <path class="cls-19" d="M569.99,245.01c4.66,8.18,7.39,17.34,7.96,26.73,.08,1.25,2,1.25,1.95,0-.6-9.75-3.39-19.23-8.21-27.71-.62-1.08-2.3-.11-1.68,.98h-.03Z"/>
        <path class="cls-19" d="M565.74,541.16l.6,10.89c.19,3.3,.19,6.72,.68,9.99,.38,2.49,1.38,5.04,3.66,6.37,1.98,1.14,4.42,1.19,6.18-.35,.95-.84-.43-2.19-1.38-1.38-1.6,1.41-4.12,.35-5.23-1.19-1.49-2.03-1.52-4.82-1.65-7.23-.33-5.69-.65-11.4-.95-17.09-.08-1.25-2-1.25-1.95,0h.05Z"/>
        <path class="cls-19" d="M563.54,550.59c3.44,.22,6.91,.11,10.32-.33,.51-.05,.98-.41,.98-.98,0-.46-.43-1.03-.98-.98-3.41,.43-6.88,.54-10.32,.33-1.25-.08-1.25,1.87,0,1.95h0Z"/>
        <path class="cls-19" d="M563.92,559.01c4.6,.16,9.18,0,13.76-.43,1.22-.11,1.25-2.06,0-1.95-4.58,.43-9.16,.6-13.76,.43-1.25-.05-1.25,1.9,0,1.95h0Z"/>
        <path class="cls-19" d="M651.49,412.99c16.17,1.06,32.21-7.48,40.41-21.43,.62-1.08-1.03-2.06-1.68-.98-7.88,13.38-23.24,21.48-38.73,20.48-1.25-.08-1.25,1.87,0,1.95h0v-.03Z"/>
        <path class="cls-19" d="M475.4,384.55c6.64,9.07,17.04,16.5,28.36,17.93,1.25,.16,1.22-1.79,0-1.95-10.59-1.33-20.53-8.53-26.71-16.98-.73-1-2.41-.03-1.68,.98h0l.03,.03Z"/>
        <path class="cls-19" d="M624,522.2l9.05-3.49c.49-.19,.81-.65,.68-1.19-.14-.46-.7-.87-1.19-.68l-9.05,3.49c-.49,.19-.81,.65-.68,1.19,.14,.46,.7,.87,1.19,.68h0Z"/>
        <path class="cls-19" d="M627.28,516.38c2.63-1.22,5.31-2.3,8.04-3.22,.49-.16,.81-.68,.68-1.19-.14-.49-.7-.84-1.19-.68-2.9,1-5.74,2.14-8.51,3.44-.49,.22-.6,.89-.35,1.33,.27,.49,.84,.57,1.33,.35h0v-.03Z"/>
        <path class="cls-19" d="M500.16,507.79c10.83,14.52,28.3,23.27,46.45,23.16,1.25,0,1.25-1.95,0-1.95-17.39,.11-34.35-8.23-44.77-22.18-.73-.98-2.41,0-1.68,.98h0Z"/>
        <path class="cls-19" d="M551.43,531.22c1.38,.16,2.79,0,4.09-.54,.24-.11,.43-.22,.57-.43,.11-.22,.16-.51,.11-.76-.14-.46-.68-.87-1.19-.68-.3,.11-.62,.22-.92,.3-.16,.05-.33,.08-.49,.11-.08,0-.14,0-.22,.03h-.14c.14,0,.16,0,.08,0-.65,.08-1.27,.08-1.9,0-.22-.03-.54,.14-.68,.27-.16,.16-.3,.43-.27,.68s.08,.51,.27,.68c.19,.19,.41,.24,.68,.27h0v.08Z"/>
        <path class="cls-19" d="M113.62,349.07c51.06,8.56,102.11,17.12,153.17,25.68,18.26,3.06,40.01,5.9,51.57-12.08,5.07-7.88,7.15-17.34,9.02-26.41,2.57-12.54,5.12-25.08,7.58-37.65,4.77-24.54,9.05-49.22,11.94-74.05,1.27-10.89,3.01-22.18,2.25-33.18-.54-8.1-2.93-16.58-9.67-21.67-3.87-2.9-8.59-4.25-13.27-5.15-6.01-1.16-12.08-1.98-18.09-2.98-12.73-2.09-25.43-4.25-38.16-6.42-25.27-4.31-50.57-8.56-75.98-12.19-12.19-1.73-24.4-3.33-36.65-4.69s-24.27-2.95-36.43-3.17c-9.48-.16-19.42,1.54-26.41,8.45-5.93,5.85-8.67,14.11-10.51,22.05-1.06,4.6-1.87,9.24-2.74,13.9-.22,1.22,1.63,1.73,1.87,.51,1.63-8.64,2.84-17.63,6.5-25.73,4.06-9.05,11.38-14.87,21.21-16.6,11.02-1.92,22.91,.11,33.94,1.22,11.94,1.16,23.86,2.57,35.75,4.17,47.86,6.34,95.48,14.84,143.04,22.97,5.17,.89,10.54,2.03,14.79,5.25,3.85,2.9,6.26,7.15,7.53,11.76,2.6,9.37,1.33,19.47,.41,29.01-2.3,24.08-6.07,47.97-10.48,71.72-2.14,11.51-4.39,22.97-6.72,34.45-2.09,10.29-3.74,20.86-6.83,30.91-2.87,9.34-7.77,18.36-16.9,22.83-9.13,4.47-20.59,3.6-30.61,2.11-23.62-3.52-47.16-7.88-70.72-11.81-23.56-3.93-47.94-8.04-71.91-12.05l-17.99-3.01c-1.22-.22-1.73,1.65-.51,1.87h0v-.03Z"/>
        <path class="cls-19" d="M79.7,189.02c-5.28,28.28-9.86,56.69-13.65,85.19-1.81,13.57-3.71,27.19-4.82,40.85-.84,10.16,.73,20.31,10.7,25.16,9.97,4.85,22.62,5.23,33.78,7.53,1.22,.24,1.73-1.63,.51-1.87-9.7-2-19.8-2.52-29.25-5.69-4.6-1.54-9.13-3.87-11.57-8.23-2.93-5.23-2.68-11.62-2.19-17.42,2.33-26.52,6.34-53.01,10.48-79.31,2.41-15.28,5.04-30.5,7.88-45.69,.22-1.22-1.65-1.73-1.87-.51h0Z"/>
        <path class="cls-19" d="M118.84,219.11c-.65,3.74-1.27,7.5-2.03,11.21-.24,1.22,1.63,1.73,1.87,.51,.76-3.74,1.38-7.48,2.03-11.21,.08-.51-.14-1.06-.68-1.19-.46-.14-1.11,.16-1.19,.68h0Z"/>
        <path class="cls-19" d="M142.33,136.55c-25.33-2.74-50.6-5.96-75.92-8.75-11.46-1.25-26.08-4.06-34.51,6.09-3.58,4.31-5.34,9.81-6.58,15.17-1.71,7.2-3.01,14.55-4.44,21.8-5.74,28.82-9.83,57.91-14.27,86.95-2.17,14.17-5.47,28.47-6.39,42.77-.35,5.5-.54,11.57,1.9,16.66,2.22,4.6,6.23,8.78,10.51,11.48,5.85,3.71,12.84,5.25,19.58,6.47,7.29,1.33,14.6,2.63,21.89,3.98,14.63,2.71,29.28,5.23,44.04,7.2,1.22,.16,1.22-1.79,0-1.95-12.89-1.71-25.7-3.85-38.52-6.2-11.84-2.19-24.13-3.63-35.73-6.85-6.34-1.79-11.89-4.63-16.28-9.62s-5.61-9.86-5.63-16.25c0-13.76,3.49-27.68,5.58-41.22,4.25-27.52,8.13-55.12,13.19-82.5,1.27-6.8,2.63-13.54,4.01-20.31,1.22-6.04,2.14-12.32,4.23-18.15,2.28-6.39,6.28-11.81,13.03-13.81,6.23-1.87,12.97-1,19.31-.33,27.03,2.9,53.98,6.39,81.01,9.29,1.25,.14,1.22-1.81,0-1.95h0v.03Z"/>
        <g>
          <path class="cls-20" d="M71.8,302.56c8.72-.27,17.5,.79,25.89,3.14,.76,.22,1.63,.51,1.95,1.25,.19,.46,.14,1,0,1.46-.84,2.79-3.87,4.25-6.72,4.88-7.99,1.71-16.79-1.27-22.08-7.5"/>
          <path class="cls-20" d="M73.58,286.74c8.72-.27,17.5,.79,25.89,3.14,.76,.22,1.63,.51,1.95,1.25,.19,.46,.14,1,0,1.46-.84,2.79-3.87,4.25-6.72,4.88-7.99,1.71-16.79-1.27-22.08-7.5"/>
          <path class="cls-20" d="M76.13,270.44c8.72-.27,17.5,.79,25.89,3.14,.76,.22,1.63,.51,1.95,1.25,.19,.46,.14,1,0,1.46-.84,2.79-3.87,4.25-6.72,4.88-7.99,1.71-16.79-1.27-22.08-7.5"/>
        </g>
        <path class="cls-8" d="M196.12,332.17c7.12,16.39,16.01,35.59,25.92,50.46,9.91,14.87,22.78,28.22,38.87,36.02,7.58,3.68,15.71,6.07,23.94,7.88,34.64,7.58,74,3.52,100.38-20.18-20.37-6.83-35.86-26.41-37.78-47.81-27.11,9.78-59.37,3.47-80.82-15.76"/>
        <path class="cls-19" d="M369.66,360.55c-2.79,8.78,1.03,18.55,8.04,24.21,7.85,6.31,18.64,7.39,28.22,5.31,1.22-.27,.7-2.14-.51-1.87-8.86,1.95-18.91,1.03-26.22-4.71-6.61-5.17-10.27-14.22-7.67-22.4,.38-1.19-1.49-1.71-1.87-.51h0v-.03Z"/>
        <path class="cls-19" d="M374.92,352.78c8.59-14.9-4.74-30.23-4.31-45.42,.11-4.14,1.27-9.26,5.96-10.29,3.82-.81,7.91,1.25,10.67,3.71,5.42,4.88,8.13,11.97,9.7,18.91,.98,4.25,1.68,8.61,2.06,12.95,.54,5.88-1.11,10.67-3.63,15.87-.54,1.11,1.14,2.11,1.68,.98,1.98-4.06,3.85-8.15,4.04-12.73s-.68-9.13-1.46-13.52c-1.35-7.67-3.66-15.52-8.8-21.53-3.95-4.63-11.57-9.24-17.55-5.36-7.04,4.58-4.66,16.39-2.79,22.97,2.93,10.32,8.72,22.16,2.74,32.5-.62,1.08,1.06,2.06,1.68,.98h.03Z"/>
        <path class="cls-19" d="M401.08,332.25c7.64-3.33,17.25-2.17,23.65,3.28,3.01,2.57,5.66,7.15,2.93,10.89s-9.18,2.36-12.46,.38c-1.08-.65-2.06,1.03-.98,1.68,3.44,2.09,7.91,2.84,11.76,1.46,3.36-1.22,5.07-4.66,4.66-8.13-.92-7.85-10.48-12.3-17.42-13.14-4.5-.54-8.99,.14-13.14,1.92-1.14,.49-.16,2.17,.98,1.68h0l.03-.03Z"/>
        <path class="cls-19" d="M413.57,360.53c3.22,3.6,8.51,5.34,13.11,3.44,4.25-1.73,6.99-5.99,6.23-10.62-.41-2.44-1.81-4.63-3.87-6.01-1.03-.7-2,.98-.98,1.68,1.87,1.25,2.98,3.44,3.06,5.69,.08,2.38-1,4.55-2.82,6.07-4.09,3.44-9.99,2.17-13.38-1.63-.84-.92-2.19,.43-1.38,1.38h.03Z"/>
        <path class="cls-19" d="M410.34,371.42c4.79,3.52,10.83,7.2,16.85,4.2,2.41-1.22,4.04-3.52,4.23-6.2,.22-2.87-1.22-5.77-3.39-7.61-.95-.81-2.33,.57-1.38,1.38,1.79,1.54,3.01,3.82,2.82,6.23s-1.87,4.06-3.98,4.85c-5.23,1.92-10.16-1.52-14.19-4.5-1-.73-1.98,.95-.98,1.68h0l.03-.03Z"/>
        <path class="cls-19" d="M404.71,375.13c-.11,6.45,6.39,10.27,12.11,10.83,2.84,.27,5.66-.6,7.31-3.03,1.41-2.09,1.6-4.82,.51-7.1-.54-1.14-2.19-.14-1.68,.98,.81,1.71,.49,3.85-.65,5.34-1.44,1.9-3.95,2.17-6.15,1.79-4.47-.73-9.59-3.68-9.51-8.8,0-1.25-1.92-1.25-1.95,0h0Z"/>
        <path class="cls-19" d="M347.77,360.15c8.67,4.74,15.93,11.65,21.72,19.61,6.23,8.53,11.51,17.77,15.52,27.52,.46,1.14,2.36,.65,1.87-.51-7.75-18.8-19.83-38.27-38.14-48.27-1.08-.6-2.09,1.08-.98,1.68h0v-.03Z"/>
        <circle class="cls-23" cx="119.06" cy="197.74" r="21.91"/>
        <ellipse class="cls-19" cx="166.89" cy="255.46" rx="12.62" ry="10.29" transform="translate(-105.05 393.87) rotate(-83.82)"/>
        <ellipse class="cls-19" cx="258.54" cy="270.68" rx="12.62" ry="10.29" transform="translate(-52.78 478.51) rotate(-80.04)"/>
        <path class="cls-19" d="M127.67,177.13c1.25,0,1.25-1.95,0-1.95s-1.25,1.95,0,1.95h0Z"/>
        <path class="cls-19" d="M127.67,175.1c-7.2-.68-14.82-.46-21.29,3.17-6.01,3.39-9.05,8.88-10.27,15.52-1.22,6.64,.16,12.92,4.58,18.07s10.97,7.72,17.61,8.23c1.25,.08,1.25-1.84,0-1.95-6.12-.46-12.16-2.9-16.22-7.67-4.39-5.12-5.2-11.38-3.74-17.8,1.35-6.01,4.58-10.59,10.18-13.35,5.93-2.9,12.73-2.9,19.15-2.3,1.25,.11,1.22-1.81,0-1.95h0v.03Z"/>
        <path class="cls-23" d="M118.52,232.63c-5.23-.98-10.78-1.71-15.76,.16-6.64,2.46-11.08,9.45-11.32,16.55-.08,2.09,.19,4.2,.76,6.2,.54,1.9,1.35,3.74,2.52,5.34,3.79,5.2,10.56,7.15,16.9,8.21"/>
        <path class="cls-19" d="M121.93,207.9v11.08c0,1.25,1.95,1.25,1.95,0v-11.08c0-1.25-1.95-1.25-1.95,0h0Z"/>
        <path class="cls-19" d="M329.98,224.45c-1.27,8.88-2.93,17.69-4.2,26.57-.16,1.22,1.68,1.73,1.87,.51,1.27-8.88,2.93-17.69,4.2-26.57,.16-1.22-1.68-1.73-1.87-.51h0Z"/>
        <path class="cls-19" d="M324.78,256.33l-1.22,7.1c-.08,.51,.14,1.06,.68,1.19,.46,.14,1.11-.16,1.19-.68l1.22-7.1c.08-.51-.14-1.06-.68-1.19-.46-.14-1.11,.16-1.19,.68h0Z"/>
        <g>
          <path class="cls-19" d="M14.86,312.8c11,2.14,22.08,3.82,33.21,5.09,1.19,.14,2.17-1.11,2.19-2.19,0-1.3-1.03-2.06-2.19-2.19-10.75-1.22-21.43-2.87-32.04-4.93-2.76-.54-3.93,3.68-1.16,4.23h0Z"/>
          <path class="cls-19" d="M15.4,305.62c11,2.14,22.08,3.82,33.21,5.09,1.19,.14,2.17-1.11,2.19-2.19,0-1.3-1.03-2.06-2.19-2.19-10.75-1.22-21.43-2.87-32.04-4.93-2.76-.54-3.93,3.68-1.16,4.23h0Z"/>
          <path class="cls-19" d="M16.95,298.36c11,2.14,22.08,3.82,33.21,5.09,1.19,.14,2.17-1.11,2.19-2.19,0-1.3-1.03-2.06-2.19-2.19-10.75-1.22-21.43-2.87-32.04-4.93-2.76-.54-3.93,3.68-1.16,4.23h0Z"/>
          <path class="cls-19" d="M17.98,291.13c11,2.14,22.08,3.82,33.21,5.09,1.19,.14,2.17-1.11,2.19-2.19,0-1.3-1.03-2.06-2.19-2.19-10.75-1.22-21.43-2.87-32.04-4.93-2.76-.54-3.93,3.68-1.16,4.23h0Z"/>
        </g>
        <g>
          <path class="cls-19" d="M183.61,34.55c-1.22-11.16-2.44-22.29-3.63-33.45l-.98,.98c2.49-.11,5.01-.05,7.45,.57,2.03,.51,2.55,1.49,2.87,3.47,.24,1.46,.49,2.93,.73,4.39,.62,3.79,1.25,7.56,1.9,11.35,1.71,10.35,3.44,20.69,5.15,31.01,3.79,22.78,7.58,45.59,11.35,68.37,1.44,8.59,2.87,17.2,4.28,25.79,.22,1.22,2.06,.7,1.87-.51-7.02-42.04-13.98-84.05-20.96-126.09-.7-4.2-1.38-8.4-2.09-12.57-.3-1.79-.33-4.42-1.65-5.77-2.41-2.44-7.88-2.11-10.92-1.98-.49,0-1.03,.43-.98,.98,1.19,11.16,2.41,22.29,3.63,33.45,.14,1.22,2.06,1.25,1.95,0h0l.03,.03Z"/>
          <path class="cls-19" d="M199.37,144.71c-3.09-28.2-8.4-56.2-12.46-84.26-.98-6.74-1.95-13.49-2.71-20.26-.14-1.22-2.09-1.25-1.95,0,3.22,29.33,8.53,58.45,12.84,87.65,.84,5.61,1.71,11.24,2.33,16.87,.14,1.22,2.09,1.25,1.95,0h0Z"/>
        </g>
        <path class="cls-19" d="M235.77,150.53c12.76-27.79,26.82-54.98,40.17-82.48,3.06-6.34,6.12-12.65,9.07-19.04,.27-.62,.05-1.19-.57-1.44-3.28-1.27-9.56-3.74-12.27-.33-1.87,2.36-3.09,5.61-4.5,8.26-3.82,7.15-7.64,14.3-11.46,21.48-8.72,16.31-17.42,32.61-26.14,48.92-3.76,7.04-7.53,14.11-11.27,21.18-.6,1.11,1.08,2.09,1.68,.98,14.95-28.2,30.07-56.28,45.07-84.45,1.76-3.3,3.52-6.58,5.25-9.89,.7-1.3,1.38-2.63,2.09-3.93,2.06-3.82,7.77-1.6,11.02-.35l-.57-1.44c-12.76,27.79-26.82,54.98-40.17,82.48-3.06,6.34-6.12,12.65-9.07,19.04-.51,1.14,1.16,2.11,1.68,.98h0l-.03,.03Z"/>
        <path class="cls-5" d="M220.17,281.44c2.44,.35,3.95,2.9,3.06,5.2-2.95,7.72-10.13,13-17.17,11.97s-12.84-8.1-14.33-16.28c-.46-2.57,1.81-4.85,4.42-4.44l24.03,3.58v-.03Z"/>
        <path class="cls-19" d="M219.9,282.36c5.12,1.06,1.19,7.02-.65,9.32-2.09,2.6-4.88,4.71-8.13,5.63-6.96,1.98-13.16-2.87-16.28-8.78-1.25-2.36-4.17-8.4-.14-9.62,1-.3,2.22,.05,3.22,.19l12.11,1.79c3.28,.49,6.55,.98,9.86,1.46,1.22,.19,1.73-1.68,.51-1.87-7.91-1.16-15.82-2.41-23.73-3.52-2.46-.35-4.93,.73-5.74,3.25-.57,1.79,.14,3.87,.7,5.58,.65,1.92,1.52,3.76,2.63,5.47,4.14,6.37,11.54,10.35,18.99,7.31,3.98-1.63,7.23-4.77,9.37-8.45,1.03-1.76,2.19-3.9,1.68-6.01-.46-1.9-2-3.28-3.9-3.66-1.22-.24-1.73,1.63-.51,1.87v.03Z"/>
        <g>
          <path class="cls-19" d="M46.47,142.97l29.71,4.63c1.16,.19,2.33-.3,2.68-1.52,.3-1.03-.35-2.52-1.52-2.68l-29.71-4.63c-1.16-.19-2.33,.3-2.68,1.52-.3,1.03,.35,2.52,1.52,2.68h0Z"/>
          <path class="cls-19" d="M43.41,150.64l29.71,4.63c1.16,.19,2.33-.3,2.68-1.52,.3-1.03-.35-2.52-1.52-2.68l-29.71-4.63c-1.16-.19-2.33,.3-2.68,1.52-.3,1.03,.35,2.52,1.52,2.68h0Z"/>
          <path class="cls-19" d="M41.89,158.28c9.91,1.54,19.8,3.09,29.71,4.63,1.16,.19,2.33-.3,2.68-1.52,.3-1.03-.35-2.52-1.52-2.68l-29.71-4.63c-1.16-.19-2.33,.3-2.68,1.52-.3,1.03,.35,2.52,1.52,2.68h0Z"/>
        </g>
        <path class="cls-19" d="M279.9,203.24l16.74-9.34c1.08-.6,.11-2.28-.98-1.68l-16.74,9.34c-1.08,.6-.11,2.28,.98,1.68h0Z"/>
        <path class="cls-19" d="M291.35,203.27c2.6-1.71,5.2-3.41,7.8-5.12,.43-.3,.62-.87,.35-1.33-.24-.43-.89-.62-1.33-.35-2.6,1.71-5.2,3.41-7.8,5.12-.43,.3-.62,.87-.35,1.33,.24,.43,.89,.62,1.33,.35h0Z"/>
        <ellipse class="cls-5" cx="164.98" cy="253.32" rx="5.39" ry="4.39" transform="translate(-104.62 390.07) rotate(-83.82)"/>
        <ellipse class="cls-5" cx="257.28" cy="269.04" rx="5.39" ry="4.39" transform="translate(-37.89 495.87) rotate(-83.82)"/>
        <path class="cls-19" d="M351.86,361.94c-.7,3.14-1.38,6.28-1.9,9.45-.08,.51,.14,1.03,.68,1.19,.46,.14,1.11-.16,1.19-.68,.51-3.17,1.22-6.31,1.9-9.45,.27-1.22-1.6-1.73-1.87-.51h0Z"/>
        <path class="cls-19" d="M355.3,364.7c-1,4.12-1.87,8.26-2.68,12.43-.24,1.22,1.63,1.73,1.87,.51,.81-4.17,1.68-8.32,2.68-12.43,.3-1.22-1.57-1.73-1.87-.51h0Z"/>
        <path class="cls-19" d="M359.23,367.84c-1.38,4.96-3.3,9.81-3.66,14.98-.08,1.25,1.84,1.25,1.95,0,.35-4.98,2.28-9.7,3.6-14.46,.33-1.19-1.54-1.71-1.87-.51h-.03Z"/>
        <path class="cls-19" d="M362.02,370.71c-1,5.55-1.95,11.11-3.01,16.66-.22,1.22,1.63,1.73,1.87,.51,1.03-5.55,1.98-11.11,3.01-16.66,.22-1.22-1.65-1.73-1.87-.51h0Z"/>
        <path class="cls-19" d="M365.54,374.94c-1.22,5.39-1.22,10.97-2.84,16.25-.38,1.19,1.49,1.71,1.87,.51,1.63-5.31,1.63-10.89,2.84-16.25,.27-1.22-1.6-1.73-1.87-.51h0Z"/>
        <path class="cls-19" d="M369.74,380.49c-.43,1.25-.89,2.46-1.16,3.76s-.33,2.46-.35,3.74c-.03,2.49-.49,4.96-1.46,7.29-.22,.49-.14,1.03,.35,1.33,.41,.24,1.11,.14,1.33-.35,1-2.36,1.6-4.85,1.71-7.42,.05-1.33,0-2.63,.27-3.93s.73-2.6,1.19-3.9c.43-1.16-1.46-1.68-1.87-.51h0Z"/>
        <path class="cls-19" d="M372.45,384.44c-.98,4.58-1.79,9.18-2.41,13.81-.08,.51,.14,1.03,.68,1.19,.46,.14,1.11-.16,1.19-.68,.62-4.63,1.44-9.24,2.41-13.81,.27-1.22-1.6-1.73-1.87-.51h0Z"/>
        <path class="cls-19" d="M375.89,389.37c-1.06,4.14-1.6,8.4-1.63,12.68,0,1.25,1.92,1.25,1.95,0,0-4.12,.54-8.18,1.54-12.16,.3-1.22-1.57-1.73-1.87-.51h0Z"/>
        <path class="cls-19" d="M379.44,395.17c-.95,2.87-1.16,5.93-1.38,8.94-.03,.51,.46,.98,.98,.98,.54,0,.92-.43,.98-.98,.19-2.84,.41-5.69,1.33-8.42,.16-.49-.19-1.06-.68-1.19-.51-.14-1.03,.19-1.19,.68h-.03Z"/>
        <circle class="cls-12" cx="123.77" cy="197.96" r="21.91"/>
        <path class="cls-18" d="M328.49,206.3c-5.44,37.16-10.54,62.14-17.23,99l-.95,4.69c-1.22,5.72-2.25,10.83-3.44,16.58l-1.16,5.09c-1.3,4.79-3.25,12.49-7.99,14-1.84,.57-3.79,.35-5.72,.14-4.06-.46-8.13-.98-12.16-1.46,5.69-3.47,9.43-11.46,10.54-16.85,8.45-41.25,16.87-82.56,22.21-124.32,.68-5.34,1.27-10.89-.54-15.95-1.06-3.01-3.63-6.31-6.99-8.48,2.46,.43,4.9,.87,7.34,1.3,3.71,.65,7.56,1.38,10.56,3.66,6.5,4.9,6.69,14.57,5.53,22.62Z"/>
        <path class="cls-19" d="M308.88,310.12c-1.16,5.53-2.28,11.05-3.44,16.58-.24,1.22,1.6,1.73,1.87,.51,1.16-5.53,2.28-11.05,3.44-16.58,.24-1.22-1.6-1.73-1.87-.51h0Z"/>
        <path class="cls-19" d="M303.76,180.03c11.54,4.55,7.72,21.15,6.45,30.53-1.54,11.4-3.33,22.81-5.25,34.16-3.9,22.94-8.42,45.78-13.06,68.58-1.22,5.96-2.19,12-3.74,17.9-1.3,5.01-3.44,10.46-8.59,12.54-1.14,.46-.65,2.33,.51,1.87,8.45-3.44,9.94-13.46,11.54-21.37,2.71-13.25,5.42-26.49,7.99-39.76,5.07-25.98,9.67-52.03,13.11-78.25,1.27-9.78,2.76-23.62-8.45-28.03-1.16-.46-1.65,1.41-.51,1.87h0v-.03Z"/>
        <circle class="cls-12" cx="114.67" cy="250.34" r="18.36"/>
        <path class="cls-19" d="M117.98,230.76c-5.36-.98-10.86-1.35-16.01,.73-3.9,1.57-7.1,4.66-9.1,8.34-4.39,8.13-2.82,19.07,4.66,24.81,3.87,2.98,8.69,4.01,13.49,4.25,1.25,.05,1.25-1.87,0-1.95-4.79-.24-9.7-1.35-13.33-4.69-4.12-3.76-5.9-9.56-5.23-15.03,.62-4.93,3.36-9.72,7.5-12.51,5.17-3.47,11.62-3.17,17.47-2.09,1.22,.22,1.73-1.65,.51-1.87h.03Z"/>
        <path class="cls-5" d="M110.88,199.2c-1-2.52-.81-5.09,.24-7.48,.54-1.25,1.27-2.41,2.11-3.33,.92-1.06,1.87-1.81,3.11-2.11,1.06-.24,1.71-1.46,1.41-2.49-.3-1.08-1.44-1.68-2.49-1.41-3.52,.84-6.2,4.17-7.64,7.34s-2.03,7.18-.65,10.62c.41,1.03,1.35,1.73,2.49,1.41,.98-.27,1.84-1.46,1.41-2.49h0v-.05Z"/>
        <path class="cls-5" d="M121.15,184.71c2.63,0,2.63-4.06,0-4.06s-2.63,4.06,0,4.06h0Z"/>
        <path class="cls-19" d="M133.31,197.96c-.05,3.76-2.38,7.26-5.99,8.53s-7.69,.16-10.13-2.79-2.68-7.15-.76-10.4,5.77-4.98,9.45-4.28c4.28,.81,7.34,4.58,7.39,8.94,0,1.25,1.95,1.25,1.95,0-.05-4.58-2.87-8.67-7.15-10.32s-9.43-.27-12.35,3.3-3.36,8.67-.98,12.65,6.99,5.99,11.51,5.17c5.2-.92,8.88-5.61,8.97-10.81,0-1.25-1.92-1.25-1.95,0h.03Z"/>
        <path class="cls-19" d="M124.1,187.37v-10.7c0-.84-1.27-.84-1.27,0v10.7c0,.84,1.27,.84,1.27,0h0Z"/>
        <path class="cls-19" d="M107.31,209.31c2.84-1.41,5.61-2.98,8.29-4.69,.7-.43,.05-1.54-.65-1.11-2.68,1.71-5.44,3.25-8.29,4.69-.73,.38-.08,1.49,.65,1.11h0Z"/>
        <path class="cls-19" d="M133.34,192.76c3.17-1.76,6.39-3.39,9.56-5.17,.73-.41,.08-1.52-.65-1.11-3.17,1.76-6.39,3.39-9.56,5.17-.73,.41-.08,1.52,.65,1.11h0Z"/>
        <path class="cls-19" d="M106.74,186.01c2.65,1.95,5.31,3.87,7.96,5.82,.27,.22,.7,.05,.87-.24,.19-.33,.05-.68-.24-.87-2.65-1.95-5.31-3.87-7.96-5.82-.27-.22-.7-.05-.87,.24-.19,.33-.05,.68,.24,.87h0Z"/>
        <path class="cls-19" d="M128.92,189.05c1.76-3.25,3.33-6.61,5.04-9.91,.38-.73-.73-1.38-1.11-.65-1.71,3.28-3.28,6.64-5.04,9.91-.41,.73,.7,1.38,1.11,.65h0Z"/>
        <path class="cls-19" d="M103.38,197.77l9.94,.22c.84,0,.84-1.27,0-1.27l-9.94-.22c-.84,0-.84,1.27,0,1.27h0Z"/>
        <path class="cls-19" d="M113.7,216.62c1.84-2.98,3.79-5.88,5.82-8.72,.49-.68-.62-1.33-1.11-.65-2.03,2.84-3.98,5.77-5.82,8.72-.43,.7,.68,1.35,1.11,.65h0Z"/>
        <path class="cls-19" d="M113.35,179.92c1.63,3.17,3.36,6.28,5.17,9.37,.43,.7,1.54,.05,1.11-.65-1.81-3.06-3.55-6.2-5.17-9.37-.38-.73-1.49-.08-1.11,.65h0Z"/>
        <path class="cls-5" d="M123.67,167.59c1.44-4.79,3.39-10.13,7.61-13.16,4.47-3.22,10.43-3.25,15.63-2.09,1.6,.35,3.3-.49,3.74-2.14,.41-1.52-.51-3.39-2.14-3.74-6.74-1.49-14.46-1.41-20.31,2.71s-8.51,10.37-10.4,16.82c-1.11,3.76,4.77,5.39,5.88,1.63h0v-.03Z"/>
        <path class="cls-5" d="M158.39,153.83c3.93,0,3.93-6.09,0-6.09s-3.93,6.09,0,6.09h0Z"/>
        <path class="cls-5" d="M105.25,324.1c5.61,4.31,12.46,6.74,19.5,7.2,1.6,.11,3.11-1.49,3.03-3.03-.08-1.73-1.33-2.93-3.03-3.03-1.84-.11-2.46-.22-4.31-.62-1.49-.33-2.95-.79-4.36-1.33-1.03-.38-2.33-1-3.68-1.73-1.41-.79-2.76-1.71-4.06-2.68s-3.47-.24-4.17,1.08c-.87,1.63-.27,3.11,1.08,4.17h0v-.03Z"/>
        <path class="cls-5" d="M105.3,247.9c-.05-.57,0-1.14,.05-1.71l-.11,.81c.11-.76,.33-1.52,.62-2.22l-.3,.73c.3-.68,.68-1.3,1.11-1.9l-.49,.62c.49-.62,1.03-1.16,1.63-1.65l-.62,.49c.51-.41,1.08-.73,1.68-.98l-.73,.3,.11-.05c.76-.33,1.38-.65,1.81-1.41,.38-.65,.54-1.63,.3-2.36s-.7-1.44-1.41-1.81-1.63-.62-2.36-.3c-1.33,.57-2.41,1.19-3.52,2.14-.87,.76-1.63,1.68-2.22,2.65-1.22,1.95-1.87,4.39-1.71,6.66,.05,.81,.3,1.57,.89,2.17,.54,.54,1.41,.92,2.17,.89,1.54-.08,3.17-1.35,3.03-3.03h0l.05-.05Z"/>
        <g>
          <path class="cls-19" d="M71.8,304.05c5.55-.16,11.11,.16,16.58,1.08,2.68,.46,5.36,1.03,7.99,1.73,.49,.14,1.57,.24,1.95,.62,.76,.73,.22,1.71-.24,2.36-.62,.89-1.52,1.52-2.46,2-3.82,1.95-8.86,1.79-12.89,.73-4.36-1.14-8.29-3.55-11.24-6.96-.81-.95-2.19,.43-1.38,1.38,5.42,6.23,14.03,9.32,22.18,7.91,3.36-.57,7.72-2.38,8.37-6.2,.38-2.22-1.44-3.06-3.25-3.58-2.55-.7-5.12-1.27-7.72-1.73-5.9-1.06-11.92-1.46-17.9-1.3-1.25,.03-1.25,1.98,0,1.95h.03Z"/>
          <path class="cls-19" d="M73.58,288.23c5.55-.16,11.11,.16,16.58,1.08,2.68,.46,5.36,1.03,7.99,1.73,.49,.14,1.57,.24,1.95,.62,.76,.73,.22,1.71-.24,2.36-.62,.89-1.52,1.52-2.46,2-3.82,1.95-8.86,1.79-12.89,.73-4.36-1.14-8.29-3.55-11.24-6.96-.81-.95-2.19,.43-1.38,1.38,5.42,6.23,14.03,9.32,22.18,7.91,3.36-.57,7.72-2.38,8.37-6.2,.38-2.22-1.44-3.06-3.25-3.58-2.55-.7-5.12-1.27-7.72-1.73-5.9-1.06-11.92-1.46-17.9-1.3-1.25,.03-1.25,1.98,0,1.95h.03Z"/>
          <path class="cls-19" d="M76.13,271.93c5.55-.16,11.11,.16,16.58,1.08,2.68,.46,5.36,1.03,7.99,1.73,.49,.14,1.57,.24,1.95,.62,.76,.73,.22,1.71-.24,2.36-.62,.89-1.52,1.52-2.46,2-3.82,1.95-8.86,1.79-12.89,.73-4.36-1.14-8.29-3.55-11.24-6.96-.81-.95-2.19,.43-1.38,1.38,5.42,6.23,14.03,9.32,22.18,7.91,3.36-.57,7.72-2.38,8.37-6.2,.38-2.22-1.44-3.06-3.25-3.58-2.55-.7-5.12-1.27-7.72-1.73-5.9-1.06-11.92-1.46-17.9-1.3-1.25,.03-1.25,1.98,0,1.95h.03Z"/>
        </g>
        <g>
          <path class="cls-19" d="M132.44,249.96c-.11,7.26-4.6,13.92-11.51,16.36s-14.65,.3-19.29-5.31-5.23-13.73-1.52-19.96,11.08-9.53,18.2-8.18c8.18,1.57,14,8.83,14.14,17.09,0,1.25,1.95,1.25,1.95,0-.11-7.99-4.98-15.2-12.49-18.07s-16.6-.51-21.78,5.82c-5.17,6.34-5.8,15.22-1.65,22.13s12.24,10.54,20.12,9.1c9.13-1.65,15.66-9.83,15.79-18.99,0-1.25-1.92-1.25-1.95,0h-.03Z"/>
          <path class="cls-19" d="M122.5,249.96c-.05,3.09-1.95,5.93-4.9,6.99s-6.34,.14-8.32-2.3-2.19-5.88-.62-8.51,4.71-4.09,7.75-3.49c3.52,.68,6.04,3.76,6.09,7.31,0,1.25,1.95,1.25,1.95,0-.05-3.9-2.44-7.39-6.09-8.78s-8.02-.24-10.48,2.82-2.87,7.39-.84,10.78,5.96,5.09,9.81,4.42c4.42-.79,7.56-4.79,7.61-9.21,0-1.25-1.92-1.25-1.95,0v-.03Z"/>
        </g>
        <path class="cls-19" d="M106.68,234.55l3.52,7.04c.38,.73,1.49,.08,1.11-.65l-3.52-7.04c-.38-.73-1.49-.08-1.11,.65h0Z"/>
        <path class="cls-19" d="M117.68,258.3l3.11,7.64c.14,.33,.43,.54,.79,.46,.3-.08,.57-.46,.46-.79l-3.11-7.64c-.14-.33-.43-.54-.79-.46-.3,.08-.57,.46-.46,.79h0Z"/>
        <path class="cls-19" d="M99.45,258.3c2.76-1.16,5.5-2.41,8.18-3.71,.76-.35,.08-1.46-.65-1.11-2.6,1.25-5.23,2.46-7.88,3.58-.33,.14-.54,.43-.46,.79,.08,.3,.46,.6,.79,.46h.03Z"/>
        <path class="cls-19" d="M123.02,246.14l7.69-3.74c.73-.35,.08-1.46-.65-1.11l-7.69,3.74c-.73,.35-.08,1.46,.65,1.11h0Z"/>
        <path class="cls-19" d="M111.64,258.2c-.76,2.79-1.54,5.61-2.3,8.4-.22,.81,1.03,1.14,1.25,.35,.76-2.79,1.54-5.61,2.3-8.4,.22-.81-1.03-1.14-1.25-.35h0Z"/>
        <path class="cls-19" d="M118.09,241.75c.76-2.93,1.54-5.82,2.33-8.72,.22-.81-1.03-1.14-1.25-.35-.79,2.9-1.57,5.82-2.33,8.72-.22,.81,1.03,1.14,1.25,.35h0Z"/>
        <path class="cls-19" d="M123.58,252.26l7.85,2.49c.79,.24,1.14-1,.35-1.25l-7.85-2.49c-.79-.24-1.14,1-.35,1.25h0Z"/>
        <path class="cls-19" d="M98.1,244.6c2.74,.79,5.44,1.71,8.1,2.74,.33,.14,.7-.14,.79-.46,.11-.35-.14-.68-.46-.79-2.65-1.03-5.36-1.95-8.1-2.74-.79-.22-1.14,1-.35,1.25h.03Z"/>
        <g>
          <path class="cls-19" d="M83.93,279.89l5.72-7.39c.22-.27,.05-.73-.24-.87-.33-.19-.68-.05-.87,.24l-5.72,7.39c-.22,.27-.05,.73,.24,.87,.33,.19,.68,.05,.87-.24h0Z"/>
          <path class="cls-19" d="M88.97,281.3c2.03-2.84,4.33-5.5,6.47-8.26,.22-.27,.27-.65,0-.92-.22-.22-.7-.27-.92,0-2.22,2.84-4.58,5.58-6.66,8.51-.22,.27-.05,.7,.24,.87,.33,.19,.68,.05,.87-.24h0v.05Z"/>
          <path class="cls-19" d="M94.28,282.3c2.06-2.71,4.2-5.39,6.39-7.99,.54-.62-.38-1.54-.92-.92-2.28,2.71-4.47,5.44-6.61,8.26-.22,.27-.05,.73,.24,.87,.33,.19,.68,.05,.87-.24h0l.03,.03Z"/>
          <path class="cls-19" d="M79.76,277.4c1.54-1.81,3.14-3.6,4.58-5.5,.22-.27,.05-.73-.24-.87-.33-.19-.68-.05-.87,.24-1.38,1.81-2.93,3.49-4.39,5.25-.22,.27-.27,.65,0,.92,.22,.22,.68,.27,.92,0h0v-.05Z"/>
        </g>
        <g>
          <path class="cls-19" d="M80.87,296.09l5.72-7.39c.22-.27,.05-.73-.24-.87-.33-.19-.68-.05-.87,.24l-5.72,7.39c-.22,.27-.05,.73,.24,.87,.33,.19,.68,.05,.87-.24h0Z"/>
          <path class="cls-19" d="M85.91,297.5c2.03-2.84,4.33-5.5,6.47-8.26,.22-.27,.27-.65,0-.92-.22-.22-.7-.27-.92,0-2.22,2.84-4.58,5.58-6.66,8.51-.22,.27-.05,.7,.24,.87,.33,.19,.68,.05,.87-.24h0v.05Z"/>
          <path class="cls-19" d="M91.22,298.5c2.06-2.71,4.2-5.39,6.39-7.99,.54-.62-.38-1.54-.92-.92-2.28,2.71-4.47,5.44-6.61,8.26-.22,.27-.05,.73,.24,.87,.33,.19,.68,.05,.87-.24h0l.03,.03Z"/>
          <path class="cls-19" d="M76.7,293.57c1.54-1.81,3.14-3.6,4.58-5.5,.22-.27,.05-.73-.24-.87-.33-.19-.68-.05-.87,.24-1.38,1.81-2.93,3.49-4.39,5.25-.22,.27-.27,.65,0,.92,.22,.22,.68,.27,.92,0h0v-.05Z"/>
        </g>
        <g>
          <path class="cls-19" d="M78.7,311.77l5.72-7.39c.22-.27,.05-.73-.24-.87-.33-.19-.68-.05-.87,.24l-5.72,7.39c-.22,.27-.05,.73,.24,.87,.33,.19,.68,.05,.87-.24h0Z"/>
          <path class="cls-19" d="M83.74,313.18c2.03-2.84,4.33-5.5,6.47-8.26,.22-.27,.27-.65,0-.92-.22-.22-.7-.27-.92,0-2.22,2.84-4.58,5.58-6.66,8.51-.22,.27-.05,.7,.24,.87,.33,.19,.68,.05,.87-.24h0v.05Z"/>
          <path class="cls-19" d="M89.05,314.16c2.06-2.71,4.2-5.39,6.39-7.99,.54-.62-.38-1.54-.92-.92-2.28,2.71-4.47,5.44-6.61,8.26-.22,.27-.05,.73,.24,.87,.33,.19,.68,.05,.87-.24h0l.03,.03Z"/>
          <path class="cls-19" d="M74.53,309.25c1.54-1.81,3.14-3.6,4.58-5.5,.22-.27,.05-.73-.24-.87-.33-.19-.68-.05-.87,.24-1.38,1.81-2.93,3.49-4.39,5.25-.22,.27-.27,.65,0,.92,.22,.22,.68,.27,.92,0h0v-.05Z"/>
        </g>
        <path class="cls-17" d="M198.8,337.42c12.51,24.97,24.78,53.58,46.67,71.86,23.32,19.53,56.37,24.68,85.84,20.37,17.82-2.6,34.78-9.34,50.41-18.15,4.55-2.57,.46-9.59-4.09-7.02-26.54,14.95-56.31,21.91-86.62,16.52-13.73-2.44-27.17-7.45-38.19-16.17-10.32-8.15-18.53-18.69-25.54-29.74-8.21-12.89-21.78-40.28-21.78-40.28,0,0-9.99-3.98-7.64,.68l.95,1.92h0Z"/>
        <path class="cls-17" d="M247.31,399.75c12.59,19.04,35.75,23.78,57.1,24.89,21.34,1.11,44.29-.14,62.87-12.03,4.39-2.82,.33-9.86-4.09-7.02-16.71,10.7-37.03,11.84-56.31,11.02s-41.17-3.79-52.52-20.96c-2.87-4.33-9.91-.27-7.02,4.09h-.03Z"/>
        <path class="cls-5" d="M310.83,376.13c3.93,0,3.93-6.09,0-6.09s-3.93,6.09,0,6.09h0Z"/>
        <path class="cls-5" d="M323.07,376.13c4.5,.24,8.97-.76,13-2.71,1.44-.7,1.92-2.87,1.08-4.17-.95-1.49-2.63-1.84-4.17-1.08-.24,.11-.51,.24-.76,.35-.65,.3,.65-.24-.03,0-.46,.16-.89,.35-1.35,.49-.89,.3-1.79,.54-2.71,.7-.43,.08-.89,.14-1.33,.22,.92-.19,0,0-.22,0s-.41,.03-.62,.05c-.98,.05-1.92,.08-2.9,0-1.6-.08-3.11,1.46-3.03,3.03,.08,1.73,1.33,2.95,3.03,3.03h0v.08Z"/>
        <path class="cls-19" d="M28.57,198.74l16.9-6.96c1.14-.46,.65-2.33-.51-1.87l-16.9,6.96c-1.14,.46-.65,2.33,.51,1.87h0Z"/>
        <path class="cls-19" d="M38.53,199.26l9.18-4.06c.49-.22,.6-.92,.35-1.33-.3-.49-.84-.57-1.33-.35l-9.18,4.06c-.49,.22-.6,.92-.35,1.33,.3,.49,.84,.57,1.33,.35h0Z"/>
        <path class="cls-19" d="M251.51,100.56c3.36-5.44,6.37-11.08,8.99-16.9,.51-1.14-1.16-2.11-1.68-.98-2.63,5.82-5.63,11.48-8.99,16.9-.65,1.06,1.03,2.03,1.68,.98h0Z"/>
        <path class="cls-19" d="M260.86,80.62c1.25,0,1.25-1.95,0-1.95s-1.25,1.95,0,1.95h0Z"/>
        <path class="cls-18" d="M175.16,167.19c29.93,4.28,59.94,8.07,89.76,13.06,5.12,.87,7.31-6.99,2.17-7.83-29.82-4.98-59.83-8.8-89.76-13.06-2.19-.33-4.33,.54-5.01,2.84-.54,1.9,.68,4.69,2.84,5.01h0v-.03Z"/>
        <path class="cls-18" d="M138.26,323.66c30.07,4.58,60,10.27,90.17,14.11,5.17,.65,5.12-7.48,0-8.13-29.47-3.74-58.67-9.34-88.03-13.81-5.12-.79-7.31,7.04-2.17,7.83h.03Z"/>
        <path class="cls-19" d="M129,175.96c.76-3.85,1.22-7.88,2.71-11.51,2.09-5.15,6.45-7.37,11.89-7.15,11.29,.43,22.75,2.55,33.97,3.93,23.21,2.87,46.4,6.01,69.53,9.48,23.13,3.47,45.18,6.37,67.34,11.16,5.55,1.19,9.99,3.85,11.92,9.43,1.44,4.14,1.41,8.72,.95,13.03-1.14,10.92-3.25,21.83-5.07,32.67-3.85,22.86-8.26,45.61-12.41,68.45-.22,1.22,1.65,1.73,1.87,.51,4.01-22.05,8.26-44.07,12.03-66.14,1.92-11.32,3.93-22.64,5.36-34.05,.98-7.67,.76-17.34-6.04-22.45-4.01-3.03-9.29-3.55-14.08-4.42-6.18-1.11-12.38-2.19-18.58-3.22-12.3-2.09-24.59-4.06-36.92-5.93-24.38-3.71-48.84-7.07-73.32-10.13-6.91-.87-13.81-1.71-20.75-2.52-6.18-.73-13.3-2.55-19.5-1.57-9.94,1.6-11.19,11.73-12.78,19.94-.24,1.22,1.63,1.73,1.87,.51h.03Z"/>
        <path class="cls-13" d="M190,337.4c1.22,4.52,3.55,8.64,5.9,12.65,1.9,3.25,3.47,6.66,5.36,9.89,1.08,1.84,3.71,2.65,5.55,1.46s2.6-3.6,1.46-5.55c-1.84-3.11-3.33-6.42-5.17-9.56-1.08-1.84-2.17-3.68-3.14-5.58-.24-.46-.46-.92-.68-1.38-.11-.24-.22-.46-.33-.7-.11-.27-.19-.49-.05-.08-.41-1.08-.79-2.17-1.11-3.28-.57-2.06-2.93-3.52-5.01-2.84s-3.44,2.79-2.84,5.01h0l.05-.03Z"/>
        <path class="cls-19" d="M196.04,333.41c12.89,29.61,27.33,61.86,54.79,80.8,13.81,9.53,30.42,13.98,46.91,16.2,14.76,1.98,29.88,1.81,44.48-1.11,16.41-3.3,31.88-10.35,44.45-21.48,.57-.51,.22-1.41-.43-1.63-20.07-6.93-34.97-25.73-37.08-46.89-.05-.57-.57-1.16-1.22-.92-27.06,9.53-58.37,3.49-79.88-15.52-.92-.81-2.3,.54-1.38,1.38,21.99,19.45,54.04,25.79,81.77,16.03l-1.22-.92c2.22,22.05,17.55,41.5,38.49,48.75l-.43-1.63c-22.54,19.96-53.9,25.62-83.13,22.56-16.12-1.68-32.8-5.55-46.72-14.08s-23.94-19.99-32.45-32.94c-10.16-15.52-17.9-32.56-25.3-49.54-.49-1.14-2.17-.16-1.68,.98h0l.03-.05Z"/>
        <path class="cls-19" d="M110.04,267.92c-1.3,6.69-2.6,13.41-3.39,20.18-.79,6.77-2.82,15.36,0,21.94,2.49,5.82,8.67,8.61,14.44,10.16,8.64,2.3,17.74,3.44,26.54,5.01,39,6.99,78.12,13.43,117.42,18.66,5.74,.76,11.46,1.49,17.2,2.19,4.47,.54,9.67,2,14.14,1.19,6.53-1.19,8.34-9.59,9.81-14.95,.33-1.19-1.54-1.71-1.87-.51-.79,2.84-1.52,5.74-2.82,8.4-2.03,4.2-4.71,5.58-9.4,5.12-8.83-.89-17.61-2.11-26.41-3.28-18.2-2.41-36.35-5.09-54.47-7.96s-35.08-5.77-52.57-8.86c-8.75-1.54-17.52-3.11-26.27-4.71-6.77-1.25-14.79-2-20.34-6.53-7.07-5.77-4.5-16.28-3.63-24.16,.79-7.18,2.14-14.25,3.52-21.32,.24-1.22-1.63-1.73-1.87-.51h0l-.03-.05Z"/>
        <g>
          <path class="cls-19" d="M170.39,3.89c4.01,37.73,10.29,75.22,15.36,112.81,1.19,8.88,2.38,17.77,3.33,26.71,.14,1.22,2.06,1.25,1.95,0-4.01-37.73-10.29-75.22-15.36-112.81-1.19-8.88-2.38-17.77-3.33-26.71-.14-1.22-2.06-1.25-1.95,0h0Z"/>
          <path class="cls-19" d="M172.15,4.37c.16-.19,.35-.38,.57-.54,.14-.11-.19,.11,.05-.03,.05-.03,.11-.08,.16-.11,.11-.08,.24-.16,.38-.24,.6-.35,1.06-.57,1.68-.76,1.3-.46,2.46-.68,3.82-.57,.51,.03,.98-.46,.98-.98,0-.54-.43-.92-.98-.98-1.49-.11-3.03,.19-4.44,.68-1.3,.46-2.65,1.11-3.58,2.14-.35,.38-.38,.98,0,1.38,.35,.35,1.03,.41,1.38,0h-.03Z"/>
        </g>
        <g>
          <path class="cls-19" d="M170.39,3.89c4.01,37.73,10.29,75.22,15.36,112.81,1.19,8.88,2.38,17.77,3.33,26.71,.14,1.22,2.06,1.25,1.95,0-4.01-37.73-10.29-75.22-15.36-112.81-1.19-8.88-2.38-17.77-3.33-26.71-.14-1.22-2.06-1.25-1.95,0h0Z"/>
          <path class="cls-19" d="M172.15,4.37c.16-.19,.35-.38,.57-.54,.14-.11-.19,.11,.05-.03,.05-.03,.11-.08,.16-.11,.11-.08,.24-.16,.38-.24,.6-.35,1.06-.57,1.68-.76,1.3-.46,2.46-.68,3.82-.57,.51,.03,.98-.46,.98-.98,0-.54-.43-.92-.98-.98-1.49-.11-3.03,.19-4.44,.68-1.3,.46-2.65,1.11-3.58,2.14-.35,.38-.38,.98,0,1.38,.35,.35,1.03,.41,1.38,0h-.03Z"/>
        </g>
        <path class="cls-19" d="M213.94,141.97c9.89-17.5,19.75-35,29.63-52.52l14.49-25.68c2.25-3.95,4.28-8.18,6.88-11.92,3.41-4.88,8.21-5.99,13.76-4.17,1.19,.38,1.71-1.49,.51-1.87-3.3-1.08-7.15-1.46-10.43-.05s-5.47,4.85-7.26,7.91c-5.58,9.59-10.89,19.31-16.33,28.95-10.97,19.45-21.94,38.9-32.91,58.34-.62,1.08,1.06,2.06,1.68,.98h0l-.03,.03Z"/>
        <path class="cls-23" d="M127.08,219.3c6.07-1.95,12.08-4.36,15.38-10.18,2.95-5.23,3.28-11.54,2.11-17.34-.51-2.57-4.44-1.49-3.93,1.08,.95,4.71,.68,9.94-1.71,14.19-2.74,4.88-7.91,6.72-12.95,8.32-2.49,.79-1.41,4.71,1.08,3.93h0Z"/>
        <path class="cls-19" d="M145.17,197.96c-.11,8.78-5.55,16.77-13.9,19.75s-17.63,.33-23.21-6.39c-5.58-6.72-6.31-16.58-1.84-24.08s13.38-11.48,21.94-9.86c9.86,1.9,16.87,10.64,17.01,20.59,0,1.25,1.95,1.25,1.95,0-.14-9.45-5.9-18.01-14.76-21.4s-19.69-.6-25.84,6.91-6.85,18.04-1.95,26.22,14.49,12.46,23.84,10.78c10.83-1.95,18.58-11.62,18.72-22.51,0-1.25-1.92-1.25-1.95,0Z"/>
        <path class="cls-19" d="M124.23,219.11v-10.7c0-.84-1.27-.84-1.27,0v10.7c0,.84,1.27,.84,1.27,0h0Z"/>
        <path class="cls-19" d="M132.47,203.86l8.21,6.66c.27,.22,.65,.27,.92,0,.22-.22,.27-.68,0-.92l-8.21-6.66c-.27-.22-.65-.27-.92,0-.22,.22-.27,.68,0,.92h0Z"/>
        <path class="cls-19" d="M128.11,207.84c1.35,3.06,2.71,6.09,3.79,9.26,.27,.79,1.52,.43,1.25-.35-1.11-3.25-2.52-6.42-3.9-9.56-.33-.76-1.44-.11-1.11,.65h-.03Z"/>
        <path class="cls-19" d="M134.36,199.15c3.63,.19,7.26,.38,10.89,.54,.84,.03,.81-1.25,0-1.27-3.63-.16-7.26-.38-10.89-.54-.84-.03-.81,1.25,0,1.27h0Z"/>
        <path class="cls-19" d="M158.34,237.83c3.2-4.74,10.13-6.28,15.06-3.41,1.08,.62,2.06-1.06,.98-1.68-5.88-3.41-13.92-1.52-17.71,4.09-.7,1.03,.98,2,1.68,.98h0v.03Z"/>
        <path class="cls-19" d="M256.03,248.28c6.93-1.68,14.82,2.17,17.61,8.78,.49,1.14,2.36,.62,1.87-.51-3.2-7.61-11.94-12.11-19.99-10.13-1.22,.3-.7,2.17,.51,1.87h0Z"/>
        <circle class="cls-19" cx="372.4" cy="356.82" r="1.33"/>
        <circle class="cls-19" cx="81.33" cy="184.68" r="1.33"/>
        <circle class="cls-8" cx="716.58" cy="570.74" r="41.14"/>
        <path class="cls-19" d="M741.25,539.89c12.81,10.46,18.34,27.71,13.33,43.58-5.01,15.87-20.26,27.55-37.13,28.03s-32.75-10.05-38.73-25.87-1.41-33.51,11.08-44.5c14.46-12.76,36.35-13.03,51.46-1.25,.98,.76,2.36-.6,1.38-1.38-13.76-10.73-32.88-12.35-47.97-3.3s-23.05,27.09-19.66,44.34c3.41,17.34,17.9,31.01,35.37,33.48,17.47,2.46,34.86-6.45,43.09-21.94,9.43-17.74,4.63-39.92-10.83-52.57-.95-.79-2.33,.57-1.38,1.38h0Z"/>
        <circle class="cls-8" cx="715.52" cy="571.36" r="28.39" transform="translate(36.92 1186.12) rotate(-80.78)"/>
        <g>
          <path class="cls-3" d="M686.54,527.73c-3.06,3.36-2.93,9.07,.19,12.38,3.11,3.3,8.67,3.87,12.49,1.44s5.63-7.56,4.42-11.94"/>
          <path class="cls-19" d="M685.84,527.16c-3.98,4.47-3.06,11.89,1.92,15.2s12.11,1.76,15.33-3.33c1.79-2.82,2.33-6.34,1.46-9.56-.33-1.19-2.19-.7-1.87,.51,1.25,4.66-1.14,10.21-5.88,11.76s-10.05-.81-11.27-5.74c-.65-2.57-.11-5.47,1.68-7.48,.81-.92-.54-2.3-1.38-1.38h0v.03Z"/>
        </g>
        <path class="cls-4" d="M730.85,552.51c7.72,6.31,11.08,16.58,8.07,26.17s-12.08,16.39-22.1,16.68-19.56-5.88-23.1-15.3-.89-20.1,6.64-26.73c8.51-7.5,21.61-7.75,30.53-.79,2.03,1.6,4.93-1.27,2.87-2.87-9.21-7.18-21.91-8.37-32.04-2.3-10.13,6.07-15.36,18.09-13.08,29.63s11.86,20.5,23.35,22.16c11.48,1.65,23.32-4.14,28.85-14.52,6.23-11.76,3.2-26.54-7.07-34.94-2-1.65-4.9,1.22-2.87,2.87l-.03-.05Z"/>
        <path class="cls-6" d="M685.92,567.33c0-.35,.05-.7,.08-1.06,0-.19,.03-.35,.05-.54,.05-.57,0,.08-.03,.27,.22-.73,.27-1.57,.43-2.33,.35-1.54,.84-3.03,1.41-4.52,.22-.6,.05,.11-.05,.16,.08-.03,.22-.46,.24-.54,.16-.35,.35-.73,.51-1.08,.38-.73,.76-1.44,1.19-2.11,.46-.76,.98-1.46,1.49-2.19,.33-.49-.43,.51-.05,.05,.14-.16,.27-.33,.41-.49,.3-.38,.62-.73,.95-1.11,1.44-1.57,1.68-4.2,0-5.74-1.54-1.44-4.23-1.68-5.74,0-5.34,5.9-8.51,13.27-9.02,21.24-.14,2.11,1.98,4.14,4.06,4.06,2.33-.11,3.9-1.79,4.06-4.06h0Z"/>
        <path class="cls-5" d="M686.38,564.02c.41-1.81,.95-3.6,1.68-5.31l-.41,.98c.08-.16,.14-.35,.22-.51,.3-.46,.46-.98,.49-1.52,.11-.54,.11-1.08-.08-1.63-.27-.95-.98-1.98-1.87-2.44-.95-.49-2.09-.76-3.14-.41l-.98,.41c-.62,.35-1.08,.84-1.46,1.46-.98,2.19-1.79,4.44-2.3,6.8-.24,1.06-.16,2.17,.41,3.14,.49,.84,1.46,1.65,2.44,1.87,1.03,.24,2.19,.19,3.14-.41,.87-.57,1.65-1.38,1.87-2.44h0Z"/>
        <path class="cls-7" d="M717.17,554.68l4.09,8.32c.16,.35,.51,.6,.89,.65l9.16,1.33c.98,.14,1.35,1.33,.65,2l-6.64,6.47c-.27,.27-.41,.65-.33,1.03l1.57,9.13c.16,.95-.84,1.71-1.71,1.25l-8.21-4.31c-.35-.19-.76-.19-1.08,0l-8.21,4.31c-.87,.46-1.87-.27-1.71-1.25l1.57-9.13c.05-.38-.05-.76-.33-1.03l-6.64-6.47c-.7-.68-.33-1.87,.65-2l9.16-1.33c.38-.05,.7-.3,.89-.65l4.09-8.32c.43-.87,1.68-.87,2.11,0h0Z"/>
        <path class="cls-19" d="M715.96,554.38c.81,1.65,1.63,3.28,2.44,4.93l1.54,3.11c.27,.54,.51,1.3,1,1.71s1.11,.43,1.71,.51l3.22,.46c1.92,.27,4.06,.89,6.01,.87,.03,0,.19-.38-.11-.19-.24,.19-.46,.46-.68,.68l-2.63,2.57c-1.27,1.25-2.79,2.44-3.93,3.82-1,1.25-.16,3.44,.08,4.85l.65,3.74c.11,.68,.08,2.38,.49,2.93,.05,.05,0,.19,.05,.24,.08,.16,.41-.14,.3-.27-.14-.14-.46-.24-.62-.33l-2.76-1.46c-1.84-.98-3.68-2.11-5.61-2.95-1.49-.62-2.87,.51-4.14,1.19l-6.09,3.2c-.16,.08-.49,.19-.62,.33-.11,.14,.22,.43,.3,.27,.03-.08,0-.19,.05-.24,.41-.54,.38-2.25,.49-2.93,.38-2.22,.87-4.44,1.14-6.66,.19-1.6-.7-2.19-1.76-3.22l-5.23-5.09c-.24-.24-.51-.46-.76-.73-.05-.05-.22,.19,.11,.22,.95,.08,2.11-.3,3.03-.43,2.25-.33,4.69-.43,6.88-1,1.65-.43,2.33-3.01,2.98-4.36l1.92-3.87c.22-.46,.49-.89,.68-1.38,.03-.08,.11-.27,.16-.35,.27-.24-.16-.11-.08,0,.79,.98,2.14-.41,1.38-1.38-1.84-2.25-3.22,.87-3.87,2.22-1.11,2.22-2.09,4.55-3.3,6.72-.3,.54-.16,.41-.7,.57-1,.3-2.22,.33-3.25,.46-2.09,.3-4.44,.35-6.47,.95-1.06,.3-1.73,1.35-1.25,2.44,.27,.6,.95,1.08,1.41,1.54l5.5,5.36c.24,.22,.51,.43,.7,.7,.22,.27,.03-.38,.05,.03,.03,.89-.35,1.98-.49,2.87-.41,2.3-.92,4.6-1.19,6.91-.11,.92,.08,1.87,1.08,2.22,.81,.27,1.49-.16,2.17-.51l6.74-3.55c.38-.22,.84-.38,1.19-.62,.24-.16,.62-.16,.19-.24,.62,.11,1.44,.76,1.98,1.06,2.19,1.16,4.42,2.33,6.61,3.47,1.73,.89,3.28,.08,2.98-1.98-.35-2.41-.81-4.79-1.22-7.18-.14-.73-.54-1.79-.43-2.52,0-.14-.16,.27,.14,0s.6-.57,.89-.87l5.5-5.36c.46-.43,1.08-.89,1.27-1.52,.33-1.08-.43-1.98-1.44-2.22-2.22-.51-4.58-.68-6.83-1-.89-.14-2.09-.08-2.93-.43-.46-.19-.41-.22-.68-.79l-3.36-6.83-.81-1.68c-.54-1.11-2.22-.14-1.68,.98l-.11,.05Z"/>
        <circle class="cls-19" cx="689.22" cy="580.01" r="1.14"/>
        <circle class="cls-19" cx="689.9" cy="628.65" r="1.14"/>
        <path class="cls-4" d="M720.29,603.57c6.69-.95,13.19-3.87,18.2-8.42s8.15-10.51,9.72-16.93c.62-2.55-3.28-3.63-3.93-1.08-1.44,5.77-4.23,11.11-8.69,15.11-4.47,4.01-10.43,6.53-16.41,7.37-1.08,.16-1.68,1.54-1.41,2.49,.33,1.16,1.41,1.57,2.49,1.41h0l.03,.05Z"/>
        <path class="cls-19" d="M689.3,576.24c-2.03-11.97,3.95-24.21,14.98-29.55,9.37-4.55,20.83-3.33,29.01,3.17s12.08,17.52,9.67,27.76-10.62,18.26-20.8,20.5c-12.51,2.76-25.14-3.74-30.72-15.14-.54-1.11-2.22-.14-1.68,.98,5.31,10.89,16.87,17.71,29.01,16.63,11.29-1,21.15-8.53,25.08-19.18s1.14-22.81-6.8-30.77-20.37-10.78-31.04-6.77c-13.35,5.01-20.94,18.96-18.58,32.91,.22,1.22,2.09,.7,1.87-.51h0v-.03Z"/>
      </g>
    </g>
  </g>
</svg>