<?xml version="1.0" encoding="UTF-8"?>
<svg id="Layer_2" data-name="Layer 2" xmlns="http://www.w3.org/2000/svg" viewBox="0 0 249.09 222.56">
  <defs>
    <style>
      .cls-1 {
        fill: #f97906;
      }

      .cls-2 {
        fill: #f6bc58;
      }

      .cls-3 {
        fill: #f784dc;
      }

      .cls-4 {
        fill: #e59015;
      }

      .cls-5, .cls-6, .cls-7 {
        fill: #fff;
      }

      .cls-8 {
        fill: #fff3f0;
      }

      .cls-9 {
        fill: #ffcea1;
      }

      .cls-10 {
        fill: #ffd5c7;
      }

      .cls-11 {
        fill: #ffab94;
      }

      .cls-12 {
        fill: #ffac73;
      }

      .cls-13 {
        fill: #fea142;
      }

      .cls-14 {
        fill: #97cecc;
      }

      .cls-15 {
        fill: #a0e2f9;
      }

      .cls-16, .cls-17 {
        fill: #9fd3d3;
      }

      .cls-18 {
        fill: #b3ffa1;
      }

      .cls-19 {
        fill: #abe9ff;
      }

      .cls-20 {
        fill: #d7e9e9;
      }

      .cls-21 {
        fill: #cff6ff;
      }

      .cls-22 {
        fill: #1f033c;
      }

      .cls-23 {
        fill: #232144;
      }

      .cls-24 {
        fill: #366b77;
      }

      .cls-25 {
        fill: #61dafb;
      }

      .cls-26, .cls-27 {
        fill: #28424f;
      }

      .cls-28 {
        fill: #2695d3;
      }

      .cls-29 {
        fill: #3c5768;
      }

      .cls-30 {
        fill: #2f9916;
      }

      .cls-31 {
        fill: #37a9d1;
      }

      .cls-32 {
        fill: #578b9b;
      }

      .cls-33 {
        fill: #5cdc41;
      }

      .cls-34 {
        fill: #4f7bfc;
      }

      .cls-35 {
        fill: #79c8ff;
      }

      .cls-27 {
        opacity: .5;
      }

      .cls-27, .cls-6, .cls-7, .cls-36, .cls-17 {
        isolation: isolate;
      }

      .cls-6 {
        opacity: .45;
      }

      .cls-7 {
        opacity: .25;
      }

      .cls-36 {
        fill: #a4e7ff;
        opacity: .41;
      }

      .cls-17 {
        opacity: .4;
      }

      .cls-37 {
        opacity: .35;
      }
    </style>
  </defs>
  <g id="Layer_2-2" data-name="Layer 2">
    <g>
      <g class="cls-37">
        <rect class="cls-15" x="33.86" y="46.39" width="87.6" height="86.44"/>
        <path class="cls-20" d="M33.86,45.6v87.61H121.46V45.6H33.86Zm82.12,82.67H40.5V50.9H115.98v77.37Z"/>
        <rect class="cls-20" x="75.61" y="50.99" width="5.08" height="77.08"/>
        <rect class="cls-20" x="40.74" y="88.41" width="75.4" height="5.08"/>
        <g>
          <rect class="cls-31" x="40.11" y="123.82" width="75.94" height="4.05"/>
          <rect class="cls-31" x="111.31" y="50.85" width="3.98" height="73.37"/>
        </g>
        <g>
          <path class="cls-6" d="M44.58,71.23c-.7,0-1.27-.57-1.27-1.27v-14.85c0-.7,.57-1.27,1.27-1.27s1.27,.57,1.27,1.27v14.85c0,.7-.57,1.27-1.27,1.27Z"/>
          <path class="cls-6" d="M44.58,67.23c-.7,0-1.27-.57-1.27-1.27v-5.85c0-.7,.57-1.27,1.27-1.27s1.27,.57,1.27,1.27v5.85c0,.7-.57,1.27-1.27,1.27Z"/>
        </g>
        <g>
          <rect class="cls-5" x="25.61" y="74.4" width="54.8" height="2" transform="translate(-38.18 88.77) rotate(-63.23)"/>
          <rect class="cls-5" x="22.4" y="79.83" width="67.26" height="2" transform="translate(-41.46 93.82) rotate(-62.86)"/>
        </g>
        <path class="cls-22" d="M80.69,127.79c-.4,0-.72-.32-.72-.72v-33.11c0-.4,.32-.72,.72-.72s.72,.32,.72,.72v33.11c0,.4-.32,.72-.72,.72h0Z"/>
        <path class="cls-22" d="M80.69,88.35c-.4,0-.72-.32-.72-.72V51.7h-3.65v15.1c0,.4-.32,.72-.72,.72s-.72-.32-.72-.72v-15.82c0-.4,.32-.72,.72-.72h5.08c.4,0,.72,.32,.72,.72v36.65c0,.4-.32,.72-.72,.72h.01Z"/>
        <path class="cls-22" d="M75.61,74.68c-.4,0-.72-.32-.72-.72v-2.26c0-.4,.32-.72,.72-.72s.72,.32,.72,.72v2.26c0,.4-.32,.72-.72,.72Z"/>
        <path class="cls-22" d="M75.61,88.28c-.4,0-.72-.32-.72-.72v-10.78c0-.4,.32-.72,.72-.72s.72,.32,.72,.72v10.78c0,.4-.32,.72-.72,.72Z"/>
        <path class="cls-22" d="M75.61,127.79c-.4,0-.72-.32-.72-.72v-32.68c0-.4,.32-.72,.72-.72s.72,.32,.72,.72v32.68c0,.4-.32,.72-.72,.72Z"/>
        <path class="cls-22" d="M115.14,89.11H61.67c-.39,0-.71-.32-.71-.71s.32-.71,.71-.71h53.47c.39,0,.71,.32,.71,.71s-.32,.71-.71,.71Z"/>
        <path class="cls-22" d="M64.3,94.19h-23.57c-.39,0-.71-.32-.71-.71v-5.08c0-.39,.32-.71,.71-.71h17.45c.39,0,.71,.32,.71,.71s-.32,.71-.71,.71h-16.74v3.67h22.86c.39,0,.71,.32,.71,.71s-.32,.71-.71,.71h0Z"/>
        <path class="cls-22" d="M115.14,94.19h-46.41c-.39,0-.71-.32-.71-.71s.32-.71,.71-.71h46.41c.39,0,.71,.32,.71,.71s-.32,.71-.71,.71Z"/>
        <path class="cls-5" d="M35.6,45.63h0c.83,0,1.51,.68,1.51,1.51v20.89c0,.83-.67,1.51-1.51,1.51h0c-.83,0-1.51-.68-1.51-1.51v-20.89c0-.83,.67-1.51,1.51-1.51Z"/>
        <path class="cls-5" d="M35.6,89.67h0c.83,0,1.51,.68,1.51,1.51v20.89c0,.83-.67,1.51-1.51,1.51h0c-.83,0-1.51-.68-1.51-1.51v-20.89c0-.83,.67-1.51,1.51-1.51Z"/>
        <path class="cls-17" d="M89.5,130.48h0c0,1.17-.95,2.12-2.12,2.12h-29.42c-1.17,0-2.12-.95-2.12-2.12h0c0-1.17,.95-2.12,2.12-2.12h29.42c1.17,0,2.12,.95,2.12,2.12Z"/>
        <path class="cls-16" d="M105.69,130.48h0c0,1.17-.95,2.12-2.12,2.12h-29.42c-1.17,0-2.12-.95-2.12-2.12h0c0-1.17,.95-2.12,2.12-2.12h29.42c1.17,0,2.12,.95,2.12,2.12Z"/>
        <path class="cls-22" d="M33.86,118.49c-.4,0-.72-.32-.72-.72v-43.34c0-.4,.32-.72,.72-.72s.72,.32,.72,.72v43.34c0,.4-.32,.72-.72,.72Z"/>
        <path class="cls-22" d="M44.35,133.54h-10.49c-.4,0-.72-.32-.72-.72v-10.25c0-.4,.32-.72,.72-.72s.72,.32,.72,.72v9.54h9.78c.4,0,.72,.32,.72,.72s-.32,.72-.72,.72h-.01Z"/>
        <path class="cls-22" d="M121.46,63.48c-.4,0-.72-.32-.72-.72v-16.82h-46.37c-.4,0-.72-.32-.72-.72s.32-.72,.72-.72h47.08c.4,0,.72,.32,.72,.72v17.54c0,.4-.32,.72-.72,.72h.01Z"/>
        <path class="cls-22" d="M70.8,45.94h-14.12c-.4,0-.72-.32-.72-.72s.32-.72,.72-.72h14.12c.4,0,.72,.32,.72,.72s-.32,.72-.72,.72Z"/>
        <path class="cls-22" d="M33.86,71.48c-.4,0-.72-.32-.72-.72v-25.54c0-.4,.32-.72,.72-.72h17.55c.4,0,.72,.32,.72,.72s-.32,.72-.72,.72h-16.84v24.82c0,.4-.32,.72-.72,.72h.01Z"/>
        <g>
          <path class="cls-23" d="M47.97,57.94c-.06,0-.13-.02-.18-.05-.18-.1-.24-.33-.14-.51l2.18-3.86c.1-.18,.33-.24,.51-.14,.18,.1,.24,.33,.14,.51l-2.18,3.86c-.07,.12-.19,.19-.32,.19h0Z"/>
          <path class="cls-23" d="M48.57,60.04c-.07,0-.13-.02-.19-.05-.18-.11-.23-.33-.13-.51l1.69-2.84c.11-.18,.33-.23,.51-.13,.18,.11,.23,.33,.13,.51l-1.69,2.84c-.07,.12-.19,.18-.32,.18Z"/>
        </g>
        <path class="cls-22" d="M115.98,128.6H40.5c-.4,0-.72-.32-.72-.72v-53.36c0-.4,.32-.72,.72-.72s.72,.32,.72,.72v52.64H115.27V51.23H41.22v19.62c0,.4-.32,.72-.72,.72s-.72-.32-.72-.72v-20.33c0-.4,.32-.72,.72-.72H115.98c.4,0,.72,.32,.72,.72V127.88c0,.4-.32,.72-.72,.72h0Z"/>
        <path class="cls-22" d="M121.46,133.54H50.75c-.4,0-.72-.32-.72-.72s.32-.72,.72-.72H120.74v-63.32c0-.4,.32-.72,.72-.72s.72,.32,.72,.72v64.04c0,.4-.32,.72-.72,.72Z"/>
      </g>
      <path class="cls-10" d="M149.71,109.77c-2.08-.9-3.8-2.3-4.93-3.97"/>
      <path class="cls-10" d="M119.74,100.3l-4.89,7.53-3.11,1.15,8.48,7.7,7.25,3.93h7.62s11.79-6.26,11.79-6.64,2.96-3.88,2.96-3.88l-12.78-8.28"/>
      <polygon class="cls-28" points="102.05 34.66 92.82 52.73 107.94 56 102.05 34.66"/>
      <polygon class="cls-28" points="162.66 34.66 153.43 52.73 168.55 56 162.66 34.66"/>
      <polygon class="cls-10" points="92.4 47.16 88.43 53.65 88.43 58.04 93.37 66.48 102.43 66.68 102.88 51.19 92.4 47.16"/>
      <path class="cls-11" d="M99.56,58c-.41,0-.78-.26-.9-.67-.91-3.06-3.66-3.25-3.68-3.25-.52-.03-.91-.47-.88-.99,.03-.52,.48-.92,.99-.88,.17,0,4.09,.29,5.37,4.59,.15,.5-.13,1.02-.63,1.17-.09,.03-.18,.04-.27,.04h0Z"/>
      <path class="cls-5" d="M90.12,57.85c-.42,0-.76-.34-.76-.76v-3.57c0-.13,.03-.26,.1-.37l2.8-5.03c.2-.37,.66-.5,1.03-.29,.37,.2,.5,.66,.29,1.03l-2.71,4.86v3.38c0,.42-.34,.76-.76,.76h.01Z"/>
      <path class="cls-22" d="M98.71,67.1h-4.14c-.79,0-1.53-.38-1.99-1.03l-4.46-7.78c-.06-.11-.09-.23-.09-.36v-4.38c0-.13,.04-.26,.1-.37l3.96-6.49c.18-.3,.56-.42,.88-.29l7.07,2.87c.37,.15,.54,.57,.39,.93-.15,.37-.57,.54-.93,.39l-6.51-2.64-3.54,5.8v3.99l4.33,7.55c.15,.21,.46,.37,.79,.37h4.14c.4,0,.72,.32,.72,.72s-.32,.72-.72,.72h0Z"/>
      <path class="cls-22" d="M99.66,56.55c-.22,0-.42-.14-.48-.36-.99-3.33-4.54-3.62-4.69-3.63-.27-.02-.48-.26-.46-.53,.02-.27,.25-.48,.53-.46,.04,0,4.39,.33,5.58,4.34,.08,.26-.07,.54-.34,.62-.05,.01-.1,.02-.14,.02Z"/>
      <path class="cls-22" d="M93.26,61.02c-.17,0-.33-.08-.43-.24-2.29-3.71-.27-6.38-.18-6.49,.17-.22,.48-.25,.7-.08,.22,.17,.25,.48,.09,.7-.07,.09-1.67,2.25,.24,5.35,.14,.23,.07,.54-.16,.69-.08,.05-.17,.07-.26,.07h0Z"/>
      <polygon class="cls-10" points="170.58 47.16 174.54 53.65 174.54 58.04 169.6 66.48 160.55 66.68 160.09 51.19 170.58 47.16"/>
      <path class="cls-11" d="M163.41,58c-.09,0-.18-.01-.27-.04-.5-.15-.78-.67-.63-1.17,1.28-4.3,5.21-4.58,5.37-4.59,.51-.04,.96,.36,.99,.88,.03,.52-.36,.96-.88,.99-.13,0-2.79,.25-3.69,3.25-.12,.41-.49,.67-.9,.67h.01Z"/>
      <path class="cls-5" d="M172.86,57.85c-.42,0-.76-.34-.76-.76v-3.38l-2.71-4.86c-.2-.37-.07-.83,.29-1.03,.37-.21,.83-.07,1.03,.29l2.8,5.03c.06,.11,.1,.24,.1,.37v3.57c0,.42-.34,.76-.76,.76h0Z"/>
      <path class="cls-22" d="M168.41,67.1h-4.14c-.4,0-.72-.32-.72-.72s.32-.72,.72-.72h4.14c.33,0,.64-.16,.83-.43l4.29-7.49v-3.99l-3.54-5.8-7.18,2.93c-.37,.15-.78-.03-.93-.39s.03-.78,.39-.93l7.74-3.16c.32-.13,.7-.01,.88,.29l3.96,6.49c.07,.11,.1,.24,.1,.37v4.38c0,.12-.03,.25-.09,.36l-4.42,7.72c-.5,.7-1.24,1.09-2.03,1.09h0Z"/>
      <path class="cls-22" d="M163.31,56.55s-.09,0-.14-.02c-.26-.08-.42-.36-.34-.62,1.19-4.01,5.54-4.34,5.58-4.34,.29-.03,.51,.19,.53,.46,.02,.28-.19,.51-.46,.53-.15,.01-3.7,.3-4.69,3.63-.06,.22-.26,.36-.48,.36Z"/>
      <path class="cls-22" d="M169.72,61.02c-.09,0-.18-.02-.26-.07-.24-.15-.31-.45-.16-.69,1.92-3.1,.31-5.26,.24-5.35-.17-.22-.13-.53,.09-.7s.53-.13,.7,.08c.09,.11,2.12,2.77-.18,6.49-.09,.15-.26,.24-.43,.24h0Z"/>
      <path class="cls-35" d="M99.95,29.8s2.94-5.49,6.75-7.89S116.86,.71,132.39,.71s23.44,18.94,23.44,18.94c0,0,5.06,5.49,6.05,9.45"/>
      <ellipse class="cls-33" cx="53.74" cy="173.86" rx="11.65" ry="22.57"/>
      <path class="cls-18" d="M53.74,196.41c-6.79,0-12.11-9.91-12.11-22.56s5.32-22.56,12.11-22.56,12.11,9.91,12.11,22.56-5.32,22.56-12.11,22.56Zm0-43.2c-5.53,0-10.19,9.45-10.19,20.64s4.67,20.64,10.19,20.64,10.19-9.45,10.19-20.64-4.67-20.64-10.19-20.64Z"/>
      <path class="cls-30" d="M61.95,175.34c-.28,0-.5-.22-.5-.5,0-11.98-5.17-22.64-5.22-22.74-.12-.25-.02-.55,.23-.67,.25-.12,.55-.02,.67,.23,.05,.11,5.32,10.98,5.32,23.19,0,.28-.22,.5-.5,.5h0Z"/>
      <path class="cls-30" d="M46.59,178.63c-.28,0-.5-.22-.5-.5v-3.29c0-12.21,5.27-23.08,5.32-23.19,.12-.25,.42-.35,.67-.23s.35,.42,.23,.67c-.05,.11-5.22,10.77-5.22,22.74v3.29c0,.28-.22,.5-.5,.5h0Z"/>
      <path class="cls-30" d="M53.76,178.45c-.28,0-.5-.22-.5-.5v-26.35c0-.28,.22-.5,.5-.5s.5,.22,.5,.5v26.35c0,.28-.22,.5-.5,.5Z"/>
      <path class="cls-22" d="M54.03,196.78c-5.77,0-10.74-7.19-12.09-17.48-.21-1.57-.2-3.27-.2-4.9v-.82c0-8.15,2.28-15.79,5.95-19.94,.23-.26,.63-.29,.9-.05,.26,.23,.29,.63,.05,.9-3.47,3.92-5.63,11.24-5.63,19.09v.83c0,1.67,0,3.24,.18,4.73,1.25,9.49,5.8,16.38,10.83,16.38,6.07,0,11.02-9.84,11.02-21.94s-4.94-21.94-11.02-21.94c-1.25,0-2.48,.42-3.65,1.26-.29,.21-.68,.14-.88-.15s-.14-.68,.15-.88c1.39-.99,2.87-1.5,4.39-1.5,6.77,0,12.29,10.41,12.29,23.21s-5.51,23.21-12.29,23.21h0Z"/>
      <rect class="cls-20" x="36.54" y="177.85" width="41.79" height="10.45"/>
      <rect class="cls-20" x="39.93" y="188.47" width="38.4" height="25.89"/>
      <rect class="cls-14" x="39.93" y="188.47" width="38.4" height="3.49"/>
      <path class="cls-22" d="M78.33,215.07H39.93c-.4,0-.72-.32-.72-.72v-25.89c0-.4,.32-.72,.72-.72h38.4c.4,0,.72,.32,.72,.72v25.89c0,.4-.32,.72-.72,.72Zm-37.68-1.43h36.97v-24.46H40.64v24.46h.01Z"/>
      <circle class="cls-14" cx="46.63" cy="192.18" r="1.48"/>
      <circle class="cls-14" cx="50.41" cy="193.56" r=".74"/>
      <circle class="cls-14" cx="48.75" cy="196.7" r=".99"/>
      <rect class="cls-5" x="41.62" y="178.13" width="2.26" height="10.31"/>
      <rect class="cls-5" x="45.29" y="178.13" width="1.61" height="10.31"/>
      <path class="cls-22" d="M78.33,188.93H36.54c-.35,0-.63-.28-.63-.63v-10.45c0-.35,.28-.63,.63-.63h41.79c.35,0,.63,.28,.63,.63v10.45c0,.35-.28,.63-.63,.63Zm-41.15-1.27h40.52v-9.18H37.17v9.18h.01Z"/>
      <path class="cls-32" d="M181.39,130.13l-1.5-8.8c-3.51-4.44-16.24-7.77-21.61-9.55l-1.73-1.02-6.88-1.31-.18,.36c-20.47,24.35-36.71-.38-36.71-.38l-.48,.02-6.01,1.03-1.6,.31c-5.37,1.79-19.1,6.11-22.61,10.55l-1.1,5.98"/>
      <path class="cls-19" d="M82.35,126.52c-.24,0-.49-.06-.72-.18-.73-.4-1-1.31-.6-2.04l1.66-3.05c.61-1.32,4.54-6.54,29.32-12.2,.81-.19,1.61,.32,1.8,1.13,.18,.81-.32,1.61-1.13,1.8-22.96,5.25-26.86,9.96-27.24,10.51-.02,.07-.02,.04-.08,.15l-1.69,3.11c-.27,.5-.79,.78-1.32,.78h0Z"/>
      <path class="cls-22" d="M180.07,124.98c-.28,0-.54-.15-.68-.4l-1.69-3.11s-.04-.07-.05-.11c0-.01-2.58-4.93-27.63-10.66-.42-.1-.68-.51-.58-.93,.1-.42,.52-.68,.93-.58,25.11,5.74,28.34,10.72,28.72,11.57l1.67,3.07c.21,.38,.07,.85-.31,1.05-.12,.06-.25,.09-.37,.09h0Z"/>
      <path class="cls-10" d="M119.69,90.18v4.08l-1.84,5.95-2.82,2.97v1.35s8.19,7.03,16.8,6.08c0,0,12.71-1.35,15.67-7.3l-3.67-3.51-.28-8.98-23.86-.65h0Z"/>
      <path class="cls-11" d="M131.42,100.64c-1.87,0-3.79-.42-6.29-1.25-1.05-.35-1.61-1.48-1.26-2.53s1.48-1.62,2.53-1.26c4.27,1.42,6.03,1.4,9.94-.11,1.03-.4,2.19,.11,2.59,1.14,.4,1.03-.11,2.19-1.14,2.59-2.46,.95-4.38,1.43-6.36,1.43h0Z"/>
      <path class="cls-8" d="M116.4,105.88c-.44,0-.87-.19-1.16-.55-.52-.64-.43-1.59,.21-2.11,2.34-1.91,3.26-3.94,3.29-7.23,0-.82,.68-1.49,1.5-1.49h.01c.83,0,1.5,.68,1.49,1.51-.03,4.2-1.34,7.05-4.39,9.53-.28,.23-.61,.34-.95,.34h0Z"/>
      <path class="cls-8" d="M145.4,105.92c-.34,0-.69-.12-.97-.36-2.99-2.55-4.24-5.43-4.18-9.63,0-.82,.68-1.48,1.5-1.48h.02c.83,.01,1.49,.69,1.48,1.52-.05,3.29,.83,5.34,3.12,7.3,.63,.54,.71,1.48,.17,2.11-.3,.35-.72,.53-1.14,.53h0Z"/>
      <path class="cls-22" d="M80.68,125.2c-.12,0-.24-.03-.35-.09-.35-.19-.47-.63-.28-.97l2.01-3.62s.06-.1,.1-.14c3.62-3.88,11.16-6.87,16.85-8.69,.37-.12,.78,.09,.9,.46,.12,.38-.09,.78-.46,.9-5.5,1.76-12.75,4.61-16.18,8.24l-1.97,3.55c-.13,.24-.38,.37-.63,.37h0Z"/>
      <path class="cls-22" d="M102.75,112.03c-.32,0-.61-.21-.69-.54-.1-.38,.13-.77,.51-.87l8.98-2.33c1.74-.45,3.32-1.28,4.56-2.38,.3-.26,.75-.24,1.01,.06s.24,.75-.06,1.01c-1.41,1.25-3.19,2.18-5.15,2.7l-8.98,2.33c-.06,.02-.12,.02-.18,.02Z"/>
      <path class="cls-10" d="M162.05,32.58v36.17c-2.41,15.7-13.14,24.88-27.47,27.47h-6.69c-14.56-2.02-24.58-12.89-27.47-27.47V32.59"/>
      <path class="cls-22" d="M131.26,96.93c-17.38,0-31.53-14.14-31.53-31.53v-25.99c0-.4,.32-.72,.72-.72s.72,.32,.72,.72v25.99c0,16.6,13.5,30.1,30.1,30.1,.4,0,.72,.32,.72,.72s-.32,.72-.72,.72h-.01Z"/>
      <path class="cls-32" d="M69.92,160.01c-6.22,9.28-8.61,22.2-9.09,35.16l10.49,10.49,18.1-17.11"/>
      <path class="cls-24" d="M74.53,161.14c-6.22,9.28-8.61,22.2-9.21,36.96l10.49,10.49,18.22-18.91"/>
      <path class="cls-22" d="M61.93,198.27c-.39,0-.7-.31-.72-.7-.44-15.31,1.87-27.44,6.86-36.06,.2-.34,.63-.46,.98-.26,.34,.2,.46,.64,.26,.98-4.86,8.38-7.1,20.26-6.67,35.3,0,.4-.3,.72-.7,.74h-.01Z"/>
      <path class="cls-10" d="M51.45,212.18c0-7.6,6.16-13.76,13.76-13.76s13.76,6.16,13.76,13.76"/>
      <path class="cls-5" d="M53.15,209.77s-.1,0-.15-.01c-.53-.08-.89-.57-.81-1.1,0-.09,1.48-9.14,9.98-10.29,.53-.07,1.02,.3,1.09,.83s-.3,1.02-.83,1.09c-7.04,.95-8.27,8.34-8.32,8.66-.08,.48-.49,.82-.96,.82h0Z"/>
      <path class="cls-22" d="M51.64,212.34c-.4,0-.72-.32-.72-.72,0-8.57,5.68-14.56,13.8-14.56,.4,0,.72,.32,.72,.72s-.32,.72-.72,.72c-7.28,0-12.37,5.4-12.37,13.13,0,.4-.32,.72-.72,.72h0Z"/>
      <path class="cls-32" d="M192.62,153.66c4.89,9.93,7.96,20.64,11,31.29,1.05,3.67,2.1,7.39,2.13,11.2,.03,3.86-.98,7.64-2.17,11.31-.55,1.71-1.18,3.46-2.42,4.75-1.79,1.85-4.51,2.39-7.05,2.84-2.99,.53-6.29,1.01-8.89-.57-1.29-.79-2.26-2.01-3.11-3.26-4.17-6.21-5.91-13.83-5.84-21.3s1.86-14.84,4.28-21.91c1.75-5.12,4.53-10.77,9.78-12.07"/>
      <ellipse class="cls-24" cx="184.8" cy="192.04" rx="16.71" ry="22.93"/>
      <rect class="cls-2" x=".72" y="212.51" width="247.66" height="9.34"/>
      <rect class="cls-4" x=".72" y="217.9" width="247.66" height="3.15"/>
      <path class="cls-29" d="M188.26,202.05v8.29c0,1.19-.96,2.15-2.15,2.15H78.16c-1.19,0-2.15-.96-2.15-2.15v-8.29"/>
      <path class="cls-26" d="M188.26,195.99v8.29c0,1.19-.96,2.15-2.15,2.15H78.16c-1.19,0-2.15-.96-2.15-2.15v-8.29"/>
      <path class="cls-23" d="M186.11,213.23H78.16c-1.6,0-2.89-1.3-2.89-2.89v-8.29h1.49v8.29c0,.77,.63,1.4,1.4,1.4h107.95c.77,0,1.4-.63,1.4-1.4v-8.29h1.49v8.29c0,1.6-1.3,2.89-2.89,2.89Z"/>
      <rect class="cls-29" x="69.11" y="124.63" width="127.04" height="77.44" rx="8.4" ry="8.4"/>
      <path class="cls-27" d="M195.65,147.85v45.58c0,4.64-3.76,8.4-8.4,8.4H77.01c-4.64,0-8.4-3.76-8.4-8.4v-4.53c69.45-2.8,108.83-26.21,127.04-41.04h0Z"/>
      <path class="cls-27" d="M195.65,135.67v57.76c0,4.64-3.76,8.4-8.4,8.4H77.01c-4.64,0-8.4-3.76-8.4-8.4v-18.46c69.45-2.8,108.83-24.47,127.04-39.3h0Z"/>
      <path class="cls-22" d="M186.11,213.2H78.16c-1.58,0-2.86-1.29-2.86-2.86v-8.29c0-.4,.32-.72,.72-.72s.72,.32,.72,.72v8.29c0,.79,.64,1.43,1.43,1.43h107.95c.79,0,1.43-.64,1.43-1.43v-8.29c0-.4,.32-.72,.72-.72s.72,.32,.72,.72v8.29c0,1.58-1.29,2.86-2.86,2.86h-.02Z"/>
      <path class="cls-22" d="M247.43,222.56H1.66c-.92,0-1.66-.75-1.66-1.66v-7.45c0-.92,.75-1.66,1.66-1.66H14.17c.4,0,.72,.32,.72,.72s-.32,.72-.72,.72H1.66c-.13,0-.23,.1-.23,.23v7.45c0,.13,.1,.23,.23,.23H247.43c.13,0,.23-.1,.23-.23v-7.45c0-.13-.1-.23-.23-.23h-28.07c-.4,0-.72-.32-.72-.72s.32-.72,.72-.72h28.07c.92,0,1.66,.75,1.66,1.66v7.45c0,.92-.75,1.66-1.66,1.66Z"/>
      <path class="cls-22" d="M212.81,213.23H47.16c-.4,0-.72-.32-.72-.72s.32-.72,.72-.72H212.81c.4,0,.72,.32,.72,.72s-.32,.72-.72,.72Z"/>
      <path class="cls-23" d="M42.31,213.26H22.09c-.41,0-.75-.33-.75-.75s.33-.75,.75-.75h20.22c.41,0,.75,.33,.75,.75s-.33,.75-.75,.75Z"/>
      <path class="cls-22" d="M205.47,195.66c-.37,0-.69-.29-.71-.67-.2-2.98-.71-6.36-1.52-10.06-.08-.39,.16-.77,.55-.85,.39-.08,.77,.16,.85,.55,.83,3.77,1.35,7.23,1.55,10.27,.03,.39-.27,.74-.67,.76h-.05Z"/>
      <path class="cls-22" d="M202.92,181.27c-.32,0-.61-.21-.69-.54-1.58-6.07-3.58-11.96-5.19-16.69-.66-1.94-1.25-3.68-1.72-5.16-.12-.38,.09-.78,.47-.9s.78,.09,.9,.47c.47,1.47,1.06,3.2,1.71,5.13,1.62,4.75,3.63,10.67,5.21,16.79,.1,.38-.13,.77-.51,.87-.06,.02-.12,.02-.18,.02h0Z"/>
      <path class="cls-22" d="M200.36,212.74c-.28,0-.55-.17-.66-.44-.15-.37,.02-.78,.39-.93,.19-.08,4.74-2.14,4.74-11.62,0-.4,.32-.72,.72-.72s.72,.32,.72,.72c0,10.51-5.39,12.85-5.62,12.95-.09,.04-.18,.05-.27,.05h-.02Z"/>
      <g>
        <path class="cls-23" d="M73.99,134.42c-.12,0-.24-.06-.31-.16-.12-.17-.07-.4,.1-.52l3.66-2.5c.17-.12,.4-.07,.52,.1,.12,.17,.07,.4-.1,.52l-3.66,2.5c-.06,.04-.14,.07-.21,.07h0Z"/>
        <path class="cls-23" d="M73.6,136.57c-.12,0-.24-.06-.31-.17-.11-.17-.06-.4,.11-.52l2.77-1.8c.17-.11,.4-.06,.52,.11,.11,.17,.06,.4-.11,.52l-2.77,1.8c-.06,.04-.13,.06-.2,.06h-.01Z"/>
      </g>
      <g>
        <path class="cls-23" d="M185.53,195.84c-.12,0-.24-.06-.31-.16-.12-.17-.07-.4,.1-.52l3.66-2.5c.17-.12,.4-.07,.52,.1,.12,.17,.07,.4-.1,.52l-3.66,2.5c-.06,.04-.14,.07-.21,.07h0Z"/>
        <path class="cls-23" d="M185.14,197.99c-.12,0-.24-.06-.31-.17-.11-.17-.06-.4,.11-.52l2.77-1.8c.17-.11,.4-.06,.52,.11,.11,.17,.06,.4-.11,.52l-2.77,1.8c-.06,.04-.13,.06-.2,.06h-.01Z"/>
      </g>
      <circle class="cls-23" cx="18.33" cy="212.56" r="1.03"/>
      <path class="cls-5" d="M17.67,216.27H9.01c-.41,0-.75-.33-.75-.75s.33-.75,.75-.75h8.66c.41,0,.75,.33,.75,.75s-.33,.75-.75,.75Z"/>
      <circle class="cls-5" cx="6.06" cy="215.52" r="1.11"/>
      <g>
        <path class="cls-23" d="M81.7,209.76c-.31,0-.56-.25-.56-.56v-4.18c0-.31,.25-.56,.56-.56s.56,.25,.56,.56v4.18c0,.31-.25,.56-.56,.56Z"/>
        <path class="cls-23" d="M85.45,209.76c-.31,0-.56-.25-.56-.56v-4.18c0-.31,.25-.56,.56-.56s.56,.25,.56,.56v4.18c0,.31-.25,.56-.56,.56Z"/>
        <path class="cls-23" d="M89.19,209.76c-.31,0-.56-.25-.56-.56v-4.18c0-.31,.25-.56,.56-.56s.56,.25,.56,.56v4.18c0,.31-.25,.56-.56,.56Z"/>
      </g>
      <g>
        <path class="cls-23" d="M174.51,209.76c-.31,0-.56-.25-.56-.56v-4.18c0-.31,.25-.56,.56-.56s.56,.25,.56,.56v4.18c0,.31-.25,.56-.56,.56Z"/>
        <path class="cls-23" d="M178.25,209.76c-.31,0-.56-.25-.56-.56v-4.18c0-.31,.25-.56,.56-.56s.56,.25,.56,.56v4.18c0,.31-.25,.56-.56,.56Z"/>
        <path class="cls-23" d="M182,209.76c-.31,0-.56-.25-.56-.56v-4.18c0-.31,.25-.56,.56-.56s.56,.25,.56,.56v4.18c0,.31-.25,.56-.56,.56Z"/>
      </g>
      <g>
        <path class="cls-36" d="M102.19,127.61h-22.95c-.7,0-1.26-.57-1.26-1.26s.57-1.26,1.26-1.26h22.95c.7,0,1.26,.57,1.26,1.26s-.57,1.26-1.26,1.26Z"/>
        <path class="cls-5" d="M93.77,127.61h-6.76c-.7,0-1.26-.57-1.26-1.26s.57-1.26,1.26-1.26h6.76c.7,0,1.26,.57,1.26,1.26s-.57,1.26-1.26,1.26Z"/>
      </g>
      <path class="cls-22" d="M187.26,202.79H77.01c-5.02,0-9.11-4.09-9.11-9.11v-60.65c0-5.02,4.09-9.11,9.11-9.11h34.29c.4,0,.72,.32,.72,.72s-.32,.72-.72,.72h-34.29c-4.23,0-7.68,3.45-7.68,7.68v60.65c0,4.24,3.45,7.68,7.68,7.68h110.25c4.23,0,7.68-3.45,7.68-7.68v-60.65c0-4.23-3.45-7.68-7.68-7.68h-35.17c-.4,0-.72-.32-.72-.72s.32-.72,.72-.72h35.17c5.02,0,9.11,4.09,9.11,9.11v60.65c0,5.02-4.09,9.11-9.11,9.11h0Z"/>
      <path class="cls-22" d="M145.33,125.44h-27.38c-.4,0-.72-.32-.72-.72s.32-.72,.72-.72h27.38c.4,0,.72,.32,.72,.72s-.32,.72-.72,.72Z"/>
      <path class="cls-23" d="M133.08,70.77c-.33,0-.59-.26-.59-.59,0-1.51-1.28-5.81-1.77-7.34-.1-.31,.07-.64,.38-.74,.31-.1,.64,.07,.74,.38,.07,.23,1.83,5.7,1.83,7.7,0,.33-.26,.59-.59,.59h0Z"/>
      <path class="cls-23" d="M131.44,74.94c-1.62,0-2.95-.75-3.03-.79-.28-.16-.38-.52-.22-.8s.52-.38,.8-.22c.02,.01,2.49,1.39,4.43,.03,.27-.19,.63-.12,.82,.14,.19,.27,.12,.63-.14,.82-.88,.62-1.81,.82-2.66,.82h0Z"/>
      <ellipse class="cls-8" cx="106.14" cy="58.26" rx="1.13" ry="1.84"/>
      <circle class="cls-8" cx="107.94" cy="55.33" r=".67"/>
      <ellipse class="cls-8" cx="104.2" cy="53.18" rx="1.52" ry="1.91"/>
      <path class="cls-22" d="M72.96,172.14c-.28,0-.5-.22-.5-.5v-22.87c0-.28,.22-.5,.5-.5s.5,.22,.5,.5v22.87c0,.28-.22,.5-.5,.5Z"/>
      <path class="cls-22" d="M170.23,198.26h-22.87c-.28,0-.5-.22-.5-.5s.22-.5,.5-.5h22.87c.28,0,.5,.22,.5,.5s-.22,.5-.5,.5Z"/>
      <path class="cls-22" d="M47.36,206.92h-7.67c-.28,0-.5-.22-.5-.5s.22-.5,.5-.5h7.67c.28,0,.5,.22,.5,.5s-.22,.5-.5,.5Z"/>
      <path class="cls-22" d="M42.26,171.57h-.99c-.35,0-.63-.28-.63-.63s.28-.63,.63-.63h.99c.35,0,.63,.28,.63,.63s-.28,.63-.63,.63Z"/>
      <path class="cls-22" d="M42.26,175.1h-.99c-.35,0-.63-.28-.63-.63s.28-.63,.63-.63h.99c.35,0,.63,.28,.63,.63s-.28,.63-.63,.63Z"/>
      <path class="cls-22" d="M46.52,156.29c-.14,0-.29-.05-.41-.15l-.76-.64c-.27-.23-.3-.63-.08-.89,.23-.27,.63-.3,.89-.08l.76,.64c.27,.23,.3,.63,.08,.89-.12,.15-.3,.23-.49,.23h.01Z"/>
      <path class="cls-22" d="M60.81,155.64c-.22,0-.44-.12-.56-.33-.17-.31-.06-.69,.25-.86l.87-.48c.31-.17,.69-.06,.86,.25s.06,.69-.25,.86l-.87,.48c-.1,.05-.2,.08-.31,.08h.01Z"/>
      <path class="cls-22" d="M44.29,160.67c-.12,0-.23-.03-.34-.1l-.83-.53c-.3-.19-.38-.58-.19-.88,.19-.3,.58-.38,.88-.19l.83,.53c.3,.19,.38,.58,.19,.88-.12,.19-.33,.29-.54,.29Z"/>
      <path class="cls-22" d="M63.39,160.41c-.22,0-.44-.12-.56-.33-.17-.31-.06-.69,.25-.86l.87-.48c.31-.17,.69-.06,.86,.25s.06,.69-.25,.86l-.87,.48c-.1,.05-.2,.08-.31,.08h.01Z"/>
      <g>
        <g>
          <circle class="cls-5" cx="96.01" cy="146.57" r="10.54"/>
          <g>
            <path class="cls-25" d="M103.94,146.56c0-1.1-1.21-2.05-3.33-2.65,.54-2.13,.32-3.66-.63-4.21-.93-.54-2.4,.04-3.96,1.56-1.56-1.52-3.03-2.1-3.96-1.56-.95,.55-1.17,2.07-.63,4.21-2.12,.6-3.33,1.55-3.33,2.65s1.21,2.05,3.33,2.65c-.55,2.13-.32,3.66,.63,4.21,.24,.14,.52,.21,.8,.2,.88,0,2-.62,3.17-1.76,1.17,1.14,2.29,1.76,3.17,1.76,.28,0,.55-.07,.8-.2,.95-.55,1.17-2.07,.63-4.21,2.12-.6,3.33-1.55,3.33-2.65h-.02Zm-7.93,4.34c-.34-.37-.66-.75-.96-1.14,.32,.02,.64,.03,.96,.03s.63-.01,.96-.03c-.3,.4-.62,.78-.96,1.14Zm0-8.68c.34,.37,.66,.75,.96,1.14-.64-.03-1.27-.03-1.91,0,.3-.4,.62-.78,.96-1.14h0Zm-1.45,6.85c-.55-.8-1.03-1.64-1.45-2.51,.42-.87,.9-1.71,1.45-2.51,.97-.07,1.94-.07,2.9,0,.55,.8,1.03,1.64,1.45,2.51-.42,.87-.9,1.71-1.45,2.51-.98,.07-1.93,.07-2.9,0Zm-1.35-4.12c-.16,.28-.31,.56-.46,.84-.19-.46-.36-.92-.51-1.4,.49-.11,.98-.19,1.47-.26-.17,.27-.34,.54-.5,.81h0Zm-.46,2.4c.15,.28,.3,.56,.46,.84,.16,.28,.33,.55,.5,.81-.51-.06-1-.15-1.47-.25,.15-.47,.32-.94,.51-1.4Zm6.51,0c.19,.46,.36,.92,.51,1.4-.49,.11-.97,.19-1.47,.25,.35-.53,.66-1.09,.96-1.65Zm0-1.55c-.29-.57-.61-1.12-.96-1.65,.49,.06,.98,.15,1.47,.26-.15,.47-.32,.94-.51,1.4h0Zm.38-5.52c.66,.38,.77,1.69,.32,3.47-.67-.15-1.38-.26-2.14-.33h0c-.41-.59-.87-1.15-1.35-1.68,1.29-1.26,2.52-1.84,3.17-1.46h0Zm-7.27,0c.13-.08,.29-.11,.47-.11,.7,0,1.67,.57,2.71,1.57-.49,.53-.94,1.09-1.36,1.68-.72,.06-1.43,.17-2.14,.33-.45-1.78-.34-3.09,.32-3.47Zm-3.63,6.28c0-.76,1.08-1.52,2.85-2.01,.22,.69,.48,1.36,.78,2.01h0c-.3,.65-.56,1.32-.78,2.01-1.77-.5-2.85-1.26-2.85-2.01Zm3.63,6.28c-.66-.38-.77-1.7-.32-3.47,.7,.16,1.42,.27,2.14,.33h0c.41,.59,.87,1.15,1.36,1.68-1.29,1.26-2.52,1.83-3.17,1.46h-.01Zm7.27,0c-.13,.08-.29,.11-.47,.11h0c-.7,0-1.67-.57-2.71-1.57,.49-.53,.94-1.09,1.35-1.68h0c.72-.06,1.43-.17,2.14-.33,.45,1.78,.34,3.09-.32,3.47h.01Zm.78-4.27c-.2-.65-.46-1.32-.78-2.01h0c.3-.65,.56-1.32,.78-2.01,1.77,.5,2.85,1.26,2.85,2.01s-1.08,1.52-2.85,2.01Z"/>
            <circle class="cls-25" cx="96.01" cy="146.57" r="1.41"/>
          </g>
          <path class="cls-22" d="M96.01,157.61c-1.07,0-2.13-.15-3.14-.45-.26-.08-.42-.36-.34-.62s.36-.41,.62-.34c.92,.27,1.88,.41,2.85,.41,5.54,0,10.04-4.5,10.04-10.04s-4.5-10.04-10.04-10.04-10.04,4.5-10.04,10.04c0,.59,.05,1.18,.15,1.75,.05,.27-.13,.53-.41,.58-.26,.05-.53-.13-.58-.41-.11-.63-.17-1.28-.17-1.92,0-6.09,4.95-11.04,11.04-11.04s11.04,4.95,11.04,11.04-4.95,11.04-11.04,11.04h.02Z"/>
          <path class="cls-22" d="M86.41,151.42c-.19,0-.37-.11-.46-.29-.1-.22-.2-.45-.28-.68-.1-.26,.03-.55,.29-.64,.26-.1,.55,.03,.64,.29,.08,.21,.17,.42,.26,.62,.11,.25,0,.55-.25,.66-.07,.03-.14,.04-.21,.04h0Z"/>
          <path class="cls-22" d="M90.91,156.29c-.08,0-.17-.02-.24-.06-1.49-.83-2.79-2-3.75-3.41-.16-.23-.1-.54,.13-.7,.22-.16,.54-.1,.7,.13,.88,1.28,2.06,2.35,3.42,3.1,.24,.13,.33,.44,.2,.68-.09,.17-.26,.26-.44,.26h-.02Z"/>
        </g>
        <path class="cls-3" d="M183.49,193.39h0c.25-.67,.22-1.38-.1-2.11,0-.01,0-.02,0-.03h0l-.02-.03h0l-.18-.37h0l-.02-.06h0s-.02-.03-.03-.04c-.64-1.03-1.97-2.22-4.74-2.62-.07-1.23,.26-2.02,1.24-2.98,.17-.17,.18-.33,.02-.52-.31-.38-.91-.58-1.35-.68-.21-.05-.37,0-.49,.14-.85,1.03-2.12,1.71-3.35,2.36l-.07,.04c.05-1.13,.5-1.79,1.26-2.51,.15-.14,.17-.29,.05-.46-.34-.48-1.11-.67-1.43-.74-.4-.08-1.26,.66-2.27,1.57-.25,.23-.47,.42-.58,.51-.27,.2-.55,.43-.84,.68-.67,.57-1.42,1.2-2.16,1.46,.03-.47,.61-.93,1.18-1.37,.67-.53,1.31-1.02,1.18-1.62-.04-.19-.15-.35-.32-.46-.11-.07-.23-.11-.35-.12,.19-.28,.31-.51,.38-.84,.09-.47-.12-.86-.57-1.08-1.02-.5-2.27-.19-3.14,.15-.58,.23-1.54,.14-2.39,.05-.34-.03-.65-.06-.93-.07-.2-.48-.48-1.01-.79-1.57-.85-1.57-1.82-3.34-1.16-4.73,.97-2.04,3.99-2.27,6.51-2.24,1.91,.02,3.48,.2,4.82,.54,1.87,.48,3.24,1.3,4.07,2.42,.45,.62,.4,1.41-.13,1.98-1.38,1.48-3.95,1.65-5.91,1.31-1.18-.21-2.11-.52-2.84-.96-.92-.55-1.45-1.43-1.67-1.81-.03-.06-.07-.13-.12-.18h0c-.05-.06-.13-.07-.19-.05-.11,.05-.15,.19-.16,.27-.12,1.01,.27,1.89,1.15,2.62,.29,.23,.6,.44,.94,.61,2.32,1.21,5.98,1.42,7.65,.89,1.13-.36,2.08-.85,3-2.07,.96-1.27,.52-2.74-.21-3.68-1.78-2.3-4.66-3.26-6.76-3.67-2.46-.47-5.27-.45-7.71,.05-3,.62-4.6,1.81-4.74,3.56-.15,1.79,.89,3.5,1.89,5.15,.32,.53,.63,1.04,.89,1.53-.15,0-.31,0-.47-.01-1.54-.05-3.28-.1-4.63,.6-.98,.51-1.51,1.26-1.56,2.22-.03,.51,.16,.97,.56,1.35,.21,.2,.44,.36,.7,.49,.91,.47,2.1,.63,2.82,.57,1.28-.1,2.32-.59,3.11-1.44,.7-.76,1.1-1.67,1.17-2.64l1.49,.02c-1.56,1.59-1.71,2.95-1.56,3.82,.06,.32,.3,.63,.66,.82s.75,.23,1.05,.1c.58-.25,1.1-.62,1.6-1.01-.19,.32-.34,.67-.38,1.01-.03,.31,.05,.57,.23,.74,.19,.19,.49,.27,.84,.23,1.58-.19,3.38-1.69,4.82-2.89,.2-.17,.4-.34,.59-.49-.14,.65-.2,1.31-.2,1.97,0,.14-.03,.19-.16,.24-.2,.07-.46,.15-.74,.23-.85,.24-1.9,.54-2.3,1.08-.16,.22-.11,.52,.12,.7,.68,.55,1.71,.81,2.76,.69,.95-.11,1.56-.63,1.81-1.54,.24-.88,1.15-1.66,2.71-2.3-.19,.74-.25,1.38-.21,2h0c-1.02,.25-2.42,.58-2.8,1.68-.08,.21-.06,.44,.04,.64,.11,.21,.3,.36,.53,.42,1.02,.29,1.91,.26,2.73-.08s.98-1.11,1.09-1.72c1.5,.33,2.66,.95,3.56,1.89,.5,.53,.77,1.11,.77,1.72,0,.77-.45,1.23-1.3,1.3-.26,.02-.39,.05-.45,.14-.03,.04-.03,.1,0,.14,.04,.1,.21,.32,.9,.27,.63-.05,1.12-.31,1.45-.78,.09-.13,.16-.27,.22-.42l-.05,.02Zm-21.68-9.65l-.04,.06c-.48,.73-1.22,1.19-2.21,1.39-.62,.12-1.2,.09-1.64-.09-.31-.13-.5-.28-.57-.45-.05-.13-.04-.28,.03-.45,.61-1.38,3.41-1.62,4.82-1.44-.07,.34-.2,.67-.39,.97h0Zm7.35-.96h0c-.77,1.01-2.43,2.8-3.75,3.15-.06,.02-.11,.01-.12,0s-.02-.04,0-.07c.06-.84,.78-1.95,1.71-2.63,.71-.52,1.45-.73,2.08-.59,.03,0,.05,.01,.08,.03,.02,0,.04,.02,.05,.04,0,.03,0,.05-.03,.08h-.01Zm2.28,6.32c-.26,.09-.48-.06-.39-.09l1.33-.46c-.23,.28-.57,.43-.94,.55h0Zm3.95,1.06c-.1,0-.2-.02-.3-.06,.22-.49,.97-.78,1.61-.9-.14,.56-.66,.96-1.31,.97h0Z"/>
        <rect class="cls-5" x="121.89" y="133.71" width="16.09" height="28.52" rx=".87" ry=".87" transform="translate(-43.21 241.78) rotate(-77.16)"/>
        <path class="cls-22" d="M116.66,142.43s-.07,0-.11-.01c-.27-.06-.44-.33-.38-.6l.94-4.12c.17-.74,.91-1.2,1.64-1.03l6.37,1.45c.27,.06,.44,.33,.38,.6-.06,.27-.33,.44-.6,.38l-6.37-1.45c-.19-.04-.4,.08-.44,.28l-.94,4.12c-.05,.23-.26,.39-.49,.39h0Z"/>
        <path class="cls-22" d="M118.33,154.1s-.07,0-.11-.01l-3.27-.75c-.36-.08-.66-.3-.86-.61s-.26-.68-.18-1.04l1.75-7.67c.06-.27,.32-.44,.6-.38,.27,.06,.44,.33,.38,.6l-1.75,7.67c-.02,.1,0,.2,.05,.28s.13,.14,.23,.16l3.27,.75c.27,.06,.44,.33,.38,.6-.05,.23-.26,.39-.49,.39h0Z"/>
        <path class="cls-22" d="M141.36,159.33c-.1,0-.2-.01-.31-.04l-20.15-4.6c-.27-.06-.44-.33-.38-.6,.06-.27,.33-.44,.6-.38l20.15,4.6c.09,.02,.2,0,.28-.05s.14-.13,.16-.23l3.19-13.99c.02-.1,0-.2-.05-.28s-.13-.14-.23-.16l-8.87-2.02c-.27-.06-.44-.33-.38-.6,.06-.27,.33-.44,.6-.38l8.86,2.02c.36,.08,.66,.3,.86,.61s.26,.68,.18,1.03l-3.19,13.99c-.08,.36-.3,.66-.61,.86-.22,.14-.47,.21-.73,.21h.02Z"/>
        <path class="cls-22" d="M133.82,141.12s-.07,0-.11-.01l-6.81-1.55c-.27-.06-.44-.33-.38-.6,.06-.27,.33-.44,.6-.38l6.81,1.55c.27,.06,.44,.33,.38,.6-.05,.23-.26,.39-.49,.39Z"/>
        <g>
          <path class="cls-22" d="M125.76,144.01c-.43-.36-.98-.62-1.65-.77l-.66-.15-.54-.12-.98-.22-1.39,6.11,.98,.22,.54,.12,.66,.15c.67,.15,1.28,.16,1.82,.02,.55-.14,1.01-.41,1.38-.8,.37-.4,.63-.91,.77-1.53s.13-1.2-.03-1.72c-.16-.52-.46-.95-.89-1.32h0Zm-.94,3.49c-.15,.2-.32,.35-.52,.45s-.41,.15-.64,.16c-.23,0-.46-.01-.7-.07l-.61-.14,.8-3.49,.61,.14c.23,.05,.45,.13,.66,.24,.21,.11,.37,.25,.51,.42s.23,.38,.27,.63c.05,.25,.03,.54-.04,.87s-.19,.6-.34,.8h0Z"/>
          <polygon class="cls-22" points="129.3 144.43 128.32 144.2 126.93 150.32 127.91 150.54 128.34 150.64 130.99 151.24 131.26 150.03 128.62 149.42 128.94 148.02 131.41 148.58 131.68 147.4 129.21 146.83 129.46 145.74 132.1 146.34 132.38 145.13 129.74 144.53 129.3 144.43"/>
          <polygon class="cls-22" points="137.64 146.33 135.31 149.64 134.65 145.65 132.93 145.26 134.66 152.48 139.37 146.72 137.64 146.33"/>
        </g>
      </g>
      <path class="cls-35" d="M131.41,36.55c-23.91,0-35.01,11.11-35.01,11.11-3.2,0-.07-4.08-.07-7.28,0-1.56-.4-3.25-.81-4.57-.47-1.5,.21-3.1,1.58-3.86,8.01-4.39,34.7-16.2,68.15-.85,1.5,.69,2.27,2.38,1.79,3.96-.38,1.28-.74,2.86-.74,4.32,0,3.2,3.13,8.28-.07,8.28,0,0-11.11-11.11-35.01-11.11"/>
      <path class="cls-22" d="M147.6,15.3h-.07c-.3-.04-.51-.31-.47-.61,.45-3.5-.22-6.11-.23-6.14-.08-.29,.1-.59,.39-.66s.59,.1,.66,.39c.03,.11,.73,2.83,.26,6.55-.04,.27-.27,.47-.54,.47Z"/>
      <path class="cls-34" d="M103.39,32.06c6.68-3.12,13.91-5.06,21.26-5.71,1.91-.17,1.93-3.17,0-3-7.91,.69-15.58,2.75-22.77,6.12-1.75,.82-.23,3.4,1.51,2.59h0Z"/>
      <path class="cls-22" d="M106,36.54c-.3,0-.58-.18-.7-.47-1.36-3.4-1.19-7.84-1.18-8.03,.02-.41,.37-.75,.78-.72,.41,.02,.74,.37,.72,.78,0,.04-.16,4.31,1.08,7.41,.15,.38-.03,.82-.42,.97-.09,.04-.19,.05-.28,.05h0Z"/>
      <path class="cls-22" d="M115.69,38.61c-.3,0-.58-.18-.7-.47-1.36-3.4-1.19-7.84-1.18-8.03,.02-.41,.37-.77,.78-.72,.41,.02,.74,.37,.72,.78,0,.04-.16,4.31,1.08,7.41,.15,.38-.03,.82-.42,.97-.09,.04-.19,.05-.28,.05h0Z"/>
      <path class="cls-34" d="M130.02,26.25c6.61-.11,13.06,2.35,19.68,1.51,.8-.1,1.5-.62,1.5-1.5,0-.73-.69-1.6-1.5-1.5-6.62,.84-13.07-1.62-19.68-1.51-1.93,.03-1.93,3.03,0,3h0Z"/>
      <path class="cls-34" d="M157.95,30.58c2.8,.09,5.86,1.79,6.08,4.87,.06,.86-.09,1.72-.14,2.58-.05,.91-.03,1.83,.06,2.74,.19,1.91,.59,3.79,1.01,5.66s3.31,1.09,2.89-.8c-.47-2.08-.94-4.17-.99-6.31-.04-1.95,.45-3.88-.18-5.79-1.24-3.77-4.91-5.83-8.74-5.95-1.93-.06-1.93,2.94,0,3h.01Z"/>
      <path class="cls-22" d="M160.3,43.32c-.09,0-.19-.02-.28-.05-.38-.15-.57-.59-.42-.97,1.24-3.1,1.08-7.37,1.08-7.41-.02-.41,.3-.76,.72-.78,.4-.03,.76,.3,.78,.72,0,.19,.18,4.62-1.18,8.03-.12,.29-.4,.47-.7,.47h0Z"/>
      <path class="cls-5" d="M113.7,14.09c1.23-1.28,2.19-2.77,3.45-4.03,1.35-1.34,2.71-2.68,4.23-3.83,2.89-2.19,6.54-3.77,10.21-2.85,1.4,.36,2-1.81,.6-2.17-4-1.02-8.1,.34-11.39,2.67-1.67,1.18-3.19,2.57-4.65,4-.7,.69-1.42,1.37-2.04,2.14-.67,.83-1.27,1.71-2.01,2.48-1,1.04,.58,2.64,1.59,1.59h.01Z"/>
      <path class="cls-34" d="M107.83,26.93c4.44-1.92,9.22-3.08,14.04-3.44,.81-.06,1.5-.65,1.5-1.5,0-.76-.69-1.56-1.5-1.5-5.39,.4-10.6,1.71-15.55,3.85-.74,.32-.91,1.41-.54,2.05,.45,.77,1.31,.86,2.05,.54h0Z"/>
      <path class="cls-22" d="M161.5,28.92c-.32,0-.61-.22-.69-.54-.93-3.71-5.43-8.17-5.48-8.22-.07-.07-.12-.15-.16-.23-.08-.19-7.91-18.5-22.78-18.5-5.33,0-10.09,2.28-14.55,6.97-.27,.29-.72,.3-1.01,.03s-.3-.73-.03-1.01c4.74-4.99,9.84-7.42,15.59-7.42,6.57,0,12.83,3.36,18.09,9.73,3.62,4.38,5.59,8.7,5.95,9.52,.72,.72,4.81,4.97,5.76,8.79,.1,.38-.14,.77-.52,.87-.06,.01-.12,.02-.17,.02h0Z"/>
      <path class="cls-22" d="M99.95,30.52c-.11,0-.23-.03-.34-.08-.35-.19-.48-.62-.29-.97,.12-.23,3.08-5.69,7-8.16,.92-.58,2.19-2.52,3.65-4.77,1.38-2.11,3.09-4.74,5.14-7.21,.25-.3,.71-.34,1.01-.09s.34,.7,.09,1.01c-2,2.41-3.62,4.89-5.05,7.08-1.69,2.59-2.91,4.46-4.09,5.2-3.61,2.27-6.47,7.57-6.5,7.63-.13,.24-.38,.38-.63,.38v-.02Z"/>
      <path class="cls-22" d="M111.29,24c-.29,0-.57-.17-.69-.46-1.61-3.82,.49-10.04,.58-10.3,.13-.39,.56-.6,.95-.46,.39,.13,.6,.56,.47,.95-.02,.06-2.01,5.94-.62,9.23,.16,.38-.02,.82-.4,.98-.1,.04-.19,.06-.29,.06h0Z"/>
      <path class="cls-22" d="M121.94,24.07c-.29,0-.56-.17-.69-.45-5.13-11.71,2.48-21.86,2.56-21.96,.25-.33,.72-.39,1.05-.14s.39,.72,.14,1.05c-.07,.09-7.15,9.56-2.38,20.44,.17,.38,0,.82-.39,.99-.1,.04-.2,.06-.3,.06h.01Z"/>
      <path class="cls-34" d="M132.93,23.48c4.98,.97,10.01,1.65,15.07,2.03,.81,.06,1.5-.73,1.5-1.5,0-.86-.69-1.44-1.5-1.5-4.79-.36-9.55-1-14.27-1.92-.79-.15-1.62,.22-1.85,1.05-.2,.74,.25,1.69,1.05,1.85h0Z"/>
      <path class="cls-22" d="M140.38,24.07c-.1,0-.2-.02-.3-.06-.38-.17-.55-.61-.39-.99,4.77-10.88-2.31-20.35-2.38-20.44-.25-.33-.19-.8,.14-1.05s.8-.19,1.05,.14c.08,.1,7.69,10.25,2.56,21.96-.12,.28-.4,.45-.69,.45h.01Z"/>
      <path class="cls-22" d="M147.26,25.51c-.07,0-.15,0-.22-.04-.27-.12-.4-.44-.28-.71,.69-1.58,1.15-3.25,1.36-4.94,.04-.3,.31-.51,.6-.47,.3,.04,.51,.31,.47,.6-.22,1.8-.7,3.57-1.44,5.25-.09,.2-.29,.32-.5,.32h0Z"/>
      <path class="cls-22" d="M149.08,25.87c-3.81,0-7.32-.56-10.73-1.11-3.22-.52-6.27-1-9.25-.95h0c-.39,0-.71-.31-.72-.7,0-.4,.31-.72,.7-.73,3.09-.05,6.21,.44,9.5,.97,4.08,.65,8.31,1.33,12.96,1.01,.38-.02,.74,.27,.76,.66,.03,.39-.27,.74-.66,.76-.87,.06-1.72,.09-2.56,.09h0Z"/>
      <path class="cls-22" d="M138.38,31.37c-.06,0-.11,0-.17-.02-.4-.09-.66-.49-.57-.9,.86-3.77-.2-5.86-.21-5.88-.19-.37-.05-.82,.31-1.01,.36-.19,.81-.06,1.01,.3,.06,.1,1.35,2.56,.35,6.92-.08,.35-.39,.58-.73,.58h.01Z"/>
      <path class="cls-22" d="M149.48,33.34c-.06,0-.13,0-.19-.03-.4-.11-.64-.52-.53-.92,.7-2.63,.08-6.52,.08-6.56-.07-.41,.21-.79,.62-.86,.41-.06,.79,.21,.86,.62,.03,.17,.67,4.24-.11,7.18-.09,.33-.39,.56-.72,.56h0Z"/>
      <g>
        <path class="cls-22" d="M120.81,55.3h0c1.4,0,2.54,1.14,2.54,2.54v3.96c0,1.4-1.14,2.54-2.54,2.54h0c-1.4,0-2.54-1.14-2.54-2.54v-3.96c0-1.4,1.14-2.54,2.54-2.54Z"/>
        <circle class="cls-5" cx="118.2" cy="58.9" r="1.55"/>
      </g>
      <path class="cls-22" d="M112.49,60.38h-11.48c-.43,0-.77-.35-.77-.77s.35-.77,.77-.77h11.48c.43,0,.77,.35,.77,.77s-.35,.77-.77,.77Z"/>
      <path class="cls-22" d="M164.07,60.38h-12.8c-.43,0-.77-.35-.77-.77s.35-.77,.77-.77h12.8c.43,0,.77,.35,.77,.77s-.35,.77-.77,.77Z"/>
      <g>
        <rect class="cls-22" x="140.01" y="55.3" width="5.08" height="9.04" rx="2.54" ry="2.54"/>
        <circle class="cls-5" cx="139.94" cy="58.9" r="1.55"/>
      </g>
      <g>
        <circle class="cls-7" cx="142.55" cy="60.18" r="8.46"/>
        <path class="cls-22" d="M142.56,69.41c-5.09,0-9.23-4.14-9.23-9.23s4.14-9.23,9.23-9.23,9.23,4.14,9.23,9.23-4.14,9.23-9.23,9.23Zm0-16.91c-4.24,0-7.68,3.45-7.68,7.68s3.45,7.68,7.68,7.68,7.68-3.45,7.68-7.68-3.45-7.68-7.68-7.68Z"/>
      </g>
      <circle class="cls-7" cx="121.56" cy="60.18" r="8.46" transform="translate(52.91 177.17) rotate(-85.93)"/>
      <path class="cls-13" d="M162.85,70.8c3.08,18.88-8.87,27.45-8.87,27.45-6.83,11.51-22.69,17.14-22.69,17.14h-.43s-15.86-5.62-22.69-17.14c0,0-13.89-9-7.68-34.91l2.47,.21-.14,5.86,1.39,6.55,1.47,8.84s2.95-4.55,5.49-5.22c0,0-1.32,5.95,.82,10.1,0,0,2.47-3.67,5.95-4.47,0,0,3.67,10.71,12.91,10.71h.43c9.24,0,12.83-10.33,12.83-10.33,3.48,.8,6.12,3.76,6.12,3.76,2.14-4.15,.73-9.77,.73-9.77,2.54,.67,5.49,5.22,5.49,5.22l1.47-8.84,1.25-6.76v-5.6h2.49"/>
      <path class="cls-9" d="M163.14,77.42c-.49,13.81-9.35,20.17-9.35,20.17-6.83,11.52-22.69,17.14-22.69,17.14h-.43s-15.86-5.62-22.69-17.14c0,0-8.4-5.44-9.21-20.05,1.97,5.55,5.72,15.48,11.93,18.11,4.52,9.32,12.52,13.46,20.33,15.72,7.44-1.79,17.13-7.62,20.61-16.75,7.15-1.69,9.57-11.69,11.5-17.2h0Z"/>
      <path class="cls-12" d="M104.12,45.18c5.77-3.04,12.18-5.29,18.7-5.96,5.72-.59,11.67-.52,17.39,.09,1.92,.2,1.9-2.8,0-3-5.91-.63-12.1-.72-18.01-.02-6.86,.81-13.5,3.09-19.6,6.3-1.71,.9-.19,3.49,1.51,2.59h0Z"/>
      <path class="cls-22" d="M96.4,47.99c-.84,0-1.46-.25-1.82-.75-.67-.92-.23-2.3,.28-3.89,.35-1.09,.75-2.32,.75-3.37,0-1.21-.27-2.72-.78-4.36-.56-1.8,.25-3.78,1.92-4.7,4.88-2.67,15.15-7.31,29.14-8.36,.39-.03,.74,.27,.77,.66s-.27,.74-.66,.77c-13.72,1.03-23.78,5.57-28.56,8.19-1.08,.59-1.6,1.86-1.24,3.02,.56,1.81,.85,3.42,.85,4.79,0,1.27-.43,2.62-.82,3.8-.31,.96-.73,2.27-.49,2.61,.04,.06,.16,.12,.39,.14,1.77-1.63,12.95-11.09,35.28-11.09,.4,0,.72,.32,.72,.72s-.32,.72-.72,.72c-23.29,0-34.4,10.79-34.51,10.9-.13,.13-.32,.21-.51,.21h0Z"/>
      <path class="cls-1" d="M114.26,90.64c.61-.59,1.21-1.18,1.87-1.71,.05-.04,.09-.07,.14-.11,.15-.12-.25,.18-.09,.07,.09-.07,.19-.14,.28-.21,.18-.13,.36-.25,.56-.35,.09-.05,.18-.09,.27-.14,.14-.08-.32,.11-.16,.07,.04-.01,.08-.03,.13-.04,.08-.03,.16-.04,.24-.07,.14-.04,.3-.11,.42-.19,.06-.05,.12-.09,.18-.14,.3-.22,.19-.17-.33,.17h-.8c-.24-.09-.44-.23-.58-.44l.04,.08c.03,.08,.07,.15,.11,.22,.07,.14,.13,.29,.19,.43,.15,.34,.3,.68,.46,1.01,.43,.85,.98,1.57,1.74,2.14,.63,.47,1.7,.12,2.05-.54,.41-.78,.14-1.55-.54-2.05,.38,.28,.07,.05,0-.03-.07-.07-.14-.2-.23-.26,.14,.19,.17,.22,.08,.09-.03-.05-.07-.1-.1-.15-.07-.1-.13-.21-.19-.31-.22-.39-.41-.81-.59-1.22-.2-.45-.37-.94-.71-1.31-.44-.48-1.09-.72-1.73-.56-.22,.05-.65,.23-.79,.44,.16-.23,.72-.34,.33-.23-.99,.28-1.83,.95-2.61,1.59-.62,.51-1.19,1.07-1.76,1.62s-.59,1.58,0,2.12,1.52,.58,2.12,0h0Z"/>
      <path class="cls-23" d="M122.72,111.49c-.17,0-.33-.07-.45-.21-2.29-2.67-3.14-6.37-3.45-9.01-.04-.32,.19-.62,.52-.65,.3-.05,.62,.19,.65,.52,.29,2.47,1.08,5.93,3.17,8.38,.21,.25,.18,.62-.06,.83-.11,.1-.25,.14-.38,.14Z"/>
      <path class="cls-23" d="M139.03,111.49c-.14,0-.27-.05-.38-.14-.25-.21-.28-.58-.06-.83,2.1-2.44,2.88-5.91,3.18-8.38,.04-.32,.34-.55,.66-.52,.32,.04,.55,.33,.52,.66-.31,2.64-1.16,6.34-3.45,9.01-.12,.14-.28,.21-.45,.21h-.02Z"/>
      <path class="cls-12" d="M107.91,81.7c.3-.31,.6-.62,.91-.92,.16-.16,.33-.31,.5-.47,.08-.07,.15-.13,.23-.2l.12-.1q-.09,.06,0,0c.34-.25,.7-.47,1.07-.67,.08-.04,.19-.09,.04-.03,.09-.04,.18-.07,.28-.1,.24-.08,.47-.13,.72-.17l-1.85-1.05c.56,1.5,.47,2.87,.48,4.59s.16,3.54,.94,5.18c.33,.7,1.42,.97,2.05,.54,1.26-.87,2.53-1.73,3.79-2.6,.65-.44,1-1.34,.54-2.05-.41-.64-1.36-1.01-2.05-.54-1.26,.87-2.53,1.73-3.79,2.6l2.05,.54c-.08-.17-.09-.19-.04-.07-.04-.1-.07-.19-.11-.29-.07-.19-.12-.39-.17-.59-.04-.17-.08-.35-.11-.53-.02-.11-.02-.1,0,.02-.01-.1-.02-.21-.03-.31-.08-.79-.07-1.58-.07-2.37,0-1.64,0-3.35-.58-4.91-.3-.82-.98-1.19-1.85-1.05-2.12,.36-3.75,1.92-5.18,3.41-.54,.57-.61,1.57,0,2.12s1.54,.6,2.12,0h0v.02Z"/>
      <path class="cls-12" d="M144.42,85.67c.8,.46,1.61,.89,2.39,1.37,.33,.2,.65,.41,.96,.63,.08,.06,.15,.11,.23,.17-.11-.09-.1-.08,.04,.03,.15,.13,.31,.26,.45,.39,.82,.74,2.2,.47,2.51-.66,.69-2.55,.56-5.11,.6-7.71,0-.12,0-.23,0-.35,0,.21-.02,.1,.02-.05,.06-.23,.11-.13,0-.04-.07,.12-.16,.2-.29,.24-.11,.1-.23,.14-.38,.12-.23,0-.24,.01-.03,.06l.16,.06c.45,.17-.17-.1,.26,.12,.25,.13,.5,.25,.74,.4,.87,.51,1.75,1.29,2.31,2.05,.48,.65,1.3,.98,2.05,.54,.64-.38,1.02-1.4,.54-2.05-.93-1.26-2.04-2.33-3.39-3.13-1.42-.84-3.56-1.75-4.6,.13-.37,.67-.42,1.44-.42,2.19s0,1.53,0,2.3c0,1.56-.1,2.86-.5,4.32l2.51-.66c-1.4-1.26-3.05-2.13-4.68-3.06-.7-.4-1.64-.17-2.05,.54s-.17,1.65,.54,2.05h.02Z"/>
      <path class="cls-12" d="M147.95,41.15c3.27,1.08,6.43,2.46,9.44,4.14,.5,.28,1.3,.56,1.54,1.12,.28,.65,.22,1.58,.27,2.27,.12,1.85,.11,3.71-.03,5.57-.06,.81,.73,1.5,1.5,1.5,.86,0,1.44-.69,1.5-1.5,.15-2.04,.16-4.08,0-6.12-.08-1.02-.12-2.11-.55-3.05s-1.17-1.48-2-1.97c-3.42-2-7.1-3.6-10.86-4.84-1.84-.61-2.62,2.29-.8,2.89h0Z"/>
      <path class="cls-22" d="M162.05,65.4c-.4,0-.72-.32-.72-.72v-20.27c0-.4,.32-.72,.72-.72s.72,.32,.72,.72v20.27c0,.4-.32,.72-.72,.72Z"/>
      <path class="cls-22" d="M166.23,47.99c-.19,0-.37-.08-.51-.21-.11-.11-11.21-10.9-34.51-10.9-.4,0-.72-.32-.72-.72s.32-.72,.72-.72c22.32,0,33.5,9.44,35.28,11.09,.14-.02,.27-.07,.33-.16,.36-.48-.11-2.14-.48-3.48-.38-1.33-.76-2.7-.76-3.91,0-1.3,.26-2.82,.77-4.52,.31-1.05-.2-2.09-1.56-3.2-2.19-1.79-3.44-2.4-7.55-3.03-.39-.06-.66-.42-.6-.82,.06-.39,.42-.66,.82-.6,4.38,.67,5.89,1.42,8.24,3.33,1.83,1.5,2.52,3.08,2.03,4.72-.47,1.57-.71,2.95-.71,4.11,0,1.01,.36,2.29,.71,3.52,.56,1.98,1.04,3.69,.25,4.73-.37,.49-.96,.74-1.74,.74v.03Z"/>
      <path class="cls-1" d="M124.49,96.6c4.19,1.75,8.91,1.57,13.05-.19,.75-.32,.91-1.42,.54-2.05-.45-.77-1.3-.86-2.05-.54-3.42,1.46-7.35,1.31-10.74-.11-.75-.31-1.65,.34-1.85,1.05-.24,.86,.3,1.53,1.05,1.85h0Z"/>
      <path class="cls-22" d="M99.21,73.89h-.04c-.4-.02-.71-.37-.69-.78,.19-3.08,.64-6.41,1.35-9.88,.08-.4,.47-.66,.87-.57,.4,.08,.65,.47,.57,.87-.69,3.41-1.14,6.66-1.32,9.68-.02,.39-.35,.69-.73,.69h0Z"/>
      <path class="cls-22" d="M103.83,74.14c-.34,0-.65-.25-.72-.6l-.84-4.38s-.01-.09-.01-.14v-4.91h-1.62c-.41,0-.73-.33-.73-.73s.33-.73,.73-.73h2.35c.41,0,.73,.33,.73,.73v5.58l.83,4.32c.08,.4-.18,.78-.58,.86-.05,0-.09,.01-.14,.01h0Z"/>
      <g>
        <path class="cls-5" d="M104.1,88.55c.72,2.57,2.52,4.83,4.89,6.07,.52,.27,1.25,.15,1.54-.4,.27-.52,.15-1.25-.4-1.54-.25-.13-.5-.28-.74-.44-.13-.08-.25-.17-.37-.26-.03-.02-.21-.17-.08-.06s-.05-.04-.08-.07c-.44-.37-.85-.78-1.21-1.22-.02-.03-.17-.21-.07-.08s-.04-.06-.06-.08c-.08-.11-.16-.22-.23-.34-.16-.24-.31-.49-.44-.74-.07-.13-.14-.27-.2-.4-.03-.06-.06-.12-.08-.19-.06-.13,.08,.2,0,0-.11-.28-.2-.57-.29-.86-.16-.57-.8-.97-1.38-.79s-.96,.78-.79,1.38h0v.02Z"/>
        <path class="cls-5" d="M112.25,96.68l1.94,1.21c.24,.15,.59,.19,.87,.11s.54-.27,.67-.52c.14-.26,.21-.58,.11-.87s-.26-.51-.52-.67l-1.94-1.21c-.24-.15-.59-.19-.87-.11s-.54,.27-.67,.52c-.14,.26-.21,.58-.11,.87s.26,.51,.52,.67h0Z"/>
      </g>
      <path class="cls-5" d="M100.14,41.79c1.32-2.45,1.24-5.56-.29-7.9-.32-.49-1.01-.75-1.54-.4-.49,.32-.75,1.01-.4,1.54,.16,.24,.3,.48,.42,.74,.03,.06,.06,.13,.09,.19-.04-.11-.04-.1,0,.02,.05,.13,.1,.27,.14,.4,.08,.27,.15,.55,.2,.82,.01,.07,.02,.14,.03,.21q-.02-.12,0,.02c0,.12,.02,.25,.03,.37,.01,.27,0,.53-.01,.8,0,.04-.06,.47-.02,.23-.02,.14-.05,.28-.08,.42-.06,.28-.14,.55-.24,.81-.02,.07-.05,.13-.08,.2,.05-.11,.04-.1-.01,.02-.06,.13-.12,.25-.19,.38-.28,.52-.15,1.25,.4,1.54s1.24,.15,1.54-.4h.01Z"/>
      <rect class="cls-5" x="116.9" y="59.52" width="15.25" height="1" transform="translate(64.03 184.31) rotate(-89.78)"/>
      <rect class="cls-5" x="120.35" y="59.22" width="12.89" height="2" transform="translate(65.82 186.66) rotate(-89.66)"/>
      <path class="cls-22" d="M121.58,69.41c-5.09,0-9.23-4.14-9.23-9.23s4.14-9.23,9.23-9.23,9.23,4.14,9.23,9.23-4.14,9.23-9.23,9.23Zm0-16.91c-4.24,0-7.68,3.45-7.68,7.68s3.45,7.68,7.68,7.68,7.68-3.45,7.68-7.68-3.45-7.68-7.68-7.68Z"/>
      <g>
        <path class="cls-23" d="M104.03,114.64c-.17,0-.32-.11-.36-.28-.05-.2,.07-.4,.27-.45l4.3-1.06c.2-.05,.4,.07,.45,.27s-.07,.4-.27,.45l-4.3,1.06s-.06,.01-.09,.01Z"/>
        <path class="cls-23" d="M102.91,116.52c-.17,0-.33-.12-.36-.29-.04-.2,.08-.4,.28-.44l3.23-.71c.2-.05,.4,.08,.44,.28s-.08,.4-.28,.44l-3.23,.71h-.08Z"/>
      </g>
      <path class="cls-32" d="M93.86,120.16l.43-4.54c.04-.41,.48-.61,.79-.36l3.68,2.99"/>
      <path class="cls-22" d="M131.31,121.77c-6.75,0-13.28-4.02-19.43-11.96-.26-.34-.2-.83,.14-1.09s.83-.2,1.09,.14c5.98,7.72,12.26,11.53,18.67,11.35,10.12-.31,17.27-10.63,17.34-10.73,.24-.35,.73-.44,1.08-.2s.45,.72,.2,1.08c-.31,.45-7.66,11.08-18.57,11.41h-.52Z"/>
      <path class="cls-22" d="M149.55,110.54c-.16,0-.32-.05-.46-.16l-3.6-2.89c-.32-.25-.37-.72-.11-1.03,.25-.32,.72-.36,1.03-.11l3.6,2.89c.32,.25,.37,.72,.11,1.03-.15,.18-.36,.27-.57,.27h0Z"/>
      <path class="cls-12" d="M130.98,117.12c-.39,0-.78-.08-1.14-.25l-9.11-4.48c-.5-.24-.7-.84-.46-1.34s.84-.7,1.34-.46l9.09,4.47c.17,.08,.39,.08,.58-.01l9.3-4.32c.5-.23,1.1-.01,1.33,.49s0,1.1-.49,1.33l-9.3,4.32c-.36,.17-.76,.25-1.15,.25h0Z"/>
      <path class="cls-22" d="M130.86,115.59c-.08,0-.16-.01-.25-.04-.65-.23-16.03-5.79-22.97-17.27-1.44-.78-9.32-5.78-9.27-22.11,0-.41,.33-.73,.73-.73h0c.41,0,.73,.33,.73,.74-.03,8.68,2.33,13.9,4.31,16.75,2.13,3.07,4.3,4.12,4.33,4.13,.13,.06,.25,.17,.32,.29,6.62,11.16,22.15,16.76,22.3,16.82,.38,.13,.58,.55,.45,.94-.11,.3-.39,.49-.69,.49h.01Z"/>
      <path class="cls-22" d="M131.29,115.59c-.3,0-.58-.19-.69-.49-.14-.38,.06-.8,.45-.94,.16-.06,15.69-5.67,22.3-16.82,.08-.13,.19-.23,.32-.29,.03-.01,3.21-1.56,5.68-6.41,2.3-4.52,4.44-12.89,1.53-27.12-.08-.4,.17-.78,.57-.87,.39-.08,.79,.17,.87,.57,5.46,26.78-6.03,34.09-7.83,35.05-6.94,11.48-22.31,17.04-22.97,17.27-.08,.03-.16,.04-.25,.04h.02Z"/>
      <ellipse class="cls-13" cx="131.15" cy="85.78" rx="12.36" ry="9.35"/>
      <path class="cls-22" d="M121.01,91.19c-.21,0-.42-.09-.56-.26-1.51-1.82-2.42-3.63-2.83-4.56-2.87,.94-4.94,3.59-4.96,3.61-.15,.2-.39,.3-.65,.28-.25-.02-.47-.17-.59-.39-1.63-3.16-1.42-7.4-1.17-9.57-1.61,1.1-3.32,3.39-3.94,4.36-.17,.25-.47,.38-.77,.32-.3-.06-.52-.3-.57-.6l-1.2-7.18c-.07-.4,.2-.78,.6-.84,.4-.07,.78,.2,.84,.6l.91,5.44c1.14-1.48,3.03-3.58,4.87-4.06,.24-.06,.5,0,.69,.17s.27,.43,.22,.68c-.01,.06-.99,5.17,.39,9,1.05-1.08,3.06-2.83,5.6-3.41,.36-.08,.73,.12,.86,.46,0,.02,.89,2.41,2.84,4.75,.26,.31,.22,.77-.09,1.03-.14,.11-.3,.17-.47,.17h-.02Z"/>
      <path class="cls-22" d="M130.86,96.11c-2.59,0-4.99-.74-7.15-2.19-.34-.23-.42-.68-.2-1.02,.23-.34,.68-.43,1.02-.2,1.91,1.29,4.04,1.94,6.33,1.94,.41,0,.73,.33,.73,.73s-.33,.73-.73,.73h0Z"/>
      <path class="cls-22" d="M141.14,91.19c-.17,0-.33-.06-.47-.17-.31-.26-.35-.72-.09-1.03,1.95-2.34,2.83-4.73,2.84-4.75,.13-.35,.5-.55,.86-.46,2.53,.58,4.55,2.33,5.6,3.41,1.38-3.84,.4-8.95,.39-9-.05-.25,.03-.5,.22-.68s.44-.24,.69-.17c1.84,.48,3.73,2.58,4.87,4.06l1.18-7.09,1.22-6.36v-5.58c0-.41,.33-.73,.73-.73h2.35c.41,0,.73,.33,.73,.73s-.33,.73-.73,.73h-1.62v4.91s0,.09,0,.14l-1.23,6.41-1.47,8.82c-.05,.3-.28,.54-.57,.6-.29,.06-.6-.07-.77-.32-.63-.97-2.33-3.26-3.94-4.36,.25,2.17,.46,6.42-1.17,9.57-.12,.22-.34,.37-.59,.39-.26,.02-.49-.08-.65-.28-.02-.03-2.09-2.68-4.96-3.61-.41,.93-1.32,2.74-2.83,4.56-.15,.17-.35,.26-.56,.26h-.02Z"/>
      <path class="cls-22" d="M131.29,96.11c-.41,0-.73-.33-.73-.73s.33-.73,.73-.73c2.29,0,4.42-.65,6.33-1.94,.34-.23,.79-.14,1.02,.2,.23,.34,.14,.79-.2,1.02-2.15,1.45-4.56,2.19-7.15,2.19h0Z"/>
      <g>
        <polygon class="cls-5" points="140.43 83.48 134.89 89.1 127.1 88.97 120.69 83.48 127.03 81.95 140.43 83.48"/>
        <path class="cls-21" d="M122.53,84.99c-.35,0-.66-.25-.73-.6-.08-.4,.18-.79,.59-.87l4.46-.87c.07-.01,.14-.02,.21,0l5.09,.5c.41,.04,.71,.4,.67,.81s-.41,.71-.81,.67l-4.98-.49-4.36,.85s-.1,.01-.14,.01h0Z"/>
        <path class="cls-22" d="M134.9,89.75h-7.82c-.15,0-.29-.05-.41-.15l-6.4-5.46c-.18-.16-.26-.4-.2-.63,.06-.23,.25-.41,.48-.46l6.35-1.32c.06-.01,.12-.02,.19,0l14.14,1.32c.25,.02,.46,.19,.54,.43,.08,.24,0,.5-.18,.67l-6.27,5.46c-.11,.1-.26,.15-.41,.15h0Zm-7.58-1.26h7.35l4.99-4.35-12.59-1.18-5,1.04,5.25,4.48h0Z"/>
      </g>
      <path class="cls-1" d="M123.67,81.13c.31-.48,.96-.67,1.47-.87,.75-.29,1.52-.54,2.3-.75,1.46-.39,2.94-.62,4.45-.6,2.72,.03,5.41,.94,7.37,2.86,1.03,1.01,2.63-.58,1.59-1.59-2.46-2.41-5.87-3.55-9.28-3.52-1.86,.02-3.73,.36-5.51,.9-1.56,.48-3.41,.98-4.34,2.42-.79,1.22,1.16,2.35,1.94,1.14h.01Z"/>
      <path class="cls-22" d="M119,85.79c0-5.87,7.87-8.5,12.64-8.56,4.99-.07,11.16,3.05,11.87,8.5,.12,.94,1.62,.96,1.5,0-.82-6.29-7.45-10.08-13.37-10s-14.14,3.28-14.14,10.06c0,.97,1.5,.97,1.5,0h0Z"/>
      <path class="cls-5" d="M119.95,32.88c2.42-.46,4.88-.71,7.34-.77,.56-.01,1.03-.46,1.03-1.03s-.47-1.04-1.03-1.03c-2.65,.06-5.29,.35-7.89,.84-.55,.1-.86,.76-.72,1.27,.16,.57,.72,.82,1.27,.72h0Z"/>
      <path class="cls-5" d="M130.81,32.29c1.33,0,1.33-2.06,0-2.06s-1.33,2.06,0,2.06h0Z"/>
      <g>
        <polyline class="cls-13" points="128.3 51.31 110.98 51.31 109.48 47.36 128.22 47.29"/>
        <path class="cls-22" d="M128.15,51.88h-17.32c-.23,0-.45-.14-.53-.36l-1.51-3.95c-.07-.17-.04-.37,.06-.52s.28-.24,.47-.24h17.08c.31,0,.57,.25,.57,.57s-.25,.57-.57,.57h-16.26l1.07,2.82h16.36v-3.56c0-.31,.25-.57,.57-.57s.57,.25,.57,.57v4.12c0,.31-.25,.57-.57,.57v-.02Z"/>
      </g>
      <g>
        <polyline class="cls-13" points="133.88 51.31 151.2 51.31 152.71 47.36 133.97 47.29"/>
        <path class="cls-22" d="M151.35,51.88h-17.32c-.31,0-.57-.25-.57-.57v-4.12c0-.31,.25-.57,.57-.57s.57,.25,.57,.57v3.56h16.36l1.07-2.82h-16.26c-.31,0-.57-.25-.57-.57s.25-.57,.57-.57h17.08c.19,0,.36,.09,.47,.24s.13,.35,.06,.52l-1.51,3.95c-.08,.22-.29,.36-.53,.36v.02Z"/>
      </g>
    </g>
  </g>
</svg>