<?xml version="1.0" encoding="UTF-8"?>
<svg id="Layer_2" data-name="Layer 2" xmlns="http://www.w3.org/2000/svg" viewBox="0 0 209.09 217.27">
  <defs>
    <style>
      .cls-1 {
        fill: #f7ad54;
      }

      .cls-2 {
        fill: #f9a948;
      }

      .cls-3 {
        fill: #fc5454;
      }

      .cls-4 {
        fill: #000201;
      }

      .cls-5 {
        fill: #eaa28f;
      }

      .cls-6 {
        fill: #f6bc58;
      }

      .cls-7 {
        fill: #f784dc;
      }

      .cls-8 {
        fill: #e59015;
      }

      .cls-9 {
        fill: #e8e2dd;
      }

      .cls-10, .cls-11, .cls-12, .cls-13 {
        fill: #fff;
      }

      .cls-14 {
        fill: #ffe4d7;
      }

      .cls-15 {
        fill: #f2ab83;
      }

      .cls-16 {
        fill: #ffd5c7;
      }

      .cls-17 {
        fill: #ffd297;
      }

      .cls-18 {
        fill: #97cecc;
      }

      .cls-19 {
        fill: #a0e2f9;
      }

      .cls-20, .cls-21 {
        fill: #9fd3d3;
      }

      .cls-22 {
        fill: #b3ffa1;
      }

      .cls-23 {
        fill: #d7e9e9;
      }

      .cls-24 {
        fill: #d68778;
      }

      .cls-25 {
        fill: #dd2c2c;
      }

      .cls-26 {
        fill: #1e1e30;
      }

      .cls-27 {
        fill: #1f033c;
      }

      .cls-28 {
        fill: #232144;
      }

      .cls-29 {
        fill: #61dafb;
      }

      .cls-30, .cls-31 {
        fill: #28424f;
      }

      .cls-32 {
        fill: #3c5768;
      }

      .cls-33 {
        fill: #2f9916;
      }

      .cls-34 {
        fill: #37a9d1;
      }

      .cls-35 {
        fill: #5cdc41;
      }

      .cls-36 {
        fill: #c6bdb6;
        opacity: .3;
      }

      .cls-36, .cls-11, .cls-31, .cls-12, .cls-13, .cls-37, .cls-21 {
        isolation: isolate;
      }

      .cls-11, .cls-31, .cls-38 {
        opacity: .5;
      }

      .cls-12 {
        opacity: .55;
      }

      .cls-13 {
        opacity: .45;
      }

      .cls-37 {
        fill: #a4e7ff;
        opacity: .41;
      }

      .cls-21 {
        opacity: .4;
      }

      .cls-39 {
        opacity: .35;
      }
    </style>
  </defs>
  <g id="Layer_2-2" data-name="Layer 2">
    <g>
      <g class="cls-39">
        <rect class="cls-19" x="29.25" y="42.31" width="87.6" height="86.44"/>
        <path class="cls-23" d="M29.25,41.52v87.61H116.85V41.52H29.25ZM111.37,124.19H35.89V46.82H111.37V124.19Z"/>
        <rect class="cls-23" x="71" y="46.92" width="5.08" height="77.08"/>
        <rect class="cls-23" x="36.13" y="84.33" width="75.4" height="5.08"/>
        <g>
          <rect class="cls-34" x="35.5" y="119.75" width="75.94" height="4.05"/>
          <rect class="cls-34" x="106.7" y="46.78" width="3.98" height="73.37"/>
        </g>
        <g>
          <path class="cls-13" d="M39.97,67.15c-.7,0-1.27-.57-1.27-1.27v-14.85c0-.7,.57-1.27,1.27-1.27s1.27,.57,1.27,1.27v14.85c0,.7-.57,1.27-1.27,1.27Z"/>
          <path class="cls-13" d="M39.97,63.15c-.7,0-1.27-.57-1.27-1.27v-5.85c0-.7,.57-1.27,1.27-1.27s1.27,.57,1.27,1.27v5.85c0,.7-.57,1.27-1.27,1.27Z"/>
        </g>
        <g>
          <rect class="cls-10" x="21.03" y="70.34" width="54.8" height="2" transform="translate(-37.07 82.44) rotate(-63.23)"/>
          <rect class="cls-10" x="17.8" y="75.76" width="67.26" height="2" transform="translate(-40.34 87.51) rotate(-62.86)"/>
        </g>
        <path class="cls-27" d="M76.08,123.72c-.4,0-.72-.32-.72-.72v-33.11c0-.4,.32-.72,.72-.72s.72,.32,.72,.72v33.11c0,.4-.32,.72-.72,.72h0Z"/>
        <path class="cls-27" d="M76.08,84.28c-.4,0-.72-.32-.72-.72V47.63h-3.65v15.1c0,.4-.32,.72-.72,.72s-.72-.32-.72-.72v-15.82c0-.4,.32-.72,.72-.72h5.08c.4,0,.72,.32,.72,.72v36.65c0,.4-.32,.72-.72,.72h.01Z"/>
        <path class="cls-27" d="M71,70.61c-.4,0-.72-.32-.72-.72v-2.26c0-.4,.32-.72,.72-.72s.72,.32,.72,.72v2.26c0,.4-.32,.72-.72,.72Z"/>
        <path class="cls-27" d="M71,84.21c-.4,0-.72-.32-.72-.72v-10.78c0-.4,.32-.72,.72-.72s.72,.32,.72,.72v10.78c0,.4-.32,.72-.72,.72Z"/>
        <path class="cls-27" d="M71,123.72c-.4,0-.72-.32-.72-.72v-32.68c0-.4,.32-.72,.72-.72s.72,.32,.72,.72v32.68c0,.4-.32,.72-.72,.72Z"/>
        <path class="cls-27" d="M110.53,85.04H57.06c-.39,0-.71-.32-.71-.71s.32-.71,.71-.71h53.47c.39,0,.71,.32,.71,.71s-.32,.71-.71,.71Z"/>
        <path class="cls-27" d="M59.7,90.12h-23.57c-.39,0-.71-.32-.71-.71v-5.08c0-.39,.32-.71,.71-.71h17.45c.39,0,.71,.32,.71,.71s-.32,.71-.71,.71h-16.74v3.67h22.86c.39,0,.71,.32,.71,.71s-.32,.71-.71,.71h0Z"/>
        <path class="cls-27" d="M110.53,90.12h-46.41c-.39,0-.71-.32-.71-.71s.32-.71,.71-.71h46.41c.39,0,.71,.32,.71,.71s-.32,.71-.71,.71Z"/>
        <path class="cls-10" d="M30.99,41.56h0c.83,0,1.51,.68,1.51,1.51v20.89c0,.83-.67,1.51-1.51,1.51h0c-.83,0-1.51-.68-1.51-1.51v-20.89c0-.83,.67-1.51,1.51-1.51Z"/>
        <path class="cls-10" d="M30.99,85.6h0c.83,0,1.51,.68,1.51,1.51v20.89c0,.83-.67,1.51-1.51,1.51h0c-.83,0-1.51-.68-1.51-1.51v-20.89c0-.83,.67-1.51,1.51-1.51Z"/>
        <path class="cls-21" d="M84.89,126.4h0c0,1.17-.95,2.12-2.12,2.12h-29.42c-1.17,0-2.12-.95-2.12-2.12h0c0-1.17,.95-2.12,2.12-2.12h29.42c1.17,0,2.12,.95,2.12,2.12Z"/>
        <path class="cls-20" d="M101.08,126.4h0c0,1.17-.95,2.12-2.12,2.12h-29.42c-1.17,0-2.12-.95-2.12-2.12h0c0-1.17,.95-2.12,2.12-2.12h29.42c1.17,0,2.12,.95,2.12,2.12Z"/>
        <path class="cls-27" d="M29.25,114.42c-.4,0-.72-.32-.72-.72v-43.34c0-.4,.32-.72,.72-.72s.72,.32,.72,.72v43.34c0,.4-.32,.72-.72,.72Z"/>
        <path class="cls-27" d="M39.74,129.47h-10.49c-.4,0-.72-.32-.72-.72v-10.25c0-.4,.32-.72,.72-.72s.72,.32,.72,.72v9.54h9.78c.4,0,.72,.32,.72,.72s-.32,.72-.72,.72h-.01Z"/>
        <path class="cls-27" d="M116.85,59.41c-.4,0-.72-.32-.72-.72v-16.82h-46.37c-.4,0-.72-.32-.72-.72s.32-.72,.72-.72h47.08c.4,0,.72,.32,.72,.72v17.54c0,.4-.32,.72-.72,.72h.01Z"/>
        <path class="cls-27" d="M66.19,41.87h-14.12c-.4,0-.72-.32-.72-.72s.32-.72,.72-.72h14.12c.4,0,.72,.32,.72,.72s-.32,.72-.72,.72Z"/>
        <path class="cls-27" d="M29.25,67.41c-.4,0-.72-.32-.72-.72v-25.54c0-.4,.32-.72,.72-.72h17.55c.4,0,.72,.32,.72,.72s-.32,.72-.72,.72H29.96v24.82c0,.4-.32,.72-.72,.72h.01Z"/>
        <g>
          <path class="cls-28" d="M43.36,53.87c-.06,0-.13-.02-.18-.05-.18-.1-.24-.33-.14-.51l2.18-3.86c.1-.18,.33-.24,.51-.14,.18,.1,.24,.33,.14,.51l-2.18,3.86c-.07,.12-.19,.19-.32,.19h-.01Z"/>
          <path class="cls-28" d="M43.96,55.97c-.07,0-.13-.02-.19-.05-.18-.11-.23-.33-.13-.51l1.69-2.84c.11-.18,.33-.23,.51-.13,.18,.11,.23,.33,.13,.51l-1.69,2.84c-.07,.12-.19,.18-.32,.18Z"/>
        </g>
        <path class="cls-27" d="M111.38,124.53H35.9c-.4,0-.72-.32-.72-.72v-53.36c0-.4,.32-.72,.72-.72s.72,.32,.72,.72v52.64H110.67V47.16H36.62v19.62c0,.4-.32,.72-.72,.72s-.72-.32-.72-.72v-20.33c0-.4,.32-.72,.72-.72H111.38c.4,0,.72,.32,.72,.72V123.82c0,.4-.32,.72-.72,.72h0Z"/>
        <path class="cls-27" d="M116.85,129.47H46.14c-.4,0-.72-.32-.72-.72s.32-.72,.72-.72H116.13v-63.32c0-.4,.32-.72,.72-.72s.72,.32,.72,.72v64.04c0,.4-.32,.72-.72,.72Z"/>
      </g>
      <ellipse class="cls-17" cx="121.28" cy="11.46" rx="10.85" ry="10.25" transform="translate(103.47 131.97) rotate(-86.99)"/>
      <path class="cls-10" d="M116.69,4.92c2.01-1.64,4.92-2.22,7.44-1.57,.67,.17,1.4-.22,1.59-.9s-.22-1.41-.9-1.59c-3.49-.9-7.17-.03-9.95,2.23-.54,.44-.46,1.37,0,1.82,.53,.53,1.28,.44,1.82,0h0Z"/>
      <g>
        <path class="cls-17" d="M117.39,103.27c-.94,2.49-2.49,4.77-4.42,6.6-3.4,3.23-7.87,5.18-12.46,6.17,.1-4.28-.71-8.59-2.37-12.54-1.13-2.69-2.63-5.21-3.72-7.91-2.28-5.67-2.61-12.02-1.44-18.02,1.02-5.22,3.14-10.18,5.92-14.73l-.7,6.12-1,3.45,7.54,2.03,9.42,1.55,8.68,1.61-1.88,8.2-3.59,17.47h.02Z"/>
        <path class="cls-27" d="M116.81,103.11c-2.71,6.91-9.41,10.71-16.36,12.25l.95,.72c.07-4.59-.81-9.13-2.65-13.34-1.87-4.29-4.21-8.2-5.06-12.87-1.69-9.3,1.19-18.68,6-26.6,.5-.83-.79-1.58-1.3-.76-4.76,7.85-7.62,17-6.39,26.24,.61,4.6,2.45,8.55,4.47,12.67,2.27,4.63,3.5,9.5,3.42,14.67,0,.51,.48,.83,.95,.72,7.51-1.66,14.5-5.88,17.4-13.3,.35-.9-1.1-1.29-1.45-.4h.02Z"/>
      </g>
      <path class="cls-27" d="M112.04,7.12c1.45-3.77,5.87-5.6,9.66-5.65,4.03-.05,8.03,2.22,8.96,6.34,.21,.94,1.66,.54,1.45-.4-2.24-9.96-18.1-9.57-21.51-.69-.35,.9,1.1,1.29,1.45,.4h-.01Z"/>
      <path class="cls-10" d="M157.5,119.48H87.22l-.9-1.6c4.09-2.75,14.13-8.8,23.19-8.8,0,0,.05,.05,.15,.14l-.05,.05,.23,.11c.23,.2,.58,.48,1.04,.8l1.22,1.39,1.12-.02c1.49,.72,3.43,1.39,5.75,1.65,.06,.01,.12,.02,.17,.02,2.03,.33,4.12,.23,6.12-.31h.01c1.67-.34,3.47-.89,5.37-1.74l1.09-.02,.89-.94,1.06-1.11c9.84,.36,20.58,7.46,23.52,9.54,.11,.29,.21,.57,.3,.84h0Z"/>
      <path class="cls-16" d="M133.05,109.6c-5.08-5.46-4.52-18.26-4.52-18.26h-14.69s.85,12.33-4.24,17.79l5.37,2.64c3.86,1.9,8.36,2.01,12.32,.31l5.75-2.47h0Z"/>
      <path class="cls-14" d="M111.96,108.48c-.21,0-.41-.06-.59-.19-.45-.33-.54-.95-.22-1.4,1.74-2.38,2.16-6.8,2.16-6.84,.05-.55,.54-.94,1.09-.91,.55,.05,.96,.54,.91,1.09-.02,.2-.47,5.02-2.54,7.84-.2,.27-.5,.41-.81,.41Z"/>
      <path class="cls-14" d="M130.41,108.62c-.31,0-.61-.14-.81-.41-2.07-2.83-2.52-7.64-2.54-7.84-.05-.55,.36-1.04,.91-1.09,.55-.03,1.04,.36,1.09,.91,0,.04,.42,4.46,2.16,6.84,.33,.45,.23,1.07-.22,1.4-.18,.13-.38,.19-.59,.19Z"/>
      <path class="cls-5" d="M121.33,99.9c-2.62,0-4.45-.51-4.56-.54-.53-.15-.84-.7-.69-1.23s.7-.84,1.23-.69c.04,.01,3.77,1.04,8.05,0,.53-.13,1.08,.2,1.21,.73,.13,.54-.2,1.08-.73,1.21-1.63,.4-3.18,.53-4.52,.53h.01Z"/>
      <path class="cls-27" d="M109.61,109.84c-.17,0-.35-.06-.49-.19-.29-.27-.31-.72-.04-1.01,4.81-5.17,4.05-17.13,4.04-17.25-.03-.39,.27-.74,.67-.76,.4-.02,.74,.27,.76,.67,.04,.52,.81,12.7-4.42,18.32-.14,.15-.33,.23-.52,.23h0Z"/>
      <path class="cls-27" d="M133.05,110.31c-.19,0-.38-.08-.52-.23-5.23-5.61-4.73-18.24-4.71-18.78,.02-.4,.34-.73,.75-.68,.39,.02,.7,.35,.68,.75,0,.12-.49,12.57,4.33,17.74,.27,.29,.25,.74-.04,1.01-.14,.13-.31,.19-.49,.19Z"/>
      <ellipse class="cls-35" cx="44.74" cy="168.56" rx="11.65" ry="22.57"/>
      <path class="cls-22" d="M44.74,191.12c-6.79,0-12.11-9.91-12.11-22.56s5.32-22.56,12.11-22.56,12.11,9.91,12.11,22.56-5.32,22.56-12.11,22.56Zm0-43.2c-5.53,0-10.19,9.45-10.19,20.64s4.67,20.64,10.19,20.64,10.19-9.45,10.19-20.64-4.67-20.64-10.19-20.64h0Z"/>
      <path class="cls-33" d="M52.95,170.05c-.28,0-.5-.22-.5-.5,0-11.98-5.17-22.64-5.22-22.74-.12-.25-.02-.55,.23-.67,.25-.12,.55-.02,.67,.23,.05,.11,5.32,10.98,5.32,23.19,0,.28-.22,.5-.5,.5h0Z"/>
      <path class="cls-33" d="M37.58,173.34c-.28,0-.5-.22-.5-.5v-3.29c0-12.21,5.27-23.08,5.32-23.19,.12-.25,.42-.35,.67-.23s.35,.42,.23,.67c-.05,.11-5.22,10.77-5.22,22.74v3.29c0,.28-.22,.5-.5,.5h0Z"/>
      <path class="cls-33" d="M44.76,173.15c-.28,0-.5-.22-.5-.5v-26.35c0-.28,.22-.5,.5-.5s.5,.22,.5,.5v26.35c0,.28-.22,.5-.5,.5Z"/>
      <path class="cls-27" d="M45.02,191.49c-5.77,0-10.74-7.19-12.09-17.48-.21-1.57-.2-3.26-.2-4.9v-.83c0-8.15,2.28-15.79,5.95-19.94,.23-.26,.63-.29,.9-.05,.26,.23,.29,.63,.05,.9-3.47,3.92-5.63,11.24-5.63,19.09v.83c0,1.67-.01,3.24,.18,4.73,1.25,9.49,5.8,16.38,10.83,16.38,6.07,0,11.02-9.84,11.02-21.94s-4.94-21.94-11.02-21.94c-1.25,0-2.47,.42-3.65,1.26-.29,.21-.68,.14-.88-.15s-.14-.68,.15-.88c1.39-.99,2.87-1.5,4.39-1.5,6.77,0,12.29,10.41,12.29,23.21s-5.51,23.21-12.29,23.21h0Z"/>
      <rect class="cls-23" x="27.54" y="172.56" width="41.79" height="10.45"/>
      <rect class="cls-23" x="30.93" y="183.18" width="38.4" height="25.89"/>
      <rect class="cls-18" x="30.93" y="183.18" width="38.4" height="3.49"/>
      <path class="cls-27" d="M69.32,209.78H30.92c-.4,0-.72-.32-.72-.72v-16.32c0-.4,.32-.72,.72-.72s.72,.32,.72,.72v15.6h36.97v-24.46H31.64v5.33c0,.4-.32,.72-.72,.72s-.72-.32-.72-.72v-6.04c0-.4,.32-.72,.72-.72h38.4c.4,0,.72,.32,.72,.72v25.89c0,.4-.32,.72-.72,.72h0Z"/>
      <circle class="cls-18" cx="37.63" cy="186.89" r="1.48"/>
      <circle class="cls-18" cx="41.41" cy="188.27" r=".74"/>
      <circle class="cls-18" cx="39.75" cy="191.41" r=".99"/>
      <rect class="cls-10" x="32.62" y="172.84" width="2.26" height="10.31"/>
      <rect class="cls-10" x="36.29" y="172.84" width="1.61" height="10.31"/>
      <path class="cls-27" d="M69.32,183.64H27.53c-.35,0-.63-.28-.63-.63v-3.53c0-.35,.28-.63,.63-.63s.63,.28,.63,.63v2.89h40.52v-9.18H28.16v3.04c0,.35-.28,.63-.63,.63s-.63-.28-.63-.63v-3.67c0-.35,.28-.63,.63-.63h41.79c.35,0,.63,.28,.63,.63v10.45c0,.35-.28,.63-.63,.63h0Z"/>
      <circle class="cls-12" cx="121.56" cy="95.92" r=".4"/>
      <circle class="cls-16" cx="86.12" cy="59.64" r="7.32"/>
      <path class="cls-27" d="M86.12,67.68h-.08c-2.15-.02-4.16-.87-5.66-2.41-1.5-1.53-2.32-3.56-2.3-5.71,.02-2.15,.87-4.16,2.41-5.66,1.53-1.5,3.55-2.3,5.71-2.3,2.15,.02,4.16,.87,5.66,2.41,1.5,1.53,2.32,3.56,2.3,5.71-.02,2.15-.87,4.16-2.41,5.66-1.51,1.49-3.51,2.3-5.63,2.3Zm0-14.64c-1.74,0-3.38,.67-4.63,1.89-1.26,1.24-1.96,2.89-1.98,4.65-.03,3.64,2.9,6.63,6.55,6.67h.06c3.62,0,6.57-2.92,6.61-6.55,.02-1.76-.66-3.43-1.89-4.69s-2.89-1.96-4.66-1.98h-.06Z"/>
      <circle class="cls-5" cx="86.78" cy="59.24" r="3.09"/>
      <path class="cls-28" d="M89.81,58.17c-.14,0-.27-.07-.35-.19-1.32-2.04-4.83-1.88-4.89-1.88-.23-.02-.41-.2-.44-.43-.02-.22,.15-.42,.37-.43h.04c.16,0,4.05-.11,5.64,2.34,.13,.2,.07,.46-.13,.58h0c-.08,.03-.16,.03-.24,0h0Z"/>
      <path class="cls-28" d="M85.45,60.73c-.23,0-.42-.19-.42-.42v-.02c.22-1.63,.98-3.14,2.16-4.28,.17-.17,.44-.16,.6,0s.16,.44,0,.6c-.99,.99-1.64,2.26-1.86,3.64,.02,.24-.16,.45-.4,.47h-.08Z"/>
      <circle class="cls-16" cx="157.66" cy="60.29" r="7.32"/>
      <path class="cls-27" d="M157.66,68.33h-.08c-4.43-.04-8-3.68-7.96-8.11,.04-4.41,3.64-7.96,8.04-7.96h.08c2.15,.02,4.16,.87,5.66,2.41,1.5,1.53,2.32,3.56,2.3,5.71-.02,2.15-.87,4.16-2.41,5.66-1.51,1.49-3.51,2.3-5.63,2.3h0Zm0-14.65c-3.62,0-6.57,2.92-6.61,6.55-.03,3.64,2.9,6.63,6.55,6.67h.06c3.62,0,6.57-2.92,6.61-6.55,.03-3.64-2.9-6.63-6.55-6.67h-.06Z"/>
      <circle class="cls-5" cx="157" cy="59.89" r="3.09"/>
      <g>
        <path class="cls-28" d="M153.97,58.76c-.23,0-.42-.19-.42-.42,0-.09,.03-.17,.08-.24,1.63-2.42,5.51-2.24,5.66-2.24,.23,0,.42,.19,.42,.42v.02c-.01,.24-.21,.42-.44,.42h-.13c-1.8-.11-3.55,.57-4.8,1.88-.09,.11-.23,.17-.37,.16h0Z"/>
        <path class="cls-28" d="M158.38,61.4c-.23,0-.42-.19-.42-.42v-.02c-.19-1.39-.82-2.67-1.8-3.68-.17-.15-.18-.4-.03-.57l.04-.04c.17-.16,.44-.16,.6,0,1.16,1.17,1.89,2.69,2.08,4.32-.02,.24-.23,.42-.48,.4h.01Z"/>
      </g>
      <path class="cls-26" d="M133.52,19.82v1.43l-.63,67.02c-.06,.39-.4,.67-.79,.67-.43,0-.78-.34-.78-.76v-.02l.62-67.94v-.76c.53,.11,1.06,.23,1.58,.36h0Z"/>
      <path class="cls-16" d="M155.14,43.94l-.19,20.76c-.17,18.46-12.57,30.19-32.87,32.97l-.56,.1-.29,.05c-.46,0-.92-.02-1.37-.06-.02,0-.04,0-.06-.01-.1,0-.2-.01-.3-.02-3.01-.29-5.79-1.22-8.58-2.17-13.24-4.55-22.94-16.7-22.81-31.47l.26-28.1c.17-18.45,13.78-18.08,32.26-17.91h-1.47c3.81,.04,7.59,.37,11.19,1.05,.53,.1,1.06,.21,1.59,.33,.53,.11,1.06,.23,1.58,.36,5.29,1.35,10.05,3.5,13.75,6.58,.08,.07,.15,.14,.23,.2,.02,.02,.03,.03,.05,.04,1.92,1.66,3.55,3.58,4.79,5.78,.35,.62,.68,1.26,.96,1.93,.02,.02,.03,.04,.04,.07,1.19,2.77,1.83,5.93,1.8,9.52h0Z"/>
      <path class="cls-24" d="M155.45,39.48l-.22,1.37-.05,.34v23.5c-.16,18.45-15.24,33.28-33.69,33.12h-.12c-.56,0-1.12-.01-1.66-.01-.02,0-.04,0-.06-.01h-.56c.09-.01,.17-.01,.26-.02,12.86-.89,24.07-9.1,28.78-21.11,1.5-3.17,2.28-6.61,2.31-10.11l.02-1.83c-3.67,.39-.05-5-.03-10.82,.05-4.98-5.82-12.72-1.29-14.8l.62-.22c.05-5.29-10.17-13.4-16.4-17.59-.56-.38-1.09-.72-1.57-1.03-.1-.06-.2-.12-.29-.18-.49-.31-.92-.62-1.3-.91,.53,.1,1.06,.21,1.59,.33,.53,.11,1.06,.23,1.58,.36,5.29,1.35,10.05,3.5,13.75,6.58,.86,.88,1.68,1.76,2.44,2.66,.1,.11,.19,.23,.28,.34,.86,1,1.64,2.01,2.35,3.02,1.34,1.9,2.39,3.12,3.2,5l.06,2.02Z"/>
      <path class="cls-10" d="M81.82,57c.29-.79,.87-1.44,1.63-1.82,.64-.23,.4-1.28-.27-1.03-1.03,.41-1.85,1.21-2.29,2.23-.28,.64,.63,1.2,.93,.58v.04Z"/>
      <ellipse class="cls-10" cx="80.58" cy="58.97" rx=".86" ry=".7" transform="translate(9.83 129.43) rotate(-81.08)"/>
      <path class="cls-17" d="M128.46,45.95l14.16-2.36c2.08-.34,3.54-2.23,3.34-4.33h0c-.18-2.09-1.72-1.59-3.81-1.57l-14.35,.14c-2.23,.03-4.02,1.87-3.99,4.1,0,.09,0,.18,.01,.27v.2c.23,2.2,2.2,3.8,4.4,3.57,.08,0,.17-.02,.25-.03h-.01Z"/>
      <path class="cls-1" d="M128.46,45.95l14.16-2.36c2.08-.34,3.54-2.23,3.34-4.33h0c-.18-2.09,.74,1.27-1.37,1.29l-19.03,3.23c-2.34-.02-1.94-3.9-1.82-1.57v.2c.22,2.2,2.18,3.81,4.39,3.59,.11-.01,.23-.03,.34-.05h-.01Z"/>
      <path class="cls-27" d="M127.79,46.58c-1.06,0-2.08-.37-2.9-1.06-.92-.78-1.48-1.87-1.59-3.07v-.25c0-.06-.01-.16-.01-.26-.02-1.21,.44-2.36,1.29-3.23,.85-.87,1.98-1.36,3.2-1.38l5.68-.06h0c.27,0,.5,.22,.5,.5s-.22,.5-.5,.5l-5.68,.06c-1.95,.03-3.52,1.64-3.49,3.59,0,.08,0,.16,.01,.24v.24c.08,.89,.51,1.73,1.23,2.34,.72,.6,1.62,.9,2.56,.81,.1,0,.2-.02,.3-.04l14.16-2.36c1.82-.29,3.1-1.96,2.92-3.79-.11-1.21-.6-1.24-2.29-1.16-.32,.02-.66,.03-1.02,.04l-2.46-.02c-.28,0-.5-.23-.5-.5s.23-.5,.5-.5h0l2.45,.02c.33,0,.66-.02,.97-.03,1.55-.08,3.14-.15,3.33,2.06,.23,2.35-1.42,4.49-3.75,4.86l-14.15,2.36c-.12,.02-.25,.04-.38,.05-.13,.01-.26,.02-.39,.02v.02Z"/>
      <path class="cls-17" d="M115.32,45.83l-14.11-2.62c-2.07-.38-3.5-2.29-3.27-4.39h0c.22-2.09,1.75-1.56,3.86-1.5l14.35,.41c2.22,.07,3.97,1.93,3.9,4.15,0,.1,0,.2-.02,.29v.13c-.23,2.2-2.2,3.8-4.41,3.57-.1-.01-.2-.02-.3-.04h0Z"/>
      <path class="cls-1" d="M115.32,45.83l-14.11-2.62c-2.07-.38-3.5-2.29-3.27-4.39h0c.22-2.09-.74,1.26,1.34,1.31l18.99,3.58c2.34,.02,2.01-3.86,1.75-1.54v.13c-.23,2.2-2.2,3.8-4.41,3.57-.1-.01-.2-.02-.3-.04h0Z"/>
      <path class="cls-27" d="M116.03,46.4c-.15,0-.31,0-.46-.02-.13-.01-.25-.03-.38-.06l-14.11-2.62c-2.31-.43-3.93-2.59-3.68-4.93,.23-2.21,1.83-2.11,3.38-2,.31,.02,.64,.04,.99,.05l2.44,.02c.28,0,.5,.23,.5,.5s-.23,.5-.5,.5h0l-2.45-.02c-.37,0-.71-.03-1.04-.05-1.69-.12-2.19-.09-2.32,1.11-.19,1.82,1.07,3.51,2.87,3.84l14.11,2.62c.1,.02,.2,.03,.3,.04,1.93,.2,3.65-1.21,3.85-3.13v-.08c0-.13,.02-.22,.02-.3,.03-.94-.31-1.84-.95-2.53s-1.52-1.08-2.46-1.11l-5.67-.16c-.28,0-.49-.24-.49-.51s.23-.51,.51-.49l5.67,.16c1.21,.04,2.33,.54,3.16,1.43,.83,.88,1.26,2.03,1.22,3.24,0,.11-.01,.22-.02,.33v.08c-.24,2.36-2.2,4.09-4.48,4.09h0Z"/>
      <circle class="cls-10" cx="94.2" cy="14.97" r=".97"/>
      <circle class="cls-10" cx="96.85" cy="13.82" r=".44"/>
      <circle class="cls-10" cx="92.31" cy="19.49" r=".88"/>
      <path class="cls-10" d="M91.35,21.37c.23,0,.42,.19,.42,.42s-.19,.42-.42,.42-.42-.19-.42-.42,.19-.42,.42-.42Z"/>
      <rect class="cls-10" x="84.56" y="50.31" width="13.75" height="2.65" rx="1.32" ry="1.32" transform="translate(38.97 142.59) rotate(-89.48)"/>
      <rect class="cls-4" x="107.14" y="49.86" width="8.77" height="6.79" rx="3.39" ry="3.39" transform="translate(57.26 164.3) rotate(-89.48)"/>
      <path class="cls-4" d="M107.71,51.01c-.67-.88-1.21-1.85-1.62-2.87,.56,.66,1.17,1.28,1.81,1.85-.41-1.05-.68-2.15-.79-3.27,.58,1.29,1.34,2.48,2.26,3.55,.58,.59,.27,.7-.19,.64,.62,.35,.49,.54,.16,.62s-1.25,.76-1.25,.76c-1.22-.65-2.32-1.48-3.27-2.48,.93,.48,1.9,.88,2.9,1.2h-.01Z"/>
      <circle class="cls-10" cx="108.21" cy="52.59" r="1.63"/>
      <path class="cls-4" d="M135.63,51.29c.65-.9,1.17-1.88,1.56-2.91-.57,.69-1.19,1.33-1.85,1.92,.39-1.06,.63-2.16,.73-3.29-.55,1.31-1.28,2.54-2.18,3.64-.57,.6-.26,.67,.2,.62-.61,.36-.48,.53-.13,.62s1.27,.73,1.27,.73c1.2-.67,2.28-1.53,3.21-2.55-.9,.48-1.84,.89-2.81,1.22h0Z"/>
      <rect class="cls-4" x="128.16" y="50.07" width="8.77" height="6.79" rx="3.39" ry="3.39" transform="translate(77.88 185.52) rotate(-89.48)"/>
      <circle class="cls-10" cx="129.95" cy="52.79" r="1.63"/>
      <path class="cls-4" d="M121.87,69.49h-.01c-.49,0-.87-.41-.86-.89l.14-8.48c0-.49,.38-.86,.89-.86s.87,.41,.86,.89l-.14,8.48c0,.48-.4,.86-.88,.86Z"/>
      <circle class="cls-4" cx="110.37" cy="62.39" r=".95"/>
      <circle class="cls-10" cx="95.95" cy="13.67" r=".97"/>
      <circle class="cls-10" cx="98.69" cy="12.56" r=".44"/>
      <circle class="cls-10" cx="94.06" cy="18.19" r=".88"/>
      <circle class="cls-10" cx="93.1" cy="20.49" r=".42"/>
      <polygon class="cls-10" points="145.19 64.04 142.91 63.6 145.14 41.91 147.52 41.77 145.19 64.04"/>
      <polygon class="cls-11" points="141.5 63.59 140.03 63.58 142.33 42.34 143.73 42.15 141.5 63.59"/>
      <polygon class="cls-11" points="129.49 61.94 128.28 61.93 130.17 44.9 131.31 44.73 129.49 61.94"/>
      <polygon class="cls-10" points="98.88 63.62 96.58 63.18 98.82 41.48 101.19 41.34 98.88 63.62"/>
      <polygon class="cls-11" points="101.85 63.23 100.36 63.21 102.66 41.98 103.98 42.59 101.85 63.23"/>
      <path class="cls-27" d="M99.79,64.42h0c-3.15-.03-5.7-2.6-5.71-5.75l-1.71-12.45v-.11c.04-3.15,2.62-5.69,5.77-5.69,.07,0,.15,0,.22,.02l15.25,3.78c1.52,.04,2.93,.65,3.98,1.72,1.08,1.1,1.66,2.55,1.65,4.08l-.07,7.15c-.05,1.53-.69,2.95-1.81,4s-2.55,1.58-4.12,1.56c-.39-.01-.71-.34-.69-.74,.01-.39,.33-.66,.74-.69,1.13,.04,2.25-.38,3.09-1.17s1.32-1.86,1.36-3.01l.72-.11h-.72l.06-7c.01-1.15-.43-2.24-1.24-3.07-.81-.82-1.89-1.28-3.04-1.29-.06,0-.13,0-.18-.02l-15.24-3.78c-2.33,.02-4.24,1.9-4.29,4.23l1.71,12.45v.1c-.01,2.37,1.89,4.31,4.25,4.36l7.59-1.04c.38-.06,.75,.22,.81,.61,.05,.39-.22,.75-.61,.81l-7.64,1.05h-.13Z"/>
      <path class="cls-4" d="M125.62,56.82h0l-7.27-.07c-.32,0-.58-.27-.58-.59s.26-.58,.59-.58h0l7.27,.07c.32,0,.58,.27,.58,.59s-.26,.58-.59,.58Z"/>
      <path class="cls-5" d="M118.56,84.56c2.15,.72,3.66,.22,6.11,.48-.91,.71-2.03,1.1-3.18,1.11-.63-.03-1.25-.16-1.83-.4-.51-.23-.91-.66-1.11-1.18h0Z"/>
      <path class="cls-24" d="M130.76,62.25c.77,1.2,1.92,2.12,3.27,2.59,2.5,.87,5.25,.05,7.87,.46,1.46,.09,2.91-.32,4.11-1.15-.45-.83-2.69-.35-3.66-.51-4.41-.77-8.97-.39-13.33-1.29"/>
      <path class="cls-27" d="M144.33,64.84h-.24l-13.53-1.96c-3.04-.08-5.55-2.69-5.51-5.82l.06-6.99c.01-1.54,.62-2.97,1.72-4.05,1.08-1.06,2.49-1.64,3.99-1.65l15.33-3.5s.08-.03,.17-.02c3.17,.03,5.73,2.63,5.71,5.8v.11l-1.94,12.42c-.03,1.52-.64,2.94-1.72,4.01-1.09,1.07-2.52,1.65-4.04,1.65h0Zm-.08-1.43h.02c1.21,0,2.29-.44,3.1-1.24,.83-.81,1.29-1.9,1.3-3.05v-.1l1.94-12.41c-.01-2.33-1.89-4.24-4.22-4.31l-15.33,3.5s-.08,0-.17,.02h-.04c-2.36,0-4.3,1.91-4.32,4.28l-.06,6.99c-.03,2.35,1.85,4.31,4.2,4.38l13.57,1.96v-.02Z"/>
      <g>
        <path class="cls-3" d="M120.57,81.56c-5.2-.66-8.22-4.28-14.01-7.64,1.29,.55,2.63,1,3.99,1.33,2.36-.25,4.64-1.05,6.64-2.33,.45-.21,.94-.31,1.44-.28l-1.16,.19c.66,.42,1.18,.22,1.86,.56,2.02,1.04,4.46,.8,6.24-.6l.45,.25c.25-.11,.41,.37,.68,.51,3.1,1.93,6.96,2.17,10.28,.64-1.74,1.13-3.39,2.4-4.93,3.8-2.71,2-5.91,3.24-9.27,3.58l-2.21-.02h0Z"/>
        <path class="cls-25" d="M126.14,81.11c-1.27,.29-2.57,.41-3.87,.37l-2.27-.02c-3.91-.89-7.58-2.64-10.74-5.13-1.02-.92-2.11-1.76-3.25-2.51,1.47,.63,2.99,1.14,4.54,1.54,2.23-.22,4.38-.98,6.25-2.22h0c-.31,1.64,2.69,3.82,4.52,3.77-1.24,.92-4.91-.27-6.39-.7,2.12,1.52,4.7,4.02,8.84,3.63,.78-.17,1.72,.95,2.38,1.25v.02Z"/>
        <circle class="cls-25" cx="122.02" cy="79.86" r=".5"/>
        <circle class="cls-25" cx="119.62" cy="78.43" r=".3"/>
        <circle class="cls-25" cx="120.55" cy="78.96" r=".16"/>
        <path class="cls-4" d="M121.38,77.36h-.07l-4.54-.59-7.29-.41c-.09,0-.17-.03-.24-.08-.68-.43-1.23-.75-1.84-1.08-.34-.16-.69-.34-1.05-.55-.24-.14-.33-.46-.19-.7,.14-.25,.45-.34,.7-.21,.36,.19,.69,.36,1,.52,3.22,1.45,5.81,.23,8.32-.96,.45-.21,.89-.42,1.33-.61,.3-.18,.71-.25,1.12-.16,.06,.01,.12,.04,.18,.08,1.83,1.21,4.2,1.23,6.05,.06,.03-.02,.07-.04,.11-.05,.42-.15,.89-.15,1.32,.01,.42,.19,.81,.38,1.21,.57,2.56,1.24,5.2,2.51,8.16,1.42,.4-.19,.79-.38,1.19-.56,.25-.12,.55,0,.68,.24,.13,.25,.04,.55-.21,.69-.43,.24-.85,.44-1.26,.6-.82,.41-1.64,.84-2.44,1.3-.24,.14-.54,.07-.69-.16l-6.08,.19-2.5,.42c-.28,.05-.56-.14-.6-.43-.05-.29,.14-.55,.43-.6l2.58-.43,4.25-.13c-1.39-.37-2.7-1.01-3.95-1.61-.39-.19-.77-.37-1.15-.55-.15-.05-.34-.06-.51,0-2.16,1.34-4.9,1.33-7.04-.04-.12-.01-.24,.02-.34,.08-.49,.22-.92,.42-1.36,.63-1.01,.48-2.07,.98-3.19,1.31l3.44,.17,4.58,.59c.29,.04,.49,.3,.45,.59-.03,.26-.26,.46-.52,.46l-.04-.02Z"/>
        <path class="cls-4" d="M121.53,82.53c-3.37,0-6.61-1.22-9.17-3.49-.25-.22-.27-.59-.05-.83,.22-.25,.59-.27,.83-.05,2.52,2.22,5.73,3.35,9.1,3.17,3.06-.02,6-1.11,8.33-3.06,.25-.21,.62-.18,.83,.07s.18,.62-.07,.83c-2.53,2.12-5.74,3.31-9.05,3.33-.25,.01-.5,.02-.75,.02h0Z"/>
      </g>
      <circle class="cls-28" cx="126.29" cy="50.35" r=".78"/>
      <path class="cls-10" d="M62.86,156.99c-6.22,9.28-8.61,25.2-9.09,38.16l18.95,4.66-9.86-42.82h0Z"/>
      <path class="cls-15" d="M45.45,206.88c0-6.77,5.49-12.26,12.26-12.26s12.26,5.49,12.26,12.26"/>
      <path class="cls-10" d="M46.97,205.12h-.13c-.47-.07-.79-.51-.72-.98,.01-.08,1.32-8.14,8.89-9.16,.48-.06,.91,.27,.97,.74s-.27,.91-.74,.97c-6.27,.85-7.37,7.43-7.41,7.71-.07,.43-.43,.73-.85,.73h-.01Z"/>
      <path class="cls-27" d="M45.62,207.41c-.35,0-.64-.29-.64-.64,0-7.63,5.06-12.97,12.3-12.97,.35,0,.64,.29,.64,.64s-.29,.64-.64,.64c-6.49,0-11.02,4.81-11.02,11.69,0,.35-.29,.64-.64,.64h0Z"/>
      <rect class="cls-6" x=".71" y="207.22" width="207.66" height="9.34"/>
      <rect class="cls-8" x=".71" y="212.61" width="207.66" height="3.15"/>
      <path class="cls-32" d="M179.26,196.75v8.29c0,1.19-.96,2.15-2.15,2.15H69.16c-1.19,0-2.15-.96-2.15-2.15v-8.29"/>
      <path class="cls-30" d="M179.26,190.69v8.29c0,1.19-.96,2.15-2.15,2.15H69.16c-1.19,0-2.15-.96-2.15-2.15v-8.29"/>
      <path class="cls-28" d="M177.11,207.94H69.16c-1.6,0-2.89-1.3-2.89-2.89v-8.29h1.49v8.29c0,.77,.63,1.4,1.4,1.4h107.95c.77,0,1.4-.63,1.4-1.4v-8.29h1.49v8.29c0,1.6-1.3,2.89-2.9,2.89h.01Z"/>
      <rect class="cls-32" x="59.66" y="119.34" width="127.04" height="77.44" rx="8.4" ry="8.4"/>
      <path class="cls-31" d="M186.65,142.56v45.58c0,4.64-3.76,8.4-8.4,8.4H68.01c-4.64,0-8.4-3.76-8.4-8.4v-4.53c69.45-2.8,108.83-26.21,127.04-41.04h0Z"/>
      <path class="cls-31" d="M186.65,130.38v57.76c0,4.64-3.76,8.4-8.4,8.4H68.01c-4.64,0-8.4-3.76-8.4-8.4v-18.46c69.45-2.8,108.83-24.47,127.04-39.3h0Z"/>
      <path class="cls-27" d="M177.11,207.91H69.16c-1.58,0-2.86-1.29-2.86-2.86v-8.29c0-.4,.32-.72,.72-.72s.72,.32,.72,.72v8.29c0,.79,.64,1.43,1.43,1.43h107.95c.79,0,1.43-.64,1.43-1.43v-8.29c0-.4,.32-.72,.72-.72s.72,.32,.72,.72v8.29c0,1.58-1.29,2.86-2.87,2.86h-.01Z"/>
      <path class="cls-27" d="M207.43,217.27H1.66c-.92,0-1.66-.75-1.66-1.66v-7.45c0-.92,.75-1.66,1.66-1.66H14.17c.4,0,.72,.32,.72,.72s-.32,.72-.72,.72H1.66c-.13,0-.23,.1-.23,.23v7.45c0,.13,.1,.23,.23,.23H207.43c.13,0,.23-.1,.23-.23v-7.45c0-.13-.1-.23-.23-.23h-14.07c-.4,0-.72-.32-.72-.72s.32-.72,.72-.72h14.07c.92,0,1.66,.75,1.66,1.66v7.45c0,.92-.75,1.66-1.66,1.66h0Z"/>
      <path class="cls-27" d="M186.81,207.94H38.16c-.4,0-.72-.32-.72-.72s.32-.72,.72-.72H186.81c.4,0,.72,.32,.72,.72s-.32,.72-.72,.72Z"/>
      <path class="cls-28" d="M33.31,207.97h-11.22c-.41,0-.75-.33-.75-.75s.33-.75,.75-.75h11.22c.41,0,.75,.33,.75,.75s-.33,.75-.75,.75Z"/>
      <g>
        <path class="cls-28" d="M64.98,129.13c-.12,0-.24-.06-.31-.16-.12-.17-.07-.4,.1-.52l3.66-2.5c.17-.12,.4-.08,.52,.1,.12,.17,.07,.4-.1,.52l-3.66,2.5c-.06,.04-.14,.07-.21,.07h0Z"/>
        <path class="cls-28" d="M64.6,131.28c-.12,0-.24-.06-.31-.17-.11-.17-.06-.4,.11-.52l2.77-1.8c.17-.11,.4-.06,.52,.11,.11,.17,.06,.4-.11,.52l-2.77,1.8c-.06,.04-.13,.06-.2,.06h0Z"/>
      </g>
      <g>
        <path class="cls-28" d="M176.52,190.55c-.12,0-.24-.06-.31-.16-.12-.17-.07-.4,.1-.52l3.66-2.5c.17-.11,.4-.07,.52,.1s.07,.4-.1,.52l-3.66,2.5c-.06,.04-.14,.07-.21,.07h0Z"/>
        <path class="cls-28" d="M176.14,192.7c-.12,0-.24-.06-.31-.17-.11-.17-.06-.4,.11-.52l2.77-1.8c.17-.11,.4-.06,.52,.11,.11,.17,.06,.4-.11,.52l-2.77,1.8c-.06,.04-.13,.06-.2,.06h0Z"/>
      </g>
      <circle class="cls-28" cx="18.33" cy="207.27" r="1.03"/>
      <path class="cls-10" d="M17.67,210.98H9.01c-.41,0-.75-.33-.75-.75s.33-.75,.75-.75h8.66c.41,0,.75,.33,.75,.75s-.33,.75-.75,.75Z"/>
      <circle class="cls-10" cx="6.06" cy="210.23" r="1.11"/>
      <g>
        <path class="cls-28" d="M72.7,204.46c-.31,0-.56-.25-.56-.56v-4.18c0-.31,.25-.56,.56-.56s.56,.25,.56,.56v4.18c0,.31-.25,.56-.56,.56Z"/>
        <path class="cls-28" d="M76.44,204.46c-.31,0-.56-.25-.56-.56v-4.18c0-.31,.25-.56,.56-.56s.56,.25,.56,.56v4.18c0,.31-.25,.56-.56,.56Z"/>
        <path class="cls-28" d="M80.19,204.46c-.31,0-.56-.25-.56-.56v-4.18c0-.31,.25-.56,.56-.56s.56,.25,.56,.56v4.18c0,.31-.25,.56-.56,.56Z"/>
      </g>
      <g>
        <path class="cls-28" d="M165.5,204.46c-.31,0-.56-.25-.56-.56v-4.18c0-.31,.25-.56,.56-.56s.56,.25,.56,.56v4.18c0,.31-.25,.56-.56,.56Z"/>
        <path class="cls-28" d="M169.25,204.46c-.31,0-.56-.25-.56-.56v-4.18c0-.31,.25-.56,.56-.56s.56,.25,.56,.56v4.18c0,.31-.25,.56-.56,.56Z"/>
        <path class="cls-28" d="M173,204.46c-.31,0-.56-.25-.56-.56v-4.18c0-.31,.25-.56,.56-.56s.56,.25,.56,.56v4.18c0,.31-.25,.56-.56,.56Z"/>
      </g>
      <g>
        <path class="cls-37" d="M93.19,122.32h-22.95c-.7,0-1.26-.57-1.26-1.26s.57-1.26,1.26-1.26h22.95c.7,0,1.26,.57,1.26,1.26s-.57,1.26-1.26,1.26Z"/>
        <path class="cls-10" d="M84.77,122.32h-6.76c-.7,0-1.26-.57-1.26-1.26s.57-1.26,1.26-1.26h6.76c.7,0,1.26,.57,1.26,1.26s-.57,1.26-1.26,1.26Z"/>
      </g>
      <path class="cls-27" d="M178.26,197.5H68.01c-5.02,0-9.11-4.09-9.11-9.11v-60.65c0-5.02,4.09-9.11,9.11-9.11h34.29c.4,0,.72,.32,.72,.72s-.32,.72-.72,.72h-34.29c-4.24,0-7.68,3.45-7.68,7.68v60.65c0,4.24,3.45,7.68,7.68,7.68h110.25c4.23,0,7.68-3.45,7.68-7.68v-22.15c0-.4,.32-.72,.72-.72s.72,.32,.72,.72v22.15c0,5.02-4.09,9.11-9.11,9.11h-.01Z"/>
      <path class="cls-27" d="M186.65,160.43c-.4,0-.72-.32-.72-.72v-31.98c0-4.23-3.45-7.68-7.68-7.68h-35.17c-.4,0-.72-.32-.72-.72s.32-.72,.72-.72h35.17c5.02,0,9.11,4.09,9.11,9.11v31.98c0,.4-.32,.72-.72,.72h.01Z"/>
      <path class="cls-27" d="M136.33,120.15h-27.38c-.4,0-.72-.32-.72-.72s.32-.72,.72-.72h27.38c.4,0,.72,.32,.72,.72s-.32,.72-.72,.72Z"/>
      <path class="cls-27" d="M124.38,116.21c-.26,0-.48-.2-.5-.46-.02-.28,.18-.52,.46-.54,.06,0,5.75-.49,10.13-3.22,.24-.14,.54-.07,.69,.16s.07,.54-.16,.69c-4.59,2.86-10.33,3.35-10.58,3.37h-.04Z"/>
      <path class="cls-27" d="M63.96,166.85c-.28,0-.5-.22-.5-.5v-22.87c0-.28,.22-.5,.5-.5s.5,.22,.5,.5v22.87c0,.28-.22,.5-.5,.5Z"/>
      <path class="cls-27" d="M161.23,192.97h-22.87c-.28,0-.5-.22-.5-.5s.22-.5,.5-.5h22.87c.28,0,.5,.22,.5,.5s-.22,.5-.5,.5Z"/>
      <path class="cls-27" d="M38.36,201.62h-7.67c-.28,0-.5-.22-.5-.5s.22-.5,.5-.5h7.67c.28,0,.5,.22,.5,.5s-.22,.5-.5,.5Z"/>
      <path class="cls-27" d="M33.25,166.28h-.99c-.35,0-.63-.28-.63-.63s.28-.63,.63-.63h.99c.35,0,.63,.28,.63,.63s-.28,.63-.63,.63Z"/>
      <path class="cls-27" d="M33.25,169.81h-.99c-.35,0-.63-.28-.63-.63s.28-.63,.63-.63h.99c.35,0,.63,.28,.63,.63s-.28,.63-.63,.63Z"/>
      <path class="cls-27" d="M37.52,150.99c-.14,0-.29-.05-.41-.15l-.76-.64c-.27-.23-.3-.63-.08-.89,.23-.27,.63-.3,.89-.08l.76,.64c.27,.23,.3,.63,.08,.89-.13,.15-.31,.23-.49,.23h0Z"/>
      <path class="cls-27" d="M51.81,150.35c-.22,0-.44-.12-.56-.33-.17-.31-.06-.69,.25-.86l.87-.48c.31-.17,.69-.06,.86,.25,.17,.31,.06,.69-.25,.86l-.87,.48c-.1,.05-.2,.08-.31,.08h.01Z"/>
      <path class="cls-27" d="M35.28,155.38c-.12,0-.23-.03-.34-.1l-.83-.53c-.3-.19-.38-.58-.19-.88,.19-.3,.58-.38,.88-.19l.83,.53c.3,.19,.38,.58,.19,.88-.12,.19-.33,.29-.54,.29Z"/>
      <path class="cls-27" d="M54.39,155.12c-.22,0-.44-.12-.56-.33-.17-.31-.06-.69,.25-.86l.86-.48c.31-.17,.69-.06,.86,.25,.17,.31,.06,.69-.25,.86l-.86,.48c-.1,.05-.2,.08-.31,.08h.01Z"/>
      <path class="cls-27" d="M84.43,119.77c-.22,0-.43-.1-.57-.28-.24-.31-.18-.76,.14-1,.55-.42,13.69-10.26,25.51-10.26,.19,0,.37,.08,.51,.21,.35,.35,8.77,8.54,22.96,.63,.35-.19,.78-.07,.97,.28s.07,.78-.28,.97c-13.85,7.71-22.9,.69-24.44-.66-11.27,.16-24.24,9.87-24.38,9.97-.13,.1-.28,.15-.43,.15h0Z"/>
      <path class="cls-27" d="M157.98,119.77c-.15,0-.3-.05-.43-.15s-13.31-9.97-24.65-9.97c-.4,0-.72-.32-.72-.72s.32-.72,.72-.72c11.82,0,24.96,9.84,25.51,10.26,.32,.24,.38,.69,.14,1-.14,.19-.35,.28-.57,.28v.02Z"/>
      <path class="cls-27" d="M53.77,194.72h-.03c-.4-.01-.7-.35-.69-.74,.27-7.35,1.37-21.13,5.63-30.92,.16-.36,.58-.53,.94-.37,.36,.16,.53,.58,.37,.94-4.17,9.58-5.25,23.16-5.51,30.4-.01,.39-.33,.69-.71,.69Z"/>
      <g>
        <circle class="cls-10" cx="84.64" cy="140.37" r="10.54"/>
        <g>
          <path class="cls-29" d="M92.57,140.37c0-1.1-1.21-2.05-3.33-2.65,.54-2.13,.32-3.66-.63-4.21-.93-.54-2.4,.04-3.96,1.56-1.56-1.52-3.03-2.1-3.96-1.56-.95,.55-1.17,2.07-.63,4.21-2.12,.6-3.33,1.55-3.33,2.65s1.21,2.05,3.33,2.65c-.55,2.13-.32,3.66,.63,4.21,.24,.14,.52,.21,.8,.2,.88,0,2-.62,3.17-1.76,1.17,1.14,2.29,1.76,3.17,1.76,.28,0,.55-.07,.8-.2,.95-.55,1.17-2.07,.63-4.21,2.12-.6,3.33-1.55,3.33-2.65h-.02Zm-7.93,4.34c-.34-.37-.66-.75-.96-1.14,.32,.02,.64,.03,.96,.03s.63-.01,.96-.03c-.3,.4-.62,.78-.96,1.14Zm0-8.68c.34,.37,.66,.75,.96,1.14-.64-.03-1.27-.03-1.91,0,.3-.4,.62-.78,.96-1.14h0Zm-1.45,6.85c-.55-.8-1.03-1.64-1.45-2.51,.42-.87,.9-1.71,1.45-2.51,.97-.07,1.94-.07,2.9,0,.55,.8,1.03,1.64,1.45,2.51-.42,.87-.9,1.71-1.45,2.51-.98,.07-1.93,.07-2.9,0Zm-1.35-4.12c-.16,.28-.31,.56-.46,.84-.19-.46-.36-.92-.51-1.4,.49-.11,.98-.19,1.47-.26-.17,.27-.34,.54-.5,.81h0Zm-.46,2.4c.15,.28,.3,.56,.46,.84s.33,.55,.5,.81c-.51-.06-1-.15-1.47-.25,.15-.47,.32-.94,.51-1.4Zm6.51,0c.19,.46,.36,.92,.51,1.4-.49,.11-.97,.19-1.47,.25,.35-.53,.66-1.09,.96-1.65Zm0-1.55c-.29-.57-.61-1.12-.96-1.65,.49,.06,.98,.15,1.47,.26-.15,.47-.32,.94-.51,1.4h0Zm.38-5.52c.66,.38,.77,1.69,.32,3.47-.67-.15-1.38-.26-2.14-.33h0c-.41-.59-.87-1.15-1.35-1.68,1.29-1.26,2.52-1.84,3.17-1.46h0Zm-7.27,0c.13-.08,.29-.11,.47-.11,.7,0,1.67,.57,2.71,1.57-.49,.53-.94,1.09-1.36,1.68-.72,.06-1.43,.17-2.14,.33-.45-1.78-.34-3.09,.32-3.47Zm-3.63,6.28c0-.76,1.08-1.52,2.85-2.01,.22,.69,.48,1.36,.78,2.01h0c-.3,.65-.56,1.32-.78,2.01-1.77-.5-2.85-1.26-2.85-2.01Zm3.63,6.28c-.66-.38-.77-1.7-.32-3.47,.7,.16,1.42,.27,2.14,.33h0c.41,.59,.87,1.15,1.36,1.68-1.29,1.26-2.52,1.83-3.17,1.46h0Zm7.27,0c-.13,.08-.29,.11-.47,.11h0c-.7,0-1.67-.57-2.71-1.57,.49-.53,.94-1.09,1.35-1.68h0c.72-.06,1.43-.17,2.14-.33,.45,1.78,.34,3.09-.32,3.47h0Zm.78-4.27c-.2-.65-.46-1.32-.78-2.01h0c.3-.65,.56-1.32,.78-2.01,1.77,.5,2.85,1.26,2.85,2.01s-1.08,1.52-2.85,2.01Z"/>
          <circle class="cls-29" cx="84.64" cy="140.37" r="1.41"/>
        </g>
        <path class="cls-27" d="M84.65,151.41c-1.07,0-2.12-.15-3.14-.45-.26-.08-.42-.36-.34-.62s.36-.41,.62-.34c.92,.27,1.88,.41,2.86,.41,5.54,0,10.04-4.5,10.04-10.04s-4.5-10.04-10.04-10.04-10.04,4.5-10.04,10.04c0,.59,.05,1.17,.15,1.75,.05,.27-.13,.53-.41,.58-.27,.05-.53-.13-.58-.41-.11-.63-.17-1.28-.17-1.92,0-6.09,4.95-11.04,11.04-11.04s11.04,4.95,11.04,11.04-4.95,11.04-11.04,11.04h.01Z"/>
        <path class="cls-27" d="M75.04,145.23c-.19,0-.37-.11-.46-.29-.1-.23-.2-.45-.28-.69-.1-.26,.03-.55,.29-.64,.26-.1,.55,.03,.64,.29,.08,.21,.17,.42,.26,.62,.11,.25,0,.55-.25,.66-.07,.03-.14,.04-.21,.04h0Z"/>
        <path class="cls-27" d="M79.54,150.1c-.08,0-.17-.02-.24-.06-1.49-.83-2.79-2-3.75-3.41-.16-.23-.1-.54,.13-.7,.22-.16,.54-.1,.7,.13,.88,1.28,2.06,2.35,3.42,3.1,.24,.13,.33,.44,.2,.68-.09,.17-.26,.26-.44,.26h-.02Z"/>
      </g>
      <path class="cls-7" d="M172.13,187.2h0c.25-.67,.22-1.38-.1-2.11,0-.01,0-.02-.01-.03h0l-.02-.03h0l-.18-.37h0l-.02-.06h0s-.02-.03-.03-.04c-.64-1.03-1.97-2.22-4.74-2.62-.07-1.23,.26-2.02,1.24-2.98,.17-.17,.18-.33,.02-.52-.31-.38-.91-.58-1.35-.68-.21-.05-.37,0-.49,.14-.85,1.03-2.12,1.71-3.35,2.36l-.07,.04c.05-1.13,.5-1.79,1.26-2.51,.15-.14,.17-.29,.05-.46-.34-.48-1.11-.67-1.43-.74-.4-.08-1.26,.66-2.27,1.57-.25,.23-.47,.42-.58,.51-.27,.2-.55,.43-.84,.68-.67,.57-1.42,1.2-2.16,1.46,.03-.47,.61-.93,1.18-1.37,.67-.53,1.31-1.02,1.18-1.62-.04-.19-.15-.35-.32-.46-.11-.07-.23-.11-.35-.12,.19-.28,.31-.51,.38-.84,.09-.47-.12-.86-.57-1.08-1.02-.5-2.27-.19-3.14,.15-.58,.23-1.54,.14-2.39,.05-.34-.03-.65-.06-.93-.07-.2-.48-.48-1.01-.79-1.57-.85-1.57-1.82-3.34-1.16-4.73,.97-2.04,3.99-2.27,6.51-2.24,1.91,.02,3.48,.2,4.82,.54,1.87,.48,3.24,1.3,4.07,2.42,.45,.62,.4,1.41-.13,1.98-1.38,1.48-3.95,1.65-5.91,1.31-1.18-.21-2.11-.52-2.84-.96-.92-.55-1.45-1.43-1.67-1.81-.03-.06-.07-.13-.12-.18h-.01c-.05-.06-.13-.07-.19-.05-.11,.05-.15,.19-.16,.27-.12,1.01,.27,1.89,1.15,2.62,.29,.23,.6,.44,.94,.61,2.32,1.21,5.98,1.42,7.65,.89,1.13-.36,2.08-.85,3-2.07,.96-1.27,.52-2.74-.21-3.68-1.78-2.3-4.66-3.26-6.76-3.67-2.46-.47-5.27-.45-7.71,.05-3,.62-4.6,1.81-4.74,3.56-.15,1.79,.89,3.5,1.89,5.15,.32,.53,.63,1.04,.89,1.53-.15,0-.31,0-.47-.01-1.54-.05-3.28-.1-4.63,.6-.98,.51-1.51,1.26-1.56,2.22-.03,.51,.16,.97,.56,1.35,.21,.2,.44,.36,.7,.49,.91,.47,2.1,.63,2.82,.57,1.28-.1,2.32-.59,3.11-1.44,.7-.76,1.1-1.67,1.17-2.64l1.49,.02c-1.56,1.59-1.71,2.95-1.56,3.82,.06,.32,.3,.63,.66,.82s.75,.23,1.05,.1c.58-.25,1.1-.62,1.6-1.01-.19,.32-.34,.67-.38,1.01-.03,.31,.05,.57,.23,.74,.19,.19,.49,.27,.84,.23,1.58-.19,3.38-1.69,4.82-2.89,.2-.17,.4-.34,.59-.49-.14,.65-.2,1.31-.2,1.97,0,.14-.03,.19-.16,.24-.2,.07-.46,.15-.74,.23-.85,.24-1.9,.54-2.3,1.08-.16,.22-.11,.52,.12,.7,.68,.55,1.71,.81,2.76,.69,.95-.11,1.56-.63,1.81-1.54,.24-.88,1.15-1.66,2.71-2.3-.19,.74-.25,1.38-.21,2h-.01c-1.02,.25-2.42,.58-2.8,1.68-.08,.21-.06,.44,.04,.64,.11,.21,.3,.36,.53,.42,1.02,.29,1.91,.26,2.73-.08s.98-1.11,1.09-1.72c1.5,.33,2.66,.95,3.56,1.89,.5,.53,.77,1.11,.77,1.72,0,.77-.45,1.23-1.3,1.3-.26,.02-.39,.05-.45,.14-.03,.04-.03,.1,0,.14,.04,.1,.21,.32,.9,.27,.63-.05,1.12-.31,1.45-.78,.09-.13,.16-.27,.22-.42l-.05,.02Zm-21.68-9.65l-.04,.06c-.48,.73-1.22,1.19-2.21,1.39-.62,.12-1.2,.09-1.64-.09-.31-.13-.5-.28-.57-.45-.05-.13-.04-.28,.03-.45,.61-1.38,3.41-1.62,4.82-1.44-.07,.34-.2,.67-.39,.97h0Zm7.35-.96h0c-.77,1.01-2.43,2.8-3.75,3.15-.06,.02-.11,.01-.12,0s-.02-.04-.01-.07c.06-.84,.78-1.95,1.71-2.63,.71-.52,1.45-.73,2.08-.59,.03,0,.05,.01,.08,.03,.02,0,.04,.02,.05,.04,0,.03,0,.05-.03,.08h0Zm2.28,6.32c-.26,.09-.48-.06-.39-.09l1.33-.46c-.23,.28-.57,.43-.94,.55h0Zm3.95,1.06c-.1,0-.2-.02-.3-.06,.22-.49,.97-.78,1.61-.9-.14,.56-.66,.96-1.31,.97h0Z"/>
      <rect class="cls-10" x="110.52" y="127.5" width="16.09" height="28.52" rx=".87" ry=".87" transform="translate(-46 225.86) rotate(-77.16)"/>
      <path class="cls-27" d="M105.29,136.24s-.07,0-.11-.01c-.27-.06-.44-.33-.38-.6l.94-4.12c.08-.36,.3-.66,.61-.86,.31-.2,.68-.26,1.03-.18l6.37,1.45c.27,.06,.44,.33,.38,.6-.06,.27-.33,.44-.6,.38l-6.37-1.45c-.1-.02-.2,0-.28,.05s-.14,.13-.17,.23l-.94,4.12c-.05,.23-.26,.39-.49,.39h.01Z"/>
      <path class="cls-27" d="M106.96,147.9s-.07,0-.11-.01l-3.27-.75c-.74-.17-1.2-.9-1.03-1.64l1.75-7.67c.06-.27,.32-.44,.6-.38,.27,.06,.44,.33,.38,.6l-1.75,7.67c-.04,.2,.08,.4,.28,.44l3.27,.75c.27,.06,.44,.33,.38,.6-.05,.23-.26,.39-.49,.39h-.01Z"/>
      <path class="cls-27" d="M129.99,153.13c-.1,0-.21-.01-.31-.04l-20.15-4.59c-.27-.06-.44-.33-.38-.6,.06-.27,.33-.44,.6-.38l20.15,4.59c.1,.02,.2,0,.28-.05s.14-.13,.16-.23l3.19-13.99c.04-.2-.08-.4-.28-.44l-8.86-2.02c-.27-.06-.44-.33-.38-.6,.06-.27,.32-.44,.6-.38l8.86,2.02c.74,.17,1.2,.9,1.03,1.64l-3.19,13.99c-.08,.36-.3,.66-.61,.86-.22,.14-.47,.21-.73,.21h.02Z"/>
      <path class="cls-27" d="M122.45,134.93s-.07,0-.11-.01l-6.81-1.55c-.27-.06-.44-.33-.38-.6,.06-.27,.33-.44,.6-.38l6.81,1.55c.27,.06,.44,.33,.38,.6-.05,.23-.26,.39-.49,.39h0Z"/>
      <g>
        <path class="cls-27" d="M114.39,137.82c-.43-.36-.98-.62-1.65-.77l-.66-.15-.54-.12-.98-.22-1.39,6.11,.98,.22,.54,.12,.66,.15c.67,.15,1.28,.16,1.82,.02,.55-.14,1.01-.41,1.38-.8,.37-.4,.63-.91,.77-1.53s.13-1.2-.03-1.72-.46-.95-.89-1.32h0Zm-.94,3.49c-.15,.2-.32,.35-.52,.45s-.41,.15-.64,.16c-.23,0-.46-.01-.7-.07l-.61-.14,.8-3.49,.61,.14c.23,.05,.45,.13,.66,.24s.37,.25,.51,.42,.23,.38,.27,.63c.05,.25,.03,.54-.04,.87s-.19,.6-.34,.8h0Z"/>
        <polygon class="cls-27" points="117.93 138.23 116.95 138.01 115.56 144.12 116.54 144.34 116.97 144.44 119.62 145.05 119.89 143.83 117.25 143.23 117.57 141.83 120.04 142.39 120.31 141.2 117.84 140.64 118.09 139.55 120.73 140.15 121.01 138.94 118.37 138.33 117.93 138.23"/>
        <polygon class="cls-27" points="126.27 140.13 123.94 143.44 123.28 139.45 121.56 139.06 123.29 146.29 128 140.53 126.27 140.13"/>
      </g>
      <circle class="cls-27" cx="186.68" cy="162.78" r=".88"/>
      <path class="cls-17" d="M87.45,52.54c-3.96-7-5.44-15.36-4.14-23.29,.41-2.51,1.1-4.97,1.9-7.39,.74-2.22,2.01-4.1,3.21-6.11,3.66-6.11,10.12-10.36,17.22-10.89,3.76-.28,7.69,.38,10.84,2.47,3.14,2.09,6.08,5.51,5.87,9.28-.14,2.49-2.04,5.08-3.68,6.96-1.64,1.88-4.77,5.16-6.95,6.38-7.47,4.16-14.37,6.09-23.24,5.79,.43,6.29,.31,12.2,.03,18.5"/>
      <path class="cls-27" d="M107.26,32.97c6.84-2.75,13.16-7.25,16.08-14.24,.37-.89-1.08-1.28-1.45-.4-2.69,6.45-8.75,10.67-15.03,13.2-.88,.36-.5,1.81,.4,1.45h0Z"/>
      <path class="cls-27" d="M88.84,36.8c5.25,.34,10.58-1.15,15.52-2.78,.91-.3,.52-1.75-.4-1.45-4.83,1.59-10,3.06-15.13,2.73-.96-.06-.96,1.44,0,1.5h.01Z"/>
      <path class="cls-17" d="M156.62,52.05c3.96-7,4.85-15.43,3.54-23.37-.41-2.51-.5-4.9-1.31-7.32-.74-2.22-1.6-4.42-2.8-6.42-3.66-6.11-10.53-10.04-17.63-10.57-3.76-.28-7.69,.38-10.84,2.47s-6.08,5.51-5.87,9.28c.14,2.49,2.04,5.08,3.68,6.96,1.64,1.88,4.77,5.16,6.95,6.38,7.47,4.16,14.37,6.09,23.24,5.79-.43,6.29-.31,12.2-.03,18.5"/>
      <path class="cls-27" d="M159.54,29.57c.45,4.55,.41,9.29-.44,13.79-.62,3.28-1.86,6.15-3.56,9-.49,.83,.8,1.59,1.3,.76,1.76-2.95,3.06-5.95,3.71-9.35,.88-4.64,.96-9.5,.49-14.19-.1-.95-1.6-.96-1.5,0h0Z"/>
      <path class="cls-27" d="M144.98,6.73c8.27,3.67,12.79,11.94,14.26,20.55,.16,.95,1.61,.55,1.45-.4-1.53-8.94-6.37-17.64-14.95-21.45-.87-.39-1.64,.9-.76,1.3h0Z"/>
      <path class="cls-27" d="M122.78,13.57c1.19-3.33,3.77-6.07,7.08-7.35,3.84-1.49,8.18-1.5,12.14-.5,.94,.24,1.34-1.21,.4-1.45-4.4-1.11-9.28-1.07-13.5,.73-3.57,1.52-6.26,4.54-7.56,8.17-.33,.91,1.12,1.3,1.45,.4h-.01Z"/>
      <path class="cls-27" d="M88.4,62.05h0c-.4,0-.71-.33-.71-.72l.26-23.08c0-.39,.32-.71,.72-.71h0c.4,0,.71,.33,.71,.72l-.26,23.08c0,.39-.32,.71-.72,.71Z"/>
      <path class="cls-27" d="M155.24,64.54h0c-.4,0-.71-.33-.71-.72l.26-30.13c0-.39,.32-.71,.72-.71h0c.4,0,.71,.33,.71,.72l-.26,30.13c0,.39-.32,.71-.72,.71Z"/>
      <path class="cls-17" d="M126.81,96.96c.24,2.65,1.12,5.26,2.48,7.55,2.41,4.03,6.19,7.11,10.35,9.29,1.05-4.15,2.99-8.08,5.65-11.45,1.81-2.29,3.93-4.31,5.71-6.62,3.71-4.85,5.74-10.88,6.23-16.97,.42-5.3-.29-10.65-1.75-15.78l-.97,6.08,.04,3.59-1.94,6.38-3.34,5.57-4.84,5.32-10.67,4.95-6.94,2.09h-.01Z"/>
      <path class="cls-27" d="M125.92,96.96c.81,7.93,6.41,13.87,13.2,17.48,.42,.22,.98,.04,1.1-.45,1.22-4.66,3.48-8.89,6.63-12.53s6.16-6.84,8.1-11.2c3.87-8.7,3.63-18.45,1.1-27.48-.26-.93-1.71-.53-1.45,.4,2.56,9.15,2.75,19.23-1.68,27.86-2.19,4.27-5.67,7.37-8.57,11.12-2.62,3.39-4.5,7.29-5.58,11.44l1.1-.45c-6.28-3.34-11.7-8.8-12.46-16.19-.1-.95-1.6-.96-1.5,0h0Z"/>
      <g class="cls-38">
        <path class="cls-10" d="M110.69,10.97c-.91-.19-1.84,.05-2.76,.07-.94,.02-1.88-.18-2.82-.21-2.31-.07-4.57,.93-6.3,2.47-.82,.74-1.53,1.6-2.13,2.52-1.48,1.18-3.04,2.69-2.82,4.55,.21,1.74,2.04,2.93,3.8,2.98,1.75,.04,3.4-.79,4.89-1.72s2.93-2,4.6-2.51c1.13-.35,2.34-.44,3.42-.91,1.46-.64,2.6-2.07,2.69-3.67,.09-1.59-1.01-3.23-2.58-3.56h0Z"/>
        <path class="cls-10" d="M94.95,24.22c-.3-.24-.58-.42-.92-.58-.19-.09-.38-.19-.57-.3-.03-.04-.07-.07-.11-.11,.02,.03,.04,.05,.06,.08-.02-.01-.03-.02-.05-.03-.07-.07-.13-.16-.2-.22-.27-.38-.54-.75-.96-1-.78-.45-1.7-.41-2.48,.01-1.48,.79-1.7,2.69-1.16,4.13,.3,.8,.72,1.45,1.44,1.94,.58,.4,1.26,.56,1.94,.63,1.51,.16,3.29-.4,3.82-1.96,.32-.94-.05-1.99-.81-2.6h0Z"/>
      </g>
      <path class="cls-10" d="M92.88,14.25c4.1-5.07,10.85-7.79,17.32-6.69,1.62,.28,2.32-2.21,.69-2.49-7.34-1.25-15.12,1.53-19.83,7.35-1.03,1.28,.78,3.11,1.82,1.82h0Z"/>
      <path class="cls-27" d="M95.21,7.61c-1.99,1.31-3.77,2.92-5.28,4.76-.26,.31-.31,.76,0,1.06,.27,.27,.8,.31,1.06,0,1.45-1.75,3.11-3.29,4.98-4.52,.34-.22,.48-.66,.27-1.03-.2-.34-.69-.49-1.03-.27h0Z"/>
      <path class="cls-27" d="M123.11,14.96c-2.7-11.2-16.11-12.93-25.22-8.83-.88,.4-.12,1.69,.76,1.3,8.26-3.72,20.56-2.24,23.01,7.94,.23,.94,1.67,.54,1.45-.4h0Z"/>
      <path class="cls-10" d="M84.95,22.36c-1.96,5.23-1.82,10.9-1.59,16.39,.07,1.65,2.65,1.66,2.58,0-.22-5.28-.39-10.68,1.5-15.71,.24-.65-.27-1.41-.9-1.59-.72-.2-1.34,.25-1.59,.9h0Z"/>
      <path class="cls-27" d="M87.9,15.16c-3.96,6.35-5.26,13.86-5.11,21.26,.07,3.52,.39,7.1,1.37,10.5,.69,2.4,1.8,4.54,3.07,6.68,.49,.83,1.79,.08,1.3-.76-1.2-2.02-2.26-4.04-2.92-6.32-.95-3.28-1.25-6.71-1.32-10.1-.15-7.15,1.07-14.36,4.91-20.51,.51-.82-.78-1.58-1.3-.76h0Z"/>
      <path class="cls-2" d="M134.56,97.19c2.13-.68,4.29-1.32,6.34-2.23s4.05-2.22,5.85-3.63c3.97-3.12,6.83-7.53,8.15-12.41,.5-1.87-2.39-2.66-2.89-.8-1.18,4.35-3.73,8.27-7.31,11.03-1.63,1.25-3.42,2.39-5.31,3.21s-3.74,1.32-5.62,1.93-1.05,3.48,.8,2.89h0Z"/>
      <path class="cls-2" d="M110.77,94.93c-1.84-.95-3.76-1.74-5.69-2.49-.46-.18-.92-.36-1.38-.53-.13-.05-.59-.26-.24-.08-.04-.02-.08-.04-.12-.07-.44-.27-.9-.5-1.35-.75-1.33-.74-2.51-1.68-3.74-2.59-.65-.48-1.67-.11-2.05,.54-.45,.76-.12,1.57,.54,2.05,1.23,.9,2.41,1.84,3.74,2.59,.44,.25,.87,.5,1.32,.74,.63,.34,1.32,.54,1.98,.8,1.86,.71,3.7,1.47,5.47,2.38,.72,.37,1.63,.19,2.05-.54,.39-.67,.18-1.68-.54-2.05h0Z"/>
      <path class="cls-27" d="M121.62,98.27h-.21c-2.21-.02-4.39-.36-6.48-1-2.32-.71-5.26-1.71-8.75-2.95-4.68-1.67-8.8-4.59-11.94-8.44-4.13-5.22-6.32-11.76-6.17-18.41,0-.4,.32-.72,.73-.7,.4,0,.71,.34,.7,.73-.15,6.32,1.93,12.53,5.85,17.48,2.96,3.64,6.87,6.41,11.3,7.99,3.46,1.24,6.38,2.23,8.68,2.93,1.96,.6,4,.92,6.08,.93,2.07,.02,4.12-.26,6.1-.82,2.29-.66,5.22-1.59,8.71-2.77,4.46-1.5,8.42-4.19,11.45-7.79,4.01-4.87,6.21-11.04,6.18-17.37,0-.39,.32-.72,.71-.72h0c.39,0,.71,.32,.72,.71,.03,6.65-2.28,13.15-6.51,18.29-3.21,3.81-7.39,6.65-12.1,8.23-3.51,1.19-6.46,2.13-8.78,2.79-2.04,.58-4.15,.88-6.29,.88h.02Z"/>
      <g>
        <circle class="cls-9" cx="158.55" cy="67.06" r="4.39"/>
        <path class="cls-36" d="M160.62,63.2c1.09,2.17,.22,4.81-1.94,5.9-1.27,.64-2.78,.63-4.04-.04,1.06,2.18,3.68,3.1,5.87,2.04,2.18-1.06,3.1-3.68,2.04-5.87-.02-.05-.05-.1-.08-.15-.4-.81-1.05-1.47-1.85-1.88Z"/>
        <ellipse class="cls-10" cx="156.13" cy="65.72" rx="1.32" ry=".81" transform="translate(30.21 179.03) rotate(-64.81)"/>
        <path class="cls-27" d="M158.55,71.95h-.05c-2.7-.03-4.87-2.24-4.85-4.94,.02-2.68,2.22-4.85,4.89-4.85h.04c1.31,.01,2.53,.53,3.45,1.46s1.41,2.17,1.4,3.47c-.02,2.68-2.21,4.85-4.89,4.85h0Zm0-8.78c-2.13,0-3.88,1.72-3.89,3.86-.02,2.15,1.71,3.91,3.86,3.93h.04c2.13,0,3.87-1.72,3.89-3.86,0-1.04-.39-2.02-1.12-2.76s-1.7-1.16-2.74-1.17h-.04Z"/>
      </g>
      <g>
        <circle class="cls-9" cx="86.54" cy="66.01" r="4.39"/>
        <path class="cls-36" d="M88.6,62.23c1.09,2.17,.22,4.81-1.94,5.9-1.27,.64-2.78,.63-4.04-.04,.98,2.23,3.59,3.24,5.82,2.26,2.23-.98,3.24-3.59,2.26-5.82-.07-.15-.14-.29-.22-.44-.41-.8-1.06-1.46-1.87-1.87h-.01Z"/>
        <ellipse class="cls-10" cx="84.11" cy="64.67" rx="1.32" ry=".81" transform="translate(-10.21 113.26) rotate(-64.81)"/>
        <path class="cls-27" d="M86.54,70.91h-.05c-2.7-.03-4.87-2.24-4.85-4.94,.01-1.31,.53-2.53,1.47-3.45,.92-.91,2.14-1.4,3.43-1.4h.05c2.7,.03,4.87,2.24,4.85,4.94-.01,1.31-.53,2.53-1.46,3.45-.92,.91-2.14,1.4-3.43,1.4h-.01Zm0-8.79c-1.03,0-1.99,.39-2.73,1.12-.74,.73-1.16,1.7-1.17,2.74-.02,2.15,1.71,3.91,3.86,3.93h.04c1.03,0,1.99-.39,2.73-1.12,.74-.73,1.16-1.7,1.17-2.74,.02-2.15-1.71-3.91-3.86-3.93h-.04Z"/>
      </g>
      <path class="cls-2" d="M126.32,24.02c2.18,2.62,4.77,4.7,7.86,6.16s6.15,2.32,9.31,3.2c1.86,.52,2.66-2.38,.8-2.89-2.91-.81-5.86-1.61-8.6-2.9-2.89-1.36-5.22-3.24-7.25-5.69-.52-.62-1.59-.54-2.12,0-.62,.62-.52,1.5,0,2.12h0Z"/>
      <path class="cls-27" d="M155.24,34.81c-3.63,.22-7.18-.48-10.68-1.41-3.2-.85-6.37-1.85-9.37-3.25-2.72-1.27-5.36-2.82-7.48-4.97-1.97-2-3.4-4.44-4.48-7.02-.37-.88-1.82-.49-1.45,.4,1.11,2.66,2.52,5.17,4.5,7.29,2.17,2.33,4.9,4.04,7.76,5.4,3.11,1.49,6.38,2.57,9.7,3.47,3.75,1.02,7.59,1.81,11.5,1.58,.96-.06,.97-1.56,0-1.5h0Z"/>
    </g>
  </g>
</svg>