<?xml version="1.0" encoding="UTF-8"?>
<svg id="Layer_2" data-name="Layer 2" xmlns="http://www.w3.org/2000/svg" viewBox="0 0 224.15 213.79">
  <defs>
    <style>
      .cls-1 {
        fill: #f4b7a6;
      }

      .cls-2 {
        fill: #f6bc58;
      }

      .cls-3 {
        fill: #f784dc;
      }

      .cls-4 {
        fill: #e59015;
      }

      .cls-5, .cls-6 {
        fill: #fff;
      }

      .cls-7 {
        fill: #97cecc;
      }

      .cls-8 {
        fill: #a0e2f9;
      }

      .cls-9, .cls-10 {
        fill: #9fd3d3;
      }

      .cls-11 {
        fill: #b3ffa1;
      }

      .cls-12 {
        fill: #d7e9e9;
      }

      .cls-13, .cls-14 {
        fill: #a4e7ff;
      }

      .cls-15 {
        fill: #db806e;
      }

      .cls-16 {
        fill: #dd917f;
      }

      .cls-17 {
        fill: #203844;
      }

      .cls-18 {
        fill: #1f033c;
      }

      .cls-19 {
        fill: #232144;
      }

      .cls-20 {
        fill: #4080ff;
      }

      .cls-21 {
        fill: #0a5ee5;
      }

      .cls-22 {
        fill: #61dafb;
      }

      .cls-23, .cls-24 {
        fill: #28424f;
      }

      .cls-25 {
        fill: #3c5768;
      }

      .cls-26 {
        fill: #2f9916;
      }

      .cls-27 {
        fill: #37a9d1;
      }

      .cls-28 {
        fill: #5cdc41;
      }

      .cls-29 {
        fill: #4f7bfc;
      }

      .cls-30 {
        fill: #79c8ff;
      }

      .cls-24 {
        opacity: .5;
      }

      .cls-24, .cls-6, .cls-14, .cls-10 {
        isolation: isolate;
      }

      .cls-6 {
        opacity: .45;
      }

      .cls-14 {
        opacity: .41;
      }

      .cls-10 {
        opacity: .4;
      }

      .cls-31 {
        opacity: .35;
      }
    </style>
  </defs>
  <g id="Layer_2-2" data-name="Layer 2">
    <g>
      <g>
        <ellipse class="cls-28" cx="38.31" cy="165.01" rx="11.65" ry="22.57"/>
        <path class="cls-11" d="M38.31,187.57c-6.79,0-12.11-9.91-12.11-22.56s5.32-22.56,12.11-22.56,12.11,9.91,12.11,22.56-5.32,22.56-12.11,22.56Zm0-43.2c-5.52,0-10.19,9.45-10.19,20.64s4.67,20.64,10.19,20.64,10.19-9.45,10.19-20.64-4.67-20.64-10.19-20.64Z"/>
        <path class="cls-26" d="M46.52,166.5c-.28,0-.5-.22-.5-.5,0-11.98-5.17-22.64-5.22-22.74-.12-.25-.02-.55,.23-.67s.55-.02,.67,.23c.05,.11,5.32,10.98,5.32,23.19,0,.28-.22,.5-.5,.5h0Z"/>
        <path class="cls-26" d="M31.16,169.79c-.28,0-.5-.22-.5-.5v-3.29c0-12.21,5.27-23.08,5.32-23.19,.12-.25,.42-.35,.67-.23,.25,.12,.35,.42,.23,.67-.05,.11-5.22,10.77-5.22,22.74v3.29c0,.28-.22,.5-.5,.5h0Z"/>
        <path class="cls-26" d="M38.33,169.6c-.28,0-.5-.22-.5-.5v-26.35c0-.28,.22-.5,.5-.5s.5,.22,.5,.5v26.35c0,.28-.22,.5-.5,.5Z"/>
        <path class="cls-18" d="M38.6,187.94c-5.77,0-10.74-7.19-12.09-17.48-.21-1.58-.2-3.27-.2-4.91v-.81c0-8.15,2.28-15.79,5.95-19.94,.23-.26,.63-.29,.9-.05,.26,.23,.29,.63,.05,.9-3.47,3.92-5.63,11.24-5.63,19.09v.82c0,1.67,0,3.25,.18,4.74,1.25,9.49,5.8,16.38,10.83,16.38,6.07,0,11.02-9.84,11.02-21.94s-4.94-21.94-11.02-21.94c-1.25,0-2.48,.42-3.65,1.26-.29,.2-.68,.13-.89-.15-.2-.29-.14-.68,.15-.89,1.39-.99,2.87-1.5,4.39-1.5,6.77,0,12.29,10.41,12.29,23.21s-5.51,23.21-12.29,23.21h.01Z"/>
        <rect class="cls-12" x="21.11" y="169.01" width="41.79" height="10.45"/>
        <rect class="cls-12" x="24.5" y="179.62" width="38.4" height="25.89"/>
        <rect class="cls-7" x="24.5" y="179.62" width="38.4" height="3.49"/>
        <path class="cls-18" d="M62.9,206.23H24.5c-.4,0-.72-.32-.72-.72v-16.32c0-.4,.32-.72,.72-.72s.72,.32,.72,.72v15.6H62.19v-24.46H25.21v5.33c0,.4-.32,.72-.72,.72s-.72-.32-.72-.72v-6.04c0-.4,.32-.72,.72-.72H62.89c.4,0,.72,.32,.72,.72v25.89c0,.4-.32,.72-.72,.72h.01Z"/>
        <circle class="cls-7" cx="31.2" cy="183.34" r="1.48"/>
        <circle class="cls-7" cx="34.98" cy="184.71" r=".74"/>
        <circle class="cls-7" cx="33.32" cy="187.85" r=".99"/>
        <rect class="cls-5" x="26.19" y="169.29" width="2.26" height="10.31"/>
        <rect class="cls-5" x="29.86" y="169.29" width="1.61" height="10.31"/>
        <path class="cls-18" d="M62.9,180.09H21.11c-.35,0-.63-.28-.63-.63v-3.53c0-.35,.28-.63,.63-.63s.63,.28,.63,.63v2.89H62.26v-9.18H21.74v3.04c0,.35-.28,.63-.63,.63s-.63-.28-.63-.63v-3.67c0-.35,.28-.63,.63-.63H62.9c.35,0,.63,.28,.63,.63v10.45c0,.35-.28,.63-.63,.63Z"/>
        <path class="cls-18" d="M31.93,198.07h-7.67c-.28,0-.5-.22-.5-.5s.22-.5,.5-.5h7.67c.28,0,.5,.22,.5,.5s-.22,.5-.5,.5Z"/>
        <path class="cls-18" d="M26.83,162.72h-.99c-.35,0-.63-.28-.63-.63s.28-.63,.63-.63h.99c.35,0,.63,.28,.63,.63s-.28,.63-.63,.63Z"/>
        <path class="cls-18" d="M26.83,166.25h-.99c-.35,0-.63-.28-.63-.63s.28-.63,.63-.63h.99c.35,0,.63,.28,.63,.63s-.28,.63-.63,.63Z"/>
        <path class="cls-18" d="M31.09,147.44c-.14,0-.29-.05-.41-.15l-.76-.64c-.27-.23-.3-.63-.08-.89,.23-.27,.63-.3,.89-.08l.76,.64c.27,.23,.3,.63,.08,.89-.13,.15-.31,.23-.49,.23h.01Z"/>
        <path class="cls-18" d="M45.38,146.8c-.22,0-.44-.12-.56-.33-.17-.31-.06-.69,.25-.86l.87-.48c.31-.17,.69-.06,.86,.25,.17,.31,.06,.69-.25,.86l-.87,.48c-.1,.05-.2,.08-.31,.08h.01Z"/>
        <path class="cls-18" d="M28.86,151.83c-.12,0-.23-.03-.34-.1l-.83-.53c-.3-.19-.38-.58-.19-.88,.19-.3,.58-.38,.88-.19l.83,.53c.3,.19,.38,.58,.19,.88-.12,.19-.33,.29-.54,.29h0Z"/>
        <path class="cls-18" d="M47.96,151.56c-.22,0-.44-.12-.56-.33-.17-.31-.06-.69,.25-.86l.87-.48c.31-.17,.69-.06,.86,.25s.06,.69-.25,.86l-.87,.48c-.1,.05-.2,.08-.31,.08h.01Z"/>
      </g>
      <g class="cls-31">
        <rect class="cls-8" x="39.29" y="12.05" width="87.6" height="86.44"/>
        <path class="cls-12" d="M39.29,11.26V98.87H126.89V11.26H39.29ZM121.41,93.93H45.93V16.56H121.41s0,77.37,0,77.37Z"/>
        <rect class="cls-12" x="81.04" y="16.66" width="5.08" height="77.08"/>
        <rect class="cls-12" x="46.17" y="54.08" width="75.4" height="5.08"/>
        <g>
          <rect class="cls-27" x="45.54" y="89.49" width="75.94" height="4.05"/>
          <rect class="cls-27" x="116.74" y="16.52" width="3.98" height="73.37"/>
        </g>
        <g>
          <path class="cls-6" d="M50.01,36.9c-.7,0-1.27-.57-1.27-1.27v-14.85c0-.7,.57-1.27,1.27-1.27s1.27,.57,1.27,1.27v14.85c0,.7-.57,1.27-1.27,1.27Z"/>
          <path class="cls-6" d="M50.01,32.9c-.7,0-1.27-.57-1.27-1.27v-5.85c0-.7,.57-1.27,1.27-1.27s1.27,.57,1.27,1.27v5.85c0,.7-.57,1.27-1.27,1.27Z"/>
        </g>
        <g>
          <rect class="cls-5" x="31.06" y="40.05" width="54.8" height="2" transform="translate(-4.52 74.75) rotate(-63.23)"/>
          <rect class="cls-5" x="27.83" y="45.5" width="67.26" height="2" transform="translate(-7.95 79.98) rotate(-62.86)"/>
        </g>
        <path class="cls-18" d="M86.12,93.46c-.4,0-.72-.32-.72-.72V59.64c0-.4,.32-.72,.72-.72s.72,.32,.72,.72v33.11c0,.4-.32,.72-.72,.72h0Z"/>
        <path class="cls-18" d="M86.12,54.02c-.4,0-.72-.32-.72-.72V17.38h-3.65v15.1c0,.4-.32,.72-.72,.72s-.72-.32-.72-.72v-15.82c0-.4,.32-.72,.72-.72h5.08c.4,0,.72,.32,.72,.72V53.31c0,.4-.32,.72-.72,.72h.01Z"/>
        <path class="cls-18" d="M81.04,40.35c-.4,0-.72-.32-.72-.72v-2.26c0-.4,.32-.72,.72-.72s.72,.32,.72,.72v2.26c0,.4-.32,.72-.72,.72Z"/>
        <path class="cls-18" d="M81.04,53.95c-.4,0-.72-.32-.72-.72v-10.78c0-.4,.32-.72,.72-.72s.72,.32,.72,.72v10.78c0,.4-.32,.72-.72,.72Z"/>
        <path class="cls-18" d="M81.04,93.46c-.4,0-.72-.32-.72-.72V60.06c0-.4,.32-.72,.72-.72s.72,.32,.72,.72v32.68c0,.4-.32,.72-.72,.72Z"/>
        <path class="cls-18" d="M120.57,54.78h-53.47c-.39,0-.71-.32-.71-.71s.32-.71,.71-.71h53.47c.39,0,.71,.32,.71,.71s-.32,.71-.71,.71Z"/>
        <path class="cls-18" d="M69.73,59.86h-23.57c-.39,0-.71-.32-.71-.71v-5.08c0-.39,.32-.71,.71-.71h17.45c.39,0,.71,.32,.71,.71s-.32,.71-.71,.71h-16.74v3.67h22.86c.39,0,.71,.32,.71,.71s-.32,.71-.71,.71h0Z"/>
        <path class="cls-18" d="M120.57,59.86h-46.41c-.39,0-.71-.32-.71-.71s.32-.71,.71-.71h46.41c.39,0,.71,.32,.71,.71s-.32,.71-.71,.71Z"/>
        <path class="cls-5" d="M41.03,11.3h0c.83,0,1.51,.68,1.51,1.51v20.89c0,.83-.67,1.51-1.51,1.51h0c-.83,0-1.51-.68-1.51-1.51V12.81c0-.83,.67-1.51,1.51-1.51Z"/>
        <path class="cls-5" d="M41.03,55.34h0c.83,0,1.51,.68,1.51,1.51v20.89c0,.83-.67,1.51-1.51,1.51h0c-.83,0-1.51-.68-1.51-1.51v-20.89c0-.83,.67-1.51,1.51-1.51Z"/>
        <path class="cls-10" d="M94.93,96.14h0c0,1.17-.95,2.12-2.12,2.12h-29.42c-1.17,0-2.12-.95-2.12-2.12h0c0-1.17,.95-2.12,2.12-2.12h29.42c1.17,0,2.12,.95,2.12,2.12Z"/>
        <path class="cls-9" d="M111.11,96.15h0c0,1.17-.95,2.12-2.12,2.12h-29.42c-1.17,0-2.12-.95-2.12-2.12h0c0-1.17,.95-2.12,2.12-2.12h29.42c1.17,0,2.12,.95,2.12,2.12Z"/>
        <path class="cls-18" d="M39.29,84.16c-.4,0-.72-.32-.72-.72V40.1c0-.4,.32-.72,.72-.72s.72,.32,.72,.72v43.34c0,.4-.32,.72-.72,.72Z"/>
        <path class="cls-18" d="M49.78,99.21h-10.49c-.4,0-.72-.32-.72-.72v-10.25c0-.4,.32-.72,.72-.72s.72,.32,.72,.72v9.54h9.78c.4,0,.72,.32,.72,.72s-.32,.72-.72,.72h-.01Z"/>
        <path class="cls-18" d="M126.89,29.15c-.4,0-.72-.32-.72-.72V11.61h-46.37c-.4,0-.72-.32-.72-.72s.32-.72,.72-.72h47.08c.4,0,.72,.32,.72,.72V28.43c0,.4-.32,.72-.72,.72h0Z"/>
        <path class="cls-18" d="M76.23,11.61h-14.12c-.4,0-.72-.32-.72-.72s.32-.72,.72-.72h14.12c.4,0,.72,.32,.72,.72s-.32,.72-.72,.72Z"/>
        <path class="cls-18" d="M39.29,37.15c-.4,0-.72-.32-.72-.72V10.89c0-.4,.32-.72,.72-.72h17.55c.4,0,.72,.32,.72,.72s-.32,.72-.72,.72h-16.84v24.82c0,.4-.32,.72-.72,.72h0Z"/>
        <g>
          <path class="cls-19" d="M53.4,23.61c-.06,0-.13-.02-.18-.05-.18-.1-.24-.33-.14-.51l2.18-3.86c.1-.18,.33-.24,.51-.14s.24,.33,.14,.51l-2.18,3.86c-.07,.12-.19,.19-.32,.19h-.01Z"/>
          <path class="cls-19" d="M54,25.71c-.07,0-.13-.02-.19-.05-.18-.11-.23-.33-.13-.51l1.69-2.84c.11-.18,.33-.23,.51-.13,.18,.11,.23,.33,.13,.51l-1.69,2.84c-.07,.12-.19,.18-.32,.18Z"/>
        </g>
        <path class="cls-18" d="M121.41,94.27H45.93c-.4,0-.72-.32-.72-.72V40.19c0-.4,.32-.72,.72-.72s.72,.32,.72,.72v52.64H120.7V16.91H46.65v19.62c0,.4-.32,.72-.72,.72s-.72-.32-.72-.72V16.19c0-.4,.32-.72,.72-.72H121.41c.4,0,.72,.32,.72,.72V93.55c0,.4-.32,.72-.72,.72Z"/>
        <path class="cls-18" d="M126.89,99.21H56.18c-.4,0-.72-.32-.72-.72s.32-.72,.72-.72H126.17V34.45c0-.4,.32-.72,.72-.72s.72,.32,.72,.72V98.49c0,.4-.32,.72-.72,.72Z"/>
      </g>
      <path class="cls-19" d="M117.91,83.02c-21.65,0-39.26-17.53-39.26-39.08S96.26,4.87,117.91,4.87s39.26,17.53,39.26,39.08-17.61,39.08-39.26,39.08h0Zm0-74.17c-19.44,0-35.26,15.74-35.26,35.08s15.82,35.08,35.26,35.08,35.26-15.74,35.26-35.08-15.82-35.08-35.26-35.08Z"/>
      <path class="cls-25" d="M86.9,70.67h-4.44c-3.5,0-6.34-2.84-6.34-6.34v-9.88c0-3.5,2.84-6.34,6.34-6.34l4.92-.1-.49,22.67h.01Z"/>
      <path class="cls-18" d="M86.9,69.92c-1.46,0-2.92,.01-4.38,0-2.6-.02-4.89-1.76-5.5-4.32-.23-.95-.15-1.97-.15-2.94s-1.5-.97-1.5,0-.05,1.9,.1,2.83c.24,1.51,1.01,2.95,2.13,3.99s2.57,1.71,4.11,1.89c.82,.09,1.67,.04,2.49,.04h2.7c.97,0,.97-1.5,0-1.5h0Z"/>
      <path class="cls-18" d="M76.82,59.44c0-.94,.02-1.89,.03-2.83s-.07-2.01,.08-2.98c.26-1.78,1.39-3.33,2.97-4.16,1.13-.59,2.31-.62,3.55-.62h3.45c.97,0,.97-1.5,0-1.5h-3.25c-1.37,0-2.67,.03-3.96,.57-1.84,.78-3.26,2.32-3.92,4.2-.42,1.19-.39,2.44-.4,3.68s-.02,2.42-.04,3.63c0,.97,1.49,.97,1.5,0h-.01Z"/>
      <g>
        <path class="cls-25" d="M149.33,70.67h4.44c3.5,0,6.34-2.84,6.34-6.34v-9.88c0-3.5-2.84-6.34-6.34-6.34l-5.07,.14,.63,22.42Z"/>
        <path class="cls-19" d="M153.77,71.33h-4.44c-.37,0-.66-.3-.66-.66s.3-.66,.66-.66h4.44c3.13,0,5.68-2.55,5.68-5.68v-6.5c0-.37,.3-.66,.66-.66s.66,.3,.66,.66v6.5c0,3.86-3.14,7-7,7Z"/>
        <path class="cls-19" d="M160.11,55.11c-.37,0-.66-.3-.66-.66,0-3.13-2.55-5.68-5.68-5.68h-4.44c-.37,0-.66-.3-.66-.66s.3-.66,.66-.66h4.44c3.86,0,7,3.14,7,7,0,.37-.3,.66-.66,.66Z"/>
      </g>
      <g>
        <path class="cls-30" d="M84.8,42.39c.26,4.88,3.66,9.44,8.25,11.1,0,0,5.03-4.58,4.8-4.58l-8.7-9.16-4.34,2.64h-.01Z"/>
        <path class="cls-18" d="M93.24,52.76c-4.28-1.58-7.42-5.82-7.7-10.37-.06-.96-1.56-.97-1.5,0,.32,5.26,3.86,9.99,8.8,11.82,.91,.33,1.3-1.11,.4-1.45h0Z"/>
      </g>
      <g>
        <path class="cls-30" d="M151.22,42.39c-.26,4.88-3.66,9.44-8.25,11.1,0,0-5.03-4.58-4.8-4.58l8.7-9.16,4.34,2.64h.01Z"/>
        <path class="cls-18" d="M143.17,54.21c4.94-1.83,8.47-6.56,8.8-11.82,.06-.96-1.44-.96-1.5,0-.28,4.55-3.41,8.79-7.7,10.37-.9,.33-.51,1.78,.4,1.45h0Z"/>
      </g>
      <path class="cls-20" d="M110.89,100.93c-4.45,1.1-7.89,1.69-12.18,3.3-.84,.31-2.44,.01-3.28,.34-3.07,1.2-6.25,3.93-9.29,5.19-5.99,2.48-11.97,4.96-17.96,7.44-.48,.2-1,.43-1.25,.89-.35,.65,0,1.5,.6,1.93s1.36,.55,2.09,.65c3.63,.48,7.29,.73,10.94,.74-.46,.02-.93,.04-1.39,.06,28.08-.03,56.15-.05,84.23-.08,2.56,0,5.24-.03,7.52-1.18-4.32-3.46-7.05-3.79-11.91-5.61-2.21-.83-8.47-2.72-10.72-3.52-1.24-.44-3.06-1.21-4.12-2.25-1.11-1.09-1.45-2.45-2.75-3.03-1.61-.71-1.94,.14-3.52-.75-1.06-.6-4-1.87-5.21-1.74-.12,.79-3.35-1.94-3.47-1.16"/>
      <path class="cls-13" d="M93.12,110.32c-.27,0-.54-.08-.77-.25-.59-.43-.72-1.25-.3-1.84l2.27-3.13c.2-.27,.48-.46,.81-.52l7.04-1.4c.72-.14,1.41,.32,1.55,1.03s-.32,1.41-1.03,1.55l-6.53,1.3-1.96,2.71c-.26,.36-.66,.54-1.07,.54h-.01Z"/>
      <path class="cls-21" d="M145.8,115.41c-.34,0-.67-.17-.86-.48l-4.43-7.3-8.41-2.71c-.53-.17-.81-.73-.64-1.26s.73-.81,1.26-.64l8.76,2.83c.23,.07,.42,.23,.55,.43l4.63,7.62c.29,.47,.14,1.09-.33,1.37-.16,.1-.34,.15-.52,.15h0Z"/>
      <path class="cls-1" d="M129.98,94.6v8.14c0,6.46-5.24,11.7-11.7,11.7h0c-6.46,0-11.7-5.24-11.7-11.7v-6.87"/>
      <path class="cls-13" d="M89.21,110.66c-.68,0-1.25-.52-1.31-1.2-.06-.72,.47-1.36,1.2-1.42l3.9-.34c.72-.07,1.36,.47,1.42,1.2,.06,.72-.47,1.36-1.2,1.42l-3.9,.34h-.11Z"/>
      <path class="cls-5" d="M89.26,110.81c-.67,0-1.24-.51-1.31-1.19-.07-.72,.46-1.37,1.19-1.44l4.05-.39c.73-.07,1.37,.46,1.44,1.19,.07,.72-.46,1.37-1.19,1.44l-4.05,.39h-.13Z"/>
      <path class="cls-19" d="M83.01,111.99c-.29,0-.57-.15-.72-.41-.23-.4-.1-.91,.3-1.14l5.34-3.12c.1-.06,.21-.09,.32-.11l3.33-.41,2.18-2.84c.12-.16,.29-.27,.49-.31l11.86-2.51c.44-.09,.89,.19,.99,.64,.09,.45-.19,.89-.64,.99l-11.56,2.44-2.21,2.88c-.14,.18-.34,.29-.56,.32l-3.51,.43-5.19,3.03c-.13,.08-.28,.11-.42,.11h0Z"/>
      <path class="cls-19" d="M69.02,117.77c-.33,0-.64-.19-.77-.52-.17-.43,.03-.91,.45-1.09l7.84-3.21c.42-.18,.91,.03,1.09,.45,.17,.43-.03,.91-.45,1.09l-7.84,3.21c-.1,.04-.21,.06-.32,.06h0Z"/>
      <path class="cls-19" d="M168,117.77c-.08,0-.17-.01-.25-.04l-23.7-7.47c-.18-.06-.34-.18-.45-.34l-2.4-3.68-11.07-3.38c-.44-.13-.69-.6-.55-1.04s.6-.69,1.04-.55l11.36,3.46c.19,.06,.35,.18,.46,.34l2.4,3.69,23.42,7.38c.44,.14,.68,.61,.54,1.04-.11,.36-.44,.58-.79,.58h0Z"/>
      <path class="cls-19" d="M118.28,115.27c-6.91,0-12.53-5.62-12.53-12.53v-3.87c0-.46,.37-.83,.83-.83s.83,.37,.83,.83v3.87c0,5.99,4.87,10.87,10.87,10.87s10.87-4.87,10.87-10.87v-4.14c0-.46,.37-.83,.83-.83s.83,.37,.83,.83v4.14c0,6.91-5.62,12.53-12.53,12.53Z"/>
      <circle class="cls-19" cx="80.32" cy="112.29" r=".91"/>
      <path class="cls-19" d="M146.99,115.09c-.27,0-.53-.13-.69-.37l-1.3-1.92c-.26-.38-.16-.9,.22-1.16s.9-.16,1.16,.22l1.3,1.92c.26,.38,.16,.9-.22,1.16-.14,.1-.31,.14-.47,.14h0Z"/>
      <path class="cls-20" d="M54.89,152.33c-6.22,9.28-8.61,22.2-9.09,35.16l10.49,10.49,18.1-17.11"/>
      <path class="cls-21" d="M59.56,152.33c-6.22,9.28-8.61,22.2-9.21,36.96l10.49,10.49,18.22-18.91"/>
      <path class="cls-19" d="M45.8,188.23h-.03c-.41-.02-.73-.36-.72-.77,.57-15.31,3.67-27.27,9.22-35.54,.23-.34,.69-.43,1.03-.2s.43,.69,.2,1.03c-5.39,8.04-8.41,19.74-8.96,34.77,0,.4-.35,.72-.74,.72h0Z"/>
      <path class="cls-1" d="M38.47,203.37c0-7.6,6.16-13.76,13.76-13.76s13.76,6.16,13.76,13.76"/>
      <path class="cls-5" d="M40.18,200.97s-.1,0-.15,0c-.53-.08-.89-.57-.81-1.1,0-.09,1.48-9.14,9.98-10.28,.53-.07,1.02,.3,1.09,.83s-.3,1.02-.83,1.09c-7.07,.96-8.31,8.58-8.32,8.66-.07,.48-.49,.82-.96,.82h0Z"/>
      <path class="cls-19" d="M38.67,203.52c-.39,0-.7-.31-.7-.7,0-8.56,5.67-14.54,13.79-14.54,.39,0,.7,.31,.7,.7s-.31,.7-.7,.7c-7.29,0-12.39,5.4-12.39,13.14,0,.39-.31,.7-.7,.7Z"/>
      <path class="cls-20" d="M179.65,144.85c4.89,9.93,7.96,20.64,11,31.29,1.05,3.67,2.1,7.39,2.13,11.2,.03,3.86-.98,7.64-2.17,11.31-.55,1.71-1.18,3.46-2.42,4.75-1.79,1.85-4.51,2.39-7.05,2.84-2.99,.53-6.29,1.01-8.89-.57-1.29-.79-2.26-2.01-3.11-3.26-4.17-6.21-5.91-13.83-5.84-21.3s1.86-14.84,4.28-21.91c1.75-5.12,4.53-10.77,9.78-12.07"/>
      <ellipse class="cls-21" cx="171.83" cy="183.23" rx="16.71" ry="22.93"/>
      <rect class="cls-2" x=".75" y="203.7" width="222.66" height="9.34"/>
      <rect class="cls-4" x=".75" y="209.09" width="222.66" height="3.15"/>
      <path class="cls-25" d="M175.29,193.24v8.29c0,1.19-.96,2.15-2.15,2.15H65.19c-1.19,0-2.15-.96-2.15-2.15v-8.29"/>
      <path class="cls-23" d="M175.29,187.18v8.29c0,1.19-.96,2.15-2.15,2.15H65.19c-1.19,0-2.15-.96-2.15-2.15v-8.29"/>
      <path class="cls-19" d="M173.14,204.42H65.19c-1.6,0-2.9-1.3-2.9-2.89v-8.29h1.49v8.29c0,.77,.63,1.4,1.4,1.4h107.95c.77,0,1.4-.63,1.4-1.4v-8.29h1.49v8.29c0,1.6-1.3,2.89-2.89,2.89h.01Z"/>
      <rect class="cls-25" x="56.14" y="115.82" width="127.04" height="77.44" rx="8.4" ry="8.4"/>
      <path class="cls-24" d="M182.68,139.04v45.58c0,4.64-3.76,8.4-8.4,8.4H64.04c-4.64,0-8.4-3.76-8.4-8.4v-4.53c69.45-2.8,108.83-26.21,127.04-41.04h0Z"/>
      <path class="cls-24" d="M182.68,126.86v57.76c0,4.64-3.76,8.4-8.4,8.4H64.04c-4.64,0-8.4-3.76-8.4-8.4v-18.46c69.45-2.8,108.83-24.47,127.04-39.3h0Z"/>
      <path class="cls-19" d="M173.14,204.42H65.19c-1.6,0-2.9-1.3-2.9-2.89v-8.29h1.49v8.29c0,.77,.63,1.4,1.4,1.4h107.95c.77,0,1.4-.63,1.4-1.4v-8.29h1.49v8.29c0,1.6-1.3,2.89-2.89,2.89h.01Z"/>
      <path class="cls-19" d="M222.46,213.79H1.69c-.93,0-1.69-.76-1.69-1.69v-7.45c0-.93,.76-1.69,1.69-1.69H14.2c.41,0,.75,.33,.75,.75s-.33,.75-.75,.75H1.69c-.11,0-.2,.09-.2,.2v7.45c0,.11,.09,.2,.2,.2H222.46c.11,0,.2-.09,.2-.2v-7.45c0-.11-.09-.2-.2-.2h-16.07c-.41,0-.75-.33-.75-.75s.33-.75,.75-.75h16.07c.93,0,1.69,.76,1.69,1.69v7.45c0,.93-.76,1.69-1.69,1.69h0Z"/>
      <path class="cls-19" d="M199.84,204.45H32.19c-.41,0-.75-.33-.75-.75s.33-.75,.75-.75H199.84c.41,0,.75,.33,.75,.75s-.33,.75-.75,.75Z"/>
      <path class="cls-19" d="M27.34,204.45h-5.22c-.41,0-.75-.33-.75-.75s.33-.75,.75-.75h5.22c.41,0,.75,.33,.75,.75s-.33,.75-.75,.75Z"/>
      <path class="cls-19" d="M192.5,186.88c-.39,0-.72-.3-.74-.7-.2-2.97-.71-6.35-1.52-10.06-.09-.4,.17-.8,.57-.89,.4-.09,.8,.17,.89,.57,.83,3.78,1.35,7.24,1.55,10.28,.03,.41-.28,.77-.69,.79h-.06Z"/>
      <path class="cls-19" d="M189.95,172.49c-.33,0-.63-.22-.72-.56-1.58-6.07-3.58-11.96-5.18-16.68-.66-1.94-1.25-3.68-1.72-5.16-.12-.39,.09-.81,.49-.94,.4-.12,.81,.09,.94,.49,.47,1.47,1.06,3.2,1.71,5.13,1.62,4.75,3.63,10.67,5.22,16.79,.1,.4-.14,.81-.53,.91-.06,.02-.13,.02-.19,.02h-.02Z"/>
      <path class="cls-19" d="M187.39,203.96c-.29,0-.57-.17-.69-.46-.16-.38,.03-.82,.41-.97,.19-.08,4.72-2.14,4.72-11.59,0-.41,.33-.75,.75-.75s.75,.33,.75,.75c0,10.53-5.41,12.88-5.64,12.97-.09,.04-.19,.06-.28,.06h-.02Z"/>
      <g>
        <path class="cls-19" d="M61.02,125.61c-.12,0-.24-.06-.31-.16-.12-.17-.07-.4,.1-.52l3.66-2.5c.17-.11,.4-.07,.52,.1,.12,.17,.07,.4-.1,.52l-3.66,2.5c-.06,.04-.14,.07-.21,.07h0Z"/>
        <path class="cls-19" d="M60.63,127.76c-.12,0-.24-.06-.31-.17-.11-.17-.06-.4,.11-.52l2.77-1.8c.17-.11,.4-.06,.52,.11,.11,.17,.06,.4-.11,.52l-2.77,1.8c-.06,.04-.13,.06-.2,.06h-.01Z"/>
      </g>
      <g>
        <path class="cls-19" d="M172.56,187.03c-.12,0-.24-.06-.31-.16-.12-.17-.07-.4,.1-.52l3.66-2.5c.17-.11,.4-.07,.52,.1,.12,.17,.07,.4-.1,.52l-3.66,2.5c-.06,.04-.14,.07-.21,.07h0Z"/>
        <path class="cls-19" d="M172.17,189.18c-.12,0-.24-.06-.31-.17-.11-.17-.06-.4,.11-.52l2.77-1.8c.17-.11,.4-.06,.52,.11,.11,.17,.06,.4-.11,.52l-2.77,1.8c-.06,.04-.13,.06-.2,.06h-.01Z"/>
      </g>
      <circle class="cls-19" cx="18.36" cy="203.75" r="1.03"/>
      <path class="cls-5" d="M17.7,207.46H9.04c-.41,0-.75-.33-.75-.75s.33-.75,.75-.75h8.66c.41,0,.75,.33,.75,.75s-.33,.75-.75,.75Z"/>
      <circle class="cls-5" cx="6.09" cy="206.71" r="1.11"/>
      <g>
        <path class="cls-19" d="M68.73,200.95c-.31,0-.56-.25-.56-.56v-4.18c0-.31,.25-.56,.56-.56s.56,.25,.56,.56v4.18c0,.31-.25,.56-.56,.56Z"/>
        <path class="cls-19" d="M72.48,200.95c-.31,0-.56-.25-.56-.56v-4.18c0-.31,.25-.56,.56-.56s.56,.25,.56,.56v4.18c0,.31-.25,.56-.56,.56Z"/>
        <path class="cls-19" d="M76.22,200.95c-.31,0-.56-.25-.56-.56v-4.18c0-.31,.25-.56,.56-.56s.56,.25,.56,.56v4.18c0,.31-.25,.56-.56,.56Z"/>
      </g>
      <g>
        <path class="cls-19" d="M161.53,200.95c-.31,0-.56-.25-.56-.56v-4.18c0-.31,.25-.56,.56-.56s.56,.25,.56,.56v4.18c0,.31-.25,.56-.56,.56Z"/>
        <path class="cls-19" d="M165.28,200.95c-.31,0-.56-.25-.56-.56v-4.18c0-.31,.25-.56,.56-.56s.56,.25,.56,.56v4.18c0,.31-.25,.56-.56,.56Z"/>
        <path class="cls-19" d="M169.03,200.95c-.31,0-.56-.25-.56-.56v-4.18c0-.31,.25-.56,.56-.56s.56,.25,.56,.56v4.18c0,.31-.25,.56-.56,.56Z"/>
      </g>
      <g>
        <path class="cls-14" d="M89.22,118.8h-22.95c-.7,0-1.26-.57-1.26-1.26s.57-1.26,1.26-1.26h22.95c.7,0,1.26,.57,1.26,1.26s-.57,1.26-1.26,1.26Z"/>
        <path class="cls-5" d="M80.8,118.8h-6.76c-.7,0-1.26-.57-1.26-1.26s.57-1.26,1.26-1.26h6.76c.7,0,1.26,.57,1.26,1.26s-.57,1.26-1.26,1.26Z"/>
      </g>
      <path class="cls-19" d="M174.29,194.01H64.04c-5.04,0-9.14-4.1-9.14-9.14v-60.65c0-5.04,4.1-9.14,9.14-9.14h34.29c.41,0,.75,.33,.75,.75s-.33,.75-.75,.75h-34.29c-4.22,0-7.65,3.43-7.65,7.65v60.65c0,4.22,3.43,7.65,7.65,7.65h110.25c4.22,0,7.65-3.43,7.65-7.65v-60.65c0-4.22-3.43-7.65-7.65-7.65h-35.17c-.41,0-.75-.33-.75-.75s.33-.75,.75-.75h35.17c5.04,0,9.14,4.1,9.14,9.14v60.65c0,5.04-4.1,9.14-9.14,9.14h0Z"/>
      <path class="cls-19" d="M135.36,116.82h-33.38c-.5,0-.91-.41-.91-.91s.41-.91,.91-.91h33.38c.5,0,.91,.41,.91,.91s-.41,.91-.91,.91Z"/>
      <path class="cls-15" d="M129.86,86.8v8.14c0,6.46-5.24,11.7-11.7,11.7h0c-6.46,0-11.7-5.24-11.7-11.7v-6.87l23.4-1.27Z"/>
      <path class="cls-1" d="M148.44,44.76l1.05,23.62c.03,3.2,.54,4.65-.72,7.34-1.06,5.89-3.77,10.08-6.87,13.65-3.95,4.53-9.74,7.18-13.56,9.45-2.66,.76-6.25,2.17-9.19,2.19l.06,.06c-3.33,.03-6.54-1.68-10.06-2.15-4.84-2.77-11.73-7.06-15.52-11.51-5.68-6.67-6.46-13.26-6.01-18.39l.38-18.55-.04-5.18c-.08-10.82,4.6-20.89,13.78-26.61l.1-.06c9.93-6.18,22.48-6.25,32.48-.2h0c9.23,5.58,14.03,15.56,14.12,26.34h0Z"/>
      <g>
        <path class="cls-15" d="M120.1,92.08c-.12,0-.25-.03-.36-.1-.04-.02-1.88-1.03-3.3-.04-.33,.23-.78,.15-1.01-.18s-.15-.78,.18-1.01c2.19-1.54,4.75-.1,4.85-.04,.35,.2,.46,.64,.27,.99-.13,.23-.38,.36-.63,.36v.02Z"/>
        <circle class="cls-15" cx="117.91" cy="93.77" r=".82"/>
      </g>
      <path class="cls-19" d="M134.35,19.21c-.13,0-.26-.03-.38-.11-9.35-5.75-21.1-6-30.68-.66-.35,.19-.79,.07-.98-.28s-.07-.79,.28-.98c10.04-5.6,22.35-5.34,32.15,.69,.34,.21,.45,.65,.24,.99-.14,.22-.37,.34-.62,.34h0Z"/>
      <g>
        <path class="cls-16" d="M108.46,46.5h21c.58,0,.58-.9,0-.9h-21c-.58,0-.58,.9,0,.9h0Z"/>
        <path class="cls-16" d="M112.96,44.25h10.93c.58,0,.58-.9,0-.9h-10.93c-.58,0-.58,.9,0,.9h0Z"/>
        <path class="cls-16" d="M114.67,42h7.5c.58,0,.58-.9,0-.9h-7.5c-.58,0-.58,.9,0,.9h0Z"/>
      </g>
      <path class="cls-15" d="M118.51,101.55l-9.06-2.06c-.21-.08-21.02-8.58-21.77-26.65-.02-.48,.35-.88,.83-.9,.47-.02,.88,.35,.9,.83,.29,7.08,3.84,13.44,10.53,18.92,4.76,3.89,9.51,5.93,10.09,6.17l8.48,1.92,8.67-1.94c.47-.1,.93,.19,1.04,.66s-.19,.93-.66,1.04l-9.05,2.02h0Z"/>
      <path class="cls-19" d="M120.05,101.76c-.35,0-.67-.24-.75-.6-.09-.41,.16-.83,.58-.92l7.5-1.72c.55-.23,5.33-2.27,10.12-6.18,6.72-5.5,10.28-11.89,10.57-18.99,.02-.42,.39-.74,.8-.74,.42,.02,.75,.38,.74,.8-.75,18-21.5,26.48-21.71,26.56-.04,.01-.07,.03-.11,.04l-7.56,1.74c-.06,.01-.12,.02-.17,.02h-.01Z"/>
      <path class="cls-19" d="M115.91,101.76c-.06,0-.12,0-.17-.02l-7.56-1.74s-.08-.02-.11-.04c-.21-.08-20.96-8.56-21.71-26.56-.02-.42,.31-.78,.74-.8,.45,0,.78,.31,.8,.74,.29,7.11,3.85,13.5,10.57,18.99,4.79,3.92,9.57,5.96,10.12,6.18l7.5,1.72c.41,.1,.67,.51,.58,.92-.08,.36-.4,.6-.75,.6h-.01Z"/>
      <g>
        <polyline class="cls-5" points="122.12 60.49 133.67 63.61 137.8 60.28 136.92 58.34 132.58 56.33 122.12 58.09"/>
        <g>
          <path class="cls-19" d="M136.7,58.91c-.09,0-.18-.02-.27-.06l-4.06-2-9.72,1.76c-.33,.06-.65-.16-.71-.49-.06-.33,.16-.65,.49-.71l9.92-1.79c.13-.02,.26,0,.38,.05l4.24,2.09c.3,.15,.43,.51,.28,.82-.11,.22-.32,.34-.55,.34h0Z"/>
          <path class="cls-19" d="M133.68,64.25c-.05,0-.11,0-.16-.02l-11.68-3.22c-.33-.09-.52-.43-.43-.75,.09-.33,.43-.52,.75-.43l11.38,3.14,3.81-3.11c.26-.21,.65-.18,.86,.09,.21,.26,.18,.65-.09,.86l-4.05,3.31c-.11,.09-.25,.14-.39,.14h0Z"/>
        </g>
      </g>
      <path class="cls-19" d="M129.34,62.83h0c-1.07-.21-1.84-1.15-1.84-2.23v-1.79c0-1.26,1.02-2.28,2.28-2.28h0c1.26,0,2.28,1.02,2.28,2.28v1.79c0,1.43-1.31,2.51-2.72,2.23Z"/>
      <circle class="cls-5" cx="131.95" cy="59.35" r="1.19"/>
      <g>
        <polyline class="cls-5" points="113.69 60.49 102.14 63.61 98.01 60.28 98.89 58.34 103.23 56.33 113.69 58.09"/>
        <g>
          <path class="cls-19" d="M99.11,58.91c-.22,0-.44-.12-.55-.34-.15-.3-.02-.67,.28-.82l4.24-2.09c.12-.06,.25-.07,.38-.05l9.92,1.79c.33,.06,.55,.38,.49,.71-.06,.33-.38,.56-.71,.49l-9.72-1.76-4.06,2c-.09,.04-.18,.06-.27,.06h0Z"/>
          <path class="cls-19" d="M102.13,64.25c-.14,0-.28-.05-.39-.14l-4.05-3.31c-.26-.21-.3-.6-.09-.86,.21-.26,.6-.3,.86-.09l3.81,3.11,11.38-3.14c.32-.09,.66,.1,.75,.43s-.1,.66-.43,.75l-11.68,3.22c-.05,.01-.11,.02-.16,.02h0Z"/>
        </g>
      </g>
      <path class="cls-19" d="M106.47,62.83h0c1.07-.21,1.84-1.15,1.84-2.23v-1.79c0-1.26-1.02-2.28-2.28-2.28h0c-1.26,0-2.28,1.02-2.28,2.28v1.79c0,1.43,1.31,2.51,2.72,2.23Z"/>
      <circle class="cls-5" cx="103.86" cy="59.35" r="1.19"/>
      <g>
        <path class="cls-15" d="M123.12,55.56c-.11,0-.21-.03-.3-.1-.22-.17-.26-.48-.1-.7l1.29-1.71c.08-.11,.2-.18,.34-.19l13.56-1.68c.26-.04,.52,.16,.56,.43s-.16,.52-.43,.56l-13.35,1.66-1.16,1.54c-.1,.13-.25,.2-.4,.2h0Z"/>
        <path class="cls-19" d="M121.91,55.26c-.19,0-.39-.06-.55-.19-.39-.3-.46-.87-.15-1.26l1.79-2.3c.15-.19,.36-.31,.6-.34l14.48-1.71c.5-.05,.94,.29,1,.78,.06,.49-.29,.94-.78,1l-14.11,1.67-1.56,2c-.18,.23-.44,.34-.71,.34h0Z"/>
      </g>
      <g>
        <path class="cls-15" d="M113.42,55.56c-.15,0-.3-.07-.4-.2l-1.16-1.54-13.35-1.66c-.27-.03-.47-.28-.43-.56s.29-.47,.56-.43l13.56,1.68c.13,.02,.26,.09,.34,.2l1.29,1.71c.17,.22,.12,.53-.1,.7-.09,.07-.2,.1-.3,.1h0Z"/>
        <path class="cls-19" d="M114.64,55.26c-.27,0-.53-.12-.71-.34l-1.57-2-14.11-1.67c-.49-.06-.84-.5-.78-1,.06-.49,.5-.83,1-.78l14.48,1.71c.24,.03,.45,.15,.6,.34l1.79,2.3c.3,.39,.24,.95-.15,1.26-.16,.13-.36,.19-.55,.19h0Z"/>
      </g>
      <path class="cls-19" d="M119.75,74.6c-.33,0-.59-.26-.59-.59,0-1.51-1.28-5.81-1.77-7.34-.1-.31,.07-.64,.38-.74s.64,.07,.74,.38c.07,.23,1.83,5.7,1.83,7.7,0,.33-.26,.59-.59,.59h0Z"/>
      <path class="cls-19" d="M118.1,78.77c-1.62,0-2.95-.75-3.03-.79-.28-.16-.38-.52-.22-.8,.16-.28,.52-.38,.8-.22,.03,.01,2.49,1.39,4.43,.03,.27-.19,.63-.12,.82,.14,.19,.27,.12,.63-.14,.82-.88,.62-1.81,.82-2.66,.82Z"/>
      <path class="cls-19" d="M126.45,84.59h-15.81c-.09,0-.18-.02-.26-.06l-2.02-1.01c-.29-.15-.41-.5-.26-.79s.5-.41,.79-.26l1.9,.95h15.52l1.77-.94c.29-.15,.64-.04,.8,.24s.04,.64-.24,.8l-1.9,1.01c-.08,.05-.18,.07-.28,.07h-.01Z"/>
      <path class="cls-19" d="M115.36,90.23c-.19,0-.37-.09-.48-.25-.19-.27-.12-.63,.14-.82,2.56-1.8,5.57-.1,5.69-.03,.28,.16,.38,.52,.22,.8-.16,.28-.53,.38-.8,.22-.02-.01-2.49-1.39-4.43-.03-.1,.07-.22,.11-.34,.11h0Z"/>
      <g>
        <circle class="cls-5" cx="80.66" cy="137.31" r="10.54"/>
        <g>
          <path class="cls-22" d="M88.59,137.3c0-1.1-1.21-2.05-3.33-2.65,.54-2.13,.32-3.66-.63-4.21-.93-.54-2.4,.04-3.96,1.56-1.56-1.52-3.03-2.1-3.96-1.56-.95,.55-1.17,2.07-.63,4.21-2.12,.6-3.33,1.55-3.33,2.65s1.21,2.05,3.33,2.65c-.55,2.13-.32,3.66,.63,4.21,.24,.14,.52,.21,.8,.2,.88,0,2-.62,3.17-1.76,1.17,1.14,2.29,1.76,3.17,1.76,.28,0,.55-.07,.8-.2,.95-.55,1.17-2.07,.63-4.21,2.12-.6,3.33-1.55,3.33-2.65h-.02Zm-7.93,4.34c-.34-.37-.66-.75-.96-1.14,.32,.02,.64,.03,.96,.03s.63,0,.96-.03c-.3,.4-.62,.78-.96,1.14Zm0-8.68c.34,.37,.66,.75,.96,1.14-.64-.03-1.27-.03-1.91,0,.3-.4,.62-.78,.96-1.14h0Zm-1.45,6.85c-.55-.8-1.03-1.64-1.45-2.51,.42-.87,.9-1.71,1.45-2.51,.97-.07,1.94-.07,2.9,0,.55,.8,1.03,1.64,1.45,2.51-.42,.87-.9,1.71-1.45,2.51-.98,.07-1.93,.07-2.9,0Zm-1.35-4.12c-.16,.28-.31,.56-.46,.84-.19-.46-.36-.92-.51-1.4,.49-.11,.98-.19,1.47-.26-.17,.27-.34,.54-.5,.81h0Zm-.46,2.4c.15,.28,.3,.56,.46,.84,.16,.28,.33,.55,.5,.81-.51-.06-1-.15-1.47-.25,.15-.47,.32-.94,.51-1.4Zm6.51,0c.19,.46,.36,.92,.51,1.4-.49,.11-.97,.19-1.47,.25,.35-.53,.66-1.09,.96-1.65Zm0-1.55c-.29-.57-.61-1.12-.96-1.65,.49,.06,.98,.15,1.47,.26-.15,.47-.32,.94-.51,1.4h0Zm.38-5.52c.66,.38,.77,1.69,.32,3.47-.67-.15-1.38-.26-2.14-.33h0c-.41-.59-.87-1.15-1.35-1.68,1.29-1.26,2.52-1.84,3.17-1.46Zm-7.27,0c.13-.08,.29-.11,.47-.11,.7,0,1.67,.57,2.71,1.57-.49,.53-.94,1.09-1.36,1.68-.72,.06-1.43,.17-2.14,.33-.45-1.78-.34-3.09,.32-3.47Zm-3.63,6.28c0-.76,1.08-1.52,2.85-2.01,.22,.69,.48,1.36,.78,2.01h0c-.3,.65-.56,1.32-.78,2.01-1.77-.5-2.85-1.26-2.85-2.01Zm3.63,6.28c-.66-.38-.77-1.7-.32-3.47,.7,.16,1.42,.27,2.14,.33h0c.41,.59,.87,1.15,1.36,1.68-1.29,1.26-2.52,1.83-3.17,1.46h-.01Zm7.27,0c-.13,.08-.29,.11-.47,.11h0c-.7,0-1.67-.57-2.71-1.57,.49-.53,.94-1.09,1.35-1.68h0c.72-.06,1.43-.17,2.14-.33,.45,1.78,.34,3.09-.32,3.47h.01Zm.78-4.27c-.2-.65-.46-1.32-.78-2.01h0c.3-.65,.56-1.32,.78-2.01,1.77,.5,2.85,1.26,2.85,2.01s-1.08,1.52-2.85,2.01Z"/>
          <circle class="cls-22" cx="80.66" cy="137.31" r="1.41"/>
        </g>
        <path class="cls-18" d="M80.66,148.35c-1.07,0-2.12-.15-3.14-.45-.26-.08-.42-.36-.34-.62s.36-.41,.62-.34c.92,.27,1.88,.41,2.86,.41,5.54,0,10.04-4.5,10.04-10.04s-4.5-10.04-10.04-10.04-10.04,4.5-10.04,10.04c0,.59,.05,1.17,.15,1.75,.05,.27-.13,.53-.41,.58-.27,.05-.53-.13-.58-.41-.11-.63-.17-1.28-.17-1.92,0-6.09,4.95-11.04,11.04-11.04s11.04,4.95,11.04,11.04-4.95,11.04-11.04,11.04h0Z"/>
        <path class="cls-18" d="M71.06,142.16c-.19,0-.37-.11-.46-.29-.1-.22-.2-.45-.28-.68-.1-.26,.03-.55,.29-.64,.26-.1,.55,.03,.64,.29,.08,.21,.17,.42,.26,.62,.11,.25,0,.55-.25,.66-.07,.03-.14,.04-.21,.04h0Z"/>
        <path class="cls-18" d="M75.56,147.03c-.08,0-.17-.02-.24-.06-1.49-.83-2.79-2-3.75-3.41-.16-.23-.1-.54,.13-.7,.22-.16,.54-.1,.7,.13,.88,1.28,2.06,2.35,3.42,3.1,.24,.13,.33,.44,.2,.68-.09,.17-.26,.26-.44,.26h-.02Z"/>
      </g>
      <path class="cls-3" d="M161.84,157.45h0c.25-.67,.22-1.38-.1-2.11,0,0,0-.02,0-.03h0l-.02-.03h0l-.18-.37h0l-.02-.06h0s-.02-.03-.03-.04c-.64-1.03-1.97-2.22-4.74-2.62-.07-1.23,.26-2.02,1.24-2.98,.17-.17,.18-.33,.02-.52-.31-.38-.91-.58-1.35-.68-.21-.05-.37,0-.49,.14-.85,1.03-2.12,1.71-3.35,2.36l-.07,.04c.05-1.13,.5-1.79,1.26-2.51,.15-.14,.17-.29,.05-.46-.34-.48-1.11-.67-1.43-.74-.4-.08-1.26,.66-2.27,1.57-.25,.23-.47,.42-.58,.51-.27,.2-.55,.43-.84,.68-.67,.57-1.42,1.2-2.16,1.46,.03-.47,.61-.93,1.18-1.37,.67-.53,1.31-1.02,1.18-1.62-.04-.19-.15-.35-.32-.46-.11-.07-.23-.11-.35-.12,.19-.28,.31-.51,.38-.84,.09-.47-.12-.86-.57-1.08-1.02-.5-2.27-.19-3.14,.15-.58,.23-1.54,.14-2.39,.05-.34-.03-.65-.06-.93-.07-.2-.48-.48-1.01-.79-1.57-.85-1.57-1.82-3.34-1.16-4.73,.97-2.04,3.99-2.27,6.51-2.24,1.91,.02,3.48,.2,4.82,.54,1.87,.48,3.24,1.3,4.07,2.42,.45,.62,.4,1.41-.13,1.98-1.38,1.48-3.95,1.65-5.91,1.31-1.18-.21-2.11-.52-2.84-.96-.92-.55-1.45-1.43-1.67-1.81-.03-.06-.07-.13-.12-.18h0c-.05-.06-.13-.07-.19-.05-.11,.05-.15,.19-.16,.27-.12,1.01,.27,1.89,1.15,2.62,.29,.23,.6,.44,.94,.61,2.32,1.21,5.98,1.42,7.65,.89,1.13-.36,2.08-.85,3-2.07,.96-1.27,.52-2.74-.21-3.68-1.78-2.3-4.66-3.26-6.76-3.67-2.46-.47-5.27-.45-7.71,.05-3,.62-4.6,1.81-4.74,3.56-.15,1.79,.89,3.5,1.89,5.15,.32,.53,.63,1.04,.89,1.53-.15,0-.31,0-.47,0-1.54-.05-3.28-.1-4.63,.6-.98,.51-1.51,1.26-1.56,2.22-.03,.51,.16,.97,.56,1.35,.21,.2,.44,.36,.7,.49,.91,.47,2.1,.63,2.82,.57,1.28-.1,2.32-.59,3.11-1.44,.7-.76,1.1-1.67,1.17-2.64l1.49,.02c-1.56,1.59-1.71,2.95-1.56,3.82,.06,.32,.3,.63,.66,.82s.75,.23,1.05,.1c.58-.25,1.1-.62,1.6-1.01-.19,.32-.34,.67-.38,1.01-.03,.31,.05,.57,.23,.74,.19,.19,.49,.27,.84,.23,1.58-.19,3.38-1.69,4.82-2.89,.2-.17,.4-.34,.59-.49-.14,.65-.2,1.31-.2,1.97,0,.14-.03,.19-.16,.24-.2,.07-.46,.15-.74,.23-.85,.24-1.9,.54-2.3,1.08-.16,.22-.11,.52,.12,.7,.68,.55,1.71,.81,2.76,.69,.95-.11,1.56-.63,1.81-1.54,.24-.88,1.15-1.66,2.71-2.3-.19,.74-.25,1.38-.21,2h0c-1.02,.25-2.42,.58-2.8,1.68-.08,.21-.06,.44,.04,.64,.11,.21,.3,.36,.53,.42,1.02,.29,1.91,.26,2.73-.08s.98-1.11,1.09-1.72c1.5,.33,2.66,.95,3.56,1.89,.5,.53,.77,1.11,.77,1.72,0,.77-.45,1.23-1.3,1.3-.26,.02-.39,.05-.45,.14-.03,.04-.03,.1,0,.14,.04,.1,.21,.32,.9,.27,.63-.05,1.12-.31,1.45-.78,.09-.13,.16-.27,.22-.42l-.05,.02Zm-21.68-9.65l-.04,.06c-.48,.73-1.22,1.19-2.21,1.39-.62,.12-1.2,.09-1.64-.09-.31-.13-.5-.28-.57-.45-.05-.13-.04-.28,.03-.45,.61-1.38,3.41-1.62,4.82-1.44-.07,.34-.2,.67-.39,.97h0Zm7.35-.96h0c-.77,1.01-2.43,2.8-3.75,3.15-.06,.02-.11,0-.12,0s-.02-.04,0-.07c.06-.84,.78-1.95,1.71-2.63,.71-.52,1.45-.73,2.08-.59,.03,0,.05,0,.08,.03,.02,0,.04,.02,.05,.04,0,.03,0,.05-.03,.08h-.01Zm2.28,6.32c-.26,.09-.48-.06-.39-.09l1.33-.46c-.23,.28-.57,.43-.94,.55h0Zm3.95,1.06c-.1,0-.2-.02-.3-.06,.22-.49,.97-.78,1.61-.9-.14,.56-.66,.96-1.31,.97h0Z"/>
      <g>
        <rect class="cls-5" x="129.66" y="157.63" width="16.09" height="28.52" rx=".87" ry=".87" transform="translate(-60.49 267.95) rotate(-77.16)"/>
        <path class="cls-18" d="M124.44,166.35s-.07,0-.11,0c-.27-.06-.44-.33-.38-.6l.94-4.12c.08-.36,.3-.66,.61-.86,.31-.19,.67-.26,1.03-.18l6.37,1.45c.27,.06,.44,.33,.38,.6s-.33,.44-.6,.38l-6.37-1.45c-.19-.04-.4,.08-.44,.28l-.94,4.12c-.05,.23-.26,.39-.49,.39h0Z"/>
        <path class="cls-18" d="M126.11,178.01s-.07,0-.11,0l-3.27-.75c-.36-.08-.66-.3-.86-.61-.19-.31-.26-.68-.18-1.03l1.75-7.67c.06-.27,.33-.44,.6-.38s.44,.33,.38,.6l-1.75,7.67c-.02,.1,0,.2,.05,.28s.13,.14,.23,.16l3.27,.75c.27,.06,.44,.33,.38,.6-.05,.23-.26,.39-.49,.39h0Z"/>
        <path class="cls-18" d="M149.14,183.24c-.1,0-.2,0-.3-.03l-20.15-4.59c-.27-.06-.44-.33-.38-.6s.33-.44,.6-.38l20.15,4.59c.2,.04,.4-.08,.44-.28l3.19-13.99c.02-.1,0-.2-.05-.28s-.13-.14-.23-.16l-8.87-2.02c-.27-.06-.44-.33-.38-.6s.33-.44,.6-.38l8.86,2.02c.36,.08,.66,.3,.86,.61s.26,.68,.18,1.03l-3.19,13.99c-.15,.63-.71,1.07-1.34,1.07h0Z"/>
        <path class="cls-18" d="M141.6,165.04s-.07,0-.11,0l-6.81-1.55c-.27-.06-.44-.33-.38-.6s.33-.44,.6-.38l6.81,1.55c.27,.06,.44,.33,.38,.6-.05,.23-.26,.39-.49,.39Z"/>
        <g>
          <path class="cls-18" d="M133.54,167.93c-.43-.36-.98-.62-1.65-.77l-.66-.15-.54-.12-.98-.22-1.39,6.11,.98,.22,.54,.12,.66,.15c.67,.15,1.28,.16,1.82,.02,.55-.14,1.01-.41,1.38-.8,.37-.4,.63-.91,.77-1.53s.13-1.2-.03-1.72-.46-.95-.89-1.32h-.01Zm-.94,3.49c-.15,.2-.32,.35-.52,.45s-.41,.15-.64,.16c-.23,0-.46,0-.7-.07l-.61-.14,.8-3.49,.61,.14c.23,.05,.45,.13,.66,.24s.37,.25,.51,.42,.23,.38,.27,.63c.05,.25,.03,.54-.04,.87s-.19,.6-.34,.8h0Z"/>
          <polygon class="cls-18" points="137.08 168.34 136.1 168.12 134.71 174.23 135.69 174.46 136.13 174.56 138.77 175.16 139.05 173.95 136.4 173.34 136.72 171.94 139.19 172.5 139.46 171.31 136.99 170.75 137.24 169.66 139.89 170.26 140.16 169.05 137.52 168.44 137.08 168.34"/>
          <polygon class="cls-18" points="145.42 170.25 143.09 173.55 142.43 169.57 140.71 169.17 142.45 176.4 147.15 170.64 145.42 170.25"/>
        </g>
      </g>
      <g>
        <path class="cls-5" d="M95.64,37.14c.87-2.74,2.39-5.36,4.31-7.5,.44-.49,.49-1.25,0-1.74-.45-.45-1.29-.5-1.74,0-2.24,2.49-3.93,5.39-4.95,8.59-.19,.61,.23,1.37,.86,1.51,.67,.15,1.3-.2,1.51-.86h0Z"/>
        <circle class="cls-5" cx="102.27" cy="26.1" r="1.47"/>
      </g>
      <path class="cls-30" d="M87.39,26.45s.63-5.17,4.18-7.11c1.89-1.03,4.66-7.29,9.6-11.85,4.35-4.02,10.53-6.45,17.3-6.45,14.46,0,24.78,16.72,24.78,16.72,0,0,5.16,5.1,6.09,8.3"/>
      <path class="cls-30" d="M118.2,32.26c-22.26,0-33.43,10.4-33.43,10.4-2.98,0-.07-3.68-.07-6.56,0-1.4-.37-2.93-.76-4.12-.43-1.35,.2-2.8,1.48-3.48,7.46-3.96,32.32-14.6,63.46-.77,1.4,.62,2.11,2.15,1.67,3.57-.36,1.16-.68,2.58-.68,3.89,0,2.88,2.91,7.47-.07,7.47,0,0-8.95-10.3-31.21-10.3"/>
      <path class="cls-18" d="M135.16,15.22h-.07c-.27-.04-.46-.29-.43-.56,.42-3.15-.21-5.5-.22-5.52-.07-.26,.08-.54,.35-.61,.26-.07,.54,.08,.61,.35,.03,.1,.69,2.56,.24,5.92-.03,.25-.25,.43-.49,.43h0Z"/>
      <path class="cls-29" d="M91.66,28.43c6.25-2.83,12.98-4.56,19.81-5.14,1.75-.15,1.77-2.9,0-2.75-7.35,.62-14.48,2.48-21.19,5.52-1.61,.73-.21,3.1,1.39,2.37h0Z"/>
      <path class="cls-18" d="M94.1,32.46c-.27,0-.53-.16-.63-.42-1.27-3.07-1.11-7.08-1.1-7.25,.02-.38,.33-.65,.72-.66,.38,.02,.67,.34,.66,.72,0,.04-.15,3.88,1,6.66,.15,.35-.02,.75-.37,.9-.09,.04-.17,.05-.26,.05h-.02Z"/>
      <path class="cls-18" d="M103.13,34.33c-.27,0-.53-.16-.63-.42-1.27-3.08-1.11-7.08-1.1-7.25,.02-.38,.36-.65,.72-.66,.38,.02,.67,.34,.66,.72,0,.04-.15,3.88,1,6.66,.15,.35-.02,.75-.37,.9-.09,.04-.17,.05-.26,.05h-.02Z"/>
      <path class="cls-29" d="M117.4,23.2c6.15-.1,12.16,2.12,18.33,1.36,.74-.09,1.37-.57,1.37-1.37,0-.67-.63-1.47-1.37-1.37-6.17,.76-12.18-1.46-18.33-1.36-1.77,.03-1.77,2.78,0,2.75h0Z"/>
      <path class="cls-29" d="M142.48,27.1c2.49,.07,5.37,1.47,5.68,4.23,.09,.77-.06,1.56-.11,2.32-.06,.82-.04,1.64,.03,2.46,.16,1.78,.55,3.52,.95,5.25s3.05,.99,2.65-.73c-.43-1.87-.88-3.75-.92-5.68-.04-1.8,.43-3.58-.2-5.33-1.23-3.4-4.61-5.17-8.08-5.27-1.77-.05-1.77,2.7,0,2.75h0Z"/>
      <path class="cls-18" d="M144.67,38.57c-.09,0-.18-.02-.26-.05-.35-.14-.52-.55-.37-.9,1.15-2.79,1-6.63,1-6.66-.02-.38,.28-.7,.66-.72,.38,0,.7,.28,.72,.66,0,.17,.17,4.17-1.1,7.25-.11,.26-.37,.42-.63,.42h-.02Z"/>
      <path class="cls-5" d="M100.53,10.64c.84-.62,1.56-1.34,2.33-2.04s1.6-1.24,2.44-1.82c1.72-1.19,3.5-2.32,5.46-3.07,.52-.2,.88-.69,.72-1.27-.14-.5-.75-.92-1.27-.72-2.07,.79-3.97,1.91-5.8,3.17-.88,.61-1.79,1.21-2.61,1.9s-1.48,1.46-2.32,2.07c-.45,.33-.67,.89-.37,1.41,.26,.44,.96,.7,1.41,.37h0Z"/>
      <path class="cls-29" d="M96.4,23.95c4.27-1.79,8.8-2.9,13.42-3.24,.74-.05,1.37-.59,1.37-1.37,0-.7-.63-1.43-1.37-1.37-4.87,.35-9.64,1.45-14.15,3.33-.68,.29-1.17,.91-.96,1.69,.18,.65,1,1.25,1.69,.96h0Z"/>
      <path class="cls-18" d="M149.34,27.73h-.08c-.34-.04-.58-.35-.54-.7,.46-3.7-3.09-6.85-4.64-8.04-.77-.58-1.44-1.3-2.01-2.12-2.54-3.66-11.76-15.61-23.6-15.61-5.62,0-12.56,2.5-16.15,5.8-.25,.24-.65,.22-.88-.04-.23-.25-.22-.65,.04-.88,3.79-3.5,11.1-6.14,16.99-6.14,12.44,0,21.99,12.36,24.62,16.15,.49,.71,1.08,1.33,1.75,1.84,2.13,1.63,5.64,5,5.12,9.18-.04,.32-.31,.55-.62,.55h0Z"/>
      <path class="cls-18" d="M86.73,27.95h-.06c-.35-.03-.6-.34-.57-.68,.02-.26,.63-6.3,4.42-8.42,.83-.47,2.06-2.18,3.47-4.17,1.44-2.02,3.07-4.31,5.03-6.41,.24-.25,.64-.26,.89-.03,.25,.24,.27,.63,.03,.89-1.9,2.03-3.51,4.29-4.92,6.28-1.56,2.19-2.8,3.93-3.88,4.53-3.22,1.8-3.78,7.39-3.79,7.44-.03,.33-.3,.57-.62,.57Z"/>
      <path class="cls-18" d="M99.74,22.92c-.26,0-.52-.15-.63-.41-1.5-3.45,.46-9.07,.54-9.31,.13-.36,.52-.55,.88-.42s.54,.52,.42,.88c-.02,.05-1.87,5.34-.58,8.3,.15,.35,0,.75-.36,.9-.09,.04-.18,.06-.27,.06Z"/>
      <path class="cls-18" d="M109.88,21.22c-.26,0-.5-.15-.62-.39-4.79-10.34,2.32-19.3,2.39-19.39,.24-.29,.66-.33,.95-.1,.29,.24,.34,.66,.1,.96-.07,.08-6.64,8.41-2.21,17.96,.16,.34,0,.74-.33,.9-.09,.04-.19,.06-.29,.06h0Z"/>
      <path class="cls-29" d="M120.12,20.7c4.64,.87,9.32,1.48,14.03,1.83,.74,.05,1.37-.67,1.37-1.37,0-.79-.63-1.32-1.37-1.37-4.46-.33-8.9-.9-13.3-1.73-.73-.14-1.48,.2-1.69,.96-.18,.67,.23,1.55,.96,1.69h0Z"/>
      <path class="cls-18" d="M127.05,21.21c-.1,0-.19-.02-.29-.06-.34-.16-.49-.56-.33-.9,4.43-9.53-2.15-17.83-2.21-17.91-.24-.29-.19-.72,.1-.95,.29-.24,.72-.19,.95,.1,.07,.09,7.18,9.03,2.39,19.34-.12,.25-.36,.39-.62,.39h0Z"/>
      <path class="cls-18" d="M133.45,22.52c-.07,0-.14-.01-.21-.04-.25-.11-.36-.41-.25-.66,.65-1.43,1.07-2.92,1.26-4.45,.03-.27,.3-.46,.55-.43,.27,.03,.47,.28,.43,.55-.2,1.63-.66,3.22-1.34,4.74-.08,.18-.26,.29-.45,.29h.01Z"/>
      <path class="cls-18" d="M135.15,22.84c-3.55,0-6.81-.51-9.99-1-3-.46-5.83-.89-8.62-.85h0c-.36,0-.65-.29-.66-.64,0-.36,.28-.66,.64-.67,2.89-.05,5.78,.39,8.84,.87,3.8,.59,7.74,1.2,12.08,.91,.36-.02,.67,.25,.7,.61s-.25,.67-.61,.7c-.81,.05-1.6,.08-2.38,.08h.01Z"/>
      <path class="cls-18" d="M124.25,27.8c-.05,0-.11,0-.16-.02-.37-.09-.6-.46-.51-.83,.8-3.39-.19-5.26-.2-5.28-.18-.33-.06-.75,.27-.93s.75-.06,.93,.26c.05,.09,1.26,2.31,.33,6.26-.07,.32-.36,.53-.67,.53h0Z"/>
      <path class="cls-18" d="M134.59,29.58c-.06,0-.12,0-.18-.03-.37-.1-.58-.48-.48-.84,.65-2.37,.08-5.86,.07-5.9-.06-.37,.19-.73,.56-.79,.37-.06,.73,.19,.79,.56,.03,.16,.63,3.83-.1,6.49-.08,.3-.36,.5-.66,.5h0Z"/>
      <path class="cls-5" d="M88.63,37.19c1.23-2.2,1.15-5.04-.27-7.14-.3-.44-.92-.69-1.41-.37-.44,.29-.69,.93-.37,1.41,.14,.21,.27,.43,.39,.65,.02,.03,.17,.38,.09,.18,.05,.12,.09,.24,.13,.36,.08,.24,.14,.48,.19,.73,.01,.06,.02,.12,.03,.19q-.01-.12,0,0c.01,.13,.02,.25,.03,.38,.01,.25,0,.5-.01,.75,0,.06-.01,.13-.02,.19q.02-.12,0,0c-.02,.12-.04,.25-.07,.37-.06,.25-.14,.48-.22,.72-.04,.11-.05,.12,0,.02-.03,.06-.05,.12-.08,.17-.05,.11-.11,.23-.18,.34-.26,.47-.13,1.15,.37,1.41s1.13,.13,1.41-.37h0Z"/>
      <path class="cls-5" d="M105.93,29.05c2.57-.56,5.17-.94,7.8-1.14,.56-.04,1.03-.44,1.03-1.03,0-.53-.47-1.07-1.03-1.03-2.81,.21-5.6,.61-8.35,1.21-.54,.12-.86,.75-.72,1.27,.15,.56,.72,.84,1.27,.72h0Z"/>
      <path class="cls-5" d="M117.03,27.75c1.33,0,1.33-2.06,0-2.06s-1.33,2.06,0,2.06h0Z"/>
      <path class="cls-15" d="M93.66,39.95c8.19-3.61,17.12-5.34,26.06-5.14,1.93,.04,1.93-2.96,0-3-9.5-.21-18.88,1.72-27.57,5.55-1.76,.78-.24,3.36,1.51,2.59h0Z"/>
      <path class="cls-5" d="M96.73,43.77c.28-.13,.34-.15,.57-.25,.24-.1,.48-.19,.73-.28,.47-.17,.95-.33,1.43-.47,.98-.29,1.98-.5,2.99-.66,.53-.08,.88-.78,.72-1.27-.19-.58-.7-.81-1.27-.72-2.15,.33-4.22,.97-6.21,1.86-.49,.22-.65,.98-.37,1.41,.33,.51,.88,.61,1.41,.37h0Z"/>
      <path class="cls-5" d="M105.4,41.55c1.33,0,1.33-2.06,0-2.06s-1.33,2.06,0,2.06h0Z"/>
      <path class="cls-17" d="M84.82,52.84c-.2,3.91-.4,7.82-.6,11.73l-.09,1.69c-.04,.81,.72,1.5,1.5,1.5,.85,0,1.46-.69,1.5-1.5,.2-3.91,.4-7.82,.6-11.73l.09-1.69c.04-.81-.72-1.5-1.5-1.5-.85,0-1.46,.69-1.5,1.5h0Z"/>
      <path class="cls-17" d="M148.73,52.35c.15,3.91,.3,7.82,.46,11.73,.02,.56,.04,1.13,.07,1.69,.07,1.92,3.08,1.93,3,0-.15-3.91-.3-7.82-.46-11.73-.02-.56-.04-1.13-.07-1.69-.07-1.92-3.08-1.93-3,0h0Z"/>
      <path class="cls-19" d="M86.98,72h-.03c-.4-.01-.71-.35-.7-.75l1.14-31.12c.01-.4,.36-.72,.75-.7,.4,0,.71,.35,.7,.75l-1.14,31.12c-.01,.39-.33,.7-.72,.7Z"/>
      <path class="cls-19" d="M149.13,71.64c-.39,0-.71-.31-.72-.7l-1.11-30.17c-.02-.4,.3-.73,.7-.75,.42-.04,.73,.3,.75,.7l1.11,30.17c0,.4-.3,.73-.7,.75,0,0-.02,0-.03,0Z"/>
      <path class="cls-15" d="M128.15,36.11c4,.4,7.91,1.62,11.44,3.53,1.7,.92,3.21-1.67,1.51-2.59-4.03-2.18-8.41-3.49-12.96-3.94-.81-.08-1.5,.75-1.5,1.5,0,.88,.69,1.42,1.5,1.5h.01Z"/>
      <path class="cls-18" d="M129.34,33.78s-.08,0-.12,0c-3.7-.66-7.61-1-11.64-1-.36,0-.66-.29-.66-.66s.29-.66,.66-.66c4.1,0,8.1,.34,11.87,1.02,.36,.06,.59,.4,.53,.76-.06,.32-.33,.54-.64,.54h0Z"/>
      <path class="cls-18" d="M150.19,42.78c-.17,0-.33-.07-.46-.18-.06-.05-5.76-5.45-17.5-8.21-.35-.08-.57-.44-.49-.79,.08-.35,.44-.57,.79-.49,10.98,2.58,16.73,7.3,17.9,8.34,.14-.02,.27-.06,.34-.15,.32-.43-.11-1.92-.46-3.11-.35-1.2-.71-2.44-.71-3.53,0-1.17,.24-2.55,.71-4.08,.11-.34,.43-1.38-1.45-2.87-2.04-1.61-3.21-2.17-7.04-2.73-.36-.05-.61-.39-.55-.74,.05-.36,.39-.6,.74-.55,4.07,.6,5.48,1.28,7.66,3,1.71,1.35,2.35,2.79,1.89,4.28-.44,1.41-.66,2.66-.66,3.7,0,.91,.33,2.06,.66,3.17,.52,1.78,.96,3.31,.25,4.27-.34,.46-.89,.69-1.63,.69v-.02Z"/>
      <path class="cls-18" d="M85.16,42.78c-.79,0-1.36-.23-1.69-.69-.61-.84-.2-2.08,.28-3.5,.33-.98,.69-2.09,.69-3.03,0-1.08-.25-2.44-.73-3.92-.53-1.64,.23-3.43,1.79-4.25,4.54-2.41,14.1-6.59,27.12-7.54,.36-.02,.68,.25,.7,.61s-.25,.68-.61,.7c-12.79,.93-22.16,5.03-26.6,7.39-1,.53-1.49,1.67-1.16,2.7,.52,1.63,.79,3.09,.79,4.32,0,1.15-.41,2.37-.76,3.44-.28,.85-.67,2.02-.46,2.32,.04,.05,.16,.11,.38,.13,1.62-1.46,12.04-10,32.85-10,.36,0,.66,.29,.66,.66s-.29,.66-.66,.66c-21.7,0-32.05,9.73-32.15,9.83-.12,.12-.29,.18-.46,.18h.02Z"/>
    </g>
  </g>
</svg>