<?xml version="1.0" encoding="UTF-8"?>
<svg id="Layer_2" data-name="Layer 2" xmlns="http://www.w3.org/2000/svg" viewBox="0 0 209.09 218.05">
  <defs>
    <style>
      .cls-1 {
        fill: #fc5454;
      }

      .cls-2 {
        fill: #000201;
      }

      .cls-3 {
        fill: #f6bc58;
      }

      .cls-4 {
        fill: #f784dc;
      }

      .cls-5 {
        fill: #e59015;
      }

      .cls-6 {
        fill: #e8e2dd;
      }

      .cls-7, .cls-8, .cls-9, .cls-10 {
        fill: #fff;
      }

      .cls-11 {
        fill: #ffe4d7;
      }

      .cls-12 {
        fill: #f2ab83;
      }

      .cls-13 {
        fill: #97cecc;
      }

      .cls-14 {
        fill: #a0e2f9;
      }

      .cls-15, .cls-16 {
        fill: #9fd3d3;
      }

      .cls-17 {
        fill: #b3ffa1;
      }

      .cls-18 {
        fill: #d7e9e9;
      }

      .cls-19, .cls-20 {
        fill: #d87d55;
      }

      .cls-21 {
        fill: #c6603c;
      }

      .cls-22 {
        fill: #dd2c2c;
      }

      .cls-23 {
        fill: #1e1e30;
      }

      .cls-24 {
        fill: #1f033c;
      }

      .cls-25 {
        fill: #232144;
      }

      .cls-26, .cls-27 {
        fill: #232323;
      }

      .cls-28 {
        fill: #61dafb;
      }

      .cls-29, .cls-30 {
        fill: #28424f;
      }

      .cls-31 {
        fill: #3c5768;
      }

      .cls-32 {
        fill: #383838;
      }

      .cls-33 {
        fill: #2f9916;
      }

      .cls-34 {
        fill: #37a9d1;
      }

      .cls-35 {
        fill: #5cdc41;
      }

      .cls-36 {
        fill: #5e5e5e;
      }

      .cls-37 {
        fill: #c6bdb6;
        opacity: .3;
      }

      .cls-37, .cls-8, .cls-30, .cls-38, .cls-9, .cls-27, .cls-20, .cls-10, .cls-39, .cls-16 {
        isolation: isolate;
      }

      .cls-8, .cls-30, .cls-38 {
        opacity: .5;
      }

      .cls-38 {
        fill: #e28b60;
      }

      .cls-9 {
        opacity: .55;
      }

      .cls-27, .cls-20, .cls-10 {
        opacity: .45;
      }

      .cls-39 {
        fill: #a4e7ff;
        opacity: .41;
      }

      .cls-16 {
        opacity: .4;
      }

      .cls-40 {
        opacity: .35;
      }
    </style>
  </defs>
  <g id="Layer_2-2" data-name="Layer 2">
    <g>
      <path class="cls-7" d="M157.5,120.26H87.22l-.9-1.6c4.09-2.75,14.13-8.8,23.19-8.8,0,0,.05,.05,.15,.14-.02,.02-.03,.03-.05,.05l.23,.11c.23,.2,.58,.48,1.04,.8l1.22,1.39,1.12-.02c1.49,.72,3.43,1.39,5.75,1.65,.06,.01,.12,.02,.17,.02,2.03,.33,4.12,.23,6.12-.31h.01c1.67-.34,3.47-.89,5.37-1.74l1.09-.02,.89-.94,1.06-1.11c9.84,.36,20.58,7.46,23.52,9.54,.11,.29,.21,.57,.3,.84h0Z"/>
      <g class="cls-40">
        <rect class="cls-14" x="30.03" y="14.94" width="87.6" height="86.44"/>
        <path class="cls-18" d="M30.03,14.15V101.76H117.63V14.15H30.03ZM112.15,96.82H36.67V19.45H112.15V96.82Z"/>
        <rect class="cls-18" x="71.78" y="19.55" width="5.08" height="77.08"/>
        <rect class="cls-18" x="36.91" y="56.96" width="75.4" height="5.08"/>
        <g>
          <rect class="cls-34" x="36.28" y="92.37" width="75.94" height="4.05"/>
          <rect class="cls-34" x="107.48" y="19.41" width="3.98" height="73.37"/>
        </g>
        <g>
          <path class="cls-10" d="M40.75,39.78c-.7,0-1.27-.57-1.27-1.27v-14.85c0-.7,.57-1.27,1.27-1.27s1.27,.57,1.27,1.27v14.85c0,.7-.57,1.27-1.27,1.27Z"/>
          <path class="cls-10" d="M40.75,35.78c-.7,0-1.27-.57-1.27-1.27v-5.85c0-.7,.57-1.27,1.27-1.27s1.27,.57,1.27,1.27v5.85c0,.7-.57,1.27-1.27,1.27Z"/>
        </g>
        <g>
          <rect class="cls-7" x="21.81" y="42.93" width="54.8" height="2" transform="translate(-12.18 68.08) rotate(-63.23)"/>
          <rect class="cls-7" x="18.56" y="48.38" width="67.26" height="2" transform="translate(-15.56 73.3) rotate(-62.86)"/>
        </g>
        <path class="cls-24" d="M76.86,96.35c-.4,0-.72-.32-.72-.72V62.52c0-.4,.32-.72,.72-.72s.72,.32,.72,.72v33.11c0,.4-.32,.72-.72,.72Z"/>
        <path class="cls-24" d="M76.86,56.91c-.4,0-.72-.32-.72-.72V20.26h-3.65v15.1c0,.4-.32,.72-.72,.72s-.72-.32-.72-.72v-15.82c0-.4,.32-.72,.72-.72h5.08c.4,0,.72,.32,.72,.72V56.2c0,.4-.32,.72-.72,.72h.01Z"/>
        <path class="cls-24" d="M71.78,43.23c-.4,0-.72-.32-.72-.72v-2.26c0-.4,.32-.72,.72-.72s.72,.32,.72,.72v2.26c0,.4-.32,.72-.72,.72Z"/>
        <path class="cls-24" d="M71.78,56.84c-.4,0-.72-.32-.72-.72v-10.78c0-.4,.32-.72,.72-.72s.72,.32,.72,.72v10.78c0,.4-.32,.72-.72,.72Z"/>
        <path class="cls-24" d="M71.78,96.35c-.4,0-.72-.32-.72-.72V62.95c0-.4,.32-.72,.72-.72s.72,.32,.72,.72v32.68c0,.4-.32,.72-.72,.72Z"/>
        <path class="cls-24" d="M111.31,57.67H57.84c-.39,0-.71-.32-.71-.71s.32-.71,.71-.71h53.47c.39,0,.71,.32,.71,.71s-.32,.71-.71,.71Z"/>
        <path class="cls-24" d="M60.48,62.75h-23.57c-.39,0-.71-.32-.71-.71v-5.08c0-.39,.32-.71,.71-.71h17.45c.39,0,.71,.32,.71,.71s-.32,.71-.71,.71h-16.74v3.67h22.86c.39,0,.71,.32,.71,.71s-.32,.71-.71,.71h0Z"/>
        <path class="cls-24" d="M111.31,62.75h-46.41c-.39,0-.71-.32-.71-.71s.32-.71,.71-.71h46.41c.39,0,.71,.32,.71,.71s-.32,.71-.71,.71Z"/>
        <path class="cls-7" d="M31.78,14.18h0c.83,0,1.51,.68,1.51,1.51v20.89c0,.83-.67,1.51-1.51,1.51h0c-.83,0-1.51-.68-1.51-1.51V15.69c0-.83,.67-1.51,1.51-1.51Z"/>
        <path class="cls-7" d="M31.78,58.23h0c.83,0,1.51,.68,1.51,1.51v20.89c0,.83-.67,1.51-1.51,1.51h0c-.83,0-1.51-.68-1.51-1.51v-20.89c0-.83,.67-1.51,1.51-1.51Z"/>
        <path class="cls-16" d="M85.68,99.03h0c0,1.17-.95,2.12-2.12,2.12h-29.42c-1.17,0-2.12-.95-2.12-2.12h0c0-1.17,.95-2.12,2.12-2.12h29.42c1.17,0,2.12,.95,2.12,2.12Z"/>
        <path class="cls-15" d="M101.86,99.03h0c0,1.17-.95,2.12-2.12,2.12h-29.42c-1.17,0-2.12-.95-2.12-2.12h0c0-1.17,.95-2.12,2.12-2.12h29.42c1.17,0,2.12,.95,2.12,2.12Z"/>
        <path class="cls-24" d="M30.03,87.05c-.4,0-.72-.32-.72-.72V42.99c0-.4,.32-.72,.72-.72s.72,.32,.72,.72v43.34c0,.4-.32,.72-.72,.72Z"/>
        <path class="cls-24" d="M40.52,102.1h-10.49c-.4,0-.72-.32-.72-.72v-10.25c0-.4,.32-.72,.72-.72s.72,.32,.72,.72v9.54h9.78c.4,0,.72,.32,.72,.72s-.32,.72-.72,.72h-.01Z"/>
        <path class="cls-24" d="M117.63,32.03c-.4,0-.72-.32-.72-.72V14.5h-46.37c-.4,0-.72-.32-.72-.72s.32-.72,.72-.72h47.08c.4,0,.72,.32,.72,.72V31.32c0,.4-.32,.72-.72,.72h.01Z"/>
        <path class="cls-24" d="M66.97,14.5h-14.12c-.4,0-.72-.32-.72-.72s.32-.72,.72-.72h14.12c.4,0,.72,.32,.72,.72s-.32,.72-.72,.72Z"/>
        <path class="cls-24" d="M30.03,40.03c-.4,0-.72-.32-.72-.72V13.78c0-.4,.32-.72,.72-.72h17.55c.4,0,.72,.32,.72,.72s-.32,.72-.72,.72H30.74v24.82c0,.4-.32,.72-.72,.72h.01Z"/>
        <g>
          <path class="cls-25" d="M44.14,26.5c-.06,0-.13-.02-.18-.05-.18-.1-.24-.33-.14-.51l2.18-3.86c.1-.18,.33-.24,.51-.14,.18,.1,.24,.33,.14,.51l-2.18,3.86c-.07,.12-.19,.19-.32,.19h-.01Z"/>
          <path class="cls-25" d="M44.74,28.6c-.07,0-.13-.02-.19-.05-.18-.11-.23-.33-.13-.51l1.69-2.84c.11-.18,.33-.23,.51-.13,.18,.11,.23,.33,.13,.51l-1.69,2.84c-.07,.12-.19,.18-.32,.18Z"/>
        </g>
        <path class="cls-24" d="M112.16,97.16H36.68c-.4,0-.72-.32-.72-.72V43.08c0-.4,.32-.72,.72-.72s.72,.32,.72,.72v52.64H111.45V19.79H37.4v19.62c0,.4-.32,.72-.72,.72s-.72-.32-.72-.72V19.08c0-.4,.32-.72,.72-.72H112.16c.4,0,.72,.32,.72,.72V96.44c0,.4-.32,.72-.72,.72h0Z"/>
        <path class="cls-24" d="M117.63,102.1H46.92c-.4,0-.72-.32-.72-.72s.32-.72,.72-.72H116.91V37.34c0-.4,.32-.72,.72-.72s.72,.32,.72,.72V101.38c0,.4-.32,.72-.72,.72Z"/>
      </g>
      <path class="cls-12" d="M133.05,110.38c-5.08-5.46-4.52-18.26-4.52-18.26h-14.69s.85,12.33-4.24,17.79l5.37,2.64c3.86,1.9,8.36,2.01,12.32,.31l5.75-2.47h0Z"/>
      <path class="cls-11" d="M111.96,109.26c-.21,0-.41-.06-.59-.19-.45-.33-.54-.95-.22-1.4,1.75-2.38,2.16-6.79,2.16-6.84,.05-.55,.54-.96,1.09-.91,.55,.05,.96,.54,.91,1.09-.02,.2-.47,5.02-2.54,7.84-.2,.27-.5,.41-.81,.41Z"/>
      <path class="cls-11" d="M130.41,109.4c-.31,0-.61-.14-.81-.41-2.07-2.83-2.52-7.64-2.54-7.84-.05-.55,.36-1.04,.91-1.09,.55-.04,1.04,.36,1.09,.91,0,.04,.42,4.46,2.16,6.84,.33,.45,.23,1.07-.22,1.4-.18,.13-.38,.19-.59,.19Z"/>
      <path class="cls-21" d="M121.33,100.68c-2.62,0-4.45-.51-4.56-.54-.53-.15-.84-.7-.69-1.23,.15-.53,.7-.83,1.23-.69,.04,0,3.77,1.04,8.05,0,.53-.13,1.08,.2,1.21,.73,.13,.54-.2,1.08-.73,1.21-1.63,.4-3.18,.53-4.52,.53h.01Z"/>
      <path class="cls-32" d="M85.91,56.59c-2.53-4.81-3.71-10.64-3.29-16.31l2.78-10.02,5.26-7.26,1.34,31.28-6.1,2.32h.01Z"/>
      <path class="cls-24" d="M85.82,57.99c-.25,0-.49-.14-.62-.37-2.6-4.94-3.79-10.86-3.36-16.69,.43-5.83,2.48-11.41,5.77-15.72,.23-.31,.67-.37,.98-.13,.31,.23,.37,.67,.13,.98-3.13,4.1-5.08,9.42-5.49,14.98s.73,11.22,3.21,15.93c.18,.34,.05,.76-.29,.94-.1,.05-.21,.08-.32,.08h-.01Z"/>
      <path class="cls-24" d="M109.61,110.62c-.17,0-.35-.06-.49-.19-.29-.27-.31-.72-.04-1.01,4.81-5.17,4.05-17.13,4.04-17.25-.03-.39,.27-.74,.67-.76,.39-.03,.74,.27,.76,.67,.04,.52,.81,12.7-4.43,18.32-.14,.15-.33,.23-.52,.23h0Z"/>
      <path class="cls-24" d="M133.05,111.09c-.19,0-.38-.08-.52-.23-5.23-5.61-4.73-18.24-4.71-18.78,.02-.4,.34-.73,.75-.68,.39,.02,.7,.35,.68,.75,0,.12-.49,12.57,4.33,17.74,.27,.29,.25,.74-.04,1.01-.14,.13-.31,.19-.49,.19Z"/>
      <ellipse class="cls-35" cx="44.74" cy="169.35" rx="11.65" ry="22.57"/>
      <path class="cls-17" d="M44.74,191.9c-6.79,0-12.11-9.91-12.11-22.56s5.32-22.56,12.11-22.56,12.11,9.91,12.11,22.56-5.32,22.56-12.11,22.56Zm0-43.2c-5.53,0-10.19,9.45-10.19,20.64s4.67,20.64,10.19,20.64,10.19-9.45,10.19-20.64-4.67-20.64-10.19-20.64Z"/>
      <path class="cls-33" d="M52.95,170.83c-.28,0-.5-.22-.5-.5,0-11.97-5.17-22.64-5.22-22.74-.12-.25-.02-.55,.23-.67s.55-.02,.67,.23c.05,.11,5.32,10.97,5.32,23.18,0,.28-.22,.5-.5,.5h0Z"/>
      <path class="cls-33" d="M37.58,174.12c-.28,0-.5-.22-.5-.5v-3.29c0-12.21,5.27-23.08,5.32-23.18,.12-.25,.42-.35,.67-.23,.25,.12,.35,.42,.23,.67-.05,.11-5.22,10.77-5.22,22.74v3.29c0,.28-.22,.5-.5,.5h0Z"/>
      <path class="cls-33" d="M44.76,173.94c-.28,0-.5-.22-.5-.5v-26.35c0-.28,.22-.5,.5-.5s.5,.22,.5,.5v26.35c0,.28-.22,.5-.5,.5Z"/>
      <path class="cls-24" d="M45.02,192.27c-5.77,0-10.74-7.19-12.09-17.48-.21-1.57-.2-3.27-.2-4.9v-.82c0-8.15,2.28-15.79,5.95-19.94,.23-.26,.63-.29,.9-.05,.26,.23,.29,.63,.05,.9-3.47,3.92-5.63,11.24-5.63,19.09v.83c0,1.67-.01,3.24,.18,4.73,1.25,9.49,5.8,16.38,10.83,16.38,6.07,0,11.02-9.84,11.02-21.94s-4.94-21.94-11.02-21.94c-1.25,0-2.47,.42-3.65,1.26-.29,.2-.68,.13-.89-.15-.2-.29-.14-.68,.15-.89,1.4-.99,2.87-1.5,4.39-1.5,6.77,0,12.29,10.41,12.29,23.21s-5.51,23.21-12.29,23.21h.01Z"/>
      <rect class="cls-18" x="27.54" y="173.34" width="41.79" height="10.45"/>
      <rect class="cls-18" x="30.92" y="183.96" width="38.4" height="25.89"/>
      <rect class="cls-13" x="30.92" y="183.96" width="38.4" height="3.49"/>
      <path class="cls-24" d="M69.32,210.56H30.92c-.4,0-.72-.32-.72-.72v-16.32c0-.4,.32-.72,.72-.72s.72,.32,.72,.72v15.6h36.97v-24.46H31.64v5.33c0,.4-.32,.72-.72,.72s-.72-.32-.72-.72v-6.04c0-.4,.32-.72,.72-.72h38.4c.4,0,.72,.32,.72,.72v25.89c0,.4-.32,.72-.72,.72h0Z"/>
      <circle class="cls-13" cx="37.63" cy="187.67" r="1.48"/>
      <circle class="cls-13" cx="41.41" cy="189.05" r=".74"/>
      <circle class="cls-13" cx="39.75" cy="192.19" r=".99"/>
      <rect class="cls-7" x="32.62" y="173.62" width="2.26" height="10.31"/>
      <rect class="cls-7" x="36.29" y="173.62" width="1.61" height="10.31"/>
      <path class="cls-24" d="M69.32,184.42H27.53c-.35,0-.63-.28-.63-.63v-3.53c0-.35,.28-.63,.63-.63s.63,.28,.63,.63v2.89h40.52v-9.18H28.16v3.04c0,.35-.28,.63-.63,.63s-.63-.28-.63-.63v-3.67c0-.35,.28-.63,.63-.63h41.79c.35,0,.63,.28,.63,.63v10.45c0,.35-.28,.63-.63,.63Z"/>
      <polyline class="cls-32" points="153.04 41.72 142.6 93.58 148.43 112.49 150.8 112.11 152.39 108.57 155.25 112.44 157.81 122.56 160.88 121.32 162.7 113.59 168.06 114.14 162.34 83.82 162.14 55.39 163.35 36.68"/>
      <path class="cls-26" d="M158.5,49l-.19,20.74c-.08,11.23-5.82,21.65-15.25,27.74l-1.08-3.49,.52-2.56c7.63-6.28,12.08-15.63,12.13-25.52l.19-20.61c.01-1.12,.02-2.23-.13-3.33h0c1.8-.18,3.39,1.14,3.6,2.94,.16,1.36,.23,2.72,.21,4.09Z"/>
      <path class="cls-24" d="M168.06,114.85c-.31,0-.6-.21-.69-.52-4.14-14.58-6.34-29.67-6.54-44.82,0-.4,.31-.72,.71-.73h0c.39,0,.71,.31,.72,.71,.2,15.03,2.38,29.99,6.48,44.45,.11,.38-.11,.78-.49,.88-.07,.02-.13,.03-.2,.03h.01Z"/>
      <circle class="cls-9" cx="121.56" cy="96.7" r=".4"/>
      <circle class="cls-12" cx="86.12" cy="60.42" r="7.32"/>
      <path class="cls-24" d="M86.12,68.46h-.08c-2.15-.02-4.16-.87-5.66-2.41-1.5-1.53-2.32-3.56-2.3-5.71,.02-2.15,.87-4.16,2.41-5.66,1.53-1.51,3.52-2.29,5.71-2.3,4.43,.04,8,3.68,7.96,8.11-.02,2.15-.87,4.16-2.41,5.66-1.51,1.49-3.51,2.3-5.63,2.3h0Zm0-14.64c-3.62,0-6.57,2.92-6.61,6.55-.03,3.64,2.9,6.63,6.55,6.67h.06c1.74,0,3.38-.67,4.63-1.89,1.26-1.24,1.96-2.89,1.98-4.66,.03-3.64-2.9-6.63-6.55-6.67h-.06Z"/>
      <circle class="cls-19" cx="86.78" cy="60.02" r="3.09"/>
      <path class="cls-25" d="M89.81,58.95c-.14,0-.27-.07-.35-.19-1.32-2.04-4.83-1.88-4.89-1.88-.23-.02-.41-.2-.44-.43-.02-.22,.15-.42,.37-.43h.04c.16,0,4.05-.11,5.64,2.34,.13,.2,.07,.46-.13,.58h0c-.08,.03-.16,.03-.24,0h0Z"/>
      <path class="cls-25" d="M85.45,61.51c-.23,0-.42-.19-.42-.42v-.02c.22-1.63,.98-3.14,2.16-4.28,.17-.17,.44-.16,.6,0s.16,.44,0,.6c-.99,.99-1.64,2.26-1.86,3.64,.02,.24-.16,.45-.4,.47h-.08Z"/>
      <circle class="cls-12" cx="157.66" cy="61.08" r="7.32"/>
      <path class="cls-24" d="M157.66,69.11h-.08c-2.15-.02-4.16-.87-5.66-2.41-1.5-1.53-2.32-3.56-2.3-5.71,.02-2.15,.87-4.16,2.41-5.66s3.57-2.29,5.71-2.3c2.15,.02,4.16,.87,5.66,2.41,1.5,1.53,2.32,3.56,2.3,5.71-.04,4.41-3.64,7.96-8.04,7.96Zm0-14.64c-3.62,0-6.57,2.92-6.61,6.55-.03,3.64,2.9,6.63,6.55,6.67h.06c3.62,0,6.57-2.92,6.61-6.55,.03-3.64-2.9-6.63-6.55-6.67h-.06Z"/>
      <circle class="cls-19" cx="157" cy="60.67" r="3.09"/>
      <g>
        <path class="cls-25" d="M153.97,59.54c-.23,0-.42-.19-.42-.42,0-.09,.03-.17,.08-.24,1.63-2.42,5.51-2.24,5.66-2.24,.23,0,.42,.19,.42,.42v.02c-.01,.24-.21,.42-.44,.42h-.13c-1.8-.11-3.55,.57-4.8,1.88-.09,.11-.23,.17-.37,.16Z"/>
        <path class="cls-25" d="M158.38,62.18c-.23,0-.42-.19-.42-.42v-.02c-.19-1.39-.82-2.67-1.8-3.68-.17-.15-.18-.4-.03-.57,.01,0,.02-.02,.04-.04,.17-.16,.44-.16,.6,0,1.16,1.17,1.89,2.69,2.08,4.32-.02,.24-.23,.42-.48,.4h.01Z"/>
      </g>
      <path class="cls-23" d="M132.09,89.71c-.42,0-.77-.33-.78-.76v-.02l.66-71.5c0-.43,.36-.78,.79-.78s.78,.36,.78,.79l-.66,71.6c-.06,.39-.4,.68-.79,.67Z"/>
      <path class="cls-23" d="M108.31,93.65c-.43,0-.77-.35-.78-.78l.67-73.23c0-.43,.36-.78,.79-.78s.78,.36,.78,.79l-.67,73.23c0,.42-.35,.77-.78,.76h-.01Z"/>
      <path class="cls-12" d="M122.32,11.1h0c18.45,.17,33.27,15.26,33.1,33.72h0l-.19,20.76c-.17,18.45-12.57,30.19-32.87,32.97l-.84,.15c-3.69-.03-7-1.13-10.31-2.27-13.24-4.55-22.95-16.7-22.81-31.47l.26-28.1c.17-18.45,15.2-25.93,33.67-25.76h-.01Z"/>
      <path class="cls-38" d="M122.32,11.1h0c18.45,.17,33.27,15.26,33.1,33.72h0l-.19,20.76c-.17,18.45-15.47,30.89-33.72,33.12h0l.8-87.6h.01Z"/>
      <path class="cls-19" d="M155.6,35.86l-.27,29.56c-.16,18.45-15.25,33.28-33.7,33.12h-.02c-.81,0-1.59-.01-2.38-.02,12.97-.8,24.3-9.04,29.05-21.14,1.49-3.16,2.28-6.61,2.31-10.1l.02-1.83c-3.67,.39-.05-5-.03-10.82,.05-4.98-5.82-12.72-1.29-14.8l.62-.21c.05-5.86-12.49-15.18-18.26-18.8-8.03-5.05,.08-8.79-11.61-9.72l2.38,.02c18.45,.17,33.33,9.46,33.16,27.77l.03-2.95v-.07h0Z"/>
      <path class="cls-7" d="M123.36,98.48c-.75,0-1.24-.52-1.99-.53-23.53-2.23-33.27-14.64-33.38-32.96v-.21l.24-26.62c.17-18.45,15.23-27.32,33.68-27.15h0l2.25,.02c-17.55,1.01-32.76,9.04-32.92,26.63l-.24,26.62c0,21.06,14.8,32.85,32.37,34.2h-.01Z"/>
      <circle class="cls-7" cx="97.58" cy="31.73" r="2.22"/>
      <circle class="cls-7" cx="102.71" cy="29.3" r=".99"/>
      <circle class="cls-7" cx="101.12" cy="31.47" r=".33"/>
      <circle class="cls-7" cx="100.77" cy="29.03" r=".53"/>
      <path class="cls-24" d="M155.24,66.29h0c-.4,0-.71-.33-.71-.72l.26-21.1c0-.4,.35-.69,.72-.71,.4,0,.71,.33,.71,.72l-.26,21.1c0,.39-.32,.71-.72,.71Z"/>
      <path class="cls-24" d="M88.4,65.68h0c-.4,0-.71-.33-.71-.72l.26-25.93c0-.39,.32-.71,.72-.71h0c.4,0,.71,.33,.71,.72l-.26,25.93c0,.39-.32,.71-.72,.71Z"/>
      <path class="cls-7" d="M81.82,57.78c.29-.79,.87-1.44,1.63-1.82,.64-.23,.4-1.28-.27-1.03-1.03,.41-1.85,1.21-2.29,2.23-.28,.64,.63,1.2,.93,.58,0,0,0,.04,0,.04Z"/>
      <ellipse class="cls-7" cx="80.57" cy="59.77" rx=".86" ry=".7" transform="translate(9.04 130.1) rotate(-81.08)"/>
      <path class="cls-36" d="M128.46,46.73l14.16-2.36c2.08-.34,3.54-2.23,3.34-4.33h0c-.18-2.09-1.72-1.59-3.81-1.57l-14.35,.14c-2.23,.03-4.02,1.87-3.99,4.1,0,.09,0,.18,.01,.27v.2c.23,2.2,2.2,3.8,4.4,3.57,.08,0,.17-.02,.25-.03h-.01Z"/>
      <path class="cls-32" d="M128.46,46.73l14.16-2.36c2.08-.34,3.54-2.23,3.34-4.33h0c-.18-2.09,.74,1.27-1.37,1.29l-19.03,3.23c-2.34-.02-1.94-3.9-1.82-1.57v.2c.22,2.2,2.18,3.81,4.39,3.59,.11,0,.23-.03,.34-.05h-.01Z"/>
      <path class="cls-24" d="M127.79,47.36c-1.06,0-2.08-.37-2.9-1.06-.92-.78-1.48-1.87-1.58-3.07v-.25c0-.06-.01-.17-.01-.27-.02-1.21,.44-2.36,1.29-3.23s1.98-1.36,3.2-1.38l5.68-.06h0c.27,0,.5,.22,.5,.5s-.22,.5-.5,.5l-5.68,.06c-.95,0-1.83,.39-2.49,1.07s-1.02,1.57-1,2.52c0,.08,0,.16,.01,.24v.24c.16,1.88,1.86,3.31,3.79,3.16,.1,0,.2-.02,.3-.04l14.15-2.36c1.82-.29,3.1-1.96,2.92-3.79-.11-1.21-.6-1.24-2.29-1.16-.32,.02-.66,.03-1.02,.04l-2.46-.02c-.28,0-.5-.23-.5-.5s.23-.5,.5-.5h0l2.45,.02c.33,0,.66-.02,.97-.03,1.55-.08,3.14-.15,3.33,2.06,.23,2.35-1.42,4.49-3.75,4.86l-14.15,2.36c-.13,.02-.25,.04-.38,.05s-.26,.02-.39,.02v.02Z"/>
      <circle class="cls-32" cx="131.2" cy="43.37" r="1.06"/>
      <circle class="cls-32" cx="133.87" cy="41.85" r=".57"/>
      <circle class="cls-32" cx="127.4" cy="43.88" r="1.37"/>
      <path class="cls-36" d="M115.31,46.61l-14.11-2.62c-2.07-.38-3.5-2.29-3.27-4.39h0c.22-2.09,1.75-1.56,3.86-1.5l14.35,.41c2.22,.07,3.97,1.93,3.9,4.15,0,.1,0,.2-.02,.29v.13c-.23,2.2-2.2,3.8-4.41,3.57-.1,0-.2-.02-.3-.04h0Z"/>
      <path class="cls-32" d="M115.31,46.61l-14.11-2.62c-2.07-.38-3.5-2.29-3.27-4.39h0c.22-2.09-.74,1.26,1.34,1.31l18.99,3.58c2.34,.02,2.01-3.86,1.75-1.54v.13c-.23,2.2-2.2,3.8-4.41,3.57-.1,0-.2-.02-.3-.04h0Z"/>
      <path class="cls-24" d="M116.04,47.18c-.16,0-.31,0-.47-.02-.13,0-.25-.03-.38-.05l-14.11-2.62c-2.31-.43-3.93-2.59-3.68-4.93,.24-2.21,1.83-2.11,3.38-2,.31,.02,.64,.04,.99,.05l2.44,.02c.28,0,.5,.23,.5,.5s-.23,.5-.5,.5h0l-2.45-.02c-.37,0-.71-.03-1.04-.05-1.69-.12-2.19-.09-2.32,1.11-.19,1.82,1.07,3.51,2.87,3.84l14.11,2.62c.1,.02,.2,.03,.3,.04,.93,.1,1.85-.18,2.57-.77,.73-.59,1.18-1.43,1.28-2.36v-.08c.01-.14,.02-.22,.02-.31,.03-.94-.31-1.83-.95-2.52-.65-.69-1.52-1.08-2.46-1.11l-5.67-.16c-.28,0-.49-.24-.49-.51s.26-.5,.51-.49l5.67,.16c1.21,.04,2.33,.54,3.16,1.43,.83,.88,1.26,2.03,1.22,3.24,0,.11-.01,.22-.02,.33v.08c-.12,1.25-.71,2.32-1.64,3.08-.81,.66-1.8,1.01-2.84,1.01h0Z"/>
      <circle class="cls-32" cx="112.62" cy="43.2" r="1.06"/>
      <circle class="cls-32" cx="110" cy="41.64" r=".57"/>
      <circle class="cls-32" cx="116.4" cy="43.78" r="1.37"/>
      <path class="cls-32" d="M133.46,16.66s20.2,10.88,21.84,24l7.62-2.85,.18-7.75,.04-4.41-1.92-8.4-6.42-8.43-5.85-4.47"/>
      <path class="cls-32" d="M150.53,17.58c-1.22-.45-2.5-.71-3.8-.77-1.86-.08-3.71,.37-5.34,1.29-.42,.25-.83,.54-1.25,.81-.36,.22-.74,.42-1.12,.59-3.06-2.06-5.3-3.25-5.3-3.25l12.84-3.03,3.93,4.27,.04,.09h0Z"/>
      <circle class="cls-32" cx="120.46" cy="10.68" r=".6"/>
      <path class="cls-7" d="M92.4,16.94c-.16,0-.33-.04-.48-.14-.43-.26-.56-.83-.3-1.26,1.85-3,4.42-5.55,7.44-7.38,.43-.26,1-.12,1.26,.31s.12,1-.31,1.26c-2.77,1.67-5.13,4.01-6.83,6.77-.17,.28-.47,.43-.78,.43h0Z"/>
      <circle class="cls-7" cx="94.2" cy="15.75" r=".97"/>
      <circle class="cls-7" cx="97.66" cy="11.5" r=".77"/>
      <circle class="cls-7" cx="96.85" cy="14.61" r=".44"/>
      <circle class="cls-7" cx="92.31" cy="20.27" r=".88"/>
      <circle class="cls-7" cx="91.35" cy="22.57" r=".42"/>
      <rect class="cls-7" x="84.56" y="51.11" width="13.75" height="2.65" rx="1.32" ry="1.32" transform="translate(38.18 143.39) rotate(-89.48)"/>
      <path class="cls-24" d="M149.85,113.61c-1.11,0-2.09-.8-2.29-1.93l-6.01-19.06c-.12-.38,.09-.78,.47-.9,.37-.12,.78,.09,.9,.47l6.03,19.15c.11,.58,.57,.9,1.06,.82,.35-.06,.63-.32,.71-.66l1.12-4.17c.1-.38,.49-.61,.88-.51,.38,.1,.61,.5,.51,.88l-1.12,4.16c-.22,.88-.95,1.55-1.85,1.71-.13,.02-.27,.04-.4,.04h0Z"/>
      <path class="cls-24" d="M159.36,123.2c-.38,0-.75-.09-1.09-.27-.55-.29-.95-.78-1.13-1.38l-3.56-11c-.12-.38,.08-.78,.46-.9,.38-.13,.78,.08,.9,.46l3.56,11.02c.07,.24,.23,.43,.44,.54s.45,.14,.68,.07c.31-.09,.54-.35,.61-.66l1.9-7.74c.09-.38,.48-.61,.87-.52,.38,.09,.62,.48,.52,.87l-1.9,7.73c-.18,.8-.79,1.46-1.59,1.7-.22,.07-.45,.1-.68,.1v-.02Z"/>
      <path class="cls-24" d="M121.62,99.05h-.21c-2.21-.02-4.39-.36-6.48-1-2.31-.71-5.25-1.7-8.75-2.95-4.68-1.67-8.8-4.59-11.94-8.44-4.13-5.22-6.32-11.76-6.17-18.41,0-.4,.33-.67,.73-.7,.4,0,.71,.34,.7,.73-.15,6.32,1.93,12.53,5.85,17.48,2.96,3.64,6.87,6.41,11.3,7.99,3.48,1.24,6.4,2.23,8.69,2.93,1.96,.6,4.01,.92,6.08,.93,2.09,.03,4.12-.26,6.1-.82,2.31-.66,5.24-1.59,8.71-2.77,4.46-1.5,8.42-4.19,11.46-7.79,4.01-4.88,6.21-11.04,6.18-17.37,0-.39,.32-.72,.71-.72h0c.39,0,.71,.32,.72,.71,.03,6.65-2.28,13.15-6.51,18.29-3.21,3.81-7.39,6.65-12.1,8.23-3.5,1.18-6.45,2.12-8.78,2.79-2.04,.59-4.15,.88-6.29,.88h0Z"/>
      <path class="cls-1" d="M120.45,89.33c-4.19-.53-6.61-3.45-11.28-6.14,1.04,.44,2.11,.8,3.21,1.07,1.9-.2,3.73-.85,5.34-1.87,.36-.17,.76-.25,1.16-.23l-.94,.16c.53,.33,.95,.17,1.5,.45,1.62,.83,3.59,.64,5.02-.48l.36,.2c.2-.09,.33,.3,.55,.41,2.49,1.55,5.6,1.75,8.27,.52-1.4,.91-2.73,1.93-3.96,3.06-2.18,1.61-4.76,2.61-7.46,2.88l-1.78-.02h.01Z"/>
      <path class="cls-22" d="M124.94,88.97c-1.02,.23-2.07,.33-3.12,.3l-1.83-.02c-3.15-.72-6.1-2.13-8.64-4.13-.82-.74-1.69-1.41-2.62-2.02,1.18,.51,2.4,.92,3.65,1.24,1.8-.18,3.52-.79,5.03-1.78h0c-.25,1.32,2.17,3.08,3.63,3.04-1,.74-3.95-.22-5.14-.56,1.71,1.22,3.78,3.24,7.11,2.92,.62-.14,1.38,.76,1.91,1.01h.02Z"/>
      <circle class="cls-6" cx="158.55" cy="67.84" r="4.39"/>
      <path class="cls-37" d="M160.61,63.98c1.09,2.17,.22,4.81-1.94,5.9-1.27,.64-2.78,.63-4.04-.04,1.06,2.18,3.68,3.1,5.87,2.04,2.18-1.06,3.1-3.68,2.04-5.87-.02-.05-.05-.1-.08-.15-.4-.81-1.05-1.47-1.85-1.88Z"/>
      <ellipse class="cls-7" cx="156.12" cy="66.51" rx="1.32" ry=".81" transform="translate(29.48 179.48) rotate(-64.81)"/>
      <circle class="cls-6" cx="86.53" cy="66.8" r="4.39"/>
      <path class="cls-37" d="M88.6,63.01c1.09,2.17,.22,4.81-1.94,5.9-1.27,.64-2.78,.63-4.04-.04,.98,2.23,3.59,3.24,5.82,2.26,2.23-.98,3.24-3.59,2.26-5.82-.07-.15-.14-.29-.22-.44-.41-.8-1.06-1.46-1.87-1.87h-.01Z"/>
      <ellipse class="cls-7" cx="84.09" cy="65.48" rx="1.32" ry=".81" transform="translate(-10.95 113.7) rotate(-64.81)"/>
      <path class="cls-24" d="M162.62,55.98h-.03c-.4-.02-.7-.35-.69-.74l.79-19.73c.07-1.92-.04-3.86-.34-5.76-.06-.39,.21-.76,.59-.82,.39-.06,.76,.21,.82,.59,.31,1.99,.43,4.02,.36,6.04l-.79,19.73c-.01,.39-.33,.69-.71,.69Z"/>
      <rect class="cls-2" x="107.14" y="50.67" width="8.77" height="6.79" rx="3.39" ry="3.39" transform="translate(56.45 165.1) rotate(-89.48)"/>
      <path class="cls-2" d="M107.71,51.79c-.67-.88-1.21-1.85-1.62-2.87,.56,.66,1.17,1.28,1.81,1.85-.41-1.05-.68-2.15-.79-3.27,.58,1.29,1.34,2.48,2.26,3.55,.58,.59,.27,.7-.19,.64,.62,.35,.49,.54,.16,.62s-1.25,.76-1.25,.76c-1.22-.65-2.32-1.48-3.27-2.48,.93,.48,1.9,.88,2.9,1.2h-.01Z"/>
      <circle class="cls-7" cx="108.2" cy="53.37" r="1.63"/>
      <path class="cls-2" d="M135.62,52.07c.65-.9,1.17-1.88,1.56-2.91-.57,.69-1.19,1.33-1.85,1.92,.39-1.06,.63-2.16,.73-3.29-.55,1.31-1.28,2.54-2.18,3.64-.57,.6-.26,.67,.2,.62-.61,.36-.48,.53-.13,.62s1.27,.73,1.27,.73c1.2-.67,2.28-1.53,3.21-2.55-.9,.48-1.84,.89-2.81,1.22Z"/>
      <rect class="cls-2" x="128.15" y="50.85" width="8.77" height="6.79" rx="3.39" ry="3.39" transform="translate(77.09 186.29) rotate(-89.48)"/>
      <circle class="cls-7" cx="129.95" cy="53.57" r="1.63"/>
      <path class="cls-2" d="M121.87,77.3h0c-.49,0-.88-.4-.87-.89l.14-15.51c0-.48,.4-.87,.88-.87h0c.49,0,.88,.4,.87,.89l-.14,15.51c0,.48-.4,.87-.88,.87Z"/>
      <path class="cls-32" d="M105.89,4.8c1.93-.44,3.9-.66,5.88-.68,1.98,.02,3.93,.16,5.91,.05,4.09-.3,8.13-1.04,12.07-2.2,3.94-1.16,8.05-1.61,12.15-1.33,4.15,.3,7.93,2.5,10.25,5.95-12.44,29.36-63.33,27.89-63.33,27.89l-.02-.06s-.84,.13-1.13-2.66c0-.44,0-.9-.12-1.37-.28-2.74-.15-5.5,.37-8.2l2.49-5.93c1.79-3.4,4.45-6.26,7.69-8.31l1.14-.69"/>
      <path class="cls-24" d="M162.94,26.43c-.38,0-.69-.29-.71-.68-.43-7.78-5.83-14.04-8.13-16.37-.28-.28-.28-.73,0-1.01,.28-.28,.74-.28,1.01,0,2.42,2.44,8.08,9.02,8.55,17.29,.02,.39-.28,.73-.67,.75h-.04v.02Z"/>
      <path class="cls-24" d="M88.66,36.34c-.32,0-.61-.22-.69-.54-.88-3.5-1-10.72-.45-13.56,.08-.39,.45-.64,.84-.57,.39,.08,.64,.45,.57,.84-.51,2.64-.39,9.65,.43,12.94,.1,.38-.14,.77-.52,.87-.06,0-.12,.02-.17,.02h0Z"/>
      <circle class="cls-24" cx="89.26" cy="19.37" r=".95"/>
      <circle class="cls-2" cx="110.37" cy="63.17" r=".95"/>
      <circle class="cls-24" cx="102.65" cy="6.16" r=".95" transform="translate(95.54 108.74) rotate(-89.47)"/>
      <path class="cls-24" d="M106.18,5.7c-.33,0-.62-.23-.7-.56-.09-.39,.16-.77,.54-.86,1.98-.45,4.01-.68,6.04-.7l5.92,.05c3.22-.18,6.47-.72,9.61-1.61,.38-.1,.78,.12,.88,.5,.11,.38-.12,.78-.5,.88-3.24,.91-6.59,1.47-9.96,1.66l-5.96-.05c-1.91,.01-3.84,.24-5.72,.66-.05,.01-.11,.02-.16,.02h0Z"/>
      <path class="cls-24" d="M155.41,43.24h0c-.39,0-.71-.33-.71-.72,.07-7.3-6.69-14.15-12.37-18.6-.31-.24-.37-.69-.12-1s.7-.36,1-.12c5.93,4.66,12.99,11.86,12.91,19.75,0,.39-.32,.71-.72,.71v-.02Z"/>
      <circle class="cls-26" cx="124.77" cy="24.05" r="2.18"/>
      <circle class="cls-26" cx="99.72" cy="30.7" r="1.1"/>
      <circle class="cls-26" cx="114.91" cy="22.57" r="1.89"/>
      <circle class="cls-27" cx="108.54" cy="25.13" r=".84"/>
      <circle class="cls-27" cx="108.81" cy="21.41" r=".6"/>
      <circle class="cls-27" cx="121.7" cy="21.53" r=".6"/>
      <circle class="cls-27" cx="102.62" cy="25.49" r="1.45"/>
      <path class="cls-7" d="M91.55,18.07c-.14,0-.28-.03-.41-.1-.43-.23-.59-.76-.37-1.19,1.87-3.54,4.64-6.53,8.02-8.67l1.14-.68c.42-.25,.96-.11,1.2,.31,.25,.42,.11,.96-.31,1.2l-1.12,.67c-3.1,1.96-5.66,4.72-7.38,7.99-.16,.3-.46,.47-.78,.47h0Z"/>
      <path class="cls-24" d="M90.71,17.18c-.11,0-.23-.03-.33-.08-.35-.18-.48-.62-.3-.97,1.85-3.51,4.59-6.48,7.94-8.6,.37-.24,.76-.46,1.16-.68,.34-.2,.79-.08,.98,.27,.19,.34,.08,.78-.27,.97h-.02c-.37,.22-.74,.42-1.09,.65-3.14,1.99-5.71,4.78-7.44,8.06-.13,.24-.38,.38-.63,.38h0Z"/>
      <circle class="cls-7" cx="95.95" cy="14.45" r=".97"/>
      <circle class="cls-7" cx="99.41" cy="10.2" r=".77"/>
      <circle class="cls-7" cx="98.68" cy="13.31" r=".44"/>
      <circle class="cls-7" cx="94.06" cy="18.97" r=".88"/>
      <circle class="cls-7" cx="93.1" cy="21.27" r=".42"/>
      <polygon class="cls-7" points="145.19 64.82 142.91 64.38 145.14 42.69 147.52 42.55 145.19 64.82"/>
      <polygon class="cls-8" points="141.5 64.37 140.03 64.36 142.33 43.12 143.73 42.93 141.5 64.37"/>
      <polygon class="cls-8" points="129.48 62.72 128.28 62.71 130.17 45.68 131.31 45.51 129.48 62.72"/>
      <polygon class="cls-7" points="98.88 64.4 96.57 63.96 98.82 42.27 101.19 42.12 98.88 64.4"/>
      <polygon class="cls-8" points="101.85 64.01 100.36 63.99 102.66 42.76 103.98 43.37 101.85 64.01"/>
      <path class="cls-24" d="M99.79,65.2h0c-3.15-.03-5.71-2.6-5.72-5.75l-1.71-12.45v-.11c.04-3.15,2.62-5.69,5.77-5.69,.07,0,.15,0,.22,.02l15.25,3.78c1.53,.04,2.93,.65,3.98,1.72,1.08,1.1,1.66,2.55,1.65,4.08l-.07,7.15c-.1,3.1-2.66,5.56-5.74,5.56h-.18c-.39,0-.71-.34-.69-.74,.01-.39,.31-.68,.74-.69,2.34,.08,4.38-1.8,4.45-4.18v-.11l.06-6.99c.01-1.15-.43-2.24-1.24-3.07-.81-.82-1.89-1.28-3.04-1.29-.06,0-.13,0-.18-.02l-15.24-3.78c-2.33,.02-4.24,1.9-4.29,4.23l1.71,12.45v.1c-.01,2.37,1.89,4.31,4.25,4.36l7.59-1.04c.38-.06,.75,.22,.81,.61,.05,.39-.22,.75-.61,.81l-7.64,1.05h-.13Z"/>
      <path class="cls-2" d="M125.62,57.6h0l-7.27-.07c-.32,0-.58-.27-.58-.59s.26-.58,.59-.58h0l7.27,.07c.32,0,.58,.27,.58,.59s-.26,.58-.59,.58Z"/>
      <circle class="cls-22" cx="121.62" cy="87.97" r=".4"/>
      <circle class="cls-22" cx="119.69" cy="86.82" r=".24"/>
      <circle class="cls-22" cx="120.43" cy="87.24" r=".13"/>
      <path class="cls-19" d="M119.5,77.42c1.68,.64,2.8,.14,4.72,.32-.63,.68-1.5,1.08-2.43,1.11-.48,0-.96-.11-1.39-.34-.44-.23-.76-.62-.91-1.09h.01Z"/>
      <path class="cls-19" d="M118.56,90.21c2.15,.72,3.66,.22,6.11,.48-.91,.71-2.03,1.1-3.18,1.11-.63-.03-1.25-.16-1.83-.4-.51-.23-.91-.66-1.11-1.18h0Z"/>
      <path class="cls-2" d="M121.11,85.95h-.05l-3.66-.47-5.87-.33c-.07,0-.14-.03-.19-.06-.55-.34-.99-.6-1.48-.87-.28-.13-.56-.27-.84-.44-.2-.12-.26-.37-.15-.57,.11-.2,.36-.27,.56-.17,.29,.15,.55,.29,.8,.42,2.59,1.17,4.67,.18,6.69-.77,.36-.17,.71-.34,1.07-.49,.24-.15,.58-.2,.9-.13,.05,.01,.1,.03,.14,.06,1.47,.97,3.38,.99,4.87,.04,.43-.16,.8-.16,1.14-.03,.34,.15,.65,.31,.97,.46,2.06,1,4.19,2.02,6.56,1.14,.32-.16,.64-.31,.96-.45,.2-.09,.45,0,.55,.19,.1,.2,.03,.45-.17,.56-.34,.2-.68,.35-1.02,.48-.67,.33-1.32,.68-1.96,1.05-.19,.11-.43,.05-.56-.12l-4.9,.15-2.01,.34c-.22,.04-.45-.12-.48-.35-.04-.23,.12-.45,.35-.48l2.07-.35,3.42-.11c-1.12-.3-2.18-.81-3.18-1.3-.31-.15-.62-.3-.93-.44-.13-.05-.3-.05-.45,0-1.66,1.07-3.89,1.06-5.62-.04-.09,0-.19,.02-.28,.06-.39,.17-.74,.34-1.09,.5-.81,.38-1.66,.79-2.57,1.06l2.77,.14,3.69,.48c.23,.03,.39,.24,.36,.47-.03,.21-.21,.37-.42,.37h.01Z"/>
      <circle class="cls-20" cx="142.02" cy="77.34" r=".35"/>
      <path class="cls-19" d="M130.76,63.03c.77,1.2,1.92,2.12,3.27,2.59,2.5,.87,5.25,.05,7.87,.46,1.46,.09,2.91-.32,4.11-1.15-.45-.83-2.69-.35-3.66-.51-4.41-.77-8.97-.39-13.33-1.29"/>
      <path class="cls-24" d="M144.32,65.62h-.24l-13.53-1.96c-3.04-.08-5.55-2.69-5.51-5.81l.06-6.99c.03-3.14,2.58-5.68,5.72-5.7l15.33-3.5s.08-.02,.17-.02c3.17,.03,5.73,2.63,5.71,5.8v.11l-1.94,12.42c-.06,3.14-2.63,5.66-5.77,5.66h0Zm-.08-1.44h.04c2.41,0,4.35-1.92,4.38-4.3v-.1l1.94-12.41c-.01-2.33-1.89-4.24-4.22-4.31l-15.33,3.5s-.08,.02-.17,.02h-.04c-1.14,0-2.21,.44-3.02,1.24-.82,.81-1.28,1.89-1.29,3.04l-.06,6.99c-.03,2.35,1.85,4.31,4.2,4.38l13.57,1.96h0Z"/>
      <path class="cls-2" d="M121.22,90.11c-2.71,0-5.32-.98-7.38-2.81-.2-.17-.21-.47-.04-.67,.17-.2,.47-.21,.67-.04,2.02,1.79,4.63,2.7,7.32,2.55,2.46-.02,4.83-.89,6.7-2.46,.2-.17,.5-.14,.67,.06s.14,.5-.06,.67c-2.04,1.71-4.62,2.66-7.28,2.68-.2,.01-.4,.02-.6,.02h0Z"/>
      <circle class="cls-25" cx="126.28" cy="51.13" r=".78"/>
      <path class="cls-7" d="M62.86,157.77c-6.22,9.28-8.61,25.2-9.09,38.16l18.95,4.66-9.86-42.82h0Z"/>
      <path class="cls-12" d="M45.45,207.67c0-6.77,5.49-12.26,12.26-12.26s12.26,5.49,12.26,12.26"/>
      <path class="cls-7" d="M46.96,205.9h-.13c-.47-.07-.79-.51-.72-.98,.01-.08,1.32-8.14,8.89-9.16,.48-.06,.91,.27,.97,.74s-.27,.91-.74,.97c-6.27,.85-7.37,7.43-7.41,7.71-.07,.43-.43,.73-.85,.73h-.01Z"/>
      <path class="cls-24" d="M45.62,208.19c-.35,0-.64-.29-.64-.64,0-7.63,5.06-12.97,12.3-12.97,.35,0,.64,.29,.64,.64s-.29,.64-.64,.64c-6.49,0-11.02,4.81-11.02,11.69,0,.35-.29,.64-.64,.64h0Z"/>
      <rect class="cls-3" x=".71" y="208" width="207.66" height="9.34"/>
      <rect class="cls-5" x=".71" y="213.39" width="207.66" height="3.15"/>
      <path class="cls-31" d="M179.25,197.54v8.29c0,1.19-.96,2.15-2.15,2.15H69.15c-1.19,0-2.15-.96-2.15-2.15v-8.29"/>
      <path class="cls-29" d="M179.25,191.48v8.29c0,1.19-.96,2.15-2.15,2.15H69.15c-1.19,0-2.15-.96-2.15-2.15v-8.29"/>
      <path class="cls-25" d="M177.1,208.72H69.15c-1.6,0-2.89-1.3-2.89-2.89v-8.29h1.49v8.29c0,.77,.63,1.4,1.4,1.4h107.95c.77,0,1.4-.63,1.4-1.4v-8.29h1.49v8.29c0,1.6-1.3,2.89-2.89,2.89h0Z"/>
      <rect class="cls-31" x="59.66" y="120.12" width="127.04" height="77.44" rx="8.4" ry="8.4"/>
      <path class="cls-30" d="M186.65,143.34v45.58c0,4.64-3.76,8.4-8.4,8.4H68.01c-4.64,0-8.4-3.76-8.4-8.4v-4.53c69.45-2.8,108.83-26.21,127.04-41.04h0Z"/>
      <path class="cls-30" d="M186.65,131.16v57.76c0,4.64-3.76,8.4-8.4,8.4H68.01c-4.64,0-8.4-3.76-8.4-8.4v-18.46c69.45-2.8,108.83-24.47,127.04-39.3h0Z"/>
      <path class="cls-24" d="M177.1,208.69H69.15c-1.58,0-2.86-1.29-2.86-2.86v-8.29c0-.4,.32-.72,.72-.72s.72,.32,.72,.72v8.29c0,.79,.64,1.43,1.43,1.43h107.95c.79,0,1.43-.64,1.43-1.43v-8.29c0-.4,.32-.72,.72-.72s.72,.32,.72,.72v8.29c0,1.58-1.29,2.86-2.86,2.86h-.02Z"/>
      <path class="cls-24" d="M207.43,218.05H1.66c-.92,0-1.66-.75-1.66-1.66v-7.45c0-.92,.75-1.66,1.66-1.66H14.17c.4,0,.72,.32,.72,.72s-.32,.72-.72,.72H1.66c-.13,0-.23,.1-.23,.23v7.45c0,.13,.1,.23,.23,.23H207.43c.13,0,.23-.1,.23-.23v-7.45c0-.13-.1-.23-.23-.23h-14.07c-.4,0-.72-.32-.72-.72s.32-.72,.72-.72h14.07c.92,0,1.66,.75,1.66,1.66v7.45c0,.92-.75,1.66-1.66,1.66Z"/>
      <path class="cls-24" d="M186.81,208.72H38.16c-.4,0-.72-.32-.72-.72s.32-.72,.72-.72H186.81c.4,0,.72,.32,.72,.72s-.32,.72-.72,.72Z"/>
      <path class="cls-25" d="M33.31,208.75h-11.22c-.41,0-.75-.33-.75-.75s.33-.75,.75-.75h11.22c.41,0,.75,.33,.75,.75s-.33,.75-.75,.75Z"/>
      <g>
        <path class="cls-25" d="M64.98,129.91c-.12,0-.24-.06-.31-.16-.12-.17-.07-.4,.1-.52l3.66-2.5c.17-.11,.4-.07,.52,.1s.07,.4-.1,.52l-3.66,2.5c-.06,.04-.14,.07-.21,.07h0Z"/>
        <path class="cls-25" d="M64.6,132.06c-.12,0-.24-.06-.31-.17-.11-.17-.06-.4,.11-.52l2.77-1.8c.17-.11,.4-.06,.52,.11,.11,.17,.06,.4-.11,.52l-2.77,1.8c-.06,.04-.13,.06-.2,.06h0Z"/>
      </g>
      <g>
        <path class="cls-25" d="M176.52,191.33c-.12,0-.24-.06-.31-.16-.12-.17-.07-.4,.1-.52l3.66-2.5c.17-.11,.4-.07,.52,.1,.12,.17,.07,.4-.1,.52l-3.66,2.5c-.06,.04-.14,.07-.21,.07h0Z"/>
        <path class="cls-25" d="M176.13,193.48c-.12,0-.24-.06-.31-.17-.11-.17-.06-.4,.11-.52l2.77-1.8c.17-.11,.4-.06,.52,.11,.11,.17,.06,.4-.11,.52l-2.77,1.8c-.06,.04-.13,.06-.2,.06h0Z"/>
      </g>
      <circle class="cls-25" cx="18.32" cy="208.05" r="1.03"/>
      <path class="cls-7" d="M17.66,211.76H9c-.41,0-.75-.33-.75-.75s.33-.75,.75-.75h8.66c.41,0,.75,.33,.75,.75s-.33,.75-.75,.75Z"/>
      <circle class="cls-7" cx="6.06" cy="211.01" r="1.11"/>
      <g>
        <path class="cls-25" d="M72.7,205.25c-.31,0-.56-.25-.56-.56v-4.18c0-.31,.25-.56,.56-.56s.56,.25,.56,.56v4.18c0,.31-.25,.56-.56,.56Z"/>
        <path class="cls-25" d="M76.44,205.25c-.31,0-.56-.25-.56-.56v-4.18c0-.31,.25-.56,.56-.56s.56,.25,.56,.56v4.18c0,.31-.25,.56-.56,.56Z"/>
        <path class="cls-25" d="M80.19,205.25c-.31,0-.56-.25-.56-.56v-4.18c0-.31,.25-.56,.56-.56s.56,.25,.56,.56v4.18c0,.31-.25,.56-.56,.56Z"/>
      </g>
      <g>
        <path class="cls-25" d="M165.5,205.25c-.31,0-.56-.25-.56-.56v-4.18c0-.31,.25-.56,.56-.56s.56,.25,.56,.56v4.18c0,.31-.25,.56-.56,.56Z"/>
        <path class="cls-25" d="M169.25,205.25c-.31,0-.56-.25-.56-.56v-4.18c0-.31,.25-.56,.56-.56s.56,.25,.56,.56v4.18c0,.31-.25,.56-.56,.56Z"/>
        <path class="cls-25" d="M172.99,205.25c-.31,0-.56-.25-.56-.56v-4.18c0-.31,.25-.56,.56-.56s.56,.25,.56,.56v4.18c0,.31-.25,.56-.56,.56Z"/>
      </g>
      <g>
        <path class="cls-39" d="M93.19,123.1h-22.95c-.7,0-1.26-.57-1.26-1.26s.57-1.26,1.26-1.26h22.95c.7,0,1.26,.57,1.26,1.26s-.57,1.26-1.26,1.26Z"/>
        <path class="cls-7" d="M84.76,123.1h-6.76c-.7,0-1.26-.57-1.26-1.26s.57-1.26,1.26-1.26h6.76c.7,0,1.26,.57,1.26,1.26s-.57,1.26-1.26,1.26Z"/>
      </g>
      <path class="cls-24" d="M178.25,198.28H68c-5.02,0-9.11-4.09-9.11-9.11v-60.65c0-5.02,4.09-9.11,9.11-9.11h34.29c.4,0,.72,.32,.72,.72s-.32,.72-.72,.72h-34.29c-4.23,0-7.68,3.45-7.68,7.68v60.65c0,4.23,3.45,7.68,7.68,7.68h110.25c4.23,0,7.68-3.45,7.68-7.68v-22.15c0-.4,.32-.72,.72-.72s.72,.32,.72,.72v22.15c0,5.02-4.09,9.11-9.11,9.11h-.01Z"/>
      <path class="cls-24" d="M186.65,161.21c-.4,0-.72-.32-.72-.72v-31.98c0-4.24-3.45-7.68-7.68-7.68h-35.17c-.4,0-.72-.32-.72-.72s.32-.72,.72-.72h35.17c5.02,0,9.11,4.09,9.11,9.11v31.98c0,.4-.32,.72-.72,.72h.01Z"/>
      <path class="cls-24" d="M136.33,120.93h-27.38c-.4,0-.72-.32-.72-.72s.32-.72,.72-.72h27.38c.4,0,.72,.32,.72,.72s-.32,.72-.72,.72Z"/>
      <path class="cls-24" d="M124.38,116.99c-.26,0-.48-.2-.5-.46-.02-.28,.18-.52,.46-.54,.06,0,5.75-.49,10.13-3.22,.24-.14,.54-.07,.69,.16s.07,.54-.16,.69c-4.59,2.86-10.33,3.35-10.58,3.37-.01,0-.03,0-.04,0Z"/>
      <path class="cls-24" d="M107.47,113.16c-.12,0-.25-.05-.35-.14-1.31-1.26-2.2-2.48-2.24-2.53-.16-.22-.11-.54,.11-.7,.22-.16,.54-.11,.7,.11,0,.01,.88,1.21,2.12,2.4,.2,.19,.21,.51,.02,.71-.1,.1-.23,.15-.36,.15Z"/>
      <path class="cls-24" d="M63.96,167.63c-.28,0-.5-.22-.5-.5v-22.87c0-.28,.22-.5,.5-.5s.5,.22,.5,.5v22.87c0,.28-.22,.5-.5,.5Z"/>
      <path class="cls-24" d="M161.23,193.75h-22.87c-.28,0-.5-.22-.5-.5s.22-.5,.5-.5h22.87c.28,0,.5,.22,.5,.5s-.22,.5-.5,.5Z"/>
      <path class="cls-24" d="M38.36,202.41h-7.67c-.28,0-.5-.22-.5-.5s.22-.5,.5-.5h7.67c.28,0,.5,.22,.5,.5s-.22,.5-.5,.5Z"/>
      <path class="cls-24" d="M33.25,167.06h-.99c-.35,0-.63-.28-.63-.63s.28-.63,.63-.63h.99c.35,0,.63,.28,.63,.63s-.28,.63-.63,.63Z"/>
      <path class="cls-24" d="M33.25,170.59h-.99c-.35,0-.63-.28-.63-.63s.28-.63,.63-.63h.99c.35,0,.63,.28,.63,.63s-.28,.63-.63,.63Z"/>
      <path class="cls-24" d="M37.51,151.78c-.14,0-.29-.05-.41-.15l-.76-.64c-.27-.23-.3-.63-.08-.89,.23-.27,.63-.3,.89-.08l.76,.64c.27,.23,.3,.63,.08,.89-.12,.15-.3,.23-.49,.23h0Z"/>
      <path class="cls-24" d="M51.81,151.13c-.22,0-.44-.12-.56-.33-.17-.31-.06-.69,.25-.86l.87-.48c.31-.17,.69-.06,.86,.25s.06,.69-.25,.86l-.87,.48c-.1,.05-.2,.08-.31,.08h.01Z"/>
      <path class="cls-24" d="M35.28,156.16c-.12,0-.23-.03-.34-.1l-.83-.53c-.3-.19-.38-.58-.19-.88s.58-.38,.88-.19l.83,.53c.3,.19,.38,.58,.19,.88-.12,.19-.33,.29-.54,.29h0Z"/>
      <path class="cls-24" d="M54.39,155.9c-.22,0-.44-.12-.56-.33-.17-.31-.06-.69,.25-.86l.87-.48c.31-.17,.69-.06,.86,.25s.06,.69-.25,.86l-.87,.48c-.1,.05-.2,.08-.31,.08h.01Z"/>
      <path class="cls-24" d="M84.43,120.55c-.22,0-.43-.1-.57-.28-.24-.32-.18-.76,.14-1,.55-.42,13.69-10.26,25.51-10.26,.19,0,.37,.08,.51,.21,.35,.35,8.77,8.54,22.96,.63,.35-.2,.78-.07,.97,.28s.07,.78-.28,.97c-13.85,7.71-22.9,.69-24.44-.66-11.27,.16-24.24,9.87-24.38,9.97-.13,.1-.28,.15-.43,.15h0Z"/>
      <path class="cls-24" d="M157.98,120.55c-.15,0-.3-.05-.43-.15s-13.31-9.97-24.65-9.97c-.4,0-.72-.32-.72-.72s.32-.72,.72-.72c11.82,0,24.96,9.84,25.51,10.26,.32,.24,.38,.69,.14,1-.14,.19-.35,.28-.57,.28v.02Z"/>
      <path class="cls-24" d="M53.76,195.5h-.03c-.4,0-.7-.35-.69-.74,.27-7.34,1.36-21.13,5.63-30.92,.16-.36,.58-.52,.94-.37,.36,.16,.53,.58,.37,.94-4.17,9.58-5.25,23.16-5.51,30.4-.01,.39-.33,.69-.71,.69Z"/>
      <path class="cls-24" d="M86.53,71.69h-.04c-2.7-.03-4.87-2.24-4.85-4.94,.01-1.31,.53-2.53,1.46-3.45,.93-.92,2.19-1.42,3.47-1.4h0c1.31,0,2.53,.53,3.45,1.46,.92,.93,1.41,2.17,1.4,3.47-.02,2.68-2.22,4.85-4.89,4.85h0Zm0-8.78c-1.03,0-1.99,.39-2.73,1.12-.74,.73-1.16,1.7-1.17,2.74-.02,2.15,1.71,3.91,3.86,3.93h.04c2.13,0,3.88-1.72,3.89-3.86,0-1.04-.39-2.02-1.12-2.76s-1.7-1.16-2.74-1.17h-.03Z"/>
      <path class="cls-24" d="M158.55,72.73h-.05c-2.7-.03-4.87-2.24-4.85-4.94,.01-1.31,.53-2.53,1.46-3.45s2.15-1.41,3.47-1.4c1.31,0,2.53,.53,3.45,1.46s1.41,2.17,1.4,3.47-.53,2.53-1.46,3.45c-.92,.91-2.14,1.4-3.43,1.4h0Zm0-8.78c-1.03,0-1.99,.39-2.73,1.12-.74,.73-1.16,1.7-1.17,2.74-.02,2.15,1.71,3.91,3.86,3.93h.04c1.03,0,1.99-.39,2.73-1.12,.74-.73,1.16-1.7,1.17-2.74,0-1.04-.39-2.02-1.12-2.76s-1.7-1.16-2.74-1.17h-.04Z"/>
      <path class="cls-26" d="M130.64,27.12c3.22-1.58,6.46-3.18,9.44-5.2s5.66-4.71,8.15-7.48c1.29-1.43-.83-3.56-2.12-2.12-2.39,2.66-4.82,5.19-7.8,7.18s-6.05,3.49-9.18,5.03c-1.73,.85-.21,3.44,1.51,2.59h0Z"/>
      <path class="cls-21" d="M111.93,34.79c-.48,0-.9-.35-.99-.83-.09-.54,.28-1.06,.82-1.15,.15-.03,15.17-2.59,24.52-8.61,.47-.3,1.08-.17,1.38,.3,.3,.46,.17,1.08-.3,1.38-9.7,6.25-24.64,8.8-25.27,8.91-.06,0-.11,0-.17,0h0Z"/>
      <path class="cls-24" d="M90.06,35.4h-.96c-.4,0-.71-.34-.7-.74,.01-.4,.38-.68,.74-.7,.51,.02,50.12,1.11,62.49-27.09-2.23-3.1-5.67-5.03-9.49-5.32-2.78-.25-5.57-.08-8.29,.51-.38,.09-.77-.16-.85-.55-.08-.39,.16-.77,.55-.85,2.87-.62,5.8-.8,8.71-.54,4.38,.33,8.32,2.61,10.78,6.26,.14,.2,.16,.46,.07,.68-11.53,27.21-55.91,28.33-63.04,28.33h0Z"/>
      <g>
        <circle class="cls-7" cx="84.64" cy="141.15" r="10.54"/>
        <g>
          <path class="cls-28" d="M92.57,141.15c0-1.1-1.21-2.05-3.33-2.65,.54-2.13,.32-3.66-.63-4.21-.93-.54-2.4,.04-3.96,1.56-1.56-1.52-3.03-2.1-3.96-1.56-.95,.55-1.17,2.07-.63,4.21-2.12,.6-3.33,1.55-3.33,2.65s1.21,2.05,3.33,2.65c-.55,2.13-.32,3.66,.63,4.21,.24,.14,.52,.21,.8,.2,.88,0,2-.62,3.17-1.76,1.17,1.14,2.29,1.76,3.17,1.76,.28,0,.55-.07,.8-.2,.95-.55,1.17-2.07,.63-4.21,2.12-.6,3.33-1.55,3.33-2.65h-.02Zm-7.93,4.34c-.34-.37-.66-.75-.96-1.14,.32,.02,.64,.03,.96,.03s.63,0,.96-.03c-.3,.4-.62,.78-.96,1.14Zm0-8.68c.34,.37,.66,.75,.96,1.14-.64-.03-1.27-.03-1.91,0,.3-.4,.62-.78,.96-1.14h0Zm-1.45,6.85c-.55-.8-1.03-1.64-1.45-2.51,.42-.87,.9-1.71,1.45-2.51,.97-.07,1.94-.07,2.9,0,.55,.8,1.03,1.64,1.45,2.51-.42,.87-.9,1.71-1.45,2.51-.98,.07-1.93,.07-2.9,0Zm-1.35-4.12c-.16,.28-.31,.56-.46,.84-.19-.46-.36-.92-.51-1.4,.49-.11,.98-.19,1.47-.26-.17,.27-.34,.54-.5,.81h0Zm-.46,2.4c.15,.28,.3,.56,.46,.84s.33,.55,.5,.81c-.51-.06-1-.15-1.47-.25,.15-.47,.32-.94,.51-1.4Zm6.51,0c.19,.46,.36,.92,.51,1.4-.49,.11-.97,.19-1.47,.25,.35-.53,.66-1.09,.96-1.65Zm0-1.55c-.29-.57-.61-1.12-.96-1.65,.49,.06,.98,.15,1.47,.26-.15,.47-.32,.94-.51,1.4h0Zm.38-5.52c.66,.38,.77,1.69,.32,3.47-.67-.15-1.38-.26-2.14-.33h0c-.41-.59-.87-1.15-1.35-1.68,1.29-1.26,2.52-1.84,3.17-1.46Zm-7.27,0c.13-.08,.29-.11,.47-.11,.7,0,1.67,.57,2.71,1.57-.49,.53-.94,1.09-1.36,1.68-.72,.06-1.43,.17-2.14,.33-.45-1.78-.34-3.09,.32-3.47Zm-3.63,6.28c0-.76,1.08-1.52,2.85-2.01,.22,.69,.48,1.36,.78,2.01h0c-.3,.65-.56,1.32-.78,2.01-1.77-.5-2.85-1.26-2.85-2.01Zm3.63,6.28c-.66-.38-.77-1.7-.32-3.47,.7,.16,1.42,.27,2.14,.33h0c.41,.59,.87,1.15,1.36,1.68-1.29,1.26-2.52,1.83-3.17,1.46h0Zm7.27,0c-.13,.08-.29,.11-.47,.11h0c-.7,0-1.67-.57-2.71-1.57,.49-.53,.94-1.09,1.35-1.68h0c.72-.06,1.43-.17,2.14-.33,.45,1.78,.34,3.09-.32,3.47h0Zm.78-4.27c-.2-.65-.46-1.32-.78-2.01h0c.3-.65,.56-1.32,.78-2.01,1.77,.5,2.85,1.26,2.85,2.01s-1.08,1.52-2.85,2.01Z"/>
          <circle class="cls-28" cx="84.64" cy="141.15" r="1.41"/>
        </g>
        <path class="cls-24" d="M84.64,152.19c-1.07,0-2.12-.15-3.14-.45-.26-.08-.42-.36-.34-.62,.08-.27,.36-.42,.62-.34,.92,.27,1.88,.41,2.86,.41,5.54,0,10.04-4.5,10.04-10.04s-4.5-10.04-10.04-10.04-10.04,4.5-10.04,10.04c0,.59,.05,1.18,.15,1.75,.05,.27-.13,.53-.41,.58-.27,.05-.53-.13-.58-.41-.11-.63-.17-1.27-.17-1.92,0-6.09,4.95-11.04,11.04-11.04s11.04,4.95,11.04,11.04-4.95,11.04-11.04,11.04h.01Z"/>
        <path class="cls-24" d="M75.04,146.01c-.19,0-.37-.11-.46-.29-.1-.22-.2-.45-.28-.68-.1-.26,.03-.55,.29-.64,.26-.1,.55,.03,.64,.29,.08,.21,.17,.42,.26,.62,.11,.25,0,.55-.25,.66-.07,.03-.14,.04-.21,.04h0Z"/>
        <path class="cls-24" d="M79.54,150.88c-.08,0-.17-.02-.24-.06-1.49-.83-2.79-2-3.75-3.41-.16-.23-.1-.54,.13-.7,.22-.15,.54-.1,.7,.13,.88,1.28,2.06,2.35,3.42,3.1,.24,.13,.33,.44,.2,.68-.09,.17-.26,.26-.44,.26h-.02Z"/>
      </g>
      <path class="cls-4" d="M172.12,187.98h0c.25-.67,.22-1.38-.1-2.11,0,0,0-.02-.01-.03h0l-.02-.03h0l-.18-.37h0l-.02-.06h0s-.02-.03-.03-.04c-.64-1.03-1.97-2.22-4.74-2.62-.07-1.23,.26-2.02,1.24-2.98,.17-.17,.18-.33,.02-.52-.31-.38-.91-.58-1.35-.68-.21-.05-.37,0-.49,.14-.85,1.03-2.12,1.71-3.35,2.36l-.07,.04c.05-1.13,.5-1.79,1.26-2.51,.15-.14,.17-.29,.05-.46-.34-.48-1.11-.67-1.43-.74-.4-.08-1.26,.66-2.27,1.57-.25,.23-.47,.42-.58,.51-.27,.2-.55,.43-.84,.68-.67,.57-1.42,1.2-2.16,1.46,.03-.47,.61-.93,1.18-1.37,.67-.53,1.31-1.02,1.18-1.62-.04-.19-.15-.35-.32-.46-.11-.07-.23-.11-.35-.12,.19-.28,.31-.51,.38-.84,.09-.47-.12-.86-.57-1.08-1.02-.5-2.27-.19-3.14,.15-.58,.23-1.54,.14-2.39,.05-.34-.03-.65-.06-.93-.07-.2-.48-.48-1.01-.79-1.57-.85-1.57-1.82-3.34-1.16-4.73,.97-2.04,3.99-2.27,6.51-2.24,1.91,.02,3.48,.2,4.82,.54,1.87,.48,3.24,1.3,4.07,2.42,.45,.62,.4,1.41-.13,1.98-1.38,1.48-3.95,1.65-5.91,1.31-1.18-.21-2.11-.52-2.84-.96-.92-.55-1.45-1.43-1.67-1.81-.03-.06-.07-.13-.12-.18h-.01c-.05-.06-.13-.07-.19-.05-.11,.05-.15,.19-.16,.27-.12,1.01,.27,1.89,1.15,2.62,.29,.23,.6,.44,.94,.61,2.32,1.21,5.98,1.42,7.65,.89,1.13-.36,2.08-.85,3-2.07,.96-1.27,.52-2.74-.21-3.68-1.78-2.3-4.66-3.26-6.76-3.67-2.46-.47-5.27-.45-7.71,.05-3,.62-4.6,1.81-4.74,3.56-.15,1.79,.89,3.5,1.89,5.15,.32,.53,.63,1.04,.89,1.53-.15,0-.31,0-.47,0-1.54-.05-3.28-.1-4.63,.6-.98,.51-1.51,1.26-1.56,2.22-.03,.51,.16,.97,.56,1.35,.21,.2,.44,.36,.7,.49,.91,.47,2.1,.63,2.82,.57,1.28-.1,2.32-.59,3.11-1.44,.7-.76,1.1-1.67,1.17-2.64l1.49,.02c-1.56,1.59-1.71,2.95-1.56,3.82,.06,.32,.3,.63,.66,.82s.75,.23,1.05,.1c.58-.25,1.1-.62,1.6-1.01-.19,.32-.34,.67-.38,1.01-.03,.31,.05,.57,.23,.74,.19,.19,.49,.27,.84,.23,1.58-.19,3.38-1.69,4.82-2.89,.2-.17,.4-.34,.59-.49-.14,.65-.2,1.31-.2,1.97,0,.14-.03,.19-.16,.24-.2,.07-.46,.15-.74,.23-.85,.24-1.9,.54-2.3,1.08-.16,.22-.11,.52,.12,.7,.68,.55,1.71,.81,2.76,.69,.95-.11,1.56-.63,1.81-1.54,.24-.88,1.15-1.66,2.71-2.3-.19,.74-.25,1.38-.21,2h-.01c-1.02,.25-2.42,.58-2.8,1.68-.08,.21-.06,.44,.04,.64,.11,.21,.3,.36,.53,.42,1.02,.29,1.91,.26,2.73-.08s.98-1.11,1.09-1.72c1.5,.33,2.66,.95,3.56,1.89,.5,.53,.77,1.11,.77,1.72,0,.77-.45,1.23-1.3,1.3-.26,.02-.39,.05-.45,.14-.03,.04-.03,.1,0,.14,.04,.1,.21,.32,.9,.27,.63-.05,1.12-.31,1.45-.78,.09-.13,.16-.27,.22-.42l-.05,.02Zm-21.68-9.65l-.04,.06c-.48,.73-1.22,1.19-2.21,1.39-.62,.12-1.2,.09-1.64-.09-.31-.13-.5-.28-.57-.45-.05-.13-.04-.28,.03-.45,.61-1.38,3.41-1.62,4.82-1.44-.07,.34-.2,.67-.39,.97h0Zm7.35-.96h0c-.77,1.01-2.43,2.8-3.75,3.15-.06,.02-.11,0-.12,0s-.02-.04-.01-.07c.06-.84,.78-1.95,1.71-2.63,.71-.52,1.45-.73,2.08-.59,.03,0,.05,0,.08,.03,.02,0,.04,.02,.05,.04,0,.03,0,.05-.03,.08h0Zm2.28,6.32c-.26,.09-.48-.06-.39-.09l1.33-.46c-.23,.28-.57,.43-.94,.55h0Zm3.95,1.06c-.1,0-.2-.02-.3-.06,.22-.49,.97-.78,1.61-.9-.14,.56-.66,.96-1.31,.97h0Z"/>
      <rect class="cls-7" x="110.5" y="128.27" width="16.09" height="28.52" rx=".87" ry=".87" transform="translate(-46.77 226.44) rotate(-77.16)"/>
      <path class="cls-24" d="M105.29,137.02s-.07,0-.11,0c-.27-.06-.44-.33-.38-.6l.94-4.12c.08-.36,.3-.66,.61-.86s.68-.26,1.03-.18l6.37,1.45c.27,.06,.44,.33,.38,.6s-.33,.44-.6,.38l-6.37-1.45c-.1-.02-.2,0-.28,.05s-.14,.13-.16,.23l-.94,4.12c-.05,.23-.26,.39-.49,.39h0Z"/>
      <path class="cls-24" d="M106.96,148.68s-.07,0-.11,0l-3.27-.75c-.74-.17-1.2-.9-1.03-1.64l1.75-7.67c.06-.27,.33-.44,.6-.38,.27,.06,.44,.33,.38,.6l-1.75,7.67c-.04,.2,.08,.4,.28,.44l3.27,.75c.27,.06,.44,.33,.38,.6-.05,.23-.26,.39-.49,.39h-.01Z"/>
      <path class="cls-24" d="M129.99,153.91c-.1,0-.21,0-.31-.04l-20.15-4.59c-.27-.06-.44-.33-.38-.6s.33-.44,.6-.38l20.15,4.59c.1,.02,.2,0,.28-.05s.14-.13,.17-.23l3.19-13.99c.04-.2-.08-.4-.28-.44l-8.86-2.02c-.27-.06-.44-.33-.38-.6s.32-.44,.6-.38l8.86,2.02c.74,.17,1.2,.9,1.03,1.64l-3.19,13.99c-.08,.36-.3,.66-.61,.86-.22,.14-.47,.21-.73,.21h0Z"/>
      <path class="cls-24" d="M122.44,135.71s-.07,0-.11,0l-6.81-1.55c-.27-.06-.44-.33-.38-.6s.33-.44,.6-.38l6.81,1.55c.27,.06,.44,.33,.38,.6-.05,.23-.26,.39-.49,.39h0Z"/>
      <g>
        <path class="cls-24" d="M114.38,138.6c-.43-.36-.98-.62-1.65-.77l-.66-.15-.54-.12-.98-.22-1.39,6.11,.98,.22,.54,.12,.66,.15c.67,.15,1.28,.16,1.82,.02,.55-.14,1.01-.41,1.38-.8,.37-.4,.63-.91,.77-1.53s.13-1.2-.03-1.72-.46-.95-.89-1.32h0Zm-.94,3.49c-.15,.2-.32,.35-.52,.45s-.41,.15-.64,.16c-.23,0-.46,0-.7-.07l-.61-.14,.8-3.49,.61,.14c.23,.05,.45,.13,.66,.24s.37,.25,.51,.42,.23,.38,.27,.63c.05,.25,.03,.54-.04,.87s-.19,.6-.34,.8h0Z"/>
        <polygon class="cls-24" points="117.93 139.01 116.95 138.79 115.56 144.9 116.53 145.13 116.97 145.23 119.62 145.83 119.89 144.62 117.25 144.01 117.57 142.61 120.04 143.17 120.31 141.98 117.84 141.42 118.09 140.33 120.73 140.93 121.01 139.72 118.36 139.11 117.93 139.01"/>
        <polygon class="cls-24" points="126.26 140.92 123.94 144.22 123.28 140.23 121.56 139.84 123.29 147.07 127.99 141.31 126.26 140.92"/>
      </g>
      <circle class="cls-24" cx="186.68" cy="163.56" r=".88"/>
    </g>
  </g>
</svg>