<?xml version="1.0" encoding="UTF-8"?>
<svg id="Layer_2" data-name="Layer 2" xmlns="http://www.w3.org/2000/svg" viewBox="0 0 573.97 668.58">
  <defs>
    <style>
      .cls-1 {
        fill: none;
      }

      .cls-2 {
        fill: #f56137;
      }

      .cls-3 {
        fill: #e8f1f5;
      }

      .cls-4 {
        fill: #fff;
      }

      .cls-5 {
        fill: #ffe92d;
      }

      .cls-6 {
        fill: #ecf3f6;
      }

      .cls-7 {
        fill: #ffc000;
      }

      .cls-8 {
        fill: #ffab97;
      }

      .cls-9 {
        fill: #ffabaf;
      }

      .cls-10 {
        fill: #fd6768;
      }

      .cls-11 {
        fill: #e5353e;
      }

      .cls-12 {
        fill: #baaba7;
      }

      .cls-13 {
        fill: #b0c9d1;
      }

      .cls-14 {
        fill: #dff6ff;
      }

      .cls-15 {
        fill: #1f033c;
      }

      .cls-16 {
        fill: #88d5ed;
      }

      .cls-17 {
        fill: #6f605a;
      }

      .cls-18 {
        fill: #aad4e2;
        isolation: isolate;
        opacity: .25;
      }
    </style>
  </defs>
  <g id="Layer_1-2" data-name="Layer 1">
    <g id="Layer_2-2" data-name="Layer 2">
      <g id="Layer_1-2" data-name="Layer 1-2">
        <path class="cls-4" d="M37.28,436.8l-33.23,18.37,42.67,77.12,5.51,9.98h0l.16,.29,9.46,17.1,14.86,26.86h0l2.27,3.97,33.23-18.37L37.28,436.8Z"/>
        <path class="cls-14" d="M134.91,623.8c-11.86-34.73-53.13-49.9-73.63-80.28-15.91-24.33-17.21-55.43-3.38-81,6.62-11.89,16.29-21.84,23.18-33.59,21.35-36.45,13.34-84.68,35.05-120.9,17.67-29.49,55.01-45.78,88.67-38.56,8.8,1.88,17.33,5.19,26.29,6.24,10.93,1.27,21.94-.93,32.82-2.54,25.41-3.77,52.17-4.24,75.79,5.99,14.84,6.44,27.63,16.83,39.24,28.08,59.14,57.21,91.69,142.14,81.21,223.73-1.79,13.95-4.76,27.74-6.08,41.74-1.79,19.21-.41,38.68-3.04,57.82-.68,4.95-1.75,10.14-5.08,13.88-3.79,4.29-9.75,5.83-15.38,6.94-24.68,4.85-49.9,5.56-75.11,6.26l-159.85,4.4"/>
        <path class="cls-4" d="M394.41,426.09h-10.19c-2.05-5.37-8.07-8.06-13.44-6.01-.15,.06-.29,.12-.44,.18,0,0-1.61-15.63-21.16-15.63s-20.69,23.39-20.69,23.39h-7.19"/>
        <path class="cls-4" d="M48.58,413.41h15.29s5.1-14.09,20.87-8.73c0,0,2.4-23.5,31.76-23.5s31.1,35.14,31.1,35.14h15.02"/>
        <path class="cls-4" d="M525.03,664.36c-10.03-27.97-39.36-20.73-39.36-20.73l11.61-.95c0-37.84-36.29-53.24-36.29-53.24l-7.49-2.27c-59.27-22.68-92.01,28.04-92.01,28.04l-2.06,2.04c-20.08-28.83-72.59-26.54-95.27,1.54l14.79,46.27,246.07-.7Z"/>
        <path class="cls-3" d="M20.27,664.63c0-32.07,22.96-53.22,51.24-53.22,7.02,.02,13.93,1.63,20.23,4.72,13.77-25.11,38.34-41.81,66.33-41.81,24.34,0,46.09,12.63,60.43,32.42,21.57-5.49,44.78,4.54,57.32,26.86,5.06,9.6,7.92,20.19,8.37,31.03"/>
        <path class="cls-18" d="M239.82,664.63H19.2c0-32.05,22.96-53.19,51.24-53.19,7.03,0,13.98,1.59,20.3,4.67,7.54-14.08,19-25.68,33-33.37,9.66,15.31,46.39,66.01,116.07,81.89Z"/>
        <path class="cls-4" d="M280.74,668.58c-2.43,0-4.44-1.92-4.53-4.37-.33-8.82-2.88-17.49-7.38-25.08-11.29-20.26-30.69-29.61-50.69-24.5-1.68,.43-3.45-.14-4.58-1.45-17.63-20.69-35.35-30.75-54.19-30.75-24.46,0-48.22,15.78-62,41.18-.73,1.34-2.08,2.23-3.6,2.36-1.52,.12-3-.51-3.95-1.71-2.59-3.28-12.67-6.38-18.6-5.67-25.3,2.94-39.8,18.67-41.91,45.48-.2,2.5-2.36,4.34-4.88,4.17-2.5-.2-4.36-2.38-4.17-4.88,2.46-31.23,20.18-50.33,49.91-53.78,6.32-.73,15.65,1.26,21.93,5.02,15.69-25.57,41.04-41.23,67.27-41.23,20.98,0,40.4,10.43,59.29,31.86,22.86-4.57,45.41,6.76,58.03,29.4,5.21,8.78,8.2,18.94,8.58,29.26,.09,2.51-1.86,4.61-4.37,4.7-.06,0-.11,0-.17,0Z"/>
        <path class="cls-6" d="M247.7,360.99l-66.74,216.77s31.3,13.79,37.27,29.6c16.04-4.35,33.19-.11,45.37,11.21,14.42-15.64,35.16-23.9,56.39-22.43l-46.37-226.09"/>
        <path class="cls-4" d="M189.49,568.21c-.43,0-.87-.06-1.31-.19-2.4-.72-3.76-3.25-3.04-5.65l58.21-193.6c.72-2.4,3.26-3.76,5.65-3.04,2.4,.72,3.76,3.25,3.04,5.65l-58.21,193.61c-.59,1.96-2.39,3.23-4.34,3.23Z"/>
        <path class="cls-2" d="M243.27,340.25c-.5,.41-.94,.88-1.32,1.41-12.42,14.72-15.29,35.26-7.39,52.83l13.22,29.99c1.53,2.83,5.07,3.88,7.9,2.35,.62-.33,1.17-.77,1.62-1.3l23.98-30.62c11.29-14.07,14.18-33.11,7.58-49.9l-.91-2.27"/>
        <path class="cls-8" d="M249.65,426.98c-.87,0-1.7-.51-2.08-1.36l-13.2-30.01c-8.18-18.2-5.15-39.84,7.71-55.11,.4-.56,.99-1.18,1.65-1.71,.98-.79,2.4-.63,3.19,.35,.78,.98,.63,2.41-.35,3.19-.35,.28-.66,.6-.92,.97-11.85,14.08-14.61,33.84-7.14,50.48l13.21,30.03c.5,1.15-.02,2.49-1.16,2.99-.3,.13-.61,.19-.91,.19Z"/>
        <path class="cls-7" d="M249.53,340.87c-.38,.31-.71,.67-1,1.07-9.49,11.19-11.74,26.82-5.81,40.24l10.05,22.87c1.27,2.16,4.05,2.89,6.21,1.62,.38-.22,.73-.5,1.03-.82l18.15-23.36c8.57-10.72,10.77-25.2,5.76-37.97l-.68-1.75"/>
        <path class="cls-5" d="M253.5,340.87c-.26,.22-.5,.47-.7,.75-6.61,7.88-8.14,18.85-3.95,28.24l7.05,16.04c.82,1.51,2.71,2.06,4.22,1.24,.33-.18,.62-.42,.87-.7l12.7-16.4c6.01-7.52,7.55-17.67,4.04-26.63l-.48-1.22"/>
        <path class="cls-2" d="M272.47,342.52c-.45,5.51-4.4,9.66-8.82,9.3s-7.62-5.13-7.17-10.62"/>
        <path class="cls-10" d="M225.69,321.49l-.73,12.77c-.14,2.73,1.94,5.07,4.67,5.24l78.87,4.38c2.68,.16,5-1.86,5.22-4.54l.68-12.23"/>
        <path class="cls-11" d="M226.28,312.17l-.73,12.77c-.15,2.73,1.93,5.06,4.66,5.22,0,0,0,0,.01,0l78.94,4.4c2.73,.15,5.06-1.93,5.22-4.66h0s.68-12.22,.68-12.22"/>
        <path class="cls-15" d="M308.8,345.03c-.12,0-.23,0-.35-.01l-78.87-4.38c-3.34-.21-5.92-3.09-5.74-6.43l.73-12.78c.04-.63,.56-1.09,1.2-1.07,.63,.04,1.1,.57,1.07,1.2l-.73,12.77c-.11,2.1,1.51,3.91,3.61,4.04l78.86,4.38c2.03,.08,3.86-1.45,4.02-3.5l.68-12.2c.03-.63,.54-1.11,1.2-1.07,.63,.03,1.1,.57,1.07,1.2l-.68,12.23c-.26,3.18-2.94,5.62-6.06,5.62Z"/>
        <path class="cls-15" d="M252.92,428.71c-2.47,0-4.87-1.32-6.13-3.64l-13.27-30.07c-2.05-4.62-3.42-9.51-4.08-14.53-.08-.62,.36-1.19,.98-1.27,.61-.09,1.19,.36,1.27,.98,.63,4.81,1.94,9.49,3.9,13.91l13.23,29.99c1.19,2.2,4.05,3.05,6.33,1.81,.5-.27,.94-.62,1.31-1.05l23.94-30.62c11.02-13.73,13.85-32.42,7.41-48.79l-.9-2.26c-.23-.58,.05-1.24,.63-1.47,.58-.23,1.24,.05,1.47,.63l.91,2.27c6.74,17.13,3.77,36.68-7.74,51.04l-23.97,30.66c-.59,.68-1.24,1.21-1.98,1.6-1.05,.57-2.19,.84-3.31,.84Z"/>
        <path class="cls-15" d="M230.16,374.17h-.02c-.63-.01-1.12-.53-1.11-1.16,.25-11.71,4.53-23.1,12.06-32.08,.38-.53,.89-1.08,1.46-1.55,.49-.4,1.2-.33,1.6,.15,.4,.48,.33,1.2-.15,1.6-.43,.35-.8,.75-1.12,1.19-7.25,8.65-11.35,19.54-11.58,30.73-.01,.62-.52,1.11-1.13,1.11Z"/>
        <path class="cls-15" d="M264.17,352.5c-.19,0-.39,0-.59-.02-2.34-.19-4.44-1.5-5.9-3.67-1.43-2.13-2.1-4.85-1.87-7.65,.03-.36,.36-.61,.71-.6,.36,.03,.63,.35,.6,.71-.21,2.51,.38,4.93,1.64,6.81,1.24,1.84,2.99,2.94,4.92,3.1,4.07,.32,7.69-3.57,8.11-8.7,.03-.36,.35-.61,.71-.6,.36,.03,.63,.35,.6,.71-.46,5.61-4.41,9.93-8.95,9.93Z"/>
        <path class="cls-14" d="M319.26,326.64l-99.6-5.53c-9.61-.55-16.99-8.71-16.58-18.33,2.43-57,15.4-221.46,84.36-301.69,59.64,87.38,54.24,252.29,50.34,309.22-.67,9.59-8.91,16.86-18.51,16.33Z"/>
        <path class="cls-16" d="M338,310.24c-.64,9.6-8.9,16.9-18.51,16.35l-16.88-.93c6.69-2.29,11.35-8.37,11.82-15.42,3.65-53.37,8.62-201.64-39.9-291.94,4.04-6,8.43-11.75,13.13-17.24,59.59,87.4,54.21,252.24,50.34,309.18Z"/>
        <path class="cls-16" d="M302.14,324.78c-.46,.2-.93,.37-1.41,.52h1.38l-9.94-.7c4.13-57.87,7.1-201.7-27.95-290.49,1.84-3.08,3.75-6.14,5.72-9.16,39.56,89.76,36.5,239.9,32.19,299.83Z"/>
        <path class="cls-12" d="M315.77,60.68l-62.99-3.52,.29-.64c.7-1.52,1.41-3.04,2.27-4.54,.18-.41,.39-.82,.59-1.22,.77-1.61,1.57-3.22,2.27-4.81,.32-.64,.64-1.27,.98-1.91,.68-1.34,1.36-2.65,2.09-3.95,.04-.11,.1-.22,.16-.32l47.64,2.65c2.43,5.9,4.65,12,6.71,18.24Z"/>
        <path class="cls-17" d="M314.5,60.02l-23.89-1.34c-2.07-6.23-4.34-12.28-6.81-18.15l23.95,1.34c2.45,5.76,4.67,11.91,6.74,18.15Z"/>
        <line class="cls-1" x1="184.79" y1="213.38" x2="180.42" y2="291.96"/>
        <line class="cls-1" x1="189.1" y1="225.34" x2="188.81" y2="230.56"/>
        <line class="cls-1" x1="188.54" y1="235.66" x2="188.24" y2="240.85"/>
        <line class="cls-1" x1="187.95" y1="245.96" x2="187.65" y2="251.18"/>
        <line class="cls-1" x1="187.38" y1="256.28" x2="187.08" y2="261.5"/>
        <line class="cls-1" x1="186.79" y1="266.76" x2="186.52" y2="271.64"/>
        <line class="cls-1" x1="186.22" y1="277.06" x2="185.95" y2="281.96"/>
        <path class="cls-10" d="M213.87,194.24c-31.08,25.79-79.44,38.88-90.58,41.67-1.44,.37-2.47,1.63-2.54,3.11l-7.33,130.34h0c6.6-3.8,12.08-9.28,15.88-15.88,5.9-10.28,15.45-26.49,24.32-39.27,6.39-9.28,15.09-16.72,25.25-21.59l25.41-12.18"/>
        <path class="cls-9" d="M118.76,327.37s-.08,0-.12,0c-1.25-.07-2.21-1.13-2.14-2.39l1.91-35.86c.07-1.25,1.16-2.19,2.39-2.14,1.25,.07,2.21,1.13,2.14,2.39l-1.91,35.86c-.06,1.21-1.07,2.15-2.26,2.15Z"/>
        <path class="cls-4" d="M119.33,316.26s-.08,0-.12,0c-1.25-.06-2.21-1.13-2.15-2.38l.75-14.5c.06-1.25,1.12-2.22,2.38-2.15,1.25,.06,2.21,1.13,2.15,2.38l-.75,14.5c-.06,1.21-1.06,2.15-2.26,2.15Z"/>
        <path class="cls-9" d="M121.83,277.13s-.08,0-.13,0c-1.25-.07-2.21-1.14-2.14-2.39l1.84-33.64c.12-1.78,1.33-3.29,3.01-3.78,12.81-3.35,25.5-7.45,37.79-12.19,1.17-.45,2.48,.13,2.93,1.3s-.13,2.48-1.3,2.93c-12.35,4.76-25.11,8.89-37.92,12.25l-1.82,33.37c-.07,1.21-1.07,2.14-2.26,2.14Z"/>
        <path class="cls-4" d="M122.67,261.63s-.08,0-.13,0c-1.25-.07-2.21-1.14-2.14-2.39l1-18.15c.12-1.78,1.33-3.29,3.01-3.78,1.54-.4,4.2-1.17,7.53-2.12,2.1-.6,4.46-1.28,6.96-1.99,1.2-.34,2.46,.36,2.8,1.56,.34,1.21-.36,2.46-1.56,2.8-2.49,.71-4.85,1.38-6.95,1.98-3.16,.91-5.73,1.64-7.28,2.06l-.98,17.88c-.07,1.21-1.07,2.14-2.26,2.14Z"/>
        <polygon class="cls-11" points="180.44 292.66 176.49 294.89 180.26 216.24 184.25 213.61 180.44 292.66"/>
        <line class="cls-1" x1="366.47" y1="224.48" x2="362.09" y2="303.05"/>
        <line class="cls-1" x1="360.86" y1="235.86" x2="360.57" y2="241.08"/>
        <line class="cls-1" x1="360.27" y1="246.18" x2="360" y2="251.38"/>
        <line class="cls-1" x1="359.71" y1="256.48" x2="359.41" y2="261.7"/>
        <line class="cls-1" x1="359.14" y1="266.8" x2="358.85" y2="272.02"/>
        <line class="cls-1" x1="358.55" y1="277.28" x2="358.28" y2="282.16"/>
        <line class="cls-1" x1="357.98" y1="287.58" x2="357.71" y2="292.48"/>
        <path class="cls-10" d="M339.63,202.18c28.01,29.01,74.61,47.45,85.36,51.54,1.42,.51,2.34,1.88,2.27,3.38l-7.26,130.25h0c-6.17-4.5-11.02-10.57-14.04-17.58-4.72-10.87-12.43-28.04-19.8-41.72-5.34-9.88-13.16-18.19-22.68-24.14l-23.91-14.95"/>
        <path class="cls-11" d="M212.69,196.83l.84,2.79c-1.5,9.28-1.93,17.26-2.95,25.38-.36,2.74-.75,6.49-1.04,9.07-2,17.26-3.86,31.76-4.81,46.05l-11.34,7.53c1.32-21.53,3.88-50.79,8.78-83.07,3.63-2.41,7.15-5,10.53-7.76Z"/>
        <path class="cls-11" d="M339.16,203.29v.29c1.79,33.37,1.41,63.81,.52,86.58l9.07,5.6c.98-21.55,1.52-50.93,0-83.52-3.35-2.82-6.55-5.81-9.6-8.96Z"/>
        <rect class="cls-16" x="268.32" y="240.79" width="4.54" height="134.13" transform="translate(-51.85 560.89) rotate(-86.81)"/>
        <path class="cls-4" d="M218.46,184.87c-.18,0-.37-.01-.56-.05-1.85-.3-3.11-2.05-2.81-3.91,12.33-75.09,35.04-119.7,35.27-120.14,.86-1.67,2.91-2.32,4.58-1.46,1.67,.86,2.33,2.91,1.47,4.58-.22,.43-22.46,44.19-34.6,118.13-.27,1.67-1.72,2.85-3.35,2.85Z"/>
        <path class="cls-15" d="M220.7,159.92c-.08,0-.16,0-.24-.02-.61-.13-1-.73-.88-1.34,3.73-17.62,8.02-34.44,12.75-50,.18-.6,.81-.93,1.42-.76,.6,.18,.94,.82,.76,1.42-4.71,15.5-8.98,32.26-12.7,49.81-.11,.53-.58,.9-1.11,.9Z"/>
        <path class="cls-15" d="M209.38,228.38s-.09,0-.14,0c-.62-.08-1.06-.64-.98-1.27l.48-3.85c2.09-16.75,3.89-31.22,7.54-49.9,.12-.62,.72-1.02,1.33-.9,.61,.12,1.02,.72,.9,1.33-3.64,18.6-5.43,33.03-7.51,49.74l-.48,3.85c-.07,.57-.56,.99-1.12,.99Z"/>
        <path class="cls-15" d="M337.27,309.73s-.03,0-.05,0l-76.97-4.29c-.49-.03-.87-.45-.85-.94,.03-.5,.45-.9,.94-.85l76.97,4.29c.49,.03,.87,.45,.85,.94-.03,.48-.42,.85-.89,.85Z"/>
        <path class="cls-15" d="M252.85,305.04s-.04,0-.05,0l-7.89-.45c-.49-.03-.87-.45-.84-.95,.03-.5,.47-.87,.95-.84l7.89,.45c.49,.03,.87,.45,.84,.95-.03,.48-.42,.85-.89,.85Z"/>
        <path class="cls-15" d="M238.33,304.22s-.03,0-.05,0l-34.98-1.95c-.49-.03-.87-.45-.85-.94,.03-.49,.46-.89,.94-.85l34.98,1.95c.49,.03,.87,.45,.85,.94-.03,.48-.42,.85-.89,.85Z"/>
        <path class="cls-15" d="M180.42,293.81s-.03,0-.05,0c-.49-.03-.87-.45-.85-.94l3.13-56.23c.03-.49,.43-.9,.94-.85,.49,.03,.87,.45,.85,.94l-3.13,56.23c-.03,.48-.42,.85-.89,.85Z"/>
        <path class="cls-15" d="M184,229.75s-.03,0-.05,0c-.49-.03-.87-.45-.85-.94l.79-14.52c.03-.49,.45-.89,.94-.85,.49,.03,.87,.45,.85,.94l-.79,14.52c-.03,.48-.42,.85-.89,.85Z"/>
        <path class="cls-15" d="M188.81,232.37s-.03,0-.05,0c-.48-.03-.84-.43-.81-.91l.29-5.22c.03-.48,.45-.83,.91-.81,.48,.03,.84,.43,.81,.91l-.29,5.22c-.03,.46-.41,.81-.86,.81Z"/>
        <path class="cls-15" d="M188.24,242.69s-.03,0-.05,0c-.48-.03-.84-.43-.81-.91l.29-5.22c.03-.48,.46-.85,.91-.81,.48,.03,.84,.43,.81,.91l-.29,5.22c-.03,.46-.41,.81-.86,.81Z"/>
        <path class="cls-15" d="M187.65,252.99s-.03,0-.05,0c-.48-.03-.84-.43-.81-.91l.29-5.19c.03-.48,.45-.84,.91-.81,.48,.03,.84,.43,.81,.91l-.29,5.19c-.03,.46-.41,.81-.86,.81Z"/>
        <path class="cls-15" d="M187.09,263.31s-.03,0-.05,0c-.48-.03-.84-.43-.81-.91l.29-5.22c.03-.48,.45-.84,.91-.81,.48,.03,.84,.43,.81,.91l-.29,5.22c-.03,.46-.41,.81-.86,.81Z"/>
        <path class="cls-15" d="M186.52,273.39s-.03,0-.05,0c-.44-.02-.78-.4-.76-.85l.27-4.88c.03-.45,.45-.78,.85-.76,.44,.02,.78,.4,.76,.85l-.27,4.88c-.02,.43-.38,.76-.8,.76Z"/>
        <path class="cls-15" d="M185.95,283.72s-.03,0-.05,0c-.44-.02-.78-.4-.76-.85l.27-4.88c.03-.45,.45-.8,.85-.76,.44,.02,.78,.4,.76,.85l-.27,4.88c-.02,.43-.38,.76-.8,.76Z"/>
        <path class="cls-15" d="M155.94,313.07c-.19,0-.39-.06-.55-.19-.39-.3-.46-.87-.16-1.26,6.18-7.94,14.25-14.43,23.32-18.79l25.43-12.2c.45-.22,.98-.03,1.2,.42,.21,.45,.03,.98-.42,1.2l-25.43,12.2c-8.82,4.24-16.67,10.56-22.68,18.28-.18,.23-.44,.35-.71,.35Z"/>
        <path class="cls-15" d="M132.26,350.43c-.15,0-.31-.04-.45-.12-.43-.25-.57-.8-.32-1.23,7.64-13.1,14.45-24.04,20.22-32.51,.28-.41,.84-.52,1.24-.24,.41,.28,.52,.84,.24,1.24-5.75,8.44-12.53,19.35-20.16,32.41-.17,.28-.47,.44-.78,.44Z"/>
        <path class="cls-15" d="M113.57,371.09c-.16,0-.33-.04-.47-.13-.28-.17-.44-.48-.42-.81l7.26-130.27c.11-1.88,1.41-3.46,3.23-3.92,13.6-3.48,60.28-16.77,90.21-41.56,.38-.31,.94-.26,1.26,.12,.32,.38,.26,.95-.12,1.26-30.21,25.03-77.22,38.41-90.9,41.92-1.06,.27-1.83,1.2-1.89,2.29l-7.16,128.58c3.92-2.46,7.39-5.52,10.32-9.12,.31-.38,.88-.44,1.26-.13,.38,.31,.44,.88,.13,1.26-3.42,4.2-7.54,7.7-12.25,10.4-.14,.08-.29,.12-.45,.12Z"/>
        <path class="cls-15" d="M362.09,303.95s-.03,0-.05,0c-.49-.03-.87-.45-.85-.94l2.81-50.45c.03-.49,.45-.9,.94-.85,.49,.03,.87,.45,.85,.94l-2.81,50.45c-.03,.48-.42,.85-.89,.85Z"/>
        <path class="cls-15" d="M365.45,243.52s-.03,0-.05,0c-.5-.03-.87-.45-.85-.94l1.02-18.15c.03-.5,.47-.87,.94-.85,.5,.03,.87,.45,.85,.94l-1.02,18.15c-.03,.48-.42,.85-.89,.85Z"/>
        <path class="cls-15" d="M360.57,241.94s-.03,0-.05,0c-.48-.03-.84-.43-.81-.91l.29-5.22c.03-.48,.45-.82,.91-.81,.48,.03,.84,.43,.81,.91l-.29,5.22c-.03,.46-.41,.81-.86,.81Z"/>
        <path class="cls-15" d="M360,252.24s-.03,0-.05,0c-.48-.02-.84-.43-.82-.91l.27-5.19c.03-.48,.43-.86,.91-.82,.48,.02,.84,.43,.82,.91l-.27,5.19c-.02,.46-.4,.82-.86,.82Z"/>
        <path class="cls-15" d="M359.41,262.56s-.03,0-.05,0c-.48-.03-.84-.43-.81-.91l.3-5.22c.03-.48,.45-.84,.91-.81,.48,.03,.84,.43,.81,.91l-.3,5.22c-.03,.46-.41,.81-.86,.81Z"/>
        <path class="cls-15" d="M358.85,272.88s-.03,0-.05,0c-.48-.03-.84-.43-.81-.91l.3-5.22c.03-.48,.45-.83,.91-.81,.48,.03,.84,.43,.81,.91l-.3,5.22c-.03,.46-.41,.81-.86,.81Z"/>
        <path class="cls-15" d="M358.28,282.97s-.03,0-.05,0c-.44-.02-.78-.41-.76-.85l.27-4.88c.03-.44,.4-.77,.85-.76,.44,.02,.78,.41,.76,.85l-.27,4.88c-.02,.43-.38,.76-.8,.76Z"/>
        <path class="cls-15" d="M357.71,293.29s-.03,0-.05,0c-.44-.02-.78-.4-.76-.85l.27-4.9c.03-.45,.43-.8,.85-.76,.44,.02,.78,.4,.76,.85l-.27,4.9c-.02,.43-.38,.76-.8,.76Z"/>
        <path class="cls-15" d="M419.93,388.24c-.19,0-.37-.06-.53-.17-6.29-4.59-11.25-10.8-14.34-17.95-5.06-11.66-12.6-28.35-19.77-41.65-5.26-9.72-12.99-17.95-22.37-23.8l-23.91-14.95c-.42-.26-.55-.82-.28-1.23,.26-.42,.81-.55,1.23-.28l23.91,14.95c9.64,6.01,17.59,14.47,23,24.47,7.2,13.35,14.76,30.09,19.84,41.79,2.74,6.35,7.01,11.92,12.42,16.2l4.81-86.4c.03-.49,.44-.89,.94-.85,.49,.03,.87,.45,.85,.94l-4.9,88.08c-.02,.33-.21,.62-.51,.76-.12,.06-.25,.09-.38,.09Z"/>
        <path class="cls-15" d="M425.6,287.48s-.03,0-.05,0c-.49-.03-.87-.45-.85-.94l1.66-29.49c.05-1.11-.62-2.11-1.67-2.49-13.24-5.03-58.52-23.6-85.7-51.76-.34-.36-.33-.92,.02-1.27,.36-.34,.92-.33,1.27,.02,26.93,27.89,71.89,46.33,85.03,51.32,1.78,.64,2.93,2.35,2.85,4.26l-1.66,29.5c-.03,.48-.42,.85-.89,.85Z"/>
        <path class="cls-15" d="M180.96,578.65c-.09,0-.18-.01-.26-.04-.47-.14-.74-.65-.6-1.12l50.13-164.12c.15-.47,.65-.74,1.12-.6,.47,.14,.74,.65,.6,1.12l-50.13,164.12c-.12,.39-.47,.64-.86,.64Z"/>
        <path class="cls-15" d="M320.05,597.02c-.42,0-.79-.29-.88-.72l-36.91-182.49c-.1-.49,.22-.96,.7-1.05,.48-.11,.96,.21,1.06,.7l36.91,182.49c.1,.49-.22,.96-.7,1.05-.06,.01-.12,.02-.18,.02Z"/>
        <path class="cls-15" d="M221.45,496.43c-.1,0-.21-.01-.31-.04-.6-.17-.95-.8-.78-1.4l14.24-49.36c.18-.6,.8-.95,1.4-.78,.6,.17,.95,.8,.78,1.4l-14.24,49.36c-.14,.5-.6,.82-1.09,.82Z"/>
        <path class="cls-15" d="M203.03,556.43c-.1,0-.21-.01-.31-.04-.6-.18-.95-.8-.78-1.4l6.94-24.02c.18-.6,.8-.95,1.4-.78,.6,.18,.95,.8,.78,1.4l-6.94,24.02c-.14,.5-.6,.82-1.09,.82Z"/>
        <path class="cls-15" d="M79.63,591.68c-.4,0-.79-.21-.99-.58L3.78,455.72c-.3-.55-.1-1.24,.44-1.54,.55-.3,1.24-.1,1.54,.44l74.86,135.38c.3,.55,.1,1.24-.44,1.54-.18,.1-.36,.14-.55,.14Z"/>
        <path class="cls-15" d="M112.86,573.31c-.4,0-.79-.21-.99-.58L37.01,437.35c-.3-.55-.1-1.24,.44-1.54,.55-.3,1.24-.1,1.54,.44l74.86,135.38c.3,.55,.1,1.24-.44,1.54-.18,.1-.36,.14-.55,.14Z"/>
        <path class="cls-15" d="M62.48,481.72c-.09,0-.18-.02-.27-.06l-57.71-25.88c-.34-.15-.49-.55-.34-.89,.15-.34,.55-.48,.88-.34l57.71,25.88c.34,.15,.49,.55,.34,.89-.11,.25-.36,.39-.61,.39Z"/>
        <path class="cls-15" d="M29.23,500.09s-.06,0-.09,0c-.37-.05-.62-.39-.57-.76l8.78-62.63c.05-.37,.39-.62,.76-.57,.37,.05,.62,.39,.57,.76l-8.78,62.63c-.05,.33-.33,.58-.66,.58Z"/>
        <path class="cls-15" d="M86.94,525.98c-.09,0-.18-.02-.27-.06l-57.71-25.88c-.34-.15-.49-.55-.34-.89,.15-.34,.55-.49,.88-.34l57.71,25.88c.34,.15,.49,.55,.34,.89-.11,.25-.36,.39-.61,.39Z"/>
        <path class="cls-15" d="M53.7,544.35s-.06,0-.09,0c-.37-.05-.62-.39-.57-.76l8.78-62.63c.05-.37,.39-.62,.76-.57,.37,.05,.62,.39,.57,.76l-8.78,62.63c-.05,.33-.33,.58-.66,.58Z"/>
        <path class="cls-15" d="M110.66,568.87c-.09,0-.18-.02-.27-.06l-57.71-25.88c-.34-.15-.49-.55-.34-.89,.15-.34,.55-.49,.88-.34l57.71,25.88c.34,.15,.49,.55,.34,.89-.11,.25-.36,.39-.61,.39Z"/>
        <path class="cls-15" d="M77.43,587.25s-.06,0-.09,0c-.37-.05-.62-.39-.57-.76l8.78-62.63c.05-.37,.39-.62,.76-.57,.37,.05,.62,.39,.57,.76l-8.78,62.63c-.05,.33-.33,.58-.66,.58Z"/>
        <path class="cls-15" d="M419.3,571.49c-.09,0-.17,0-.26-.03-.61-.14-.99-.75-.85-1.36l49.2-211.57c.14-.61,.75-.99,1.36-.85,.61,.14,.99,.75,.85,1.36l-49.2,211.57c-.12,.52-.59,.88-1.1,.88Z"/>
        <path class="cls-15" d="M471.24,583.56c-.09,0-.17,0-.26-.03-.61-.14-.99-.75-.85-1.36l49.2-211.55c.14-.61,.75-1,1.36-.85,.61,.14,.99,.75,.85,1.36l-49.2,211.55c-.12,.52-.59,.88-1.1,.88Z"/>
        <path class="cls-15" d="M504.36,440.69c-.26,0-.5-.15-.61-.4l-35.86-81.23c-.15-.34,0-.73,.34-.88,.33-.15,.73,0,.88,.34l35.86,81.23c.15,.34,0,.73-.34,.88-.09,.04-.18,.06-.27,.06Z"/>
        <path class="cls-15" d="M452.42,428.62c-.19,0-.38-.08-.51-.24-.24-.28-.2-.7,.08-.94l68.03-57.07c.28-.24,.7-.2,.94,.08,.24,.28,.2,.7-.08,.94l-68.03,57.07c-.13,.11-.28,.16-.43,.16Z"/>
        <path class="cls-15" d="M488.28,509.85c-.26,0-.5-.15-.61-.4l-35.86-81.23c-.15-.34,0-.73,.34-.88,.33-.16,.73,0,.88,.34l35.86,81.23c.15,.34,0,.73-.34,.88-.09,.04-.18,.06-.27,.06Z"/>
        <path class="cls-15" d="M436.33,497.78c-.19,0-.38-.08-.51-.24-.24-.28-.2-.7,.08-.94l68.03-57.09c.28-.24,.7-.2,.94,.08,.24,.28,.2,.7-.08,.94l-68.03,57.09c-.13,.11-.28,.16-.43,.16Z"/>
        <path class="cls-15" d="M472.67,576.9c-.26,0-.5-.15-.61-.4l-35.86-81.23c-.15-.34,0-.73,.34-.88,.33-.15,.73,0,.88,.34l35.86,81.23c.15,.34,0,.73-.34,.88-.09,.04-.18,.06-.27,.06Z"/>
        <path class="cls-15" d="M420.73,564.81c-.19,0-.38-.08-.51-.24-.24-.28-.2-.7,.08-.94l68.03-57.07c.28-.24,.7-.2,.94,.08,.24,.28,.2,.7-.08,.94l-68.03,57.07c-.13,.11-.28,.16-.43,.16Z"/>
        <path class="cls-15" d="M297.64,546.97c-.54,0-1.02-.39-1.12-.93l-2.56-14.31c-.11-.62,.3-1.21,.92-1.32,.63-.1,1.21,.3,1.32,.92l2.56,14.31c.11,.62-.3,1.21-.92,1.32-.07,.01-.14,.02-.2,.02Z"/>
        <path class="cls-15" d="M292.72,519.57c-.54,0-1.02-.39-1.12-.93l-13.66-75.81c-.11-.62,.3-1.21,.91-1.32,.62-.1,1.21,.3,1.32,.91l13.66,75.81c.11,.62-.3,1.21-.91,1.32-.07,.01-.14,.02-.2,.02Z"/>
        <path class="cls-15" d="M304.06,581.16c-.56,0-1.05-.42-1.12-.99l-2.09-16.35c-.08-.62,.36-1.19,.98-1.27,.63-.08,1.19,.36,1.27,.98l2.09,16.35c.08,.62-.36,1.19-.98,1.27-.05,0-.1,0-.15,0Z"/>
        <path class="cls-15" d="M273.39,515.65c-.56,0-1.05-.41-1.12-.98l-7.76-57.16c-.08-.62,.35-1.19,.97-1.28,.63-.1,1.19,.35,1.28,.97l7.76,57.16c.08,.62-.35,1.19-.97,1.28-.05,0-.1,.01-.15,.01Z"/>
        <path class="cls-15" d="M277.27,549.31c-.57,0-1.06-.43-1.13-1l-1.45-12.48c-.07-.62,.37-1.19,1-1.26,.62-.06,1.19,.37,1.26,1l1.45,12.48c.07,.62-.37,1.19-1,1.26-.04,0-.09,0-.13,0Z"/>
        <path class="cls-15" d="M361.43,621.87c-.39,0-.76-.19-.97-.55-8.47-14.08-23.15-22.53-41.35-23.79-20.99-1.45-42.23,7.14-54.15,21.9-.39,.49-1.11,.56-1.59,.17-.49-.39-.56-1.11-.17-1.59,12.37-15.31,34.37-24.26,56.07-22.73,18.96,1.31,34.28,10.15,43.14,24.88,.32,.54,.15,1.23-.39,1.56-.18,.11-.38,.16-.58,.16Z"/>
        <path class="cls-15" d="M361.43,616.27c-.21,0-.42-.06-.61-.18-.53-.34-.68-1.04-.34-1.57,.33-.51,33.92-51.21,93.36-28.48,.58,.22,.88,.88,.65,1.46-.22,.59-.88,.88-1.46,.65-57.7-22.07-90.33,27.09-90.65,27.59-.22,.33-.58,.52-.95,.52Z"/>
        <path class="cls-15" d="M497.22,643.81c-.63,0-1.13-.51-1.13-1.13,0-36.62-35.25-52.04-35.6-52.19-.58-.24-.85-.91-.6-1.49,.24-.58,.9-.85,1.49-.6,.37,.16,36.99,16.14,36.99,54.28,0,.63-.51,1.13-1.13,1.13Z"/>
        <path class="cls-15" d="M525.03,665.49c-.47,0-.9-.29-1.07-.75-9.56-26.66-36.87-20.3-38.02-20.01-.61,.14-1.22-.22-1.37-.83-.15-.61,.22-1.22,.83-1.37,.3-.07,30.44-7.15,40.7,21.45,.21,.59-.1,1.24-.68,1.45-.13,.04-.26,.07-.38,.07Z"/>
        <path class="cls-15" d="M34.01,414.34H3.41c-.51,0-.93-.42-.93-.93s.42-.93,.93-.93h30.6c.51,0,.93,.42,.93,.93s-.42,.93-.93,.93Z"/>
        <path class="cls-15" d="M163.47,417.24h-15.88c-.5,0-.9-.39-.93-.88,0-.09-.48-8.75-4.48-17.27-5.29-11.27-13.93-16.98-25.69-16.98-28.13,0-30.73,21.74-30.83,22.67-.03,.28-.18,.53-.42,.69-.24,.15-.53,.18-.8,.1-14.69-5-19.5,7.63-19.7,8.17-.13,.37-.48,.61-.87,.61h-15.29c-.51,0-.93-.42-.93-.93s.42-.93,.93-.93h14.68c1.24-2.68,7-13.09,20.74-9.01,.96-4.78,6.38-23.22,32.49-23.22s31.41,29.6,31.96,35.14h15.02c.51,0,.93,.42,.93,.93s-.42,.93-.93,.93Z"/>
        <path class="cls-15" d="M424.47,426.98h-20.37c-.5,0-.9-.4-.9-.89s.4-.89,.9-.89h20.37c.5,0,.9,.4,.9,.89s-.4,.89-.9,.89Z"/>
        <path class="cls-15" d="M328.49,428.91h-10.8c-.5,0-.9-.4-.9-.89s.4-.89,.9-.89h9.98c.46-4.3,3.52-23.39,21.51-23.39,17,0,21,11.6,21.85,15.31,2.66-.86,5.51-.71,8.09,.44,2.57,1.15,4.57,3.16,5.71,5.71h9.59c.5,0,.9,.4,.9,.89s-.4,.89-.9,.89h-10.19c-.37,0-.7-.23-.84-.58-.91-2.37-2.68-4.25-5-5.29-2.32-1.04-4.9-1.11-7.28-.2-.14,.05-.27,.1-.4,.16-.27,.12-.56,.1-.81-.04-.25-.14-.41-.4-.44-.68-.06-.6-1.8-14.83-20.27-14.83s-19.78,22.31-19.79,22.54c-.02,.48-.42,.85-.89,.85Z"/>
        <path class="cls-15" d="M234.81,105.17c-.08,0-.17-.01-.25-.04-.44-.14-.68-.6-.54-1.04l.95-2.99c.14-.43,.6-.67,1.04-.54,.44,.14,.68,.6,.54,1.04l-.95,2.99c-.11,.35-.44,.58-.79,.58Z"/>
        <path class="cls-15" d="M218.84,167.88c-.08,0-.15,0-.23-.02-.61-.13-1.01-.72-.88-1.34l.66-3.22c.13-.61,.73-1.01,1.34-.88,.61,.13,1.01,.72,.88,1.34l-.66,3.22c-.11,.54-.58,.91-1.11,.91Z"/>
        <circle class="cls-15" cx="129.01" cy="355.07" r="1.22"/>
        <path class="cls-17" d="M313.84,60.34s-.04,0-.06,0l-43.85-2.52c-.63-.04-1.1-.57-1.07-1.2,.04-.62,.56-1.1,1.2-1.07l42.12,2.42-3.94-10.7c-.22-.59,.08-1.24,.67-1.46,.58-.21,1.24,.08,1.46,.67l4.54,12.32c.13,.36,.07,.76-.15,1.07-.21,.29-.55,.46-.91,.46Z"/>
        <path class="cls-15" d="M320.23,327.83c-.34,0-.69,0-1.03-.03l-99.6-5.53c-10.17-.58-18.09-9.33-17.65-19.51,.52-12.32,1.94-37.73,5.56-69.38,.07-.62,.64-1.09,1.25-1,.62,.07,1.07,.63,1,1.25-3.61,31.58-5.03,56.92-5.55,69.22-.38,8.94,6.58,16.64,15.51,17.15l99.6,5.53c8.91,.51,16.7-6.37,17.31-15.3,1.92-27.94,4.29-83.66-1.34-143.01-6.79-71.63-22.93-126.87-47.97-164.23-19.42,22.92-35.94,54.71-49.13,94.53-.2,.59-.84,.91-1.43,.72-.59-.2-.92-.84-.72-1.43,13.5-40.76,30.5-73.2,50.53-96.43,.23-.27,.57-.39,.92-.39,.35,.02,.67,.2,.87,.49,25.74,37.69,42.29,93.72,49.19,166.52,5.64,59.51,3.26,115.37,1.34,143.38-.67,9.82-8.94,17.44-18.67,17.44Z"/>
        <path class="cls-15" d="M309.03,43.26s-.03,0-.05,0l-14.68-.82c-.46-.03-.82-.42-.79-.88,.03-.46,.46-.8,.88-.79l14.68,.82c.46,.03,.82,.42,.79,.88-.03,.45-.4,.79-.84,.79Z"/>
        <path class="cls-15" d="M291.16,42.26s-.03,0-.05,0l-15.92-.88c-.46-.03-.82-.42-.79-.88,.03-.46,.44-.81,.88-.79l15.92,.88c.46,.03,.82,.42,.79,.88-.03,.45-.4,.79-.84,.79Z"/>
        <path class="cls-15" d="M270.54,41.1s-.03,0-.05,0l-9.16-.5c-.46-.03-.82-.42-.79-.88s.43-.8,.88-.79l9.16,.5c.46,.03,.82,.42,.79,.88-.02,.45-.4,.79-.84,.79Z"/>
        <path class="cls-15" d="M315.13,61.47s-.03,0-.05,0l-61.74-3.42c-.46-.03-.82-.42-.79-.88,.03-.46,.41-.79,.88-.79l61.74,3.42c.46,.03,.82,.42,.79,.88-.03,.45-.4,.79-.84,.79Z"/>
        <circle class="cls-4" cx="274.1" cy="241.83" r="43.05"/>
        <path class="cls-16" d="M294.61,233.19h0c-.67-.27-1.32-.52-1.97-.75,.14-.43,.27-.88,.39-1.34,1.93-7.26,1.27-13.25-2-15.38s-8.53-.39-14.13,3.97l-1.61,1.34-1-1.02c-5.31-5.29-10.8-7.69-14.29-5.92s-4.54,7.19-3.63,14.25c0,.68,.23,1.38,.36,2.06-.82,.18-1.59,.39-2.27,.61-6.81,1.93-11.09,5.29-11.34,9.07s4.08,7.96,10.77,10.68c.54,.23,1.09,.43,1.66,.61-.23,.73-.43,1.45-.61,2.27-1.68,6.81-.98,12.25,2.15,14.29s8.91,.45,14.61-4.02c.45-.34,.91-.73,1.36-1.11,.52,.54,1.04,1.09,1.59,1.61,5.04,4.85,10.12,6.96,13.45,5.29,3.33-1.68,4.83-7.53,3.83-14.7,0-.54-.18-1.11-.29-1.68l1.18-.29c7.24-1.97,12.07-5.53,12.29-9.44s-3.95-7.69-10.5-10.41Zm-16.08-11.34c4.81-3.72,9.07-5.06,11.05-3.83h0c2.02,1.32,2.54,6.19,.88,12.48,0,.41-.23,.82-.34,1.22-2.7-.77-5.44-1.36-8.21-1.77-1.47-2.38-3.1-4.65-4.88-6.81,.5-.43,.98-.84,1.5-1.25v-.05Zm-17.31,22.43c.5,1.13,1.04,2.27,1.59,3.31s1.16,2.27,1.77,3.31c-1.91-.31-3.8-.73-5.67-1.25,.67-1.78,1.44-3.6,2.31-5.44v.07Zm.36-6.24c-.66-1.8-1.22-3.63-1.68-5.49,1.79-.29,3.7-.5,5.67-.64-.7,.98-1.41,2-2.06,3.02s-1.32,2.06-1.95,3.11h.02Zm1.22,3.2c.91-1.66,1.88-3.27,2.93-4.85h0c1.01-1.59,2.1-3.1,3.27-4.54h5.65c1.91,0,3.81,.29,5.65,.54,.95,1.61,1.86,3.27,2.72,4.95s1.63,3.38,2.27,5.13c-.91,1.66-1.91,3.29-2.93,4.88h0c-1.04,1.59-2.11,3.13-3.24,4.54h-5.69c-1.93,0-3.81-.27-5.6-.5-.98-1.63-1.91-3.29-2.77-4.99s-1.63-3.4-2.27-5.15h.02Zm21.87,7.55c.7-1.04,1.36-2.11,2-3.18h0c.68,1.83,1.28,3.69,1.77,5.58-1.93,.32-3.88,.54-5.83,.66,.7-1.07,1.41-2.09,2.06-3.13v.07Zm2.27-9.32c-.52-1.13-1.04-2.27-1.61-3.33h0c-.54-1.09-1.11-2.15-1.72-3.22,1.97,.36,3.86,.82,5.6,1.32-.61,1.68-1.38,3.45-2.22,5.17l-.05,.07Zm-11.93-14.59h0c1.22,1.45,2.35,2.96,3.4,4.54-2.43-.25-4.88-.39-7.33-.41,1.34-1.52,2.65-2.93,3.97-4.2l-.05,.07Zm-13.84-8.37c2.13-1.09,6.62,.88,11.21,5.44l.88,.93c-2,1.94-3.86,4.02-5.58,6.22-2.8,.11-5.58,.39-8.35,.84-.14-.64-.23-1.29-.32-1.93h0c-.84-6.08,.18-10.55,2.2-11.57l-.05,.07Zm-4.83,32.28c-.5-.16-1-.36-1.5-.57-2.58-.97-4.95-2.41-7.01-4.24-1.2-.92-1.97-2.3-2.11-3.81,.14-2.27,3.65-4.97,9.37-6.62l2.27-.54c.68,2.72,1.54,5.4,2.59,8.01-1.37,2.51-2.57,5.11-3.61,7.78Zm13.61,12.91c-2.13,1.75-4.56,3.1-7.17,3.97h0c-1.39,.61-2.97,.61-4.36,0-1.91-1.22-2.47-5.65-1.04-11.34,.18-.68,.36-1.36,.57-2.04,2.72,.75,5.5,1.31,8.3,1.68,1.5,2.37,3.15,4.65,4.95,6.81l-1.25,.93Zm3.2-2.84c-1.18-1.43-2.27-2.99-3.47-4.67,1.18,.11,2.38,.2,3.61,.27h3.77c-1.22,1.5-2.54,2.93-3.9,4.29v.11Zm15.88,4.54c-.2,1.51-1.02,2.87-2.27,3.74-2.02,1.02-6.12-.68-10.41-4.81-.48-.48-.98-.98-1.47-1.52,2-1.97,3.85-4.08,5.56-6.31,2.84-.09,5.68-.37,8.48-.84,0,.52,.18,1.02,.25,1.52h0c.48,2.73,.46,5.53-.05,8.26l-.09-.05Zm2.97-13.11h0l-1.04,.25c-.73-2.73-1.63-5.41-2.7-8.03,1.32-2.45,2.47-4.99,3.45-7.6l1.81,.68c5.63,2.27,8.96,5.42,8.82,7.69s-3.99,5.35-10.25,7.05l-.09-.05Z"/>
        <path class="cls-16" d="M273.78,247.25c3.06,.18,5.7-2.15,5.88-5.22,.18-3.06-2.15-5.7-5.22-5.88-3.06-.18-5.68,2.14-5.88,5.2h0c-.18,3.06,2.15,5.69,5.22,5.88v.02Z"/>
        <path class="cls-15" d="M232.07,230.41c-.08,0-.17-.01-.25-.04-.48-.14-.75-.64-.61-1.11,1.91-6.53,5.35-12.63,9.95-17.64,.34-.36,.9-.39,1.27-.05,.36,.33,.39,.9,.05,1.27-4.42,4.81-7.72,10.67-9.55,16.93-.11,.39-.47,.64-.86,.64Z"/>
        <path class="cls-15" d="M274.1,286.37c-14.15,0-28.07-6.7-36.72-19.17-6.83-9.85-9.42-22.24-7.12-34,.1-.49,.56-.8,1.05-.71,.49,.1,.8,.57,.71,1.05-2.21,11.28,.28,23.18,6.83,32.63,13.45,19.4,40.18,24.24,59.58,10.79,19.4-13.45,24.24-40.18,10.79-59.58-13.45-19.4-40.18-24.24-59.58-10.79-.41,.28-.96,.18-1.25-.23-.28-.41-.18-.96,.23-1.25,20.21-14.01,48.06-8.97,62.07,11.24,6.79,9.79,9.36,21.64,7.24,33.37-2.12,11.72-8.68,21.92-18.48,28.71-7.73,5.36-16.59,7.93-25.35,7.93Z"/>
        <path class="cls-15" d="M573.07,665.46H.9c-.5,0-.9-.4-.9-.89s.4-.89,.9-.89H573.07c.5,0,.9,.4,.9,.89s-.4,.89-.9,.89Z"/>
        <path class="cls-15" d="M110.96,635c-.33,0-.64-.18-.8-.49-7.88-15.39-25.57-20.27-25.75-20.32-.48-.13-.76-.62-.63-1.1,.13-.48,.61-.76,1.1-.64,.76,.2,18.63,5.12,26.88,21.24,.23,.44,.05,.98-.39,1.21-.13,.07-.27,.1-.41,.1Z"/>
        <path class="cls-4" d="M196.99,630.46c-.85,0-1.71-.24-2.47-.74-2.1-1.36-2.69-4.16-1.34-6.26,.46-.71,11.49-17.43,30.75-18.62,2.51-.17,4.65,1.75,4.81,4.25,.16,2.5-1.75,4.65-4.25,4.81-14.62,.91-23.61,14.37-23.7,14.51-.87,1.33-2.32,2.05-3.81,2.05Z"/>
        <path class="cls-15" d="M193.73,625.63c-.16,0-.32-.04-.47-.14-.42-.26-.55-.81-.29-1.23,9.56-15.43,27.69-18.94,28.46-19.08,.49-.08,.95,.23,1.04,.72,.09,.49-.23,.95-.72,1.05-.18,.03-18.13,3.52-27.26,18.26-.17,.27-.46,.43-.76,.43Z"/>
        <path class="cls-15" d="M284.19,665.58c-.51,0-.93-.4-.95-.91-.45-10.63-3.3-21.22-8.26-30.63-11.96-21.28-34.57-31.89-56.24-26.38-.38,.1-.78-.05-1.01-.37-14.75-20.35-36.49-32.02-59.66-32.02-26.83,0-51.31,15.44-65.49,41.31-.25,.45-.8,.62-1.25,.4-6.13-3.01-12.98-4.6-19.82-4.62-29.14,0-50.29,21.98-50.29,52.26,0,.53-.43,.95-.95,.95s-.95-.43-.95-.95c0-31.39,21.95-54.17,52.19-54.17,6.82,.02,13.66,1.54,19.83,4.42,14.59-26.01,39.47-41.51,66.73-41.51,23.58,0,45.72,11.76,60.82,32.29,22.33-5.37,45.47,5.61,57.76,27.47,5.1,9.68,8.03,20.55,8.49,31.46,.02,.53-.39,.97-.91,.99h-.04Z"/>
        <path class="cls-15" d="M394.82,649.66c-.25,0-.51-.08-.72-.25-20.43-16.64-40.56-12.5-40.76-12.45-.3,.07-.62,0-.88-.17-.26-.18-.43-.45-.48-.75-3.36-20.15-29.87-26.94-30.14-27.01-.61-.15-.98-.77-.83-1.37,.15-.61,.77-.98,1.37-.83,1.13,.28,27.29,6.99,31.62,27.71,4.71-.71,22.79-2.14,41.52,13.11,.49,.4,.56,1.11,.16,1.59-.22,.28-.55,.42-.88,.42Z"/>
        <circle class="cls-15" cx="245.13" cy="209.12" r="1.22"/>
        <path class="cls-15" d="M23.74,459.68c-.4,0-.8-.22-1-.6-.3-.55-.09-1.24,.46-1.54l27.77-14.95c.55-.29,1.24-.09,1.54,.46,.3,.55,.09,1.24-.46,1.54l-27.77,14.95c-.17,.09-.35,.14-.54,.14Z"/>
        <path class="cls-15" d="M28.87,466.08c-.4,0-.8-.22-1-.6-.3-.55-.09-1.24,.46-1.54l27.76-14.95c.55-.29,1.24-.09,1.54,.46,.3,.55,.09,1.24-.46,1.54l-27.76,14.95c-.17,.09-.35,.14-.54,.14Z"/>
        <path class="cls-15" d="M525.6,393.49c-.1,0-.2-.01-.3-.04l-30.44-8.21c-.6-.16-.96-.79-.8-1.39,.16-.6,.78-.96,1.39-.8l30.44,8.21c.6,.16,.96,.79,.8,1.39-.14,.51-.59,.84-1.09,.84Z"/>
        <path class="cls-15" d="M526.21,403.29c-.1,0-.2-.01-.3-.04l-30.44-8.19c-.6-.16-.96-.79-.8-1.39,.16-.6,.79-.96,1.39-.8l30.44,8.19c.6,.16,.96,.78,.8,1.39-.14,.51-.59,.84-1.09,.84Z"/>
        <path class="cls-13" d="M234.68,566.07c-.09,0-.18,0-.26-.02-1.24-.14-2.14-1.27-1.99-2.51l1.93-16.65c.14-1.24,1.29-2.15,2.51-1.99,1.24,.14,2.14,1.27,1.99,2.51l-1.93,16.65c-.13,1.16-1.11,2.01-2.25,2.01Z"/>
        <path class="cls-13" d="M238.38,533.29c-.1,0-.19,0-.29-.02-1.24-.16-2.12-1.29-1.96-2.54l11.68-92.12c.16-1.24,1.29-2.1,2.54-1.96,1.24,.16,2.12,1.29,1.96,2.54l-11.68,92.12c-.15,1.15-1.12,1.98-2.25,1.98Z"/>
        <path class="cls-15" d="M169.57,299.53s-.04,0-.06,0c-.49-.03-.87-.46-.83-.95l1.91-27.97c.03-.5,.47-.87,.95-.83,.49,.03,.87,.46,.83,.95l-1.91,27.97c-.03,.47-.43,.84-.89,.84Z"/>
        <path class="cls-15" d="M175.86,417.27h-5.44c-.51,0-.93-.42-.93-.93s.42-.93,.93-.93h5.44c.51,0,.93,.42,.93,.93s-.42,.93-.93,.93Z"/>
        <path class="cls-15" d="M313.77,428.95h-5.44c-.51,0-.93-.42-.93-.93s.42-.93,.93-.93h5.44c.51,0,.93,.42,.93,.93s-.42,.93-.93,.93Z"/>
      </g>
    </g>
  </g>
</svg>