<?xml version="1.0" standalone="no"?>
<!DOCTYPE svg PUBLIC "-//W3C//DTD SVG 20010904//EN"
 "http://www.w3.org/TR/2001/REC-SVG-20010904/DTD/svg10.dtd">
<svg version="1.0" xmlns="http://www.w3.org/2000/svg"
 width="700.000000pt" height="700.000000pt" viewBox="0 0 700.000000 700.000000"
 preserveAspectRatio="xMidYMid meet">
<metadata>
Created by potrace 1.14, written by Peter Selinger 2001-2017
</metadata>
<g transform="translate(0.000000,700.000000) scale(0.100000,-0.100000)"
fill="#000000" stroke="none">
<path d="M4380 5804 c-109 -22 -200 -55 -254 -92 -44 -30 -459 -360 -500 -397
-6 -6 -99 -80 -206 -165 -107 -85 -204 -162 -215 -172 -17 -14 -62 -50 -225
-181 -8 -7 -96 -77 -195 -157 -263 -211 -346 -277 -385 -310 -19 -16 -40 -30
-46 -30 -6 0 -29 16 -50 36 -180 166 -271 198 -442 154 -124 -32 -200 -71
-261 -131 -159 -160 -164 -407 -11 -584 22 -25 40 -50 40 -55 0 -4 -50 -48
-111 -96 -61 -49 -116 -94 -123 -99 -6 -6 -78 -64 -161 -130 -82 -66 -156
-126 -164 -133 -8 -7 -24 -20 -37 -28 -38 -26 -104 -119 -126 -180 -82 -226
43 -473 274 -546 82 -25 153 -23 267 8 122 34 165 56 277 146 50 40 108 87
129 103 20 17 131 106 247 198 189 153 211 167 226 154 58 -50 341 -205 523
-286 246 -108 573 -208 804 -245 54 -8 169 -25 205 -30 153 -21 581 -28 750
-13 119 11 166 16 195 21 27 5 18 31 164 -444 148 -483 173 -560 211 -635 88
-179 249 -295 410 -295 73 0 237 48 290 85 53 37 106 103 136 170 33 77 39
112 38 240 0 90 -6 127 -28 200 -15 50 -36 117 -46 150 -10 33 -42 134 -70
225 -29 91 -56 179 -61 195 -11 41 -40 137 -83 274 l-36 113 58 97 c33 53 118
194 190 313 73 119 132 222 132 228 0 5 -6 10 -12 11 -7 0 -20 2 -28 4 -393
92 -590 142 -590 150 0 6 -11 44 -24 85 -13 41 -43 136 -66 210 -23 74 -45
146 -50 160 -5 14 -26 84 -48 155 -118 384 -204 663 -212 685 -4 14 -27 86
-50 160 -128 417 -143 448 -269 577 -105 106 -249 155 -381 127z m-130 -1364
c23 -74 62 -200 87 -280 62 -201 128 -414 170 -550 19 -63 41 -134 48 -157 12
-37 12 -42 -4 -46 -21 -5 -398 0 -451 6 -19 3 -62 8 -95 11 -33 4 -67 9 -75
11 -8 3 -32 7 -54 11 -233 36 -591 164 -774 276 l-32 20 102 81 c57 45 108 86
114 92 6 5 29 24 50 40 21 17 110 88 199 160 88 71 165 133 170 137 6 4 51 40
100 80 171 136 250 200 290 233 22 18 51 42 65 53 l25 20 12 -31 c6 -18 30
-93 53 -167z"/>
</g>
</svg>
